<?xml version="1.0" standalone="no"?>
<!DOCTYPE svg PUBLIC "-//W3C//DTD SVG 20010904//EN"
 "http://www.w3.org/TR/2001/REC-SVG-20010904/DTD/svg10.dtd">
<svg version="1.0" xmlns="http://www.w3.org/2000/svg"
 width="8194.000000pt" height="6152.000000pt" viewBox="0 0 8194.000000 6152.000000"
 preserveAspectRatio="xMidYMid meet">
<metadata>
Created by potrace 1.16, written by Peter Selinger 2001-2019
</metadata>
<g transform="translate(0.000000,6152.000000) scale(0.100000,-0.100000)"
fill="#000000" stroke="none">
<path d="M8290 59418 c-773 -1151 -1574 -2344 -1780 -2653 l-375 -560 1 -975
c0 -536 4 -1002 8 -1035 39 -330 177 -610 410 -831 265 -253 588 -380 951
-373 207 4 384 47 570 139 144 71 260 157 376 277 168 174 272 365 342 627 21
80 21 96 27 1131 l5 1050 1614 2610 c888 1436 1625 2627 1638 2648 l23 37
-1202 0 -1203 -1 -1405 -2091z"/>
<path d="M14295 61403 c-67 -126 -115 -214 -160 -298 -18 -33 -53 -98 -78
-145 -25 -47 -399 -746 -832 -1555 -774 -1444 -1343 -2507 -1432 -2675 -25
-47 -58 -107 -73 -135 -29 -53 -60 -111 -154 -287 l-57 -107 4 -1023 c3 -1012
3 -1024 25 -1120 91 -401 333 -721 692 -915 310 -168 734 -197 1075 -76 385
138 691 449 820 836 69 207 68 180 69 1302 l2 1010 1197 2642 c658 1453 1197
2644 1197 2647 0 3 -504 6 -1119 6 l-1119 0 -57 -107z"/>
<path d="M18792 61348 c-33 -90 -122 -329 -197 -533 -75 -203 -179 -482 -230
-620 -83 -224 -144 -387 -415 -1120 -43 -115 -131 -352 -195 -525 -64 -173
-147 -398 -185 -500 -38 -102 -119 -320 -180 -485 -62 -165 -130 -349 -152
-410 -22 -60 -53 -144 -68 -185 -16 -41 -67 -178 -113 -305 -47 -126 -105
-282 -129 -345 l-43 -115 1 -1000 c1 -1042 1 -1047 45 -1220 92 -362 362 -689
704 -856 205 -99 356 -133 595 -133 182 -1 266 13 425 65 406 135 728 464 854
874 60 197 60 185 61 1282 l0 1002 96 333 c53 183 343 1190 645 2238 302 1048
601 2083 664 2301 63 218 115 402 115 408 0 8 -301 11 -1119 11 l-1118 0 -61
-162z"/>
<path d="M23342 61458 c-7 -29 -253 -1223 -547 -2653 l-535 -2600 0 -1000 c1
-935 2 -1007 20 -1103 73 -400 308 -736 655 -935 315 -181 711 -225 1060 -117
453 141 783 490 912 965 l28 100 5 1070 6 1070 72 570 c40 314 97 770 128
1015 51 419 87 706 219 1775 30 245 80 646 110 893 97 786 115 926 121 965 l6
37 -1125 0 -1124 0 -11 -52z"/>
<path d="M27849 61458 c-1 -29 -3 -69 -4 -88 -1 -19 -5 -118 -9 -220 -4 -102
-9 -221 -11 -265 -2 -44 -7 -150 -10 -235 -3 -85 -8 -195 -10 -245 -2 -49 -7
-155 -10 -235 -3 -80 -8 -190 -10 -245 -3 -55 -7 -161 -10 -235 -11 -284 -15
-379 -20 -490 -3 -63 -7 -176 -10 -250 -3 -74 -7 -182 -10 -240 -2 -58 -7
-168 -10 -245 -3 -77 -7 -183 -10 -235 -2 -52 -7 -162 -10 -245 -3 -82 -8
-193 -10 -245 -2 -52 -7 -162 -10 -245 -3 -82 -8 -190 -10 -240 -2 -49 -7
-164 -10 -255 -3 -91 -8 -192 -10 -225 -15 -222 -20 -599 -20 -1525 0 -968 1
-1064 18 -1160 17 -101 18 -1079 20 -23520 1 -12878 5 -23426 9 -23440 3 -14
9 -61 13 -105 38 -480 183 -1089 378 -1590 277 -713 735 -1425 1262 -1965 641
-656 1346 -1124 2170 -1440 411 -158 934 -291 1310 -335 28 -3 61 -8 75 -10
40 -8 211 -24 333 -32 153 -11 21289 -10 21450 0 70 5 138 10 150 12 12 2 51
6 87 10 36 3 79 8 95 10 889 118 1699 409 2435 875 111 70 111 70 115 121 2
24 6 80 10 124 3 44 8 103 10 130 3 28 7 79 10 115 8 105 16 202 20 250 2 25
7 79 10 120 3 41 8 98 10 125 3 28 7 84 10 125 3 41 8 95 10 120 2 25 7 81 10
125 4 44 8 96 10 116 2 19 7 76 10 125 3 49 8 107 11 129 2 22 7 72 9 110 3
39 7 95 10 125 5 58 12 140 20 243 8 100 16 199 20 247 2 25 7 79 10 120 3 41
8 95 10 120 2 25 7 79 10 120 3 41 8 95 10 120 2 25 6 83 10 130 4 47 9 103
10 125 2 22 7 78 10 125 3 47 8 101 11 120 2 19 6 78 10 130 3 52 8 98 11 102
2 5 0 8 -4 8 -5 0 -24 -37 -42 -83 -51 -126 -199 -408 -289 -550 -456 -717
-1127 -1262 -1915 -1556 -330 -123 -711 -205 -1062 -229 -145 -9 -21025 -9
-21175 1 -1247 81 -2382 780 -3033 1868 -188 314 -342 689 -428 1043 -31 130
-74 371 -84 476 -4 36 -10 76 -13 90 -4 14 -8 10364 -9 23000 l-3 22975 61 50
c113 92 250 266 322 410 66 131 119 308 134 445 10 89 9 2059 0 2275 -14 305
-26 567 -32 735 -3 74 -7 185 -10 245 -3 61 -7 171 -10 245 -3 74 -8 180 -10
235 -2 55 -7 165 -10 245 -3 80 -7 190 -10 245 -3 55 -7 165 -10 245 -3 80 -7
190 -10 245 -3 55 -7 161 -10 235 -3 74 -7 185 -10 245 -3 61 -7 171 -10 245
-3 74 -7 185 -10 245 -2 61 -7 171 -10 245 -3 74 -8 180 -10 235 -3 55 -7 168
-10 250 -3 83 -8 186 -10 230 -2 44 -7 163 -11 265 -4 102 -8 201 -9 220 -1
19 -3 74 -4 123 l-1 87 -1125 0 -1125 0 -1 -52z"/>
<path d="M32350 61503 c0 -5 4 -35 9 -68 5 -33 13 -91 16 -130 4 -38 8 -72 10
-75 1 -3 5 -37 9 -75 4 -39 8 -81 11 -95 2 -14 6 -45 9 -70 3 -25 21 -173 41
-330 19 -157 38 -307 41 -335 3 -27 7 -61 9 -75 2 -14 6 -45 9 -70 4 -36 36
-288 81 -655 7 -59 16 -125 21 -165 5 -35 115 -926 174 -1405 17 -137 72 -576
123 -975 l91 -725 6 -1070 c6 -1054 6 -1071 27 -1150 76 -283 193 -486 384
-670 156 -149 301 -236 508 -305 158 -53 271 -69 456 -65 172 4 298 29 455 90
452 174 779 594 840 1078 6 50 10 454 10 1062 l0 981 -530 2575 c-292 1415
-537 2609 -546 2652 l-17 77 -1123 0 c-618 0 -1124 -3 -1124 -7z"/>
<path d="M36854 61493 c8 -26 108 -373 231 -798 190 -660 296 -1027 336 -1165
22 -74 177 -612 345 -1195 168 -583 330 -1143 359 -1245 29 -102 99 -343 154
-535 l101 -350 0 -995 c1 -1089 1 -1082 61 -1274 155 -497 566 -850 1084 -931
113 -18 340 -13 453 9 472 94 868 441 1016 892 67 201 64 153 65 1291 l1 1032
-59 158 c-33 87 -83 221 -111 298 -28 77 -81 219 -117 315 -88 238 -155 419
-215 580 -27 74 -56 151 -63 170 -8 19 -36 96 -64 170 -52 144 -121 330 -203
550 -27 74 -72 196 -100 270 -27 74 -56 151 -63 170 -8 19 -30 78 -49 130 -19
52 -64 176 -101 275 -36 99 -104 281 -150 405 -45 124 -121 329 -168 455 -47
127 -109 293 -137 370 -28 77 -88 237 -132 355 -44 118 -109 294 -144 390 -36
96 -69 185 -74 198 l-10 22 -1125 0 c-1068 0 -1126 -1 -1121 -17z"/>
<path d="M41360 61504 c0 -3 538 -1192 1195 -2643 l1195 -2636 1 -975 c1 -536
5 -1013 10 -1060 66 -609 528 -1090 1138 -1185 126 -20 351 -13 476 15 537
119 937 529 1041 1067 16 79 18 186 18 1107 l1 1018 -873 1632 c-481 897
-1119 2088 -1418 2646 l-543 1015 -1121 3 c-616 1 -1120 -1 -1120 -4z"/>
<path d="M45860 61506 c0 -3 80 -134 178 -293 148 -239 710 -1148 1062 -1718
48 -77 336 -543 640 -1035 543 -878 755 -1222 1178 -1907 l211 -342 4 -1043
c3 -941 5 -1050 20 -1112 71 -286 197 -509 396 -698 250 -238 571 -366 916
-366 373 1 694 134 955 397 188 190 301 397 366 671 16 69 18 161 21 1115 l4
1040 -370 550 c-203 303 -567 845 -809 1205 -242 360 -562 836 -711 1058
l-270 402 2487 -3 c1368 -1 2498 -5 2512 -9 14 -4 50 -9 80 -12 586 -64 1208
-301 1720 -655 352 -244 725 -616 972 -971 371 -534 615 -1207 664 -1835 4
-49 8 -101 10 -115 1 -14 2 -618 3 -1342 l1 -1318 1060 0 1061 0 -4 1403 c-2
771 -6 1418 -10 1437 -3 19 -9 71 -12 115 -10 130 -43 363 -75 532 -187 996
-632 1934 -1286 2713 -148 175 -154 183 -309 340 -224 227 -341 334 -554 504
-767 614 -1693 1034 -2656 1205 -182 33 -351 56 -480 66 -44 4 -91 10 -105 13
-28 7 -8870 15 -8870 8z"/>
<path d="M37190 52020 c-209 -12 -357 -59 -494 -157 -102 -73 -262 -221 -354
-328 -262 -305 -448 -685 -527 -1080 -29 -146 -40 -224 -50 -360 -26 -338
-145 -606 -369 -828 -181 -179 -426 -322 -706 -413 -94 -31 -268 -74 -297 -74
-29 0 -30 -32 -3 -155 60 -272 192 -530 365 -713 l72 -77 36 32 c75 66 162
116 379 217 519 242 1294 608 1300 614 4 4 26 151 48 327 23 176 53 416 68
532 l28 213 -24 37 c-17 29 -22 50 -20 84 3 44 1 47 -27 58 -110 40 -192 185
-183 325 7 120 74 202 173 213 55 7 132 -28 184 -81 l34 -35 28 60 c16 33 39
74 53 92 50 66 70 183 57 322 l-6 60 158 80 158 80 4 115 c3 115 20 242 36
270 6 11 9 5 9 -20 2 -41 2 -40 34 -196 14 -64 29 -121 33 -125 5 -4 114 24
243 61 l235 67 -2 34 c-5 103 -36 184 -109 286 l-46 65 32 -17 c84 -43 164
-147 201 -259 15 -45 27 -66 38 -66 9 1 78 16 154 34 94 23 140 30 142 22 8
-22 72 -356 69 -356 -1 0 -18 9 -37 20 -64 38 -187 48 -187 15 0 -8 22 -14 64
-17 41 -4 79 -14 106 -29 35 -20 43 -21 50 -9 6 8 10 12 10 9 0 -3 15 -82 34
-175 19 -93 36 -182 39 -199 3 -16 8 -41 11 -55 3 -14 8 -38 11 -55 3 -16 13
-68 21 -115 9 -47 19 -134 23 -195 l7 -110 12 66 c39 214 55 364 54 544 0 334
-70 618 -207 835 -36 57 -198 245 -249 289 -112 97 -229 155 -401 197 -118 29
-288 37 -515 24z"/>
<path d="M38177 50912 c-41 -45 -43 -120 -6 -182 37 -59 93 -60 124 0 20 39
19 86 -4 137 -28 61 -81 82 -114 45z"/>
<path d="M37632 50773 c-20 -8 -42 -59 -42 -98 0 -78 46 -139 101 -133 41 4
62 40 61 104 -2 89 -60 151 -120 127z"/>
<path d="M37940 50732 c0 -33 51 -157 86 -210 29 -45 90 -96 138 -116 11 -5
-9 -26 -60 -63 -17 -13 -21 -22 -15 -32 8 -12 16 -10 48 12 55 38 106 93 99
106 -4 6 -18 11 -31 11 -86 0 -167 96 -221 259 -16 49 -44 70 -44 33z"/>
<path d="M38357 49648 c-44 -56 -122 -110 -206 -140 -32 -11 -64 -30 -70 -41
-7 -10 -8 -16 -3 -13 6 4 10 -86 11 -241 0 -135 3 -248 6 -251 7 -8 136 265
188 398 47 122 119 331 115 335 -2 1 -20 -20 -41 -47z"/>
<path d="M39016 47472 c-6 -11 51 -272 114 -512 27 -107 67 -260 86 -340 20
-80 41 -149 45 -155 6 -6 15 -3 25 7 14 14 10 38 -50 264 -91 347 -142 554
-162 657 -14 71 -20 87 -35 87 -10 0 -20 -4 -23 -8z"/>
<path d="M53850 43829 c-298 -27 -566 -137 -754 -309 -59 -55 -177 -193 -275
-324 -102 -136 -201 -380 -245 -601 -36 -186 -41 -252 -40 -530 1 -228 5 -307
22 -425 22 -154 53 -333 57 -328 1 2 5 57 9 123 6 121 22 239 51 376 9 40 18
90 21 109 3 19 8 39 11 43 2 4 6 21 8 38 6 46 88 453 92 459 2 2 8 -2 12 -9 7
-10 23 -7 76 19 51 24 82 32 132 34 49 2 67 6 74 19 24 42 -128 34 -226 -12
-36 -16 -65 -27 -65 -22 0 16 90 455 95 459 3 4 330 -67 386 -84 13 -3 18 5
23 37 10 64 89 217 141 277 47 52 106 98 157 120 24 10 21 3 -28 -60 -92 -119
-153 -274 -154 -389 l0 -36 306 -87 c169 -48 310 -84 314 -79 8 9 52 206 70
313 6 36 13 74 15 85 2 11 4 36 5 55 l2 35 8 -35 c5 -19 11 -51 14 -70 3 -19
10 -62 16 -95 6 -33 13 -125 15 -205 l4 -145 206 -99 c200 -97 206 -101 200
-126 -10 -48 -13 -214 -4 -270 15 -99 31 -141 86 -223 29 -44 61 -102 70 -128
l17 -48 51 49 c72 67 146 103 215 104 211 2 316 -275 194 -515 -36 -73 -97
-134 -166 -168 l-60 -30 -1 -70 c-2 -54 -7 -76 -24 -100 -13 -17 -23 -43 -23
-59 0 -16 22 -204 50 -418 27 -214 52 -411 56 -439 3 -27 7 -61 9 -75 2 -14
16 -117 30 -230 15 -113 30 -208 33 -211 4 -3 417 -198 917 -433 501 -236 946
-445 990 -466 100 -49 190 -108 259 -170 l53 -49 45 47 c259 273 426 579 513
947 13 55 27 128 31 162 l6 62 -38 6 c-307 52 -686 194 -946 356 -382 237
-649 576 -758 966 -38 136 -52 213 -65 368 -12 148 -17 193 -31 290 -101 659
-380 1240 -814 1689 -98 101 -300 279 -380 333 -112 76 -270 139 -418 167
-128 24 -500 38 -652 25z"/>
<path d="M46560 42485 c-369 -45 -712 -165 -1086 -381 -348 -201 -1083 -743
-1494 -1101 -40 -34 -70 -60 -152 -131 -68 -58 -78 -71 -83 -107 -61 -457
-120 -740 -183 -876 l-30 -64 157 155 c557 552 1198 1090 1692 1420 423 283
705 402 1130 474 324 56 548 71 1027 71 l332 0 -2 265 -3 265 -195 2 c-107 1
-273 7 -368 13 -228 13 -611 11 -742 -5z"/>
<path d="M52915 42383 c-38 -38 -56 -84 -56 -147 -2 -123 84 -178 156 -101 61
64 71 194 20 249 -33 36 -83 35 -120 -1z"/>
<path d="M53650 42398 c0 -25 16 -34 60 -35 83 0 166 -51 240 -145 34 -42 40
-45 56 -34 17 13 16 17 -21 65 -51 66 -105 109 -174 138 -62 25 -161 32 -161
11z"/>
<path d="M53650 42206 c-66 -36 -98 -182 -56 -253 74 -123 220 20 184 180 -17
77 -68 105 -128 73z"/>
<path d="M53295 42178 c-2 -7 -16 -49 -30 -93 -62 -187 -169 -305 -278 -305
-20 0 -39 -5 -42 -10 -8 -13 107 -127 153 -153 30 -17 31 -17 41 2 9 16 6 23
-22 40 -38 24 -92 70 -86 74 2 1 26 13 52 26 96 49 195 194 242 355 13 48 14
60 3 67 -18 12 -28 11 -33 -3z"/>
<path d="M58100 41720 l0 -460 1060 0 1060 0 0 460 0 460 -1060 0 -1060 0 0
-460z"/>
<path d="M52747 40795 c15 -71 115 -346 193 -530 51 -121 191 -405 199 -405 4
0 6 44 6 98 -1 53 3 105 8 116 6 13 6 16 -2 12 -6 -4 -11 -4 -11 -1 0 4 5 16
11 27 8 15 8 19 0 14 -6 -4 -11 -4 -11 -1 0 4 5 16 11 27 8 15 8 19 0 14 -6
-4 -11 -4 -11 -1 0 4 5 16 11 27 8 15 8 19 0 14 -6 -4 -11 -4 -11 -1 0 4 5 16
11 27 8 15 8 19 0 14 -6 -4 -11 -4 -11 -1 0 4 5 16 11 27 8 15 8 19 0 14 -6
-4 -11 -4 -11 -1 0 4 5 16 11 27 8 15 8 19 0 14 -6 -4 -11 -4 -11 -1 0 4 5 16
11 27 6 11 7 18 2 15 -6 -4 -9 32 -9 85 l1 92 -90 36 c-138 55 -210 108 -292
216 l-23 29 7 -30z"/>
<path d="M37177 40348 c-84 -18 -186 -121 -279 -280 l-45 -77 -24 25 c-33 35
-121 92 -171 110 -109 40 -239 10 -334 -78 -160 -147 -256 -362 -256 -572 l1
-101 -97 0 c-67 0 -113 -6 -148 -18 -54 -18 -150 -75 -142 -83 3 -2 38 3 79
12 75 16 281 25 294 12 4 -4 -14 -35 -40 -70 -95 -127 -145 -261 -147 -400 -3
-146 32 -263 146 -483 55 -107 233 -420 252 -444 1 -1 13 7 26 19 96 90 248
70 424 -56 l73 -52 10 31 c29 91 45 210 46 327 0 151 -19 221 -93 351 -146
253 -140 426 18 496 42 19 165 21 290 5 47 -6 153 -9 235 -7 230 6 465 55 262
55 -119 0 -264 17 -370 42 -158 38 -141 43 160 44 217 0 299 4 373 18 163 30
257 63 307 108 21 19 43 18 43 -4 0 -27 33 -119 40 -111 5 4 22 53 38 108 99
337 63 591 -101 703 -125 86 -422 140 -567 103 -65 -17 -122 -40 -142 -58 -14
-13 -14 -7 3 49 24 77 26 165 5 207 -29 56 -98 84 -169 69z"/>
<path d="M38073 38708 c-80 -38 -35 -227 56 -236 42 -4 67 18 75 66 8 50 -9
107 -42 142 -32 34 -59 42 -89 28z"/>
<path d="M37412 38523 c-71 -57 -15 -233 74 -233 44 0 67 34 66 95 -2 106 -83
185 -140 138z"/>
<path d="M37726 38431 c-3 -4 58 -100 135 -212 165 -240 163 -232 74 -334 -51
-57 -62 -85 -35 -85 17 0 128 142 132 169 7 46 -10 78 -147 279 -121 178 -145
206 -159 183z"/>
<path d="M51884 37923 c-15 -89 -80 -366 -140 -598 -120 -465 -214 -839 -241
-965 -62 -285 -21 -556 152 -1005 50 -129 111 -274 120 -283 1 -1 14 2 28 7
l25 10 -60 143 c-148 353 -238 687 -238 880 0 122 33 268 284 1249 67 260 140
580 133 585 -1 0 -14 4 -29 8 -25 6 -28 3 -34 -31z"/>
<path d="M37636 37641 c-12 -19 89 -83 170 -107 114 -33 345 11 299 58 -3 3
-31 -4 -63 -15 -70 -24 -189 -26 -250 -4 -23 9 -62 30 -86 47 -46 31 -61 36
-70 21z"/>
<path d="M58450 36282 c0 -5 38 -85 125 -267 42 -88 97 -202 121 -252 113
-238 135 -284 176 -370 l45 -92 639 480 c351 264 645 486 652 493 10 9 -173
12 -873 12 -487 0 -885 -2 -885 -4z"/>
<path d="M56035 36138 c-11 -6 -21 -12 -23 -13 -1 -1 30 -69 69 -151 39 -82
144 -300 232 -484 88 -184 187 -391 220 -460 33 -69 77 -162 98 -207 37 -81
49 -92 78 -74 10 6 11 16 5 34 -15 41 -649 1366 -654 1366 -3 0 -14 -5 -25
-11z"/>
<path d="M36325 36104 c-82 -30 -1372 -497 -1725 -624 -199 -71 -300 -127
-403 -221 l-48 -44 87 -105 c184 -223 477 -494 730 -676 502 -359 1169 -604
1803 -661 111 -10 601 -10 711 0 913 83 1811 533 2418 1210 135 151 304 372
380 498 l22 36 -73 41 c-99 57 -213 97 -348 123 -63 11 -438 93 -833 180 -396
87 -722 155 -725 151 -3 -5 -123 -192 -265 -417 l-260 -408 -29 33 c-15 17
-30 30 -31 28 -1 -1 -87 -138 -191 -303 -104 -165 -193 -306 -200 -313 -8 -9
-54 60 -200 303 -182 301 -191 314 -206 294 -15 -20 -27 0 -274 425 -142 246
-263 452 -269 460 -9 10 -22 8 -71 -10z m57 -304 c158 -255 391 -630 841
-1353 l112 -179 20 25 c11 14 59 85 106 158 48 74 162 249 254 389 93 140 193
293 223 340 147 225 385 588 401 609 21 29 44 40 39 18 -6 -28 -1033 -1587
-1043 -1584 -5 2 -166 255 -357 563 -192 307 -427 686 -524 841 -96 155 -172
288 -169 294 10 15 21 2 97 -121z"/>
<path d="M13212 35981 c-54 -26 -160 -127 -217 -206 -23 -33 -66 -100 -94
-150 -28 -49 -51 -84 -51 -78 0 7 -31 37 -69 68 -235 190 -474 161 -672 -82
-170 -206 -246 -418 -238 -654 l4 -105 -95 4 c-113 5 -183 -8 -267 -47 -52
-25 -155 -91 -141 -91 3 0 49 10 104 22 102 22 338 32 377 15 17 -6 14 -12
-22 -53 -138 -157 -213 -352 -213 -554 0 -225 90 -449 375 -931 l127 -216 35
31 c67 62 173 81 285 51 80 -21 189 -79 264 -141 36 -29 67 -50 70 -46 5 9 42
153 50 197 17 87 21 142 19 265 -1 115 -5 148 -27 225 -15 50 -44 119 -65 155
-115 194 -154 301 -155 420 -1 97 18 145 78 197 79 70 193 87 396 59 95 -14
484 -14 560 -1 102 17 197 38 210 46 9 5 -24 9 -85 9 -107 0 -335 22 -425 40
-48 10 -210 59 -210 63 0 1 141 2 312 2 239 1 343 5 438 18 226 31 373 78 460
147 l39 31 11 -43 c6 -24 18 -67 27 -97 l15 -55 15 27 c22 44 81 265 97 367
18 113 14 302 -7 375 -52 182 -153 284 -340 344 -303 97 -530 89 -738 -26 -3
-2 5 29 19 69 30 91 33 196 7 251 -40 85 -167 122 -263 78z"/>
<path d="M14347 34150 c-46 -12 -129 -53 -145 -73 -10 -11 -9 -17 2 -26 12
-10 22 -7 53 12 60 39 108 50 187 44 39 -3 81 -8 92 -12 15 -5 23 -2 28 10 13
34 -136 65 -217 45z"/>
<path d="M14383 33938 c-53 -26 -65 -136 -24 -216 67 -130 191 -104 191 40 0
60 -40 142 -82 168 -37 22 -53 24 -85 8z"/>
<path d="M13657 33919 c-75 -11 -171 -62 -230 -121 -63 -63 -91 -103 -82 -118
12 -20 31 -9 69 40 65 86 189 160 266 160 32 0 40 8 31 30 -5 13 -16 14 -54 9z"/>
<path d="M13554 33706 c-56 -40 -49 -181 13 -252 69 -79 152 -48 161 61 11
134 -93 248 -174 191z"/>
<path d="M60177 33597 c-16 -18 -136 -142 -266 -277 -337 -347 -340 -351 -363
-395 -120 -230 -331 -418 -583 -518 -257 -102 -572 -101 -822 4 l-43 18 0
-1599 0 -1600 1060 0 1060 0 0 2200 c0 1210 -3 2200 -7 2199 -5 0 -21 -15 -36
-32z"/>
<path d="M13957 33597 c-19 -13 -28 2 257 -412 100 -144 100 -165 10 -265 -80
-88 -85 -97 -68 -111 14 -11 20 -8 44 19 16 18 47 54 70 80 23 25 47 58 52 72
13 35 12 93 -2 121 -12 22 -324 484 -340 502 -3 4 -14 1 -23 -6z"/>
<path d="M13851 32606 c-7 -8 -10 -20 -6 -27 16 -25 133 -91 198 -111 88 -26
229 -21 325 12 63 22 67 26 56 54 -5 14 -9 14 -34 1 -44 -23 -148 -45 -211
-45 -95 0 -227 50 -295 112 -18 16 -23 17 -33 4z"/>
<path d="M12215 30680 c-52 -19 -430 -156 -1230 -445 -253 -91 -579 -209 -725
-261 -146 -52 -274 -99 -285 -104 -11 -5 -60 -25 -109 -44 -307 -122 -553
-376 -673 -694 -13 -35 -95 -338 -182 -675 -151 -579 -434 -1666 -757 -2907
-79 -305 -219 -840 -309 -1189 -91 -349 -172 -668 -179 -710 -46 -266 10 -576
145 -806 36 -61 553 -1344 1534 -3810 l227 -570 -7 -67 c-3 -37 -8 -77 -10
-90 -4 -23 -11 -83 -21 -168 -5 -49 -22 -184 -29 -240 -3 -19 -12 -96 -20
-170 -9 -74 -17 -146 -19 -160 -3 -14 -7 -52 -11 -85 -3 -33 -8 -71 -10 -85
-2 -14 -6 -45 -9 -70 -3 -25 -12 -101 -21 -170 -8 -69 -17 -145 -20 -170 -3
-25 -7 -61 -10 -80 -2 -19 -7 -55 -9 -80 -3 -25 -15 -119 -26 -210 -11 -91
-22 -185 -25 -210 -3 -25 -10 -79 -15 -120 -5 -41 -12 -97 -15 -125 -3 -27 -7
-66 -10 -85 -10 -84 -24 -199 -30 -245 -3 -27 -10 -84 -15 -125 -5 -41 -12
-100 -15 -130 -4 -30 -8 -66 -10 -80 -2 -14 -6 -50 -10 -80 -9 -82 -13 -109
-35 -290 -11 -91 -22 -185 -25 -210 -3 -25 -10 -79 -15 -120 -5 -41 -12 -100
-15 -130 -4 -30 -8 -66 -10 -80 -2 -14 -13 -104 -25 -200 -11 -96 -23 -182
-25 -190 -2 -8 -6 -46 -10 -83 -3 -37 -8 -76 -10 -85 -1 -9 -6 -44 -9 -77 -4
-33 -9 -78 -12 -100 -2 -22 -7 -56 -9 -75 -8 -67 -15 -125 -20 -160 -3 -19 -8
-62 -11 -95 -3 -33 -8 -68 -9 -77 -2 -9 -6 -48 -10 -85 -7 -77 -11 -113 -29
-258 -9 -68 -25 -198 -30 -245 -3 -25 -15 -117 -27 -205 -13 -99 -22 -235 -25
-355 -3 -176 -12 -360 -19 -400 -2 -8 -6 -60 -10 -115 -4 -55 -9 -107 -10
-116 -3 -15 -6 -45 -20 -234 -3 -33 -9 -107 -14 -165 -6 -58 -13 -143 -16
-190 -3 -47 -8 -101 -10 -120 -2 -19 -7 -69 -10 -110 -3 -41 -8 -95 -10 -120
-2 -25 -7 -79 -10 -120 -3 -41 -8 -91 -10 -110 -2 -19 -7 -73 -10 -120 -3 -47
-8 -101 -10 -120 -2 -19 -6 -71 -10 -115 -3 -44 -7 -96 -10 -115 -2 -19 -7
-71 -10 -115 -3 -44 -8 -100 -10 -125 -2 -25 -6 -74 -9 -110 -3 -36 -10 -112
-15 -170 -6 -58 -13 -143 -16 -190 -3 -47 -8 -101 -10 -120 -2 -19 -7 -69 -11
-110 -3 -41 -7 -82 -9 -90 -2 -8 -6 -68 -10 -134 -4 -65 -8 -126 -10 -135 -1
-9 -6 -56 -9 -106 -4 -49 -9 -106 -11 -125 -2 -19 -6 -71 -10 -115 -3 -44 -7
-96 -10 -115 -2 -19 -7 -71 -10 -115 -3 -44 -8 -100 -10 -125 -2 -25 -6 -74
-9 -110 -3 -36 -10 -112 -15 -170 -6 -58 -13 -143 -16 -190 -3 -47 -8 -101
-10 -120 -2 -19 -7 -69 -10 -110 -3 -41 -8 -95 -10 -120 -2 -25 -7 -79 -11
-120 -3 -41 -7 -82 -9 -90 -2 -9 -6 -60 -10 -115 -4 -55 -9 -107 -10 -115 -2
-9 -6 -67 -10 -130 -3 -63 -8 -126 -10 -140 -6 -38 -14 -117 -20 -200 -7 -88
-13 -153 -20 -232 -3 -32 -7 -86 -10 -120 -3 -35 -8 -88 -10 -118 -3 -30 -7
-84 -10 -120 -3 -36 -7 -85 -10 -110 -2 -25 -7 -79 -10 -120 -3 -41 -8 -95
-10 -120 -4 -44 -9 -103 -19 -225 -3 -33 -8 -87 -11 -120 -3 -33 -7 -89 -10
-125 -3 -36 -7 -85 -10 -110 -2 -25 -7 -79 -10 -120 -3 -41 -8 -95 -10 -120
-2 -25 -7 -83 -10 -130 -4 -47 -9 -103 -11 -125 -2 -22 -6 -77 -10 -122 l-7
-83 1750 0 1750 0 17 127 c10 71 37 281 61 468 83 641 125 960 129 980 2 11 7
47 10 80 15 132 121 955 130 1000 2 11 7 47 10 80 4 33 9 71 11 85 4 23 7 47
20 148 2 20 7 57 10 82 5 43 13 97 20 150 2 14 7 52 11 85 3 33 8 68 10 79 2
10 6 44 9 75 3 31 10 88 15 126 6 39 23 178 40 310 17 132 44 341 60 465 29
218 43 331 150 1155 28 215 52 404 54 420 3 17 7 50 10 75 43 334 124 957 131
1005 2 17 13 105 24 197 12 92 23 182 26 200 3 18 19 141 35 273 17 132 33
254 35 270 3 17 12 86 20 155 17 131 70 465 211 1315 89 535 123 734 255 1494
44 255 78 469 75 477 -4 10 30 309 79 694 2 19 11 96 20 170 9 74 18 144 19
155 2 13 102 88 312 233 170 117 312 220 316 230 4 9 118 469 254 1022 135
553 248 1007 250 1009 1 2 19 0 39 -3 30 -6 34 -10 30 -29 -5 -21 -74 -304
-255 -1042 -44 -181 -115 -469 -156 -640 -42 -170 -80 -326 -85 -345 -8 -30
-26 -46 -131 -118 -284 -193 -498 -342 -498 -348 0 -3 -79 -651 -104 -854 -3
-19 -8 -59 -11 -87 -6 -44 -10 -53 -26 -53 -17 0 -19 -5 -15 -32 3 -18 7 -55
10 -83 3 -27 10 -97 16 -155 6 -58 13 -127 16 -155 2 -27 7 -72 10 -100 2 -27
7 -66 9 -85 2 -19 7 -64 10 -100 3 -36 8 -81 10 -100 10 -89 19 -179 30 -290
9 -90 16 -156 20 -190 2 -19 7 -64 10 -100 3 -36 8 -81 10 -100 6 -55 24 -219
30 -285 9 -95 15 -157 20 -195 3 -19 7 -66 11 -105 3 -38 7 -81 9 -95 2 -14 6
-54 10 -90 3 -36 8 -81 10 -100 2 -19 9 -82 15 -140 6 -58 13 -125 15 -150 3
-25 14 -133 25 -240 11 -107 24 -226 29 -265 5 -38 12 -99 15 -135 4 -36 8
-83 11 -105 8 -68 13 -121 45 -420 16 -159 32 -308 35 -330 2 -22 11 -107 20
-190 25 -241 26 -248 30 -285 3 -19 16 -145 30 -280 30 -294 33 -318 41 -395
3 -33 7 -71 9 -85 2 -14 6 -54 10 -90 3 -36 8 -81 10 -100 2 -19 9 -82 15
-140 6 -58 13 -121 15 -140 4 -28 32 -292 70 -665 3 -27 8 -66 10 -85 2 -19 7
-64 10 -100 3 -36 8 -76 10 -90 2 -14 7 -56 10 -95 3 -38 8 -81 10 -95 2 -14
6 -54 10 -90 3 -36 8 -81 10 -100 4 -30 35 -325 50 -475 3 -27 7 -66 10 -85 2
-19 7 -60 10 -90 3 -30 18 -181 35 -335 16 -154 32 -305 35 -335 3 -30 10 -91
15 -135 5 -44 11 -107 15 -140 3 -33 7 -76 10 -95 2 -19 7 -62 10 -95 3 -33 7
-76 10 -95 2 -19 7 -62 10 -95 3 -33 10 -96 15 -140 5 -44 12 -109 15 -145 3
-36 8 -76 10 -90 2 -14 7 -59 10 -100 4 -41 8 -82 10 -90 2 -8 7 -51 10 -94 4
-43 8 -86 10 -95 1 -9 6 -47 9 -86 4 -38 9 -86 11 -105 4 -30 34 -311 50 -475
3 -27 7 -66 10 -85 2 -19 7 -60 10 -90 3 -30 18 -180 35 -333 16 -152 30 -282
30 -287 0 -7 589 -10 1721 -10 l1720 0 -5 68 c-3 37 -8 110 -11 162 -3 52 -8
120 -10 150 -2 30 -7 102 -10 160 -3 58 -8 125 -10 150 -2 25 -7 92 -10 150
-3 58 -8 125 -10 150 -2 25 -7 92 -10 150 -3 58 -7 130 -10 160 -2 30 -7 96
-10 145 -3 50 -8 122 -10 160 -3 39 -7 104 -10 145 -2 41 -7 120 -10 175 -3
55 -8 120 -10 145 -2 25 -7 92 -10 150 -3 58 -7 125 -10 150 -2 25 -7 97 -10
160 -3 63 -8 135 -10 160 -2 25 -7 92 -10 150 -3 58 -8 130 -10 160 -2 30 -7
98 -10 150 -6 107 -13 205 -20 300 -2 36 -7 112 -10 170 -3 58 -8 125 -10 150
-2 25 -7 90 -10 145 -3 55 -7 125 -10 155 -2 30 -7 100 -10 155 -3 55 -8 127
-10 160 -3 33 -7 98 -10 145 -3 47 -9 153 -15 235 -5 83 -12 191 -15 240 -3
50 -8 119 -10 155 -3 36 -9 139 -15 230 -6 91 -12 194 -15 230 -4 57 -13 193
-30 463 -3 42 -7 112 -10 155 -5 67 -34 517 -50 772 -7 108 -13 205 -20 300
-2 41 -9 149 -15 240 -6 91 -12 194 -15 230 -5 66 -31 469 -40 635 -12 206
-16 258 -35 430 -11 99 -23 203 -25 230 -3 28 -8 66 -10 85 -2 19 -7 64 -10
100 -3 36 -8 76 -10 90 -2 14 -7 57 -10 95 -3 39 -8 81 -10 95 -2 14 -7 57
-10 95 -3 39 -8 81 -10 95 -2 14 -7 57 -10 95 -3 39 -8 81 -10 95 -2 14 -7 57
-10 95 -3 39 -8 81 -10 95 -2 14 -7 57 -10 95 -3 39 -8 81 -10 95 -2 14 -7 57
-10 95 -3 39 -8 84 -10 100 -2 17 -7 55 -10 85 -5 59 -32 319 -40 385 -2 22
-11 108 -20 190 -8 83 -17 168 -20 190 -2 22 -11 108 -20 190 -8 83 -17 170
-20 195 -9 85 -45 425 -50 470 -17 167 -44 432 -50 485 -3 22 -12 108 -20 190
-9 83 -18 168 -20 190 -3 22 -12 108 -20 190 -9 83 -18 168 -20 190 -3 22 -12
108 -20 190 -9 83 -17 166 -20 185 -2 19 -7 67 -11 105 -3 39 -8 77 -9 85 -2
8 -6 49 -10 90 -3 41 -8 86 -10 100 -2 14 -6 54 -10 90 -3 36 -8 81 -10 100
-6 49 -44 413 -51 485 -3 33 -7 71 -9 85 -2 14 -7 59 -10 100 -4 41 -8 82 -10
90 -1 8 -6 51 -10 94 -4 43 -8 86 -10 95 -1 9 -6 52 -10 95 -4 43 -8 86 -10
95 -1 9 -6 52 -10 95 -4 43 -8 86 -10 95 -1 9 -6 52 -10 95 -4 43 -8 86 -10
95 -1 9 -6 52 -10 95 -4 43 -8 86 -10 95 -1 9 -6 52 -10 95 -4 43 -8 86 -10
95 -1 9 -6 52 -10 95 -4 43 -8 87 -10 97 -2 10 -7 58 -10 106 l-7 89 43 0 43
-1 -3 300 c-2 165 -5 347 -6 405 -1 58 -6 366 -10 685 -4 319 -9 632 -10 695
-5 214 -19 1284 -19 1455 0 146 11 561 19 705 1 25 6 158 10 295 5 138 9 266
10 285 2 19 3 64 4 100 1 36 5 60 10 55 4 -6 104 -199 221 -430 117 -231 241
-474 275 -540 34 -66 140 -273 235 -460 488 -961 479 -947 634 -1100 150 -149
288 -234 489 -299 283 -93 566 -81 862 35 55 21 129 58 165 80 55 35 1824
1434 3015 2383 198 158 581 463 852 677 l492 390 -112 177 c-141 223 -771
1214 -883 1387 -46 72 -89 130 -96 129 -7 -1 -107 -63 -223 -139 -115 -76
-352 -231 -525 -343 -173 -113 -416 -271 -540 -352 -124 -81 -414 -270 -645
-420 -231 -150 -523 -341 -650 -423 -126 -83 -324 -212 -440 -287 -115 -75
-263 -171 -327 -213 -85 -55 -119 -73 -126 -64 -5 7 -103 197 -217 422 -114
226 -247 487 -295 580 -48 94 -154 301 -235 460 -178 349 -378 742 -530 1040
-62 121 -199 391 -305 600 -305 602 -323 630 -475 781 -177 174 -404 287 -674
335 -64 11 -278 56 -476 100 -198 44 -605 134 -905 200 -300 66 -553 122 -562
125 -10 3 -18 1 -18 -4 0 -8 -595 -953 -645 -1024 -10 -16 -14 -14 -41 22 -16
22 -32 40 -36 40 -3 0 -119 -178 -257 -396 l-250 -396 -20 33 c-12 19 -119
197 -238 396 l-218 362 -22 -21 c-13 -12 -24 -20 -26 -17 -2 2 -151 259 -332
572 -180 312 -331 567 -334 566 -3 0 -28 -9 -56 -19z m66 -418 c64 -103 169
-272 234 -377 65 -104 168 -271 230 -370 391 -629 599 -962 651 -1047 32 -54
62 -97 65 -98 3 0 21 24 39 53 19 28 104 158 189 287 85 129 182 278 216 330
34 52 129 196 210 320 81 124 182 277 223 340 42 63 134 205 207 315 72 110
144 221 160 247 27 42 65 65 65 38 0 -8 -264 -413 -827 -1270 -63 -96 -195
-298 -294 -448 -99 -151 -185 -272 -191 -270 -15 5 -1309 2087 -1316 2116 -12
59 33 6 139 -166z m-1071 -3528 c0 -8 -200 -700 -445 -1539 -245 -838 -445
-1530 -445 -1538 0 -8 169 -661 375 -1451 206 -791 373 -1442 369 -1447 -3 -5
-16 -9 -29 -9 -20 0 -26 7 -34 38 -6 20 -177 675 -380 1454 l-369 1417 450
1543 c247 849 452 1546 454 1549 7 12 54 -3 54 -17z m18 -8182 c23 -38 89
-136 148 -218 330 -458 644 -1046 644 -1204 0 -70 -51 -85 -139 -41 -52 27
-172 115 -297 218 -133 109 -193 153 -211 153 -35 0 1 -111 98 -303 133 -264
221 -404 423 -671 83 -110 169 -229 190 -264 45 -75 76 -157 70 -190 -14 -73
-90 -120 -204 -127 -28 -1 -28 -4 9 -59 36 -55 35 -110 -4 -143 -27 -24 -34
-25 -110 -20 -53 3 -107 15 -161 35 l-80 29 4 -27 c3 -20 -4 -33 -28 -53 -49
-42 -98 -39 -191 9 -66 35 -176 119 -261 201 -47 44 -48 44 -48 19 0 -32 -37
-72 -75 -82 -77 -19 -296 222 -473 523 -153 260 -222 442 -367 968 -82 296
-233 905 -227 909 4 2 57 19 117 39 315 102 848 275 975 317 80 27 148 49 151
49 4 1 25 -30 47 -67z m-110 -13439 l-3 -38 -1225 0 -1225 0 -3 38 -3 37 1231
0 1231 0 -3 -37z m6550 0 l-3 -38 -1225 0 -1225 0 -3 38 -3 37 1231 0 1231 0
-3 -37z"/>
<path d="M37100 28029 c-139 -17 -284 -70 -387 -140 -134 -92 -325 -275 -445
-430 -293 -375 -466 -839 -503 -1349 -26 -347 -154 -625 -395 -852 -219 -208
-545 -371 -897 -449 -120 -27 -114 -15 -83 -169 34 -169 112 -359 206 -507 47
-75 152 -209 196 -250 l34 -33 54 45 c50 41 198 135 213 135 6 0 1448 677
1453 683 2 1 28 198 58 437 31 239 62 480 69 536 13 97 12 102 -7 128 -15 19
-21 44 -23 83 -1 54 -2 56 -41 73 -190 85 -234 410 -68 511 67 41 175 16 249
-58 21 -20 38 -34 40 -32 2 2 18 34 36 72 19 37 37 67 41 67 12 0 49 94 58
147 9 54 7 217 -4 234 -3 5 68 44 158 87 l163 78 -3 65 c-3 64 23 302 35 322
4 6 14 -34 23 -89 27 -157 51 -254 64 -254 6 0 112 29 236 64 203 58 225 66
230 87 16 65 -39 215 -113 312 -20 26 -34 47 -30 47 14 0 100 -61 122 -86 43
-49 80 -116 102 -183 12 -36 23 -67 24 -68 1 -2 70 13 155 32 84 20 154 34
155 33 1 -2 18 -85 37 -185 l35 -182 -51 26 c-63 32 -168 39 -174 11 -3 -14 6
-17 52 -17 39 0 70 -7 105 -24 36 -18 52 -22 60 -14 6 6 11 9 11 6 0 -3 16
-83 35 -178 19 -95 32 -177 29 -182 -3 -5 -1 -9 4 -9 5 0 9 -6 9 -12 0 -7 12
-74 26 -148 31 -160 36 -201 36 -299 1 -41 3 -72 5 -70 6 6 44 241 57 349 14
125 14 382 -1 495 -30 243 -100 459 -191 592 -66 98 -205 257 -268 309 -86 71
-242 148 -366 181 -92 24 -117 27 -330 29 -126 1 -259 -2 -295 -7z"/>
<path d="M38163 26914 c-35 -55 -11 -176 42 -204 88 -47 141 103 69 197 -33
43 -85 47 -111 7z"/>
<path d="M37625 26777 c-70 -60 -18 -238 66 -225 84 12 78 201 -8 235 -29 12
-35 11 -58 -10z"/>
<path d="M37945 26760 c-23 -37 66 -221 136 -284 28 -25 57 -46 64 -46 40 0
15 -41 -46 -75 -13 -7 -15 -15 -9 -25 12 -19 49 1 107 58 50 50 53 62 18 62
-90 0 -185 109 -230 263 -16 55 -27 68 -40 47z"/>
<path d="M38378 25688 c-45 -68 -146 -141 -233 -168 -22 -7 -44 -16 -49 -21
-5 -5 -9 -79 -8 -165 1 -112 -2 -162 -11 -173 -9 -11 -9 -13 0 -8 9 6 13 -17
15 -90 l3 -97 62 125 c34 68 82 174 106 234 52 125 139 376 133 382 -2 2 -10
-7 -18 -19z"/>
<path d="M39033 23492 c-13 -2 -23 -5 -23 -7 0 -1 9 -45 19 -96 28 -133 224
-905 233 -914 1 -2 11 3 21 10 18 13 14 30 -72 362 -90 351 -135 537 -147 609
-3 21 -7 39 -7 39 -1 1 -12 -1 -24 -3z"/>
<path d="M58105 21821 c-3 -2 -5 -1044 -5 -2316 l0 -2311 1058 0 1057 1 3
2315 2 2316 -1055 0 c-581 0 -1058 -2 -1060 -5z"/>
<path d="M44539 16494 c-360 -157 -770 -335 -912 -396 -141 -62 -254 -115
-250 -118 5 -4 71 -27 148 -53 77 -25 494 -165 928 -311 l787 -265 98 58 c53
32 187 113 296 180 110 66 201 119 203 117 2 -2 -22 -117 -53 -255 -31 -141
-53 -256 -48 -260 5 -5 184 -67 397 -139 265 -90 389 -127 392 -119 2 7 33
116 69 242 35 127 101 358 145 515 150 533 150 531 138 535 -7 2 -347 114
-757 249 -410 134 -783 257 -830 272 -47 14 -88 28 -91 30 -3 2 -300 -125
-660 -282z m656 -39 c202 -68 370 -126 372 -129 8 -8 -9 -56 -21 -56 -8 0
-609 201 -733 245 -9 3 -10 12 -2 35 6 16 12 30 14 30 2 0 169 -56 370 -125z
m-259 -200 c202 -69 369 -125 370 -125 2 0 -2 -13 -7 -30 -6 -16 -14 -30 -17
-30 -4 0 -174 57 -379 126 l-371 126 10 29 c5 16 14 29 18 29 5 0 174 -56 376
-125z"/>
<path d="M37126 16359 c-75 -40 -173 -157 -241 -287 l-27 -52 -33 29 c-139
122 -279 156 -400 97 -145 -72 -284 -263 -337 -466 -18 -72 -28 -246 -14 -269
4 -5 -24 -7 -71 -4 -118 8 -228 -26 -313 -96 l-25 -20 55 14 c70 18 173 31
228 29 23 -1 58 -2 77 -3 19 0 35 -6 35 -12 0 -6 -18 -32 -40 -57 -50 -56
-114 -185 -136 -272 -9 -36 -16 -103 -16 -150 0 -144 37 -258 160 -494 55
-104 222 -396 239 -415 2 -3 16 7 31 21 43 40 69 50 140 50 100 0 197 -43 324
-142 l27 -21 15 52 c29 95 49 268 42 360 -7 112 -30 183 -100 310 -93 169
-119 276 -89 365 36 107 163 162 308 135 181 -34 619 -15 668 29 4 4 -56 10
-135 13 -163 7 -191 11 -306 38 -146 33 -133 38 103 38 398 0 643 46 742 140
l22 21 11 -42 c6 -24 17 -61 24 -83 l13 -40 31 95 c101 315 83 569 -49 701
-80 80 -251 137 -434 146 -123 6 -192 -4 -272 -42 -29 -13 -53 -21 -53 -17 0
4 7 30 16 57 22 69 21 157 -3 197 -38 66 -140 87 -217 47z"/>
<path d="M67986 16053 c-3 -27 -8 -82 -11 -123 -3 -41 -8 -95 -10 -120 -2 -25
-7 -79 -10 -120 -11 -138 -19 -247 -30 -375 -3 -33 -8 -85 -10 -115 -2 -30 -7
-82 -9 -115 -3 -33 -8 -94 -11 -135 -3 -41 -8 -100 -11 -130 -13 -157 -21
-256 -29 -360 -3 -41 -8 -100 -11 -130 -16 -194 -31 -370 -39 -480 -3 -41 -8
-95 -10 -120 -2 -25 -7 -79 -10 -120 -3 -41 -8 -95 -10 -120 -2 -25 -7 -79
-10 -120 -3 -41 -8 -100 -10 -130 -3 -30 -7 -86 -10 -125 -3 -38 -8 -90 -10
-115 -2 -25 -7 -79 -10 -120 -11 -146 -19 -241 -40 -487 -10 -124 -15 -179
-20 -253 -3 -41 -8 -100 -11 -130 -2 -30 -7 -82 -9 -115 -3 -33 -7 -85 -10
-115 -3 -30 -7 -89 -10 -130 -3 -41 -8 -95 -10 -120 -2 -25 -7 -79 -10 -120
-3 -41 -7 -95 -10 -120 -2 -25 -7 -79 -10 -120 -11 -138 -19 -247 -30 -375 -3
-33 -8 -85 -10 -115 -2 -30 -7 -82 -9 -115 -3 -33 -8 -94 -11 -135 -3 -41 -8
-100 -11 -130 -2 -30 -7 -82 -9 -115 -3 -33 -7 -85 -10 -115 -3 -30 -7 -89
-10 -130 -3 -41 -8 -95 -10 -120 -2 -25 -7 -79 -10 -120 -3 -41 -7 -95 -10
-120 -2 -25 -7 -79 -10 -120 -10 -133 -18 -230 -30 -372 -5 -60 -11 -134 -20
-235 -2 -32 -7 -92 -10 -133 -3 -41 -8 -100 -11 -130 -2 -30 -7 -82 -9 -115
-3 -33 -7 -85 -10 -115 -3 -30 -7 -89 -10 -130 -3 -41 -8 -95 -10 -120 -2 -25
-7 -79 -10 -120 -3 -41 -7 -95 -10 -120 -2 -25 -7 -79 -10 -120 -11 -138 -19
-247 -30 -375 -3 -33 -8 -85 -10 -115 -2 -30 -7 -82 -9 -115 -3 -33 -8 -94
-11 -135 -3 -41 -8 -100 -11 -130 -2 -30 -6 -80 -9 -110 -2 -30 -7 -82 -9
-115 -3 -33 -8 -94 -11 -135 -3 -41 -8 -95 -10 -120 -2 -25 -7 -79 -10 -120
-3 -41 -8 -95 -10 -120 -2 -25 -7 -79 -10 -120 -12 -155 -18 -230 -40 -490 -3
-30 -7 -89 -10 -130 -3 -41 -8 -95 -10 -120 -2 -25 -7 -79 -10 -120 -3 -41 -7
-95 -10 -120 -2 -25 -7 -79 -10 -120 -11 -146 -19 -241 -40 -487 -10 -124 -15
-179 -20 -253 -3 -41 -8 -100 -11 -130 -2 -30 -7 -82 -9 -115 -3 -33 -7 -85
-10 -115 -3 -30 -7 -89 -10 -130 -3 -41 -8 -95 -10 -120 -2 -25 -7 -79 -10
-120 -3 -41 -7 -95 -10 -120 -2 -25 -7 -79 -10 -120 -3 -41 -8 -100 -10 -130
-3 -30 -7 -86 -10 -125 -3 -38 -8 -90 -10 -115 -2 -25 -7 -79 -10 -120 -3 -41
-8 -95 -10 -120 -2 -25 -7 -83 -10 -130 -3 -47 -8 -101 -10 -120 -2 -19 -6
-73 -10 -120 -3 -47 -8 -101 -10 -120 -2 -19 -7 -78 -11 -130 -3 -52 -7 -107
-9 -121 -2 -15 -6 -71 -10 -125 -4 -55 -9 -102 -12 -106 -2 -5 1751 -8 3897
-8 l3900 0 -4 28 c-2 15 -7 72 -11 127 -4 55 -8 106 -10 115 -1 8 -6 60 -9
115 -4 55 -9 116 -11 135 -2 19 -6 71 -10 115 -3 44 -8 100 -10 125 -4 43 -9
101 -20 248 -10 124 -15 182 -20 240 -10 113 -24 299 -30 377 -4 44 -8 96 -10
115 -2 19 -7 76 -10 125 -4 50 -8 101 -10 115 -2 14 -7 70 -11 125 -3 55 -8
107 -9 115 -2 8 -6 69 -11 135 -4 66 -8 122 -9 125 -1 3 -5 52 -9 110 -4 58
-9 116 -11 130 -2 14 -6 68 -10 120 -4 52 -8 106 -10 120 -2 14 -6 63 -10 110
-3 47 -8 105 -10 130 -2 25 -7 79 -10 120 -3 41 -8 100 -10 130 -2 30 -7 89
-10 130 -3 41 -8 91 -10 110 -2 19 -7 73 -10 120 -3 47 -8 105 -10 130 -2 25
-7 79 -10 120 -3 41 -8 95 -10 120 -2 25 -7 79 -10 120 -3 41 -8 95 -10 120
-2 25 -7 83 -10 130 -3 47 -8 105 -10 130 -6 57 -22 260 -30 365 -4 44 -8 96
-10 115 -2 19 -7 73 -10 120 -3 47 -8 101 -10 120 -2 19 -7 73 -10 120 -3 47
-8 101 -10 120 -2 19 -7 80 -11 135 -3 55 -8 107 -9 115 -1 8 -6 62 -10 120
-3 58 -8 116 -10 130 -2 14 -6 68 -10 120 -4 52 -8 106 -10 120 -2 14 -6 63
-10 110 -3 47 -8 105 -10 130 -2 25 -7 79 -10 120 -3 41 -7 100 -10 130 -3 30
-7 89 -10 130 -3 41 -8 91 -10 110 -2 19 -7 73 -10 120 -3 47 -8 105 -10 130
-2 25 -7 79 -10 120 -3 41 -8 95 -10 120 -2 25 -7 79 -10 120 -3 41 -8 95 -10
120 -2 25 -7 83 -10 130 -3 47 -8 105 -10 130 -7 78 -22 250 -30 360 -3 41 -8
95 -10 120 -2 25 -7 79 -10 120 -3 41 -8 95 -10 120 -2 25 -7 79 -10 120 -6
80 -12 155 -20 248 -10 113 -24 299 -30 377 -4 44 -8 96 -10 115 -2 19 -7 76
-10 125 -4 50 -8 101 -10 115 -2 14 -7 70 -11 125 -3 55 -8 107 -9 115 -2 8
-6 69 -11 135 -4 66 -8 122 -9 125 -1 3 -5 55 -9 115 -5 61 -10 117 -11 125
-2 8 -6 62 -10 120 -4 58 -8 112 -10 120 -2 8 -6 62 -10 119 -4 57 -9 111 -10
120 -2 9 -4 33 -4 54 l-1 37 -1425 0 -1425 0 -1 328 c-1 180 -3 336 -4 348 -1
12 -5 53 -9 92 -28 280 -171 570 -387 782 -317 312 -784 445 -1214 345 -73
-17 -68 -9 -61 -99 3 -44 6 -86 6 -92 0 -6 36 -1 93 14 106 27 299 37 410 21
240 -35 467 -149 643 -324 165 -163 261 -337 316 -568 20 -86 22 -118 22 -467
l1 -375 -673 -3 -674 -2 6 -58 c8 -86 15 -169 21 -252 3 -41 7 -95 10 -120 2
-25 7 -79 10 -120 3 -41 8 -95 10 -120 3 -25 7 -81 10 -125 3 -44 7 -98 9
-120 2 -22 7 -78 11 -125 3 -47 8 -101 10 -120 2 -19 7 -73 10 -120 4 -47 8
-105 10 -130 2 -25 7 -79 10 -120 3 -41 7 -95 10 -120 5 -54 14 -161 20 -250
4 -61 7 -94 20 -242 3 -32 7 -84 10 -115 7 -93 14 -174 20 -238 2 -33 7 -94
10 -135 3 -41 7 -95 10 -120 5 -54 14 -161 20 -250 3 -36 7 -91 10 -122 3 -32
7 -86 10 -120 3 -35 7 -88 10 -118 2 -30 7 -82 9 -115 3 -33 8 -87 11 -120 2
-33 7 -94 10 -135 3 -41 7 -95 10 -120 5 -49 13 -149 20 -250 8 -101 15 -191
20 -240 2 -25 6 -79 10 -120 3 -41 8 -95 10 -120 2 -25 7 -76 10 -115 3 -38 7
-99 10 -135 3 -36 8 -92 10 -125 6 -70 12 -147 20 -230 3 -33 7 -94 10 -135 3
-41 7 -95 10 -120 2 -25 6 -79 10 -120 3 -41 8 -95 10 -120 2 -25 7 -76 10
-115 15 -196 28 -357 40 -490 3 -33 7 -94 10 -135 3 -41 7 -95 10 -120 2 -25
7 -79 10 -120 3 -41 7 -95 10 -120 2 -25 7 -79 10 -120 3 -41 8 -95 10 -120 2
-25 7 -81 10 -125 3 -44 7 -100 10 -125 5 -55 14 -161 21 -255 2 -38 6 -90 9
-115 2 -25 7 -79 10 -120 3 -41 7 -95 10 -120 2 -25 7 -79 10 -120 3 -41 8
-95 10 -120 3 -25 7 -83 10 -130 3 -47 8 -101 10 -120 2 -19 7 -73 10 -120 3
-47 8 -101 10 -120 2 -19 7 -75 10 -125 4 -49 8 -106 10 -125 2 -19 6 -75 10
-125 3 -49 8 -101 10 -115 2 -14 7 -68 10 -120 4 -52 8 -111 10 -130 2 -19 6
-71 9 -115 4 -44 8 -100 11 -125 5 -55 14 -161 21 -255 2 -38 6 -90 9 -115 2
-25 6 -79 10 -120 3 -41 8 -95 10 -120 2 -25 7 -79 10 -120 3 -41 8 -95 10
-120 3 -25 7 -83 10 -130 3 -47 8 -101 10 -120 4 -32 9 -103 20 -245 5 -72 16
-204 21 -248 2 -28 0 -38 -9 -34 -7 2 -376 266 -822 586 -445 319 -814 582
-819 584 -6 2 -10 2584 -10 6638 l-1 6634 -282 3 -281 2 -6 -47z"/>
<path d="M38073 14738 c-51 -25 -55 -132 -7 -195 50 -65 102 -63 131 4 26 62
-3 148 -60 183 -36 23 -34 22 -64 8z"/>
<path d="M54220 14585 c-465 -90 -855 -167 -867 -170 -13 -3 -101 -107 -226
-267 -113 -145 -387 -497 -610 -783 -224 -285 -405 -521 -403 -522 8 -9 1942
340 1951 351 6 8 84 142 175 299 91 158 168 287 171 287 3 0 29 -84 58 -187
89 -319 91 -324 110 -319 9 2 192 35 406 72 215 37 393 70 397 73 4 3 0 33 -8
66 -17 70 -206 901 -255 1118 -18 81 -37 147 -43 146 -6 0 -391 -74 -856 -164z
m-328 -415 c3 -17 2 -33 -2 -35 -9 -6 -772 -137 -775 -133 -2 2 -5 16 -7 32
l-3 30 380 67 c209 37 385 67 391 68 7 0 14 -13 16 -29z m-142 -309 c0 -28 -2
-29 -87 -44 -169 -31 -668 -117 -679 -117 -11 0 -27 51 -18 59 6 7 768 138
777 134 4 -2 7 -17 7 -32z"/>
<path d="M37422 14560 c-69 -28 -47 -196 30 -233 39 -19 68 -9 87 29 31 62 -1
169 -59 199 -16 8 -30 15 -32 14 -2 0 -13 -4 -26 -9z"/>
<path d="M37726 14461 c-4 -5 52 -94 122 -198 71 -103 135 -199 142 -211 18
-36 4 -70 -57 -140 -44 -50 -53 -66 -44 -75 10 -9 26 2 72 53 60 66 78 104 71
150 -4 27 -270 421 -289 427 -6 2 -14 0 -17 -6z"/>
<path d="M37641 13671 c-10 -7 -3 -16 30 -41 72 -53 126 -72 216 -78 119 -7
252 36 217 70 -3 3 -28 -3 -57 -14 -62 -24 -157 -31 -218 -16 -45 12 -121 49
-150 74 -18 16 -20 16 -38 5z"/>
<path d="M58100 10819 c0 -771 2 -1400 4 -1398 2 2 7 47 11 99 3 52 8 111 10
130 2 19 6 71 10 115 3 44 7 100 10 125 2 25 6 83 10 130 3 47 8 101 10 120 2
19 7 71 10 115 3 44 8 100 10 125 3 25 7 77 10 115 2 39 7 95 9 125 3 30 8 89
11 130 4 41 8 98 10 125 3 28 7 79 10 115 8 105 16 202 20 250 2 25 7 79 10
120 3 41 8 95 10 120 2 25 6 79 9 120 4 41 8 100 11 130 3 30 7 87 10 125 3
39 8 90 10 115 7 70 17 192 19 220 l1 25 -117 3 -118 3 0 -1402z"/>
<path d="M36270 12114 c-100 -38 -784 -286 -1320 -479 -464 -167 -477 -172
-570 -221 -47 -25 -118 -72 -158 -105 l-73 -60 20 -27 c52 -73 224 -262 352
-387 593 -579 1323 -921 2194 -1029 58 -8 317 -20 410 -20 92 0 345 12 390 19
17 2 84 11 150 20 375 50 794 183 1160 368 568 287 1061 725 1416 1259 l58 88
-24 18 c-33 26 -158 87 -225 110 -30 11 -98 27 -150 37 -52 10 -428 91 -835
181 -407 89 -740 162 -741 161 -1 -1 -120 -188 -264 -415 l-262 -414 -27 26
c-15 14 -30 26 -33 26 -3 0 -90 -134 -193 -297 -103 -164 -193 -304 -200 -311
-9 -10 -45 43 -175 260 -232 388 -208 353 -229 333 -18 -15 -31 6 -266 412
-136 235 -255 440 -264 456 -8 15 -22 27 -31 26 -8 0 -58 -16 -110 -35z m132
-319 c147 -235 516 -829 736 -1182 l199 -322 34 52 c18 29 103 158 188 287
177 271 312 476 419 640 324 496 384 582 394 572 7 -7 -142 -243 -508 -801
-286 -435 -523 -790 -529 -788 -9 3 -305 475 -916 1459 -77 125 -137 232 -134
239 10 15 13 12 117 -156z"/>
<path d="M8543 2808 l-62 -10 59 -79 c33 -44 62 -81 64 -82 3 -1 37 40 75 91
l70 92 -72 -1 c-40 -1 -100 -6 -134 -11z"/>
<path d="M8783 2776 c-50 -57 -127 -166 -116 -166 28 0 252 63 321 90 80 31
161 82 170 108 3 9 -35 12 -166 12 l-170 0 -39 -44z"/>
<path d="M9215 2801 c-3 -11 -24 -35 -45 -55 -73 -66 -213 -123 -408 -167
l-103 -22 41 -42 c77 -79 37 -106 -43 -27 l-48 47 -22 -30 c-12 -16 -32 -41
-44 -55 -20 -23 -23 -24 -39 -8 -16 16 -15 19 19 65 l36 49 -88 18 c-48 10
-138 35 -200 56 l-113 37 -86 -57 c-261 -172 -415 -336 -531 -567 -44 -89 -96
-232 -87 -241 3 -3 854 -6 1891 -6 l1885 -1 1 30 c1 17 3 55 4 85 2 30 6 132
10 225 3 94 10 260 15 369 6 109 10 225 10 257 l0 59 -1024 0 c-1002 0 -1025
0 -1031 -19z"/>
<path d="M15074 2763 c3 -32 8 -130 11 -218 3 -88 8 -189 10 -225 2 -36 7
-135 10 -220 6 -173 15 -293 21 -299 7 -7 3766 -6 3770 1 7 12 -46 159 -88
243 -22 44 -61 111 -87 150 -98 147 -312 342 -495 450 l-75 44 -53 -19 c-46
-16 -194 -55 -281 -74 l-28 -7 30 -38 c17 -22 31 -48 31 -60 0 -37 -34 -23
-74 30 l-38 51 -49 -48 c-27 -26 -55 -49 -64 -50 -28 -4 -16 39 22 78 26 27
32 39 22 42 -8 2 -62 16 -121 30 -195 47 -326 105 -388 171 l-23 25 -1035 0
-1034 0 6 -57z"/>
<path d="M17225 2803 c11 -8 52 -30 91 -49 101 -48 364 -119 364 -99 0 10 -36
61 -83 118 l-39 47 -176 0 c-163 -1 -175 -2 -157 -17z"/>
<path d="M17665 2769 c22 -30 48 -66 59 -81 l19 -27 47 67 c26 37 44 71 40 75
-4 5 -52 11 -106 14 l-98 6 39 -54z"/>
<path d="M17847 2722 c-35 -49 -45 -68 -34 -70 17 -3 195 39 242 58 l30 12
-71 28 c-121 46 -113 48 -167 -28z"/>
<path d="M8350 2754 c-36 -14 -77 -30 -92 -36 -16 -5 -28 -13 -28 -18 0 -12
307 -96 317 -87 5 6 -115 167 -124 166 -5 0 -37 -11 -73 -25z"/>
<path d="M6985 1630 c-2491 -4 -3098 -8 -3130 -18 -164 -53 -249 -104 -357
-212 -74 -75 -93 -102 -137 -191 -70 -145 -85 -228 -78 -428 6 -162 18 -228
62 -327 52 -117 155 -242 260 -314 65 -45 181 -97 262 -117 65 -17 1919 -18
38543 -18 37597 0 38477 0 38545 19 280 75 478 268 557 543 31 106 33 391 4
493 -63 220 -204 393 -401 490 -164 81 -22 75 -1675 77 -2972 6 -69462 8
-72455 3z"/>
</g>
</svg>
