<?xml version="1.0" standalone="no"?>
<!DOCTYPE svg PUBLIC "-//W3C//DTD SVG 20010904//EN"
 "http://www.w3.org/TR/2001/REC-SVG-20010904/DTD/svg10.dtd">
<svg version="1.0" xmlns="http://www.w3.org/2000/svg"
 width="6496.000000pt" height="4924.000000pt" viewBox="0 0 6496.000000 4924.000000"
 preserveAspectRatio="xMidYMid meet">
<metadata>
Created by potrace 1.16, written by Peter Selinger 2001-2019
</metadata>
<g transform="translate(0.000000,4924.000000) scale(0.100000,-0.100000)"
fill="#000000" stroke="none">
<path d="M12910 43280 c-99 -28 -176 -76 -266 -164 -105 -103 -139 -164 -174
-311 -9 -38 -12 -1242 -11 -5167 0 -2815 2 -5122 5 -5127 4 -5 45 6 94 26 95
38 104 42 235 102 49 23 91 41 93 41 10 0 541 264 564 280 l25 18 0 4588 c-1
3141 3 4591 10 4596 13 10 36655 10 36656 1 6 -42 2 -3346 -4 -3350 -4 -2 -20
-6 -35 -9 -109 -18 -352 -104 -432 -153 -218 -132 -284 -352 -184 -618 55
-146 134 -250 399 -523 95 -98 179 -199 235 -279 l24 -35 0 -1697 c1 -934 3
-1699 6 -1701 3 -2 32 -14 65 -27 33 -12 69 -27 80 -32 11 -5 110 -45 220 -89
110 -44 209 -85 220 -90 11 -5 45 -19 75 -30 30 -11 64 -25 75 -29 11 -5 45
-20 76 -34 72 -31 131 -85 158 -142 12 -25 22 -45 24 -45 2 0 3 11 3 24 0 15
-4 22 -11 18 -5 -3 -4 1 2 10 10 12 13 284 13 1264 1 687 4 1265 8 1284 7 33
10 35 42 32 19 -2 41 -9 49 -15 12 -9 13 -9 7 1 -4 7 6 5 26 -6 18 -10 40 -17
48 -17 8 1 20 -3 26 -7 7 -5 23 -11 35 -14 30 -6 40 -9 59 -17 8 -3 35 -8 60
-11 25 -3 63 -8 85 -13 49 -9 260 -9 295 1 14 4 36 9 50 12 14 3 34 8 45 11
24 8 25 8 100 27 33 8 62 13 64 10 2 -2 9 3 15 11 6 8 22 16 36 17 14 2 31 9
38 16 7 6 22 12 32 12 10 0 22 5 25 11 4 6 14 8 22 5 8 -3 12 -2 9 2 -6 11 82
54 95 47 5 -4 9 -1 9 4 0 6 22 22 50 36 28 14 50 22 50 19 0 -4 8 0 17 8 25
22 103 60 103 51 0 -5 4 -3 8 3 9 14 112 67 112 58 0 -4 8 0 18 9 9 8 26 17
37 19 11 1 26 9 33 16 12 10 50 17 75 13 5 -1 6 3 2 9 -7 11 42 33 56 24 5 -3
9 0 9 6 0 7 6 10 14 7 8 -3 16 -1 18 4 2 6 18 11 36 11 17 1 32 5 32 9 0 11
66 29 90 24 11 -2 20 1 20 7 0 5 6 8 14 5 7 -3 18 -1 24 5 5 5 28 11 51 11 22
1 41 5 41 8 0 4 9 9 20 12 11 3 20 0 20 -6 0 -7 4 -7 9 2 5 8 18 12 30 8 12
-3 21 -1 21 5 0 5 8 8 18 7 9 -1 24 0 32 4 35 13 60 15 60 4 0 -7 4 -6 9 2 6
9 28 15 63 16 29 0 59 4 66 8 7 5 12 3 12 -5 0 -10 2 -10 9 0 5 9 21 12 44 9
20 -3 37 -1 39 3 2 5 10 10 18 12 8 2 19 8 23 13 5 6 6 -1 2 -15 -4 -19 -4
-21 4 -9 8 12 30 15 118 14 119 -2 242 -13 258 -23 10 -6 19 -8 66 -11 13 -1
18 -5 13 -13 -5 -10 -4 -10 6 -1 10 9 18 9 34 1 12 -7 30 -12 40 -13 11 -1 22
-7 24 -13 2 -6 10 -8 18 -5 8 3 14 0 14 -7 0 -6 5 -8 11 -4 6 3 24 -3 40 -15
15 -11 33 -21 39 -21 6 0 8 -4 5 -10 -3 -5 0 -7 7 -5 8 3 28 -7 45 -22 17 -16
41 -35 52 -43 12 -8 21 -19 21 -24 0 -5 11 -19 25 -32 14 -13 25 -26 24 -29 0
-3 5 -20 12 -38 6 -18 12 -39 13 -47 1 -8 5 -21 9 -27 9 -14 2 -352 -7 -361
-3 -3 -1 -11 6 -19 6 -8 7 -13 2 -12 -23 4 -26 -2 -8 -17 10 -8 13 -13 7 -9
-7 3 -13 3 -13 -2 -4 -101 -12 -168 -22 -175 -8 -5 -9 -8 -2 -8 7 0 9 -11 6
-25 -2 -14 -9 -25 -15 -25 -6 0 -2 -7 9 -16 10 -8 13 -13 7 -9 -7 3 -13 3 -13
-2 -4 -62 -11 -134 -16 -162 -3 -20 -6 -42 -7 -48 0 -7 -3 -13 -7 -13 -3 0 -5
-26 -4 -57 1 -32 0 -62 -4 -67 -6 -10 -3 -118 4 -125 2 -2 22 3 45 12 23 9 46
14 50 11 5 -3 9 0 9 6 0 6 4 9 9 5 5 -3 12 4 16 15 3 11 13 20 21 20 8 0 14 5
14 11 0 5 4 8 8 5 5 -3 20 6 34 19 14 13 28 21 32 18 3 -3 8 2 12 11 3 9 10
14 14 11 5 -3 16 5 24 17 9 12 16 19 16 15 0 -4 17 8 38 27 20 19 47 43 60 54
12 11 22 24 22 31 0 6 4 10 8 9 12 -4 112 99 112 114 0 6 3 9 6 6 3 -3 15 4
27 16 47 47 147 163 147 171 0 4 17 24 38 44 50 49 112 126 112 139 0 6 6 15
13 19 7 4 30 31 50 58 20 28 41 56 47 63 6 6 8 12 4 12 -4 0 3 9 16 20 13 11
20 20 15 20 -4 0 -2 6 4 13 6 8 9 17 6 20 -3 4 -2 5 2 2 7 -5 45 52 49 73 1 8
10 22 18 31 9 10 13 21 9 24 -3 4 -1 7 5 7 7 0 11 3 10 8 -1 4 9 30 22 57 12
28 23 59 24 70 0 11 7 26 13 33 7 7 18 32 24 55 17 60 20 70 23 92 2 11 8 31
13 45 6 14 9 33 7 43 -1 9 1 17 6 17 4 0 7 8 5 18 -1 9 2 26 8 37 13 24 17
572 5 630 -5 22 -10 49 -12 60 -2 11 -4 20 -6 20 -1 0 -3 11 -4 25 -2 14 -8
35 -14 46 -6 12 -9 23 -7 26 3 3 1 18 -4 34 -5 16 -17 55 -26 86 -10 32 -21
56 -24 53 -4 -2 -7 6 -7 18 0 19 -22 72 -66 164 -6 12 -16 20 -21 16 -6 -3 -7
-1 -3 5 16 26 -172 311 -196 296 -5 -3 -7 0 -6 8 2 7 -3 12 -10 10 -8 -1 -12
1 -10 5 4 8 -44 60 -50 54 -2 -1 -7 1 -10 5 -4 4 -1 4 6 0 6 -4 12 -2 12 3 0
6 -10 11 -22 11 -19 0 -20 2 -8 10 11 7 12 10 2 10 -8 0 -37 24 -66 53 -45 47
-158 124 -190 130 -6 1 -17 8 -25 15 -7 7 -20 11 -28 8 -8 -3 -12 -2 -9 2 2 4
-7 13 -22 19 -70 29 -308 107 -358 118 -11 2 -41 9 -69 15 -27 7 -63 14 -80
17 -16 2 -46 8 -65 13 -19 5 -53 12 -75 15 -22 4 -60 11 -85 16 -25 6 -65 13
-90 15 -25 3 -58 9 -75 14 -16 5 -46 12 -65 15 -19 3 -54 10 -78 16 -23 5 -59
12 -80 15 -42 6 -134 31 -302 81 -63 19 -124 36 -134 38 -11 3 -58 16 -105 30
-47 13 -104 27 -126 31 -22 3 -44 7 -50 9 -63 14 -105 18 -218 19 -117 2 -155
-2 -295 -30 -26 -5 -121 -36 -254 -83 -47 -17 -101 -33 -120 -36 -18 -3 -50
-10 -71 -16 -52 -14 -278 -13 -347 1 -30 6 -75 13 -100 16 -25 3 -58 9 -75 14
-16 5 -41 11 -55 14 -14 2 -45 9 -70 16 -25 7 -53 14 -64 16 -10 2 -33 8 -50
13 -17 6 -42 13 -56 15 -14 3 -43 10 -65 16 -22 6 -51 13 -65 16 -14 3 -43 10
-65 16 -22 5 -50 12 -62 14 -54 10 -72 23 -78 56 -3 18 -7 913 -8 1988 -2
1531 -5 1965 -15 1999 -29 99 -93 206 -167 274 -51 48 -161 115 -227 139 l-63
23 -18850 1 c-18254 2 -18852 1 -18915 -16z"/>
<path d="M6501 40819 c-205 -52 -323 -191 -355 -419 -29 -203 -113 -318 -381
-525 -316 -244 -393 -349 -399 -545 -3 -68 12 -134 69 -315 57 -183 70 -269
50 -355 -14 -63 -45 -111 -137 -209 -146 -154 -181 -226 -157 -316 17 -61 101
-139 169 -155 103 -25 224 7 347 91 27 18 120 103 208 189 229 223 281 263
410 315 158 63 263 53 448 -41 93 -47 162 -74 209 -81 22 -2 47 -6 56 -7 34
-5 126 26 230 78 114 57 154 72 215 79 31 4 36 2 26 -9 -14 -17 -156 -96 -339
-189 -11 -5 -20 -13 -20 -17 0 -5 -6 -8 -14 -8 -22 0 -144 -118 -186 -180 -66
-97 -135 -262 -154 -370 -3 -14 -9 -50 -15 -80 -14 -75 -19 -106 -26 -165 -18
-163 -18 -161 -80 -390 -67 -250 -75 -293 -75 -424 0 -204 61 -370 178 -489
77 -79 80 -81 267 -180 247 -131 316 -207 321 -357 3 -82 -4 -118 -52 -272
-47 -150 -48 -156 -48 -248 -1 -135 51 -199 236 -294 188 -97 233 -146 343
-367 90 -182 140 -259 202 -313 51 -46 118 -81 159 -84 26 -2 29 2 37 43 5 25
10 128 10 230 2 225 -12 285 -107 493 -45 98 -74 208 -70 264 6 78 67 147 189
213 142 77 175 115 175 203 0 27 -11 61 -30 97 -105 195 -130 284 -125 455 3
137 24 226 80 344 98 205 285 383 513 487 171 78 223 108 259 148 28 31 58 82
68 116 1 3 4 12 8 20 3 8 15 47 28 85 42 133 85 212 147 274 69 69 135 105
292 156 63 21 118 39 121 41 6 4 126 -84 239 -174 89 -71 210 -193 249 -252
46 -68 78 -149 85 -215 3 -27 6 -114 7 -193 2 -202 20 -253 159 -441 134 -182
174 -261 183 -361 4 -43 -23 -166 -53 -240 -37 -92 -82 -214 -87 -235 -15 -63
-8 -238 13 -325 35 -147 46 -264 31 -356 -16 -105 -106 -306 -199 -440 -76
-112 -74 -107 -49 -99 11 3 87 8 168 11 170 5 180 6 238 34 106 51 175 173
200 353 25 177 52 243 151 364 199 242 227 308 219 518 -2 66 -6 136 -10 155
-3 19 -8 98 -10 175 -5 119 -2 152 15 220 11 44 24 89 29 100 5 11 21 49 36
85 16 36 50 112 78 170 130 277 160 413 122 561 -23 89 -61 157 -167 295 -174
229 -191 265 -263 559 -64 262 -155 411 -288 474 -59 27 -78 32 -187 46 -119
16 -204 51 -356 147 -121 76 -189 102 -269 102 -33 0 -118 -13 -154 -24 -32
-9 -47 -5 -71 20 -3 3 -41 35 -85 71 -224 183 -399 267 -570 274 -78 3 -127
-3 -323 -41 -80 -16 -242 -16 -317 0 -167 35 -243 37 -420 12 -21 -2 -9 156
19 269 32 126 39 281 16 350 -20 61 -60 112 -110 139 -35 19 -66 26 -145 31
-130 9 -139 10 -191 35 -83 41 -128 109 -235 355 -24 56 -57 114 -75 132 -31
32 -33 33 -120 32 -120 -1 -179 22 -305 120 -115 88 -228 157 -280 171 -66 18
-144 18 -218 -1z"/>
<path d="M37850 38185 c0 -2 15 -46 34 -97 19 -51 64 -176 101 -278 37 -102
73 -198 80 -215 7 -16 20 -52 29 -80 15 -45 94 -260 151 -410 12 -33 35 -98
51 -145 16 -47 32 -87 35 -90 4 -3 10 -21 14 -40 4 -19 11 -39 15 -45 4 -5 15
-35 24 -65 10 -30 24 -68 31 -85 13 -30 99 -266 170 -465 42 -117 91 -249 112
-297 7 -17 13 -36 13 -42 0 -6 4 -19 9 -29 5 -9 42 -107 81 -217 40 -110 76
-209 80 -220 4 -11 29 -78 55 -150 25 -71 52 -146 60 -165 14 -36 27 -71 30
-80 1 -3 4 -12 8 -20 23 -59 127 -348 127 -354 0 -5 6 -22 14 -39 23 -54 43
-108 76 -202 18 -49 45 -124 60 -165 59 -154 149 -406 156 -433 3 -15 10 -30
15 -33 5 -3 9 -13 9 -22 0 -9 7 -30 15 -46 8 -15 15 -33 15 -38 0 -6 6 -24 14
-41 7 -18 21 -54 31 -82 19 -56 53 -150 66 -180 5 -11 31 -85 59 -165 28 -80
56 -154 61 -165 4 -11 16 -42 25 -70 9 -27 22 -63 29 -80 7 -16 36 -95 65
-175 29 -80 56 -154 60 -165 5 -11 32 -85 60 -165 29 -80 56 -154 61 -165 5
-11 18 -47 29 -80 12 -33 25 -69 30 -80 4 -11 38 -103 75 -205 37 -102 70
-194 75 -205 11 -25 124 -337 152 -419 11 -33 25 -67 31 -73 5 -7 7 -13 4 -13
-3 0 1 -17 10 -37 18 -43 73 -195 109 -298 13 -38 28 -79 33 -90 5 -11 24 -60
41 -110 29 -83 39 -111 76 -205 17 -45 85 -232 88 -245 2 -5 8 -23 15 -38 6
-16 19 -52 28 -80 9 -29 20 -56 24 -61 5 -6 9 -16 9 -24 0 -8 6 -28 14 -45 8
-18 29 -72 46 -122 27 -77 46 -127 96 -260 4 -11 8 -22 8 -25 3 -14 90 -249
102 -277 8 -17 14 -36 14 -42 0 -6 4 -19 9 -29 13 -24 32 -77 91 -242 29 -80
56 -154 61 -165 4 -11 38 -103 74 -205 75 -209 93 -258 106 -282 5 -10 9 -23
9 -29 0 -6 6 -25 14 -42 13 -29 106 -283 178 -487 17 -47 37 -99 44 -117 8
-17 14 -36 14 -42 0 -6 4 -19 9 -29 5 -9 16 -37 25 -62 8 -25 21 -58 27 -75 7
-16 13 -32 14 -35 1 -3 4 -12 8 -20 3 -8 60 -166 127 -350 66 -184 128 -353
137 -375 8 -22 19 -49 23 -60 25 -63 140 -383 140 -389 0 -5 6 -22 14 -39 8
-18 28 -72 46 -122 34 -99 47 -133 80 -214 12 -29 23 -61 25 -70 1 -9 9 -32
17 -51 14 -34 15 -34 31 -15 23 29 148 187 177 225 14 18 30 38 35 44 6 6 26
32 45 56 19 25 40 52 47 60 7 8 44 56 83 105 38 50 83 106 98 125 15 19 113
143 217 275 105 132 195 247 202 255 6 8 28 35 47 60 20 25 40 50 44 55 30 40
77 101 82 105 3 3 30 37 60 75 30 39 57 72 60 75 3 3 18 23 35 45 16 22 32 42
35 45 3 3 21 25 40 50 19 25 105 133 190 241 85 108 184 234 220 279 36 46 70
88 75 94 6 6 24 29 40 51 17 22 37 49 46 60 17 20 123 154 233 293 71 90 115
115 211 118 96 3 159 -22 233 -95 31 -31 122 -124 201 -206 79 -83 239 -249
356 -370 117 -121 259 -268 316 -328 l104 -107 55 60 c31 33 54 60 53 60 -2 0
13 17 33 38 20 20 52 57 72 82 58 73 105 121 132 135 25 12 69 11 80 -3 3 -4
41 -32 85 -62 44 -30 82 -58 83 -62 2 -4 10 -8 18 -8 8 0 14 -4 14 -9 0 -5 9
-13 20 -16 11 -4 17 -11 14 -17 -4 -6 -3 -8 3 -5 5 4 19 -2 30 -12 19 -18 77
-52 88 -51 3 0 6 0 8 -1 1 0 9 -2 17 -4 8 -1 56 -15 105 -29 50 -15 98 -29
108 -32 9 -2 26 -6 37 -9 11 -3 30 -8 43 -11 76 -19 216 -22 392 -10 61 4 143
9 183 10 40 2 75 5 77 8 6 5 20 61 51 195 22 99 4 93 294 108 63 4 131 8 150
10 44 5 113 12 210 20 92 7 149 14 175 19 11 2 60 7 109 11 50 4 99 9 110 11
30 6 81 13 176 24 47 5 103 12 125 16 132 18 344 49 405 59 19 3 60 10 90 15
30 5 71 12 90 16 19 3 58 10 85 14 61 10 103 18 175 31 30 6 71 13 90 16 66 9
101 -35 -344 427 -110 114 -230 238 -265 275 -35 36 -130 134 -210 216 -138
142 -555 575 -631 655 -19 20 -102 106 -185 191 -82 85 -244 253 -360 373
-115 121 -232 242 -260 271 -27 28 -124 128 -215 221 -196 201 -220 239 -216
349 4 129 41 175 279 349 94 69 375 274 622 456 248 182 522 383 610 447 88
64 210 153 270 198 61 44 148 109 195 143 47 34 90 65 95 69 40 32 258 191
562 413 139 101 250 187 247 191 -2 4 -21 13 -42 20 -20 6 -59 22 -87 34 -83
37 -170 71 -188 74 -4 0 -28 11 -55 24 -26 13 -74 34 -107 46 -33 13 -80 31
-105 42 -25 10 -99 40 -165 67 -66 27 -129 53 -140 57 -11 5 -22 9 -25 10 -3
0 -27 11 -54 23 -27 12 -54 22 -60 22 -7 0 -16 4 -22 9 -5 4 -29 15 -54 24
-37 13 -251 100 -335 136 -11 4 -31 13 -45 19 -29 13 -146 59 -170 67 -16 5
-52 21 -108 46 -35 16 -66 29 -69 29 -6 0 -218 86 -288 116 -22 10 -42 18 -45
19 -3 1 -16 6 -30 12 -14 6 -128 52 -255 102 -126 51 -250 101 -273 112 -24
11 -69 29 -100 41 -32 11 -75 28 -97 38 -22 10 -76 32 -120 50 -121 48 -148
60 -167 70 -10 6 -23 10 -29 10 -6 0 -25 6 -42 14 -95 43 -145 64 -167 71 -14
4 -49 18 -78 31 -29 13 -71 30 -93 37 -21 6 -39 15 -39 19 0 5 -7 8 -16 8 -13
0 -41 11 -129 50 -11 5 -45 19 -75 30 -30 12 -64 26 -75 31 -80 35 -226 93
-257 102 -21 6 -38 15 -38 19 0 4 -6 8 -14 8 -7 0 -33 8 -57 19 -47 20 -81 33
-89 36 -3 1 -22 9 -44 18 -21 9 -41 17 -45 17 -3 1 -24 9 -46 20 -22 11 -44
19 -48 20 -11 0 -71 26 -109 46 -14 8 -31 14 -37 14 -6 0 -34 11 -63 24 -29
13 -73 32 -98 41 -25 9 -56 22 -70 28 -14 6 -27 11 -30 12 -3 0 -27 11 -54 23
-27 12 -52 22 -56 22 -4 0 -20 6 -36 14 -16 8 -119 50 -229 94 -110 44 -237
96 -283 116 -45 19 -86 36 -90 37 -4 0 -23 8 -42 16 -19 8 -111 45 -205 83
-93 38 -207 84 -253 104 -45 19 -83 35 -85 35 -1 -1 -20 6 -42 16 -22 9 -96
39 -165 66 -69 28 -138 56 -155 63 -72 31 -99 42 -260 107 -93 38 -176 69
-182 69 -7 0 -13 3 -13 8 0 4 -18 13 -41 20 -22 7 -59 21 -82 31 -62 27 -196
82 -332 136 -66 26 -143 58 -172 71 -28 13 -55 24 -60 24 -4 0 -19 6 -33 13
-14 7 -47 21 -75 31 -27 10 -68 26 -90 36 -51 22 -77 32 -90 36 -5 1 -48 19
-95 38 -46 20 -90 36 -97 36 -7 0 -13 5 -13 10 0 6 -7 10 -16 10 -9 0 -30 6
-47 14 -62 28 -123 54 -217 90 -52 21 -119 49 -148 62 -29 13 -57 24 -62 24
-5 0 -33 11 -62 24 -29 13 -73 31 -98 41 -25 10 -63 26 -85 35 -22 9 -60 25
-85 34 -25 10 -54 22 -65 27 -11 5 -94 38 -185 75 -91 36 -212 85 -270 109
-95 39 -135 55 -150 60 -11 4 -47 19 -85 35 -22 10 -71 30 -110 45 -38 15 -74
31 -80 35 -12 9 -89 34 -94 31 -2 -2 -7 1 -10 6 -3 5 -44 24 -91 42 -47 18
-94 37 -105 42 -28 12 -504 205 -595 241 -41 16 -89 36 -106 44 -18 8 -83 34
-145 59 -63 25 -122 49 -131 55 -10 5 -23 10 -29 10 -5 0 -36 12 -67 26 -31
14 -86 37 -122 50 -36 13 -74 28 -85 33 -60 28 -119 51 -131 51 -8 0 -14 5
-14 10 0 6 -6 10 -14 10 -7 0 -33 8 -57 19 -43 18 -79 31 -89 33 -3 1 -34 14
-70 31 -36 16 -92 39 -125 52 -33 13 -105 41 -159 64 -97 40 -116 46 -116 36z"/>
<path d="M13455 31091 c-6 -4 -41 -25 -80 -46 -38 -21 -104 -57 -145 -79 -41
-23 -100 -52 -130 -64 -30 -13 -64 -27 -75 -32 -34 -14 -89 -34 -100 -37 -5
-1 -37 -7 -70 -13 -33 -7 -67 -14 -75 -15 -8 -2 -84 -4 -167 -4 l-153 -1 0
-3244 0 -3243 -37 2 c-21 2 -38 4 -38 5 0 1 -16 3 -35 5 -19 1 -78 6 -130 10
-52 5 -116 8 -142 9 -27 0 -48 3 -48 6 0 3 -21 6 -47 6 -27 1 -84 5 -128 9
-44 3 -107 7 -140 9 -33 1 -67 6 -74 11 -10 6 -12 4 -6 -5 6 -9 4 -11 -6 -5
-7 5 -34 10 -59 11 -25 1 -90 5 -145 8 -55 4 -139 8 -186 10 -48 2 -92 6 -98
10 -6 4 -11 1 -11 -6 0 -8 -3 -9 -8 -3 -11 15 -159 19 -647 19 -478 0 -606 -4
-617 -19 -5 -6 -8 -5 -8 3 0 8 -5 10 -12 6 -6 -4 -48 -9 -92 -10 -72 -2 -135
-7 -271 -20 -22 -2 -62 -5 -90 -8 -64 -5 -191 -17 -230 -23 -16 -2 -52 -5 -80
-8 -27 -2 -70 -7 -95 -11 -25 -3 -56 -7 -70 -9 -14 -2 -41 -6 -60 -8 -96 -14
-147 -20 -167 -20 -13 -1 -23 -4 -23 -8 0 -3 -8 -6 -17 -6 -10 1 -47 -3 -83
-8 -36 -4 -76 -9 -90 -11 -14 -1 -25 -3 -25 -4 0 -1 -9 -3 -20 -5 -11 -1 -42
-6 -70 -10 -27 -4 -56 -8 -62 -8 -7 0 -13 -3 -13 -7 0 -4 -8 -7 -17 -7 -10 1
-43 -3 -73 -7 -69 -11 -63 -10 -79 -20 -10 -7 -12 -6 -6 4 6 10 4 11 -6 4 -8
-4 -19 -9 -26 -10 -89 -14 -128 -21 -128 -24 0 -1 -9 -3 -20 -4 -11 -1 -38 -6
-60 -11 -22 -5 -42 -9 -45 -9 -3 -1 -11 -5 -19 -10 -11 -7 -12 -6 -6 5 7 11 6
12 -6 2 -8 -6 -17 -11 -22 -11 -4 0 -26 -4 -50 -8 -23 -4 -45 -7 -49 -6 -5 1
-8 -3 -8 -9 0 -5 -4 -8 -8 -5 -5 3 -32 -1 -60 -8 -28 -8 -53 -11 -56 -8 -3 3
-6 1 -6 -5 0 -5 -6 -10 -12 -10 -22 -1 -72 -12 -98 -22 -22 -8 -66 -19 -87
-22 -5 -1 -19 -6 -33 -11 -14 -5 -32 -11 -40 -13 -8 -3 -34 -11 -57 -19 -22
-9 -53 -17 -67 -20 -14 -3 -31 -8 -38 -13 -15 -9 -75 -32 -101 -38 -10 -2 -32
-11 -49 -20 -17 -8 -37 -15 -45 -15 -7 0 -13 -5 -13 -10 0 -6 -3 -9 -7 -8 -16
3 -63 -15 -63 -24 0 -5 -4 -7 -9 -3 -5 3 -12 1 -16 -5 -3 -5 -13 -10 -21 -10
-8 0 -31 -11 -52 -24 -20 -12 -40 -24 -44 -25 -22 -5 -44 -16 -56 -28 -7 -7
-20 -13 -28 -13 -8 0 -14 -5 -14 -10 0 -6 -3 -9 -7 -8 -5 0 -17 -3 -28 -7 -29
-12 -306 -199 -332 -224 -12 -12 -25 -21 -29 -21 -3 0 -21 -12 -39 -27 -17
-16 -42 -35 -55 -43 -13 -8 -33 -24 -46 -35 -12 -11 -35 -29 -50 -40 -15 -11
-57 -43 -93 -71 -36 -27 -83 -60 -103 -73 -21 -12 -38 -27 -38 -32 0 -5 -5 -9
-10 -9 -10 0 -68 -37 -80 -51 -3 -3 -30 -20 -61 -39 -54 -32 -56 -34 -48 -64
4 -17 10 -49 13 -71 5 -39 31 -206 40 -255 3 -14 10 -54 16 -90 5 -36 12 -76
15 -90 8 -46 27 -165 31 -195 2 -16 5 -39 7 -50 3 -11 8 -40 12 -65 4 -25 9
-52 10 -60 2 -8 8 -51 15 -95 7 -44 14 -89 16 -100 3 -11 7 -36 10 -55 2 -19
7 -48 11 -65 3 -16 7 -41 9 -55 1 -14 8 -54 14 -90 7 -36 14 -76 15 -90 3 -21
15 -91 30 -179 2 -13 7 -45 11 -70 4 -25 9 -55 11 -66 2 -11 6 -31 8 -45 3
-28 23 -152 30 -190 10 -49 28 -165 30 -190 2 -14 4 -25 5 -25 1 0 3 -9 5 -20
6 -37 19 -120 21 -135 1 -8 4 -28 7 -45 3 -16 9 -50 12 -75 4 -25 9 -54 11
-65 7 -33 26 -148 29 -175 2 -14 9 -54 16 -90 6 -36 12 -74 14 -85 1 -11 5
-36 8 -55 4 -19 9 -51 12 -70 2 -19 7 -45 9 -56 2 -12 7 -39 10 -60 10 -67 18
-118 22 -139 4 -19 16 -94 30 -179 3 -21 7 -47 9 -56 2 -10 7 -40 11 -67 3
-26 8 -57 10 -68 3 -11 7 -36 10 -55 2 -19 8 -48 11 -65 4 -16 8 -39 9 -50 1
-11 4 -33 7 -50 3 -16 9 -50 12 -75 4 -25 9 -54 11 -65 8 -39 26 -150 30 -180
2 -16 5 -40 8 -52 6 -27 19 -112 22 -135 1 -10 2 -19 4 -20 3 -5 7 -30 14 -86
3 -30 10 -73 15 -95 5 -23 12 -62 15 -87 3 -25 8 -56 11 -70 5 -27 33 -192 41
-250 3 -19 7 -42 9 -50 2 -8 7 -33 10 -55 3 -23 7 -50 9 -62 3 -12 7 -43 11
-70 7 -50 11 -75 18 -108 3 -11 8 -42 11 -68 4 -27 9 -59 12 -70 2 -12 9 -53
15 -92 6 -38 12 -74 14 -80 1 -5 5 -32 9 -60 9 -56 13 -84 23 -135 7 -42 7
-67 0 -100 -3 -14 -17 -86 -31 -160 -14 -74 -28 -146 -31 -160 -3 -14 -10 -52
-16 -85 -6 -33 -12 -64 -13 -70 -2 -5 -6 -28 -10 -50 -4 -22 -12 -60 -17 -85
-11 -52 -56 -291 -63 -334 -3 -16 -10 -52 -16 -80 -6 -28 -12 -62 -15 -76 -3
-14 -9 -47 -15 -75 -5 -27 -12 -61 -14 -75 -3 -14 -9 -50 -15 -80 -6 -30 -13
-66 -15 -80 -5 -28 -24 -123 -31 -160 -3 -14 -16 -83 -30 -155 -14 -71 -27
-141 -30 -155 -3 -14 -9 -50 -15 -80 -11 -59 -17 -90 -25 -130 -2 -14 -7 -36
-9 -50 -3 -14 -7 -36 -10 -50 -10 -46 -46 -235 -51 -265 -3 -16 -12 -64 -20
-105 -18 -89 -20 -98 -34 -175 -14 -73 -20 -106 -36 -185 -2 -14 -7 -36 -9
-50 -3 -14 -10 -50 -15 -80 -6 -30 -13 -66 -16 -80 -3 -14 -7 -36 -10 -50 -3
-14 -8 -38 -10 -55 -3 -16 -19 -100 -35 -185 -17 -85 -33 -166 -35 -180 -3
-14 -7 -36 -10 -50 -2 -14 -7 -36 -9 -50 -3 -14 -18 -95 -35 -180 -78 -402
-102 -528 -107 -559 -3 -18 -8 -42 -10 -52 -8 -35 -14 -64 -18 -89 -3 -14 -19
-99 -36 -190 -18 -91 -40 -208 -50 -260 -11 -52 -22 -111 -25 -130 -4 -19 -10
-57 -15 -85 -5 -27 -12 -61 -15 -75 -3 -14 -7 -38 -10 -55 -3 -16 -8 -43 -12
-60 -3 -16 -8 -39 -9 -50 -2 -11 -9 -45 -15 -75 -5 -30 -12 -66 -14 -80 -3
-14 -9 -47 -15 -75 -17 -82 -20 -98 -30 -150 -5 -27 -12 -61 -15 -75 -2 -14
-9 -50 -15 -80 -6 -30 -13 -66 -15 -80 -3 -14 -11 -52 -17 -85 -11 -66 -13
-76 -29 -155 -6 -30 -12 -64 -13 -75 -2 -11 -6 -27 -9 -35 -3 -8 -9 -37 -13
-65 -4 -27 -9 -54 -10 -60 -2 -5 -5 -23 -8 -40 -11 -57 -19 -100 -22 -110 -1
-5 -7 -37 -13 -70 -6 -33 -14 -71 -16 -85 -3 -14 -11 -52 -16 -85 -6 -33 -12
-64 -13 -70 -2 -5 -6 -28 -10 -50 -4 -22 -12 -57 -17 -78 l-10 -37 -72 49
c-40 28 -75 47 -78 43 -4 -4 -9 -36 -13 -72 -3 -36 -8 -74 -10 -85 -2 -11 -7
-49 -11 -85 -3 -36 -8 -76 -10 -90 -2 -14 -7 -50 -10 -80 -3 -30 -8 -66 -10
-80 -2 -14 -7 -52 -10 -85 -3 -33 -8 -71 -10 -85 -2 -14 -6 -50 -10 -80 -10
-94 -16 -144 -20 -170 -2 -14 -6 -50 -10 -80 -4 -30 -8 -67 -11 -82 -4 -28 11
-49 49 -70 12 -6 236 -153 497 -326 261 -173 483 -317 492 -319 10 -3 41 15
76 44 33 26 92 73 131 103 40 30 78 60 85 67 7 6 44 35 82 64 110 83 254 201
254 208 0 4 -8 16 -18 27 -10 10 -36 42 -57 70 -149 192 -280 360 -285 364 -3
3 -21 25 -40 50 -19 25 -39 47 -43 49 -5 2 2 8 15 15 12 6 24 20 26 31 2 11
13 39 23 62 10 23 19 44 19 46 0 3 8 22 17 43 9 22 17 41 18 44 0 5 39 103 60
155 13 30 40 99 130 330 26 66 51 129 55 140 16 36 174 436 297 750 30 77 58
149 63 160 5 11 32 79 60 150 28 72 58 145 66 163 7 18 14 36 14 41 0 5 10 30
22 57 12 27 23 54 24 59 1 6 34 90 73 187 39 97 71 179 71 181 0 3 8 22 17 43
9 22 18 41 18 44 1 3 8 21 16 40 7 19 12 38 11 43 -1 4 2 7 7 7 5 0 12 14 16
31 4 17 13 42 21 57 8 15 14 30 14 33 0 4 8 24 17 45 9 22 17 41 18 44 1 6 83
217 95 245 5 11 19 45 30 75 12 30 26 64 31 75 5 11 18 45 29 75 11 30 25 64
30 75 5 11 45 115 90 230 45 116 86 219 90 230 11 26 36 88 104 260 30 77 60
154 67 170 7 17 13 32 14 35 1 3 7 19 14 35 6 17 25 64 41 105 16 41 36 93 45
115 10 22 17 41 16 42 0 2 9 24 20 50 11 27 47 117 80 201 33 85 65 166 71
180 6 15 12 29 13 32 1 3 7 18 13 33 7 16 12 30 12 31 0 2 8 21 17 42 9 22 17
41 18 44 1 6 62 163 78 200 6 14 11 27 12 30 1 3 7 18 13 33 7 16 12 30 12 31
0 2 7 21 16 42 9 22 15 39 14 39 -2 0 7 20 20 45 13 25 22 45 21 45 -4 0 18
59 29 77 6 10 10 23 10 29 0 6 7 25 14 42 8 18 40 95 70 172 30 77 60 154 67
170 7 17 13 32 14 35 1 3 5 14 10 25 4 11 32 81 61 155 29 74 58 149 65 165 7
17 13 32 14 35 1 3 5 14 10 25 33 82 77 192 79 200 2 6 7 19 11 30 5 11 17 43
27 70 10 28 23 59 28 70 5 11 39 97 75 190 37 94 70 179 75 190 14 31 42 102
125 315 42 107 80 204 85 215 5 11 39 97 75 190 36 94 70 179 75 190 5 11 30
74 56 140 25 66 51 131 57 145 6 14 11 27 12 30 4 11 18 48 46 116 26 66 34
102 44 219 14 160 18 205 19 242 1 24 5 43 9 43 5 0 6 4 2 9 -3 5 -2 12 3 15
4 2 8 -3 9 -12 1 -9 4 -30 7 -47 3 -16 11 -61 17 -100 6 -38 13 -81 15 -95 3
-14 9 -50 14 -80 5 -30 11 -68 14 -85 37 -224 39 -239 51 -405 4 -52 9 -120
11 -150 9 -104 11 -135 19 -245 4 -60 9 -126 10 -145 4 -36 12 -134 31 -380 3
-41 7 -91 9 -110 2 -19 6 -84 10 -145 4 -60 9 -126 10 -145 4 -41 13 -156 31
-380 3 -41 7 -91 9 -110 2 -19 6 -84 10 -145 4 -60 9 -126 11 -145 2 -19 6
-69 9 -110 3 -41 7 -102 10 -135 3 -33 7 -94 11 -135 3 -41 7 -91 9 -110 2
-19 6 -84 10 -145 4 -60 9 -126 11 -145 4 -39 11 -136 19 -255 6 -86 13 -166
19 -230 3 -22 7 -89 11 -150 4 -60 9 -128 11 -150 5 -46 11 -120 19 -250 3
-49 8 -111 11 -137 2 -27 6 -69 8 -95 3 -27 8 -91 11 -143 3 -52 8 -122 12
-155 6 -67 7 -83 18 -240 4 -60 9 -128 11 -150 3 -22 6 -65 9 -95 2 -30 6 -98
10 -150 3 -52 9 -115 11 -140 3 -25 7 -72 9 -105 8 -131 16 -233 21 -285 7
-65 9 -101 18 -235 4 -55 9 -122 12 -150 3 -27 7 -72 9 -100 11 -165 18 -273
19 -292 0 -13 2 -23 6 -23 3 0 5 -28 5 -63 0 -34 3 -82 7 -107 5 -39 13 -145
22 -310 2 -25 6 -70 9 -100 6 -57 17 -200 21 -280 1 -25 5 -74 9 -110 7 -72
17 -195 21 -280 2 -30 6 -80 9 -110 6 -52 14 -156 22 -295 2 -33 7 -80 10
-105 5 -34 15 -420 15 -567 0 -18 84 -64 560 -302 l560 -280 280 279 c154 154
280 283 280 286 0 3 -124 130 -276 282 -257 257 -278 276 -312 277 -34 1 -37
3 -36 30 0 17 4 48 7 70 4 22 11 72 17 110 5 39 11 81 14 95 3 14 10 59 15
100 5 41 12 84 14 95 3 11 8 47 12 80 5 33 10 69 11 80 2 11 6 38 8 61 3 23
10 72 16 110 6 38 13 80 14 94 2 14 7 45 10 70 4 25 9 56 11 70 2 14 6 41 9
60 5 30 16 101 30 210 8 60 18 127 23 155 3 17 7 39 8 50 11 73 28 194 31 215
1 14 5 36 8 50 2 14 7 45 11 70 3 25 8 54 9 65 2 11 7 44 11 74 3 30 9 63 11
75 3 12 7 43 9 69 2 26 6 56 9 65 3 9 8 41 11 71 4 30 8 63 11 74 3 19 22 146
30 207 1 14 5 36 8 50 6 31 16 104 21 145 1 17 5 44 8 60 3 17 9 50 12 75 3
25 8 56 10 70 2 14 9 61 15 105 12 87 14 105 31 210 6 39 12 84 14 100 2 17 5
39 8 50 3 11 8 47 11 80 8 68 15 113 21 135 2 8 7 42 11 75 3 33 8 69 10 80 3
11 9 54 15 95 5 41 12 89 15 105 9 57 24 159 30 210 1 11 5 29 7 40 3 11 8 49
12 85 4 36 9 74 11 85 3 11 9 54 15 95 5 41 12 89 15 105 5 32 27 179 45 305
5 41 12 85 14 97 2 12 8 57 15 100 17 123 19 137 24 158 2 11 7 49 11 85 4 36
9 74 12 85 8 37 11 60 18 120 4 32 9 68 11 80 7 34 12 67 19 120 9 75 16 118
20 135 2 8 7 42 11 75 3 33 8 69 10 80 3 11 11 67 19 125 8 58 17 116 19 129
3 13 8 49 11 80 7 57 10 76 19 121 3 14 6 575 6 1248 0 961 3 1221 13 1215 6
-4 8711 -7 19344 -8 15933 0 19334 2 19338 13 3 7 5 1663 5 3680 0 3624 0
3668 -19 3682 -11 7 -18 17 -15 22 6 9 -117 1 -146 -9 -8 -3 -40 -7 -70 -10
-30 -3 -64 -11 -75 -18 -18 -12 -282 -264 -567 -543 -65 -64 -118 -120 -119
-126 -1 -17 1 -2033 4 -3781 2 -863 1 -1576 -1 -1582 -3 -10 -3677 -13 -18326
-13 -10076 0 -18326 4 -18331 8 -7 5 -11 1772 -10 5610 0 3081 -2 5602 -5
5602 -4 0 -10 -4 -15 -9z"/>
<path d="M30317 26845 c-80 -22 -157 -65 -211 -119 -58 -57 -99 -113 -99 -133
0 -7 -3 -13 -7 -13 -13 0 -41 -119 -44 -183 -5 -136 45 -266 140 -360 303
-304 822 -89 822 341 0 223 -151 416 -364 467 -66 16 -176 16 -237 0z"/>
<path d="M47268 26469 c-6 -4 -21 -6 -34 -4 -13 1 -24 -2 -24 -6 0 -5 -3 -8
-7 -8 -25 4 -43 -2 -37 -13 4 -7 3 -8 -4 -4 -16 10 -66 -18 -104 -59 -49 -51
-57 -62 -51 -69 4 -3 2 -6 -4 -6 -6 0 -14 -7 -17 -16 -4 -10 21 -43 78 -102
121 -125 246 -254 448 -464 190 -198 232 -241 552 -572 116 -120 238 -246 271
-281 33 -34 109 -113 169 -174 l109 -112 71 69 c39 39 94 92 122 119 27 26
162 156 299 288 137 132 272 263 301 290 28 28 152 147 274 265 122 118 231
221 241 228 11 7 19 16 19 20 0 4 -154 7 -342 7 -189 0 -406 4 -483 8 -285 15
-415 24 -453 32 -12 2 -51 5 -85 6 -34 1 -84 5 -112 10 -27 4 -77 10 -110 14
-33 3 -82 8 -110 12 -27 3 -57 5 -65 5 -8 0 -26 4 -40 8 -14 5 -52 11 -85 14
-33 3 -73 8 -90 11 -16 4 -72 12 -123 19 -51 7 -94 15 -96 17 -2 2 -7 28 -11
58 -4 30 -9 63 -11 75 -2 12 -7 77 -10 146 -3 69 -7 130 -9 136 -1 5 -23 11
-48 12 -25 2 -56 5 -69 8 -13 3 -54 7 -93 9 -38 2 -70 5 -70 6 0 5 -147 4
-157 -2z"/>
<path d="M31978 26217 c-25 -45 -60 -109 -78 -142 -112 -207 -243 -446 -255
-467 -5 -9 -30 -54 -54 -100 -24 -46 -55 -100 -68 -120 -12 -21 -23 -39 -23
-42 0 -2 -20 -39 -43 -82 -24 -44 -61 -110 -82 -149 -21 -38 -59 -108 -85
-155 -26 -47 -80 -146 -120 -220 -40 -74 -94 -173 -120 -220 -26 -47 -63 -114
-82 -150 -19 -36 -51 -94 -71 -130 -19 -36 -51 -92 -69 -126 -144 -264 -172
-312 -182 -307 -6 2 -39 39 -74 81 -34 42 -76 93 -93 112 -17 19 -48 55 -68
80 -20 25 -38 47 -41 50 -3 3 -53 61 -110 130 -107 127 -124 147 -158 188 -11
13 -35 41 -54 64 -18 23 -38 46 -43 52 -6 6 -46 54 -90 106 -44 52 -84 100
-90 106 -5 6 -26 30 -45 54 -19 24 -39 48 -45 54 -12 13 -114 133 -136 161
-10 11 -34 40 -55 65 -22 25 -57 68 -79 94 -22 27 -45 54 -50 60 -6 6 -45 53
-88 104 -43 50 -81 92 -85 92 -4 -1 -32 -40 -62 -88 -30 -48 -91 -143 -135
-212 -71 -108 -299 -462 -443 -685 -25 -38 -69 -106 -97 -150 -105 -162 -164
-253 -245 -380 -46 -71 -111 -173 -145 -225 -269 -413 -355 -547 -361 -565 -6
-13 315 -15 2995 -15 1651 0 3001 3 3001 6 0 4 -21 45 -46 93 -44 81 -80 147
-208 379 -29 53 -64 117 -76 142 -13 25 -28 48 -34 52 -6 4 -8 8 -3 8 4 0 -3
17 -16 38 -13 20 -47 82 -76 137 -30 55 -57 105 -61 110 -4 6 -29 51 -55 100
-26 50 -58 108 -70 130 -12 22 -40 72 -60 110 -33 60 -210 383 -279 510 -12
22 -55 101 -96 175 -40 74 -102 186 -137 248 -34 63 -63 116 -63 119 0 3 -15
31 -34 62 -18 31 -54 96 -80 144 -26 49 -53 98 -60 110 -7 12 -29 51 -48 87
-19 36 -50 92 -68 125 -18 33 -57 105 -87 160 -30 55 -58 103 -62 107 -3 4
-27 -30 -53 -75z"/>
<path d="M55068 22975 c-2 -2 -55 -6 -118 -9 -63 -4 -131 -8 -150 -10 -19 -2
-69 -7 -110 -11 -41 -4 -88 -8 -105 -10 -77 -7 -397 -52 -440 -62 -11 -2 -47
-8 -80 -13 -33 -5 -71 -12 -85 -15 -14 -3 -59 -12 -100 -20 -41 -8 -97 -19
-125 -25 -27 -6 -59 -12 -70 -14 -109 -22 -355 -82 -520 -126 -113 -30 -151
-40 -277 -74 -29 -8 -98 -28 -153 -44 -55 -17 -140 -42 -190 -56 -49 -15 -101
-31 -115 -36 -14 -4 -59 -18 -100 -30 -41 -11 -82 -25 -90 -29 -9 -5 -30 -12
-48 -15 -17 -4 -35 -12 -38 -18 -18 -29 -24 -2126 -9 -2963 4 -242 8 -494 9
-560 1 -67 5 -123 11 -127 7 -5 6 -8 0 -8 -6 0 -11 -11 -11 -25 0 -14 2 -25 6
-25 3 0 6 -62 7 -138 0 -75 5 -243 9 -372 4 -129 8 -279 8 -332 1 -54 3 -98 6
-98 3 0 6 -44 6 -98 1 -53 5 -171 9 -262 3 -91 8 -210 11 -265 2 -55 6 -136 8
-180 8 -148 18 -359 21 -445 2 -47 4 -85 5 -85 1 0 3 -31 5 -70 1 -38 5 -124
10 -190 4 -66 9 -154 11 -195 2 -41 6 -102 8 -135 2 -33 7 -107 10 -165 18
-284 21 -335 31 -465 4 -56 9 -130 11 -165 2 -36 5 -87 8 -115 2 -27 7 -93 10
-145 4 -52 9 -122 12 -155 3 -33 6 -82 8 -110 2 -27 8 -95 12 -150 4 -55 8
-119 8 -142 0 -24 3 -43 6 -43 3 0 6 -21 6 -48 1 -26 4 -83 8 -127 4 -44 9
-107 12 -140 3 -33 6 -76 8 -95 2 -19 6 -73 10 -120 3 -47 9 -107 12 -135 3
-27 7 -68 9 -90 2 -22 6 -74 10 -115 3 -41 8 -91 9 -112 2 -20 7 -42 11 -49 6
-8 4 -10 -5 -4 -9 5 -11 4 -6 -3 7 -12 13 -53 21 -162 3 -36 8 -87 11 -115 4
-27 8 -63 9 -80 15 -163 18 -204 19 -232 0 -18 3 -33 6 -33 3 0 6 -17 6 -38 3
-91 21 -239 31 -255 4 -6 1 -7 -7 -2 -8 5 -11 4 -7 -2 8 -13 15 -56 22 -133 6
-77 14 -155 20 -190 3 -24 8 -66 21 -195 3 -33 8 -67 9 -76 4 -19 12 -87 21
-179 3 -36 7 -72 9 -80 2 -8 6 -44 9 -80 7 -60 9 -83 21 -182 5 -41 10 -83 20
-168 4 -30 8 -66 10 -80 2 -14 7 -45 10 -70 4 -25 8 -46 9 -47 1 -1 17 -5 35
-8 19 -3 37 -7 40 -9 11 -7 226 -19 349 -20 145 -1 378 11 522 29 14 1 54 5
90 9 36 4 76 9 90 12 14 2 36 6 49 9 13 2 47 7 76 10 29 4 90 14 136 23 l84
17 2 150 c3 277 12 640 17 665 2 14 8 52 12 85 9 75 12 93 17 130 3 17 8 59
12 95 11 97 13 113 19 137 2 12 7 53 11 90 6 77 14 141 20 163 2 8 7 49 11 90
10 109 12 125 14 125 1 0 3 11 5 25 8 76 17 160 22 195 8 63 10 85 17 165 4
41 9 86 11 100 2 14 6 43 9 65 3 22 8 60 10 85 12 118 18 177 22 195 2 11 7
54 10 95 9 100 12 125 14 125 1 0 3 14 5 30 1 17 6 62 10 100 4 39 8 86 10
105 2 19 6 49 9 65 2 17 8 62 11 100 10 100 12 114 19 170 7 53 11 91 21 195
4 36 8 72 10 80 1 8 6 49 10 90 4 41 9 89 11 105 3 17 6 44 8 60 2 17 6 53 9
80 4 28 9 75 12 105 3 30 7 64 9 75 2 11 7 49 10 85 7 70 15 130 21 170 2 14
7 50 10 80 6 54 9 81 21 170 3 25 7 56 8 70 10 83 17 140 20 157 3 11 7 42 10
69 3 27 8 73 12 103 3 30 10 65 15 78 6 18 6 22 -3 17 -6 -4 -8 -3 -5 3 3 5 8
23 11 39 8 48 18 127 21 159 2 17 4 30 5 30 2 0 8 34 14 90 3 28 7 59 10 71 2
12 7 45 11 75 3 30 8 68 12 84 3 17 7 41 8 55 2 14 5 39 8 55 3 17 9 50 12 75
4 25 9 53 11 63 2 10 8 51 13 90 6 40 13 83 16 97 2 13 7 42 10 65 3 22 8 51
10 65 3 14 7 39 10 55 3 17 7 39 9 50 2 11 7 45 12 75 4 30 8 57 9 60 9 39 15
72 20 105 5 38 7 51 19 104 2 10 7 34 10 52 3 19 8 45 11 59 3 14 9 50 15 80
6 30 12 66 15 80 3 14 9 48 15 75 5 28 12 61 15 75 4 14 8 39 11 55 3 17 12
58 20 93 7 34 16 74 19 90 9 48 14 73 19 90 3 9 8 31 11 47 3 17 7 35 9 42 3
18 16 28 17 15 3 -22 4 -27 37 -112 53 -136 64 -163 78 -197 8 -17 14 -38 14
-47 0 -9 4 -16 10 -16 5 0 9 -3 8 -7 -3 -10 2 -24 159 -428 146 -373 316 -805
378 -955 99 -241 147 -361 150 -370 1 -3 8 -21 17 -40 8 -19 28 -64 43 -100
15 -36 41 -94 57 -130 17 -36 42 -90 55 -120 126 -275 393 -787 542 -1038 17
-29 31 -57 31 -62 0 -6 5 -10 12 -10 6 0 9 -3 5 -6 -3 -3 10 -30 29 -59 19
-30 34 -59 34 -65 0 -5 5 -10 10 -10 6 0 10 -4 10 -10 0 -5 14 -33 31 -62 18
-29 40 -66 49 -83 9 -16 50 -84 90 -150 40 -66 81 -133 90 -150 24 -42 179
-295 355 -580 243 -393 277 -448 299 -485 11 -19 24 -36 28 -38 4 -2 8 -8 8
-13 0 -5 22 -45 50 -89 60 -96 280 -461 328 -545 19 -33 42 -73 52 -90 80
-139 183 -321 210 -370 109 -199 161 -298 237 -445 47 -91 93 -173 101 -182
19 -23 66 -23 140 -2 64 18 84 27 230 95 56 27 105 48 108 48 4 0 10 3 13 8 3
5 49 33 101 63 52 29 120 70 150 90 30 21 59 38 64 38 5 0 12 4 15 9 3 5 42
34 86 63 44 30 82 57 85 60 3 3 21 17 40 30 33 23 47 34 90 70 9 8 32 26 50
40 18 14 42 33 53 42 11 10 24 15 29 12 4 -3 7 -1 6 4 -2 4 41 52 94 106 88
88 175 202 187 245 13 49 4 138 -20 196 -7 17 -13 32 -13 35 -2 7 -72 144
-106 205 -30 55 -139 263 -267 510 -114 220 -303 603 -303 615 0 6 -4 10 -8
10 -5 0 -9 6 -9 13 0 6 -24 60 -52 120 -28 59 -50 108 -49 110 0 1 -10 22 -23
47 -13 25 -23 47 -24 50 0 3 -11 27 -23 54 -12 27 -22 50 -22 52 0 2 -11 27
-24 56 -13 29 -49 118 -80 198 -32 80 -62 154 -67 165 -19 44 -53 140 -51 148
1 4 -3 7 -9 7 -5 0 -8 4 -5 8 3 5 -1 19 -8 33 -7 13 -13 29 -14 34 -9 41 -59
181 -67 187 -5 4 -7 8 -4 8 6 0 -30 127 -48 170 -3 8 -7 20 -8 25 -2 6 -22 75
-45 155 -23 80 -43 150 -44 155 -1 6 -5 16 -9 23 -5 6 -6 12 -3 12 2 0 0 15
-5 33 -31 102 -179 664 -194 737 -2 8 -4 15 -5 15 -1 0 -3 11 -6 24 -2 13 -14
60 -25 105 -12 45 -22 88 -24 96 -4 19 -54 228 -61 255 -3 11 -7 31 -10 45 -3
14 -7 33 -10 42 -3 10 -7 30 -10 45 -3 16 -7 36 -10 45 -3 9 -7 26 -9 37 -3
12 -8 31 -11 44 -3 12 -7 36 -10 52 -3 17 -7 37 -10 45 -3 8 -8 26 -10 40 -3
14 -14 66 -25 115 -12 50 -23 99 -25 110 -4 19 -6 31 -19 88 -3 12 -7 33 -10
47 -3 14 -7 36 -10 50 -3 14 -10 45 -15 70 -5 25 -12 55 -15 68 -10 41 -15 67
-20 92 -3 14 -7 36 -10 50 -3 14 -8 35 -11 48 -2 12 -6 32 -8 45 -3 12 -8 33
-11 47 -3 14 -7 36 -10 50 -7 38 -14 70 -25 125 -15 72 -20 96 -25 130 -3 17
-8 37 -10 45 -2 8 -6 26 -9 40 -3 14 -8 36 -11 50 -3 14 -7 37 -10 53 -3 15
-7 39 -10 55 -3 15 -7 38 -10 52 -3 14 -8 39 -11 55 -2 17 -7 41 -9 55 -3 14
-7 36 -10 50 -3 14 -8 41 -11 60 -2 19 -7 46 -10 60 -12 64 -14 76 -19 110 -3
20 -8 47 -10 60 -3 14 -8 41 -10 60 -2 19 -6 44 -9 55 -2 11 -7 45 -10 76 -4
31 -8 66 -10 76 -3 11 -7 44 -10 74 -4 30 -9 72 -13 94 -7 49 -10 78 -19 174
-8 92 -8 93 -17 108 -4 6 -3 14 3 18 6 4 8 10 6 14 -10 16 -28 288 -30 458 0
53 -4 79 -11 75 -5 -3 -4 1 2 9 10 12 10 18 0 29 -7 8 -7 10 -1 7 7 -4 12 3
12 18 0 16 -5 22 -12 18 -6 -4 -5 0 2 9 9 11 10 18 2 23 -6 3 -7 12 -3 18 10
16 11 117 1 123 -5 3 -5 11 -1 17 4 7 8 39 9 72 2 92 15 326 19 365 2 19 7 64
10 100 8 98 16 174 29 290 3 25 8 72 12 105 3 33 8 74 10 90 2 17 6 46 8 66 9
84 19 166 22 194 2 17 6 51 9 76 l5 46 -93 48 c-50 26 -165 88 -255 137 -162
88 -348 182 -452 227 -30 13 -73 32 -95 41 -22 10 -80 32 -130 50 -49 17 -114
41 -144 51 -47 17 -238 74 -281 84 -8 2 -53 12 -100 23 -47 11 -101 24 -120
28 -19 4 -39 9 -45 10 -5 1 -37 7 -70 13 -33 5 -71 12 -85 15 -14 3 -61 10
-105 16 -44 6 -91 13 -105 15 -14 2 -52 6 -85 9 -33 4 -85 9 -115 12 -30 3
-84 8 -120 11 -75 5 -677 13 -682 8z"/>
<path d="M60314 11999 c-58 -28 -114 -91 -160 -179 -44 -84 -74 -132 -87 -141
-5 -3 -9 -10 -10 -15 -1 -5 -6 -8 -10 -6 -5 1 -6 -2 -3 -7 8 -13 -62 -83 -75
-76 -5 4 -9 3 -9 -2 0 -12 -58 -35 -70 -28 -5 3 -10 2 -10 -2 0 -5 -14 -14
-31 -20 -28 -11 -29 -10 -17 5 9 12 6 12 -10 -2 -12 -11 -38 -20 -56 -20 -19
-1 -34 -5 -33 -9 1 -5 -15 -14 -36 -21 -46 -17 -64 -31 -92 -76 -52 -83 -73
-217 -52 -335 29 -164 17 -207 -115 -428 -148 -247 -207 -370 -243 -507 -73
-270 45 -402 360 -404 107 -1 130 2 209 28 114 38 239 119 349 228 128 127
231 265 352 472 51 87 225 428 225 440 0 3 18 44 40 91 22 47 40 88 40 91 0 3
10 26 22 52 58 128 129 311 132 343 5 52 -19 98 -114 225 -94 124 -270 303
-270 276 0 -4 -4 -2 -8 3 -14 20 -78 42 -127 43 -33 1 -64 -5 -91 -19z"/>
<path d="M53059 10251 c-91 -33 -117 -54 -231 -191 -64 -76 -114 -113 -177
-129 -47 -12 -53 -13 -158 -31 -153 -25 -187 -31 -192 -35 -4 -2 -26 -6 -51
-10 -60 -9 -192 -51 -265 -85 -223 -103 -260 -267 -110 -495 70 -107 106 -147
179 -199 98 -69 212 -119 326 -140 14 -3 36 -8 50 -12 14 -3 102 -8 195 -9
152 -3 223 1 320 18 17 3 50 8 75 11 25 4 52 8 60 9 209 43 384 92 710 199
244 81 268 92 294 137 19 33 54 211 61 316 21 298 -15 423 -140 487 -46 24
-180 35 -202 16 -7 -6 -13 -8 -13 -5 0 4 -47 -5 -105 -20 -41 -11 -168 -11
-193 -1 -15 7 -79 46 -142 88 -63 42 -129 82 -146 89 -37 15 -87 12 -145 -8z"/>
</g>
</svg>
