<?xml version="1.0" standalone="no"?>
<!DOCTYPE svg PUBLIC "-//W3C//DTD SVG 20010904//EN"
 "http://www.w3.org/TR/2001/REC-SVG-20010904/DTD/svg10.dtd">
<svg version="1.0" xmlns="http://www.w3.org/2000/svg"
 width="11686.000000pt" height="11667.000000pt" viewBox="0 0 11686.000000 11667.000000"
 preserveAspectRatio="xMidYMid meet">
<metadata>
Created by potrace 1.16, written by Peter Selinger 2001-2019
</metadata>
<g transform="translate(0.000000,11667.000000) scale(0.100000,-0.100000)"
fill="#000000" stroke="none">
<path d="M86868 100028 c-18 -6 -222 -239 -600 -685 -315 -372 -576 -680 -579
-685 -3 -4 -57 -1 -120 7 -718 93 -1452 80 -2203 -41 l-159 -26 -42 44 c-23
23 -296 317 -605 652 -381 412 -574 613 -596 622 -18 8 -45 14 -59 14 -14 0
-470 -196 -1013 -435 -1031 -454 -1031 -454 -1048 -522 -4 -14 26 -417 65
-894 40 -477 71 -876 69 -887 -2 -10 -82 -82 -178 -159 -234 -189 -369 -309
-594 -531 -316 -313 -601 -647 -830 -969 l-101 -143 -45 0 c-25 -1 -429 14
-898 32 -842 32 -853 32 -888 13 -20 -10 -44 -35 -54 -55 -9 -19 -189 -477
-399 -1017 -270 -696 -381 -993 -381 -1021 0 -24 8 -51 23 -71 12 -17 324
-286 692 -598 586 -496 670 -570 668 -592 -1 -15 -11 -105 -22 -201 -18 -160
-32 -368 -47 -700 l-6 -125 -106 3 c-321 8 -6554 139 -8887 187 -19543 400
-34194 626 -47125 727 -2177 17 -10204 17 -11480 0 -2618 -34 -2863 -42 -3290
-108 -2394 -367 -4311 -2263 -4704 -4654 -33 -202 -53 -374 -66 -590 -8 -126
-10 -7477 -8 -26155 3 -24438 5 -25990 21 -26145 71 -688 179 -1208 372 -1785
481 -1447 1376 -2716 2585 -3666 587 -461 1248 -840 1950 -1117 291 -114 852
-291 1008 -317 18 -3 104 -21 190 -40 326 -70 744 -130 1087 -154 208 -15 345
-19 1450 -46 2854 -70 4717 -112 7005 -160 943 -20 1752 -38 1798 -41 72 -5
83 -8 77 -22 -54 -140 -132 -471 -156 -667 -17 -128 -17 -482 -1 -605 52 -397
197 -791 405 -1103 276 -412 660 -748 1122 -982 187 -94 287 -132 770 -295
1064 -358 1822 -645 2156 -816 165 -84 240 -142 296 -226 54 -80 101 -112 250
-170 46 -17 82 -33 80 -34 -1 -1 -126 -35 -277 -74 -151 -39 -281 -73 -287
-75 -9 -3 -10 -11 -3 -29 29 -76 127 -474 170 -686 111 -555 170 -1173 155
-1618 l-7 -203 63 6 c35 3 145 10 244 15 1030 60 2283 201 3515 396 391 61
406 64 1000 173 674 124 1085 205 1723 342 153 32 293 59 310 59 17 0 184 -29
372 -65 682 -130 1352 -244 1980 -340 165 -25 370 -56 455 -70 474 -75 1444
-191 2130 -254 283 -27 949 -81 986 -81 11 0 12 40 7 208 -20 685 119 1413
384 2021 82 189 114 271 109 280 -3 4 14 14 37 20 753 219 3459 1063 3643
1136 886 355 1546 1095 1775 1991 63 249 82 402 83 669 0 237 -13 381 -53 563
l-18 82 108 0 c59 0 748 -11 1531 -25 783 -14 2345 -41 3472 -60 1127 -19
2050 -36 2051 -37 1 -2 -161 -1465 -361 -3253 -200 -1787 -363 -3253 -364
-3257 0 -4 339 -9 753 -11 729 -3 755 -4 839 -25 160 -39 301 -92 473 -177
544 -268 1014 -719 1322 -1268 161 -287 273 -642 303 -957 8 -80 10 -779 8
-2295 l-4 -2180 -22 -110 c-103 -530 -364 -993 -793 -1411 -365 -355 -821
-615 -1237 -707 -96 -20 -116 -21 -1378 -24 l-1282 -4 -6 -22 c-3 -12 -6 -33
-6 -46 l0 -24 -22582 4 -22583 4 -78 -28 c-192 -68 -327 -202 -394 -392 l-28
-80 0 -4775 0 -4775 27 -80 c71 -206 248 -366 455 -410 104 -22 50803 -22
50908 0 225 47 423 244 469 467 10 51 12 397 8 1810 l-5 1748 14455 0 c10132
0 14487 3 14564 11 941 91 1636 729 1601 1468 -3 69 -11 140 -16 156 -6 17
-238 829 -516 1805 -279 976 -520 1808 -536 1849 -194 486 -717 853 -1379 966
-191 33 -421 29 -3200 -59 -1471 -46 -2676 -83 -2676 -82 -1 0 -599 3545
-1328 7876 -730 4331 -1329 7888 -1332 7903 l-6 28 284 -6 c258 -5 902 -14
4678 -60 7427 -91 14857 -160 19413 -181 807 -4 1470 -10 1472 -14 3 -4 119
-610 259 -1346 310 -1628 1114 -5859 1336 -7034 89 -470 165 -858 169 -862 21
-24 674 -113 1006 -138 420 -31 1188 -41 1605 -20 1132 55 2225 197 3560 461
496 98 1304 281 1323 299 5 4 -31 80 -79 170 -505 943 -972 2347 -1363 4098
-151 677 -236 1107 -436 2222 -68 380 -136 791 -210 1270 -121 789 -132 865
-128 873 2 4 498 7 1101 7 1234 0 3004 15 3487 30 413 13 638 36 975 101 1428
277 2704 1095 3554 2279 639 891 1005 1926 1066 3020 5 102 21 604 35 1115 14
512 30 1099 35 1305 81 3000 165 7267 210 10615 48 3585 55 4816 55 9235 0
4097 -4 4863 -35 7215 -140 10511 -588 18443 -1341 23755 -119 838 -167 1112
-250 1419 -440 1620 -1548 2975 -3049 3727 -731 366 -1494 568 -2315 614 -395
22 -2836 91 -8225 235 -1691 45 -6208 161 -6845 175 -231 6 -874 21 -1430 35
-555 14 -1022 25 -1037 25 l-28 0 0 323 c0 331 -9 533 -35 787 -17 162 -61
484 -75 545 -21 89 -62 43 641 695 646 598 679 632 679 691 0 12 -196 468
-436 1013 -326 741 -443 998 -464 1018 -16 15 -44 30 -62 33 -18 3 -428 -27
-911 -68 l-879 -73 -132 166 c-204 253 -340 405 -576 640 -304 305 -597 556
-910 780 -72 52 -142 102 -153 111 l-21 17 33 890 c36 951 37 924 -12 970 -29
28 -2023 802 -2062 801 -16 0 -42 -5 -57 -11z m-1778 -3782 c691 -78 1287
-257 1885 -565 1327 -683 2287 -1899 2660 -3369 25 -95 47 -195 51 -221 19
-143 -142 -224 -241 -121 -22 23 -33 53 -56 153 -298 1317 -1121 2464 -2254
3144 -1263 758 -2745 924 -4125 464 -1029 -344 -1911 -1011 -2518 -1904 -185
-273 -391 -660 -508 -957 -557 -1417 -445 -2975 311 -4289 328 -571 795 -1098
1320 -1486 1131 -838 2549 -1160 3915 -889 435 86 806 212 1215 414 719 353
1299 833 1783 1477 51 68 106 130 122 138 74 38 160 4 194 -77 18 -44 18 -49
3 -90 -40 -104 -312 -433 -577 -699 -286 -287 -490 -456 -805 -664 -710 -472
-1472 -749 -2340 -850 -217 -26 -732 -31 -969 -11 -1012 88 -1941 442 -2741
1045 -274 207 -635 549 -845 801 -674 810 -1081 1769 -1195 2820 -22 202 -31
655 -16 865 90 1285 620 2461 1516 3360 684 687 1521 1156 2482 1391 278 68
518 105 893 138 110 9 712 -3 840 -18z m-320 -3206 c314 -27 638 -132 895
-290 323 -198 603 -511 766 -855 191 -403 240 -880 138 -1318 -159 -678 -652
-1221 -1314 -1447 -700 -239 -1489 -65 -2024 445 -450 429 -681 1043 -621
1646 32 309 135 621 288 867 400 643 1132 1016 1872 952z m-42918 -3725
c18649 -377 33953 -685 34010 -685 l103 -1 -112 -107 c-61 -59 -116 -117 -122
-129 -29 -57 -23 -72 405 -1044 229 -519 427 -967 440 -996 20 -41 34 -56 69
-73 l44 -21 863 70 c475 39 875 72 889 73 23 2 41 -16 134 -132 190 -237 334
-400 560 -628 328 -334 650 -611 986 -849 115 -81 138 -102 138 -123 0 -14
-15 -414 -34 -890 -33 -847 -33 -866 -15 -907 11 -26 30 -48 50 -58 86 -44
2014 -785 2044 -785 18 0 48 10 67 23 19 12 288 323 599 689 311 367 568 669
571 672 3 4 53 -1 110 -9 669 -93 1485 -78 2207 41 85 14 157 24 162 22 4 -2
276 -293 603 -648 328 -355 611 -653 629 -663 22 -12 46 -17 73 -14 38 4 1982
854 2014 880 8 7 22 30 32 52 18 40 17 53 -56 925 l-74 885 28 25 c15 14 79
65 142 115 533 420 1056 972 1459 1538 82 114 85 117 122 117 75 0 1594 -59
1665 -65 84 -7 126 7 163 52 15 17 149 348 330 816 l305 787 105 0 c191 -1
1881 -38 1885 -42 2 -2 -87 -54 -198 -115 -111 -61 -212 -122 -225 -136 -53
-57 -48 -143 13 -196 29 -25 45 -31 82 -31 40 0 71 14 232 104 102 57 258 141
345 187 157 82 160 85 180 131 l20 48 50 0 c135 1 11645 -231 11672 -236 17
-2 120 -54 230 -116 169 -94 206 -111 244 -111 50 -1 89 20 116 60 18 29 24
95 11 131 l-8 22 133 0 c389 0 1587 -32 1723 -45 1000 -102 1898 -674 2417
-1538 227 -378 363 -767 435 -1242 14 -94 17 -237 20 -992 2 -486 1 -883 -4
-883 -4 1 -46 64 -93 142 -47 78 -97 151 -112 162 -42 30 -116 27 -162 -7 -39
-30 -62 -91 -51 -135 3 -13 50 -99 105 -191 54 -91 139 -240 190 -330 50 -91
99 -170 108 -177 15 -11 10 -1707 -61 -23010 -42 -12669 -81 -23147 -87
-23329 -13 -437 -43 -670 -132 -1019 -347 -1367 -1330 -2480 -2648 -3000 -432
-170 -896 -271 -1365 -295 -78 -4 -1358 7 -2869 26 -1501 18 -2731 31 -2733
30 -4 -5 29 -177 73 -380 21 -92 35 -169 33 -171 -22 -18 -313 -174 -432 -231
-897 -430 -1866 -570 -2825 -410 -265 45 -647 150 -813 224 l-46 21 -188 499
-187 499 -91 6 c-77 4 -59524 738 -59701 736 l-58 0 6 -92 c16 -226 26 -479
32 -826 l7 -372 27 0 c15 0 13496 -229 29958 -510 16463 -280 29965 -510
30005 -510 l73 0 -22 -151 c-13 -83 -24 -152 -26 -154 -2 -1 -13413 226
-29803 505 -16390 280 -29895 510 -30012 512 l-212 3 -5 -70 c-3 -38 -10 -155
-16 -260 -63 -1120 -289 -2195 -658 -3124 -45 -115 -63 -148 -85 -161 -40 -25
-777 -384 -1247 -608 l-395 -189 -5 2446 -5 2446 -25 50 c-31 63 -110 143
-175 175 l-50 25 -5740 0 -5740 0 -67 -33 c-74 -36 -132 -95 -170 -170 l-23
-47 -3 -2362 c-1 -1300 -5 -2363 -9 -2363 -20 0 -1579 815 -1674 875 -31 20
-42 39 -88 156 -373 943 -564 2068 -549 3226 l3 271 -250 6 c-137 4 -4111 72
-8830 152 -8034 136 -8582 146 -8615 163 -51 26 -80 74 -80 133 0 60 22 101
70 131 34 21 44 22 245 19 116 -2 4038 -68 8717 -147 4679 -80 8563 -145 8632
-145 l125 0 5 53 c3 28 12 136 21 238 19 227 57 552 89 760 14 85 24 154 23
155 -1 1 -2988 38 -6637 82 -3649 45 -6732 86 -6850 92 -518 25 -975 123
-1440 307 -674 267 -1254 677 -1743 1233 -643 732 -1030 1666 -1097 2655 -8
115 -10 7090 -8 24745 3 23330 5 24591 21 24704 95 647 305 1165 671 1653 430
574 1020 998 1691 1216 298 97 529 142 880 170 22 2 78 4 125 5 47 1 15344
-306 33992 -683z m67478 -58875 c2296 -39 4195 -73 4219 -76 144 -19 171 -226
38 -284 -41 -18 -166 -16 -4285 55 l-4243 72 -137 133 c-75 74 -148 144 -162
157 l-25 24 210 -6 c116 -3 2089 -37 4385 -75z m-78837 -1109 c228 -59 442
-233 551 -448 72 -143 101 -346 72 -511 -52 -297 -223 -498 -496 -584 -63 -19
-96 -23 -210 -23 -160 0 -223 14 -355 79 -160 79 -273 193 -350 351 -70 144
-80 193 -79 395 0 162 2 182 28 265 42 139 89 218 182 313 67 67 97 89 165
121 46 21 109 44 139 50 30 6 64 13 75 15 41 10 203 -4 278 -23z m-17343
-19922 c368 -102 634 -371 733 -743 l22 -81 0 -3205 0 -3205 -22 -82 c-55
-205 -122 -322 -273 -473 -151 -151 -268 -218 -473 -273 l-82 -22 -2190 0
-2190 0 -81 22 c-195 52 -356 145 -490 285 -126 132 -205 273 -256 458 l-23
85 0 3200 0 3200 22 88 c50 193 131 336 272 478 166 165 342 252 591 292 14 3
997 4 2185 3 l2160 -1 95 -26z m3340 2 c99 -30 231 -99 306 -161 130 -107 234
-274 274 -441 20 -86 20 -91 18 -3460 l-3 -3374 -28 -80 c-41 -114 -90 -203
-156 -281 -103 -122 -218 -199 -381 -256 l-95 -33 -465 0 c-532 0 -521 -1
-700 87 -94 46 -116 62 -206 152 -82 83 -108 117 -147 192 -25 50 -56 126 -69
170 l-23 79 0 3375 0 3375 23 79 c81 282 313 510 587 579 95 25 98 25 555 23
419 -2 438 -3 510 -25z m48377 -557 c92 -68 98 -176 13 -247 -17 -15 -48 -28
-73 -31 -66 -9 -1781 -30 -1810 -22 -15 3 -42 20 -62 37 -83 73 -61 195 44
249 18 9 226 16 815 25 1014 16 1036 16 1073 -11z m-4382 -84 c79 -77 61 -195
-38 -246 -24 -13 -490 -22 -3055 -59 -1665 -24 -3147 -46 -3294 -49 l-268 -6
0 155 0 155 163 1 c89 0 1431 20 2982 44 1551 23 2967 42 3147 41 l327 -1 36
-35z"/>
<path d="M84364 92745 c-463 -68 -881 -324 -1159 -710 -79 -109 -194 -336
-235 -462 -61 -191 -75 -294 -75 -548 1 -199 4 -244 23 -332 82 -375 275 -708
556 -956 222 -195 494 -330 795 -394 114 -24 147 -27 341 -27 185 -1 231 2
328 22 413 83 784 311 1036 636 407 524 480 1240 186 1826 -261 519 -739 863
-1313 945 -124 18 -360 18 -483 0z"/>
<path d="M74657 88250 c-39 -40 -40 -41 -35 -103 4 -42 40 -164 111 -379 58
-175 113 -331 122 -348 23 -44 70 -70 129 -70 43 0 53 4 88 40 39 39 40 41 35
97 -4 50 -186 619 -233 731 -19 44 -68 72 -128 72 -43 0 -53 -4 -89 -40z"/>
<path d="M104320 87858 c-37 -19 -166 -167 -745 -850 -385 -455 -709 -836
-720 -848 -20 -19 -21 -19 -175 0 -654 81 -1382 93 -2035 35 -224 -20 -530
-60 -735 -95 l-165 -29 -29 32 c-1364 1475 -1487 1606 -1531 1623 -28 10 -59
15 -82 11 -21 -2 -535 -224 -1143 -492 -608 -268 -1159 -510 -1224 -539 -131
-56 -178 -93 -197 -154 -9 -32 5 -226 80 -1133 50 -602 91 -1101 91 -1110 0
-9 -44 -49 -97 -90 -514 -391 -1100 -960 -1538 -1494 -108 -131 -400 -516
-465 -613 l-35 -52 -55 0 c-30 0 -532 18 -1114 41 -986 38 -1062 39 -1101 25
-23 -9 -52 -27 -65 -41 -34 -36 -1000 -2528 -1000 -2579 0 -89 -15 -75 888
-839 l849 -718 -13 -92 c-18 -130 -51 -472 -66 -672 -16 -220 -16 -941 0
-1160 28 -383 81 -831 127 -1070 8 -44 15 -85 15 -92 0 -7 -208 -205 -462
-441 -1213 -1125 -1176 -1089 -1188 -1128 -7 -20 -10 -57 -8 -83 4 -32 119
-304 375 -886 204 -462 446 -1012 539 -1223 120 -274 177 -392 198 -413 60
-59 10 -60 1164 35 581 48 1080 90 1107 93 l50 5 85 -108 c573 -739 1318
-1449 2063 -1968 l97 -67 -6 -127 c-3 -70 -23 -568 -43 -1107 -27 -693 -35
-991 -28 -1018 22 -86 -31 -62 1328 -590 1370 -532 1316 -514 1390 -464 19 12
354 401 746 862 l711 840 49 -2 c26 0 129 -10 228 -22 394 -45 588 -55 1075
-55 350 0 518 4 680 17 349 28 669 68 955 118 l120 21 35 -39 c19 -22 360
-391 758 -820 460 -497 734 -786 753 -794 77 -31 45 -44 1341 526 673 296
1239 550 1258 565 23 18 40 43 51 76 16 47 14 83 -71 1104 -48 580 -89 1078
-91 1106 l-4 51 120 93 c322 249 628 523 955 856 401 407 671 732 1042 1254
l27 38 83 -5 c46 -2 548 -22 1116 -43 890 -34 1038 -38 1065 -26 77 33 66 7
581 1334 302 779 486 1266 486 1287 0 90 27 65 -887 837 -829 702 -854 724
-849 753 11 62 46 376 62 555 21 248 30 1000 15 1266 -22 373 -62 743 -119
1082 l-28 163 818 756 c888 822 857 790 846 885 -7 59 -1071 2473 -1107 2511
-40 44 -74 57 -143 57 -35 0 -540 -41 -1123 -89 -583 -49 -1063 -87 -1067 -85
-4 3 -44 52 -89 111 -546 707 -1252 1385 -1986 1910 -94 66 -163 123 -163 132
-1 9 18 513 42 1120 l42 1103 -25 47 c-16 30 -37 53 -64 67 -75 41 -2498 977
-2539 981 -29 3 -54 -2 -86 -19z m-2585 -4738 c1466 -72 2843 -618 3951 -1565
163 -139 443 -412 588 -575 744 -830 1257 -1818 1511 -2914 42 -181 41 -209
-9 -263 -54 -60 -153 -57 -210 5 -11 13 -32 83 -56 184 -235 1011 -687 1911
-1355 2694 -140 166 -483 509 -649 649 -641 547 -1377 956 -2182 1214 -179 58
-445 127 -654 170 -608 125 -1310 154 -1940 80 -1185 -139 -2334 -632 -3250
-1393 -1012 -842 -1744 -2013 -2059 -3297 -178 -722 -225 -1462 -140 -2203
168 -1486 898 -2895 2016 -3897 598 -536 1287 -946 2053 -1224 472 -171 969
-283 1505 -340 207 -22 773 -31 1002 -16 821 56 1573 256 2309 616 652 318
1161 681 1675 1194 239 240 414 440 589 675 54 72 107 140 119 150 28 26 109
33 147 13 60 -31 90 -98 73 -161 -12 -43 -175 -263 -341 -461 -1391 -1660
-3535 -2523 -5673 -2284 -1939 216 -3667 1268 -4728 2880 -937 1423 -1280
3155 -952 4815 293 1482 1073 2800 2225 3760 557 464 1227 848 1920 1102 816
298 1680 433 2515 392z m47 -4045 c967 -113 1769 -763 2073 -1680 97 -290 129
-513 122 -835 -8 -399 -76 -683 -248 -1039 -117 -243 -251 -433 -448 -635
-394 -402 -859 -641 -1416 -728 -183 -28 -509 -30 -690 -5 -548 78 -1044 324
-1425 706 -130 131 -209 227 -317 388 -348 522 -483 1185 -368 1807 184 992
925 1761 1908 1980 244 55 557 71 809 41z"/>
<path d="M101365 78804 c-348 -34 -566 -93 -830 -224 -446 -220 -782 -557
-1001 -1003 -329 -670 -293 -1479 93 -2107 304 -493 781 -845 1338 -985 332
-84 718 -87 1045 -9 634 151 1174 580 1459 1159 419 850 254 1856 -415 2529
-332 335 -773 555 -1244 621 -113 15 -370 27 -445 19z"/>
<path d="M108656 87650 c-89 -28 -126 -151 -65 -217 13 -14 107 -81 209 -150
102 -69 237 -163 302 -210 147 -106 168 -113 250 -81 61 23 89 129 50 193 -20
32 -219 178 -486 356 -165 110 -204 126 -260 109z"/>
<path d="M94445 87629 c-50 -27 -271 -177 -473 -321 -91 -66 -158 -121 -167
-138 -22 -43 -19 -101 8 -141 31 -46 62 -61 122 -56 45 3 65 14 200 111 83 59
223 157 313 218 102 68 171 121 183 141 70 116 -65 252 -186 186z"/>
<path d="M75212 86959 c-59 -12 -102 -69 -102 -134 0 -25 33 -106 109 -267 61
-127 112 -232 114 -234 2 -2 75 -7 161 -11 l157 -6 -103 209 c-57 115 -122
250 -145 299 -23 50 -53 101 -66 113 -30 28 -80 41 -125 31z"/>
<path d="M109774 86791 c-35 -21 -64 -75 -64 -118 0 -50 32 -90 150 -189 63
-53 189 -162 279 -243 91 -80 174 -151 185 -158 33 -19 104 -16 141 7 20 12
39 37 49 60 35 88 17 118 -172 287 -196 174 -400 346 -429 361 -33 18 -104 14
-139 -7z"/>
<path d="M93289 86782 c-56 -36 -298 -248 -313 -274 -22 -36 -20 -106 3 -144
25 -41 83 -68 132 -61 44 6 40 3 227 160 166 139 185 173 148 262 -28 67 -135
98 -197 57z"/>
<path d="M110853 85839 c-65 -19 -106 -103 -84 -171 7 -20 70 -96 161 -193 83
-88 196 -212 253 -276 56 -64 114 -124 129 -133 15 -9 47 -16 78 -16 47 0 56
4 91 39 35 34 39 44 39 87 0 30 -7 61 -18 79 -24 39 -185 219 -374 417 -169
178 -190 191 -275 167z"/>
<path d="M111765 84750 c-56 -37 -82 -120 -53 -173 6 -12 77 -110 157 -218 80
-107 180 -243 221 -302 49 -69 86 -112 107 -122 123 -59 247 65 185 185 -51
101 -431 603 -476 631 -40 25 -103 24 -141 -1z"/>
<path d="M92170 83848 l0 -152 41 39 c56 55 72 89 66 142 -5 47 -32 85 -79
109 l-28 15 0 -153z"/>
<path d="M91320 83267 c-14 -7 -95 -69 -180 -138 -85 -69 -220 -173 -298 -233
-109 -82 -147 -116 -159 -144 -21 -51 -9 -98 37 -144 34 -34 43 -38 88 -38 55
0 89 21 317 198 272 211 354 284 371 329 16 40 16 46 0 88 -10 25 -30 54 -45
65 -38 26 -99 34 -131 17z"/>
<path d="M89992 82325 c-105 -64 -256 -151 -334 -194 -129 -71 -145 -82 -166
-122 -37 -71 -11 -148 62 -183 65 -31 82 -24 381 147 280 160 391 234 409 271
44 93 -18 196 -119 196 -34 0 -72 -19 -233 -115z"/>
<path d="M88791 81704 c-80 -36 -236 -101 -348 -146 -218 -86 -246 -105 -259
-173 -8 -44 25 -114 65 -138 54 -32 96 -23 343 77 368 147 468 195 495 235 44
65 21 161 -46 196 -52 26 -97 17 -250 -51z"/>
<path d="M88780 77673 c1 -326 15 -334 41 -23 18 203 18 205 -3 248 -11 23
-24 42 -29 42 -5 0 -9 -113 -9 -267z"/>
<path d="M88641 75523 c-45 -23 -71 -67 -71 -123 0 -105 75 -678 96 -737 39
-108 199 -113 249 -7 17 37 17 42 -13 263 -18 124 -39 294 -48 376 -9 83 -23
162 -30 177 -30 59 -119 84 -183 51z"/>
<path d="M88851 74153 c-39 -20 -71 -66 -71 -105 l0 -28 139 0 139 0 -10 38
c-12 45 -42 80 -85 98 -42 18 -70 17 -112 -3z"/>
<path d="M89650 71468 c-34 -56 -26 -97 53 -272 117 -260 243 -509 270 -534
77 -72 211 -24 231 83 7 36 0 55 -85 225 -51 102 -125 257 -166 345 -41 88
-79 165 -85 172 -7 9 -41 13 -104 13 l-94 0 -20 -32z"/>
<path d="M90330 70283 c-50 -26 -85 -99 -73 -150 l9 -38 162 -3 c96 -1 162 1
162 7 0 20 -87 155 -112 174 -37 28 -105 32 -148 10z"/>
<path d="M90363 69935 c5 -11 149 -248 228 -372 7 -13 17 -23 21 -23 5 0 8 85
8 188 0 235 9 222 -149 222 -95 0 -112 -2 -108 -15z"/>
<path d="M90760 69623 l0 -202 31 9 c49 14 79 39 95 75 25 61 18 95 -39 187
-96 153 -87 160 -87 -69z"/>
<path d="M91091 69123 c-53 -28 -76 -66 -76 -126 0 -47 5 -59 54 -127 75 -104
342 -447 391 -502 60 -69 131 -80 204 -33 25 17 26 21 26 107 l0 90 -123 156
c-68 86 -166 213 -218 281 -52 69 -106 133 -120 143 -38 28 -97 33 -138 11z"/>
<path d="M110885 67770 c-32 -10 -307 -277 -331 -322 -51 -97 42 -214 154
-193 30 5 63 33 180 148 79 78 150 154 158 169 19 36 18 104 -2 138 -30 50
-102 77 -159 60z"/>
<path d="M92550 67432 l0 -143 29 15 c54 29 82 98 62 158 -6 19 -29 52 -51 73
l-40 39 0 -142z"/>
<path d="M92960 67072 c-73 -36 -100 -123 -61 -189 24 -39 373 -339 556 -478
46 -34 53 -37 102 -33 41 4 60 11 83 33 54 52 62 124 19 179 -11 14 -79 74
-152 133 -73 59 -194 161 -271 226 -76 66 -150 126 -165 133 -35 19 -69 18
-111 -4z"/>
<path d="M110123 67047 c-18 -6 -99 -69 -180 -138 -81 -69 -207 -174 -280
-233 -73 -58 -139 -116 -148 -129 -9 -13 -15 -43 -15 -75 0 -50 3 -58 39 -93
36 -36 43 -39 94 -39 l56 0 149 119 c207 165 428 356 449 387 22 35 22 111 -1
146 -35 54 -105 78 -163 55z"/>
<path d="M108992 66168 c-29 -18 -174 -114 -322 -213 -239 -160 -272 -185
-291 -223 -34 -68 -9 -141 61 -177 52 -27 88 -19 195 44 160 95 536 353 558
383 28 38 28 118 1 156 -25 34 -79 62 -119 62 -17 0 -54 -14 -83 -32z"/>
<path d="M107715 65379 c-82 -44 -234 -123 -336 -174 -154 -78 -190 -100 -208
-128 -56 -90 8 -207 114 -207 36 0 271 112 550 263 139 75 169 96 191 139 41
79 -19 177 -113 185 -44 4 -59 -2 -198 -78z"/>
<path d="M106680 64715 l0 -136 28 15 c99 52 110 181 19 236 -18 11 -35 20
-39 20 -5 0 -8 -61 -8 -135z"/>
<path d="M31838 51159 c-145 -14 -344 -46 -718 -115 -796 -147 -1158 -186
-1690 -183 -250 2 -337 -9 -492 -61 -235 -79 -439 -222 -661 -465 -60 -66
-198 -230 -307 -365 -346 -430 -529 -623 -767 -813 -306 -244 -458 -482 -558
-872 -56 -217 -76 -378 -82 -653 -10 -428 34 -802 147 -1262 99 -401 210 -711
408 -1141 206 -448 367 -727 582 -1009 85 -111 258 -308 315 -360 l28 -25 -6
31 c-3 16 -9 127 -13 245 l-7 214 -33 39 c-177 207 -295 814 -255 1306 24 293
71 425 177 506 35 27 44 29 129 29 85 0 96 -2 168 -38 43 -21 120 -72 172
-113 53 -41 98 -74 100 -74 3 0 5 6 5 14 0 8 22 84 50 168 82 255 143 362 277
488 93 88 162 131 281 176 442 165 1151 84 2324 -267 112 -33 366 -114 564
-179 372 -123 521 -160 713 -180 266 -26 546 7 797 94 l94 33 7 -36 c5 -20 8
-166 8 -326 -1 -334 -21 -534 -91 -905 l-7 -35 48 45 c60 57 184 201 262 305
364 482 691 1193 922 2005 171 603 183 662 185 895 2 347 -87 584 -291 776
-103 95 -197 145 -405 213 -259 84 -408 167 -551 305 -150 145 -218 256 -382
625 -162 364 -230 478 -380 635 -143 149 -272 234 -435 285 -164 52 -391 68
-632 45z"/>
<path d="M101380 50920 c-897 -61 -1636 -480 -2077 -1177 -69 -110 -190 -357
-238 -486 -176 -478 -235 -1040 -165 -1572 11 -82 20 -154 20 -160 0 -5 60
107 133 250 143 278 185 357 335 615 93 161 267 446 283 464 4 5 42 -19 84
-52 152 -123 373 -232 690 -342 339 -117 811 -226 1070 -248 l80 -7 32 -150
c18 -82 93 -440 168 -795 75 -355 139 -653 141 -663 5 -14 18 -7 77 42 224
183 425 275 602 276 82 0 97 -3 157 -33 116 -57 218 -191 263 -347 21 -72 24
-191 6 -265 -71 -292 -413 -559 -812 -635 -96 -18 -262 -20 -343 -4 l-57 12
-37 -43 c-60 -70 -64 -78 -53 -98 15 -29 1001 -4467 1001 -4509 l0 -38 147
-75 c482 -247 797 -563 1015 -1018 164 -342 235 -747 198 -1123 -31 -301 -99
-516 -267 -849 -406 -798 -650 -1486 -807 -2280 -110 -552 -155 -986 -163
-1578 -7 -443 18 -1007 44 -1033 19 -19 461 -87 773 -120 164 -17 840 -23
1036 -10 1304 90 2533 497 3581 1187 1398 921 2337 2284 2662 3864 201 978
147 2061 -154 3110 -325 1128 -909 2184 -1723 3115 -139 159 -564 582 -727
724 -422 368 -824 657 -1264 911 -560 321 -1113 546 -1734 706 -138 35 -279
77 -313 93 -181 85 -324 230 -409 415 -87 186 -101 376 -47 631 50 240 65 376
65 605 0 221 -16 374 -58 560 -223 986 -1046 1753 -2178 2029 -353 87 -720
122 -1037 101z m2550 -1815 c62 -124 96 -254 111 -429 15 -170 3 -355 -51
-746 -54 -400 -64 -514 -57 -713 8 -251 46 -406 152 -622 109 -225 251 -413
499 -660 333 -333 827 -722 1861 -1465 1174 -844 1673 -1246 2195 -1770 970
-972 1505 -1972 1631 -3048 25 -205 29 -585 10 -767 -57 -540 -215 -1008 -475
-1407 -27 -43 -53 -78 -56 -78 -3 0 -18 10 -33 23 l-29 23 67 104 c218 344
355 726 427 1190 19 128 22 184 23 475 0 361 -9 461 -66 750 -200 1014 -809
1996 -1814 2925 -475 439 -899 772 -1940 1520 -1611 1158 -2101 1600 -2370
2138 -184 367 -207 673 -106 1402 47 341 54 414 54 595 -1 263 -44 434 -152
603 l-50 77 27 28 27 28 33 -38 c17 -21 55 -83 82 -138z m1755 -5446 c434
-440 701 -737 1012 -1126 1017 -1273 1552 -2521 1644 -3838 15 -211 6 -646
-16 -840 -22 -194 -59 -404 -100 -571 -37 -150 -112 -393 -125 -408 -5 -4 -23
-3 -43 3 l-34 12 35 102 c83 247 153 582 189 899 21 190 24 718 5 913 -103
1049 -450 1979 -1107 2970 -177 267 -332 481 -524 720 -354 442 -626 739
-1245 1355 l-196 194 27 28 26 27 76 -68 c42 -38 211 -205 376 -372z"/>
<path d="M99945 44279 c-78 -23 -275 -41 -383 -36 l-112 5 -72 -101 c-181
-255 -381 -593 -544 -917 -103 -205 -218 -458 -229 -503 -6 -22 6 -32 122
-107 234 -153 479 -296 756 -444 82 -44 140 -66 240 -92 73 -19 232 -64 355
-100 123 -36 225 -64 226 -62 4 4 -321 2359 -326 2363 -2 1 -16 -2 -33 -6z"/>
<path d="M19330 21843 c-376 -13 -869 -57 -1103 -99 l-87 -16 -77 -77 c-196
-196 -354 -457 -438 -721 -53 -167 -66 -254 -72 -455 -5 -164 -2 -207 16 -310
52 -303 178 -556 384 -771 97 -102 102 -105 262 -139 345 -75 1578 -12 3055
156 581 65 1707 213 1719 224 2 3 -42 5 -98 5 -56 0 -137 7 -179 16 -376 76
-665 426 -701 848 -42 492 211 975 617 1182 41 20 70 40 65 44 -21 20 -1171
86 -1898 110 -262 9 -1253 11 -1465 3z"/>
<path d="M38080 21744 c-850 -28 -960 -33 -960 -45 0 -5 24 -21 53 -35 301
-153 528 -480 593 -858 25 -142 15 -392 -20 -511 -83 -279 -248 -484 -481
-596 -121 -59 -215 -79 -363 -79 -69 0 -123 -2 -121 -4 6 -6 786 -136 1169
-195 1248 -192 2226 -305 2965 -341 378 -18 534 -12 715 31 83 19 87 21 158
92 230 225 369 485 424 792 31 168 30 412 0 577 -56 300 -198 600 -398 837
-119 143 -130 151 -231 171 -333 69 -761 114 -1413 151 -176 10 -1859 20
-2090 13z"/>
<path d="M103391 4648 c-85 -376 -284 -730 -517 -920 -38 -31 -139 -100 -224
-153 -333 -210 -1006 -666 -1827 -1238 l-402 -280 -168 2 c-317 4 -437 -36
-503 -165 -22 -42 -25 -62 -25 -144 0 -78 4 -102 22 -136 34 -64 71 -103 127
-132 l51 -27 665 0 665 0 80 28 c161 57 239 120 392 315 546 700 1001 1150
1251 1238 81 28 105 29 157 5 199 -90 311 -564 318 -1339 l2 -252 132 0 c129
0 133 1 138 22 2 13 79 489 171 1058 l166 1035 -5 160 c-4 127 -10 179 -30
256 -59 227 -152 387 -323 560 -78 78 -241 199 -276 205 -11 1 -21 -26 -37
-98z"/>
<path d="M114000 3728 c0 -3 77 -161 170 -352 105 -213 176 -370 185 -409 70
-296 -139 -576 -504 -675 -92 -25 -107 -26 -361 -27 -281 0 -372 8 -568 51
-200 44 -328 103 -428 196 -78 73 -108 139 -124 268 -19 168 -122 745 -134
757 -2 3 -11 -8 -19 -24 -26 -50 -47 -135 -47 -192 0 -82 147 -1286 166 -1361
44 -170 186 -498 319 -737 304 -545 678 -948 1038 -1118 156 -74 249 -97 418
-102 167 -6 212 3 295 62 189 134 341 516 413 1035 41 295 57 623 42 826 -10
133 -14 151 -75 330 -193 573 -428 1042 -676 1354 -63 79 -110 130 -110 118z"/>
</g>
</svg>
