<?xml version="1.0" standalone="no"?>
<!DOCTYPE svg PUBLIC "-//W3C//DTD SVG 20010904//EN"
 "http://www.w3.org/TR/2001/REC-SVG-20010904/DTD/svg10.dtd">
<svg version="1.0" xmlns="http://www.w3.org/2000/svg"
 width="4500.000000pt" height="4894.000000pt" viewBox="0 0 4500.000000 4894.000000"
 preserveAspectRatio="xMidYMid meet">
<metadata>
Created by potrace 1.16, written by Peter Selinger 2001-2019
</metadata>
<g transform="translate(0.000000,4894.000000) scale(0.100000,-0.100000)"
fill="#000000" stroke="none">
<path d="M30145 46669 c-22 -16 -47 -35 -55 -42 -8 -7 -35 -28 -60 -47 -46
-36 -65 -52 -110 -90 -14 -12 -47 -41 -74 -64 -174 -146 -379 -337 -606 -566
-260 -261 -392 -402 -568 -610 -11 -14 -33 -38 -47 -55 -14 -16 -52 -61 -83
-100 -31 -38 -59 -72 -63 -75 -3 -3 -36 -43 -73 -90 -38 -47 -76 -94 -85 -105
-13 -16 -239 -318 -328 -440 -44 -60 -313 -463 -313 -470 0 -3 -5 -11 -10 -18
-16 -18 -90 -135 -90 -142 0 -3 -8 -18 -18 -33 -39 -56 -70 -109 -98 -162 -16
-30 -32 -57 -35 -60 -4 -3 -25 -39 -47 -80 -22 -41 -59 -109 -82 -150 -174
-314 -421 -863 -556 -1235 -14 -38 -30 -79 -35 -90 -31 -71 -155 -469 -214
-688 l-42 -159 35 -51 c495 -728 1509 -1284 2662 -1461 269 -42 469 -56 775
-56 571 0 969 60 1433 216 711 239 1223 640 1467 1149 105 220 146 402 146
646 0 242 -13 301 -217 967 -70 229 -262 732 -379 997 -130 293 -372 779 -445
895 -5 8 -51 87 -101 175 -138 241 -200 341 -342 555 -391 587 -761 1047
-1160 1443 -71 70 -132 127 -135 126 -4 0 -25 -14 -47 -30z"/>
<path d="M22465 43220 c-137 -22 -253 -72 -491 -214 -62 -36 -114 -66 -118
-66 -3 0 -29 -15 -58 -33 -29 -19 -163 -97 -298 -175 -135 -77 -285 -164 -335
-192 -49 -29 -110 -64 -135 -78 -25 -13 -65 -37 -90 -52 -25 -15 -227 -132
-450 -260 -223 -128 -425 -245 -450 -260 -25 -15 -65 -39 -90 -53 -63 -34
-614 -352 -680 -391 -56 -34 -278 -162 -360 -208 -25 -14 -101 -58 -170 -98
-103 -60 -359 -207 -485 -280 -111 -64 -644 -372 -805 -465 -107 -62 -211
-122 -230 -133 -19 -11 -150 -86 -290 -167 -140 -82 -284 -165 -320 -185 -36
-20 -94 -54 -130 -75 -36 -21 -96 -55 -134 -77 -38 -21 -74 -42 -80 -47 -6 -4
-36 -22 -66 -38 -30 -16 -93 -52 -140 -80 -102 -61 -390 -227 -480 -278 -36
-20 -81 -45 -100 -57 -140 -82 -637 -370 -835 -483 -132 -76 -298 -172 -370
-213 -71 -42 -147 -85 -167 -96 -20 -12 -76 -44 -125 -73 -48 -28 -104 -60
-123 -71 -19 -10 -118 -68 -220 -127 -295 -172 -362 -210 -410 -237 -25 -14
-191 -110 -370 -213 -179 -103 -383 -222 -455 -263 -71 -41 -134 -78 -140 -82
-5 -4 -35 -21 -65 -37 -30 -17 -170 -97 -310 -178 -140 -82 -284 -165 -320
-185 -301 -171 -467 -273 -528 -324 -132 -110 -183 -161 -301 -301 -243 -289
-432 -687 -495 -1045 -19 -107 -34 -420 -20 -420 5 0 36 16 69 35 33 19 105
59 160 89 l100 55 13 78 c23 149 115 415 200 578 125 240 259 424 441 605 132
132 246 218 391 298 30 17 117 67 194 111 76 45 140 81 142 81 2 0 34 19 71
42 38 22 83 49 101 60 17 10 49 28 70 39 20 12 57 33 82 47 25 14 63 36 84 50
22 13 58 34 80 46 87 47 211 121 214 128 2 5 8 8 14 8 5 0 96 50 201 112 106
61 206 119 222 127 39 21 193 111 340 198 11 7 27 16 35 20 8 4 96 54 195 112
99 57 209 121 245 141 36 20 84 48 107 63 24 15 47 27 52 27 5 0 16 6 23 13 8
6 27 19 43 28 17 9 75 42 130 74 55 32 127 74 160 93 33 19 74 42 90 52 54 31
216 124 273 158 32 18 65 35 75 39 9 3 17 9 17 14 0 5 4 9 8 9 8 0 81 39 147
79 17 10 46 27 65 38 19 11 88 51 154 89 198 115 230 134 251 144 11 6 36 20
55 31 19 11 125 73 235 136 110 64 232 134 270 157 39 22 92 52 118 66 27 14
57 33 67 43 11 9 22 17 25 17 6 0 274 152 443 251 46 27 88 49 93 49 5 0 9 5
9 10 0 6 4 10 10 10 5 0 47 22 92 49 150 89 379 221 382 221 4 0 273 155 296
170 8 6 22 13 30 17 8 4 60 34 115 67 55 32 115 67 133 77 73 42 99 58 150 88
29 17 54 31 56 31 5 0 239 138 251 148 6 4 17 11 25 14 8 3 83 45 165 93 83
48 170 99 195 113 25 14 59 33 75 42 17 10 46 26 65 36 19 11 37 22 40 25 3 3
30 19 60 36 64 35 263 149 440 253 69 40 150 86 180 103 30 17 79 45 108 64
29 18 55 33 58 33 3 0 49 26 103 58 53 32 121 72 151 89 30 16 80 45 110 63
30 18 78 45 105 60 28 15 66 37 85 48 19 12 53 31 75 43 22 12 42 24 45 28 3
3 21 14 40 25 62 33 143 78 220 124 41 24 89 52 105 62 214 123 429 247 465
268 50 28 305 175 450 260 52 31 109 62 125 70 17 9 32 18 35 21 3 3 21 15 40
25 87 47 558 319 580 335 14 9 61 31 105 49 202 80 353 91 510 38 30 -10 8 4
-145 94 -74 44 -164 89 -200 100 -77 25 -183 32 -265 20z"/>
<path d="M11765 34540 c-146 -22 -333 -81 -455 -143 -161 -82 -222 -120 -208
-129 10 -7 8 -8 -5 -4 -18 6 -83 -21 -74 -31 3 -2 14 0 25 6 12 6 24 11 29 11
4 -1 -4 -8 -20 -16 -15 -8 -32 -12 -37 -9 -13 8 -140 -67 -133 -78 3 -6 1 -7
-5 -3 -17 11 -90 -36 -85 -54 4 -11 2 -12 -5 -2 -8 12 -53 -12 -372 -198 -8
-5 -53 -31 -100 -58 -47 -27 -105 -60 -129 -73 -24 -13 -51 -29 -60 -34 -9 -6
-31 -19 -50 -29 -22 -12 -30 -21 -22 -25 7 -4 -2 -8 -19 -8 -18 0 -35 -4 -38
-10 -4 -6 -27 -20 -51 -33 -34 -17 -41 -24 -30 -32 11 -8 10 -9 -4 -4 -12 4
-63 -20 -150 -71 -73 -42 -145 -84 -162 -93 -16 -9 -55 -31 -87 -49 -31 -18
-59 -39 -62 -47 -3 -8 -10 -12 -16 -9 -6 3 -22 -2 -38 -12 -15 -11 -38 -25
-52 -31 -14 -7 -34 -18 -45 -25 -11 -7 -35 -21 -54 -31 -27 -14 -31 -20 -20
-28 11 -8 10 -9 -4 -4 -12 4 -53 -14 -115 -50 -53 -31 -145 -83 -205 -117 -75
-42 -103 -64 -95 -70 9 -6 8 -7 -4 -4 -9 3 -41 -8 -70 -24 -56 -32 -60 -33
-155 -91 -34 -21 -65 -38 -69 -38 -16 0 -123 -74 -118 -81 3 -5 -2 -6 -10 -3
-11 4 -16 0 -16 -14 0 -13 -16 -27 -51 -46 -28 -14 -53 -26 -56 -26 -9 0 60
45 80 53 9 3 17 11 17 17 0 11 -17 2 -178 -92 -45 -26 -86 -48 -91 -48 -5 0
-14 -6 -20 -14 -7 -8 -27 -22 -46 -30 -19 -9 -34 -22 -32 -28 1 -7 -13 -12
-32 -14 -18 -1 -36 -6 -40 -12 -3 -5 -25 -19 -49 -31 -26 -13 -40 -26 -36 -33
4 -7 3 -8 -4 -4 -6 4 -71 -28 -144 -70 -73 -43 -143 -83 -155 -89 -13 -7 -20
-15 -16 -18 3 -4 0 -7 -9 -7 -20 0 -128 -59 -128 -71 0 -5 -7 -9 -16 -9 -9 0
-28 -8 -42 -18 -15 -11 -58 -36 -97 -57 -38 -21 -74 -40 -79 -43 -4 -2 -2 -9
5 -14 10 -6 7 -7 -8 -3 -14 4 -23 2 -23 -4 0 -6 -3 -10 -7 -9 -5 1 -32 -11
-62 -26 -42 -22 -51 -30 -40 -38 11 -8 10 -9 -4 -4 -21 7 -110 -41 -102 -54 3
-5 -5 -14 -17 -20 -22 -11 -22 -10 -4 4 36 29 4 17 -80 -31 -46 -25 -81 -50
-78 -54 2 -4 -1 -11 -7 -15 -8 -4 -9 -3 -5 4 10 17 -9 15 -24 -3 -6 -8 -21
-17 -32 -21 -11 -3 -70 -35 -130 -70 -60 -35 -113 -64 -117 -64 -5 0 -14 -7
-21 -15 -9 -11 -9 -15 -1 -15 7 0 9 -5 5 -11 -5 -8 -9 -8 -14 1 -11 18 -69
-15 -66 -37 2 -10 1 -12 -1 -5 -7 19 -23 14 -23 -8 0 -12 -12 -26 -30 -35 -16
-9 -30 -12 -30 -7 0 5 11 14 25 20 14 6 25 16 25 21 0 5 -21 -2 -47 -16 -38
-22 -43 -28 -28 -33 16 -6 17 -7 2 -13 -8 -3 -17 -1 -20 6 -3 9 -106 -42 -187
-93 -8 -6 -33 -19 -54 -31 -30 -16 -36 -23 -25 -31 10 -6 7 -7 -10 -3 -13 4
-21 3 -18 -1 3 -5 -6 -10 -20 -11 -14 0 -28 -5 -32 -10 -5 -9 -119 -76 -251
-150 -25 -14 -81 -47 -125 -72 -44 -26 -93 -54 -110 -63 -21 -12 -29 -24 -30
-45 0 -22 -5 -29 -25 -31 -14 -2 -32 -5 -40 -8 -13 -4 -13 -6 0 -15 12 -9 12
-10 -3 -5 -10 3 -24 6 -30 6 -7 0 1 7 17 15 15 8 37 15 47 15 19 0 37 25 27
36 -9 8 -117 -59 -111 -69 3 -6 1 -7 -6 -3 -6 4 -33 -6 -59 -21 -26 -16 -56
-33 -67 -37 l-20 -8 20 -9 c17 -8 17 -9 -5 -5 -18 3 -60 -16 -150 -68 -69 -40
-125 -78 -125 -84 0 -6 -4 -14 -9 -19 -5 -5 -6 -3 -2 5 12 20 -1 14 -72 -35
-71 -50 -96 -71 -98 -85 -1 -4 -2 -12 -3 -18 0 -5 -6 -10 -12 -10 -8 0 -8 5 1
15 29 35 -10 10 -70 -45 -36 -33 -56 -57 -45 -54 16 5 17 4 5 -4 -8 -6 -18 -8
-23 -5 -12 8 -289 -278 -283 -293 2 -6 -1 -11 -9 -10 -7 0 -41 -34 -75 -78
-53 -67 -60 -80 -46 -88 18 -10 21 -45 6 -68 -5 -8 -13 -11 -17 -6 -4 5 -2 11
5 13 6 3 12 15 12 28 0 35 -22 36 -52 1 -27 -30 -37 -53 -19 -41 5 3 12 1 15
-4 3 -4 -3 -8 -13 -7 -20 1 -73 -62 -112 -134 -13 -24 -32 -52 -42 -62 -10
-11 -16 -26 -13 -34 3 -8 1 -12 -4 -9 -5 3 -19 -11 -30 -32 -11 -21 -30 -54
-42 -73 -35 -59 -147 -280 -185 -365 -66 -151 -134 -349 -128 -375 4 -16 2
-20 -3 -12 -15 22 -74 -210 -121 -478 -17 -90 -23 -198 -11 -175 9 18 10 17 4
-5 -15 -60 -16 -90 -4 -90 9 0 7 -6 -5 -20 -13 -14 -16 -28 -11 -52 4 -18 9
-73 11 -123 4 -114 11 -157 40 -280 37 -153 124 -339 199 -424 102 -116 267
-240 302 -227 8 3 12 2 9 -4 -10 -16 123 -54 250 -71 70 -9 255 -2 237 10 -6
3 9 6 31 7 93 2 414 116 385 136 -9 6 -5 7 9 3 25 -7 161 64 143 75 -6 4 2 7
18 7 16 0 36 5 43 12 20 17 391 231 401 231 5 0 6 5 3 10 -3 6 1 10 11 10 24
0 121 57 128 76 3 8 11 12 16 9 6 -4 16 -2 23 3 7 5 29 19 50 31 20 12 52 29
70 39 17 10 43 24 56 31 19 11 21 15 10 23 -11 8 -10 9 4 4 23 -7 429 222 420
237 -3 6 -1 7 5 3 6 -4 36 8 67 25 42 24 53 34 43 41 -10 7 -8 8 5 4 15 -5
167 72 204 104 7 5 15 10 19 10 12 0 75 42 70 47 -2 3 -13 0 -23 -5 -12 -7
-22 -6 -30 3 -9 10 -3 12 30 10 36 -3 59 7 157 63 63 36 129 73 145 82 30 16
47 26 115 69 28 18 30 21 10 15 -14 -3 -22 -3 -18 1 4 4 24 9 44 11 20 1 40 7
43 12 5 7 304 182 388 227 13 7 20 15 16 18 -3 4 2 7 12 7 16 0 112 53 125 69
3 3 26 17 52 30 26 13 45 28 41 34 -3 6 -1 7 5 3 11 -7 116 46 150 75 9 8 22
16 27 17 26 7 383 217 379 223 -2 4 1 11 7 15 8 4 9 3 5 -4 -11 -18 8 -14 35
6 13 9 44 28 69 41 81 43 160 93 156 100 -2 3 7 7 20 7 14 1 32 8 41 15 8 8
39 28 69 44 325 184 414 239 402 248 -9 6 -8 7 5 3 16 -5 65 11 77 25 3 3 28
18 55 34 142 80 167 98 153 107 -9 6 -6 7 9 3 30 -8 220 104 201 118 -9 6 -7
7 6 3 12 -4 70 23 180 87 88 51 233 135 321 186 194 112 172 99 275 159 47 27
105 60 129 73 24 13 51 29 60 34 9 6 31 19 50 29 22 12 30 21 22 25 -7 4 2 8
19 8 18 0 35 4 38 10 4 5 26 20 49 33 23 13 39 28 36 33 -3 6 -1 7 5 3 7 -4
71 28 144 70 73 42 147 85 163 94 17 9 55 31 87 49 31 18 59 39 62 47 3 8 10
13 16 9 10 -6 160 89 205 131 14 13 28 24 31 24 16 0 93 67 89 78 -3 7 0 10 6
6 16 -10 99 75 92 95 -4 13 -3 13 5 2 8 -12 20 -5 61 34 29 28 49 55 46 63 -3
7 0 10 6 6 6 -3 25 8 42 26 25 26 28 33 16 42 -11 8 -11 9 3 4 17 -5 35 9 21
17 -5 2 -3 3 4 1 6 -1 26 13 43 33 26 28 30 37 19 45 -10 7 -8 8 7 3 17 -4 27
3 50 37 16 24 29 47 29 51 0 5 10 16 22 25 42 33 133 166 127 187 -4 14 -3 16
4 7 12 -18 128 150 116 169 -4 7 -3 10 3 6 11 -7 63 72 105 158 14 28 34 67
46 88 24 41 28 62 11 51 -7 -4 -7 2 1 17 18 34 24 38 15 9 -14 -47 11 -6 58
96 26 56 50 116 53 133 4 17 10 31 15 31 12 0 11 27 -1 33 -6 3 -5 4 2 3 16
-3 76 154 118 309 16 61 34 124 39 140 12 35 46 234 55 315 3 30 8 66 11 80
13 75 8 289 -11 465 -6 62 -41 214 -54 237 -6 10 -10 23 -10 29 0 18 -60 149
-92 201 -23 37 -33 46 -40 36 -7 -9 -8 -7 -3 8 4 16 -5 35 -34 70 -55 70 -108
117 -120 110 -6 -4 -9 -1 -6 6 11 28 -222 146 -323 163 -115 20 -145 23 -202
23 -36 -1 -87 -4 -115 -8z m-1167 -1801 c31 -13 66 -31 76 -41 28 -25 52 -31
76 -18 12 7 24 9 27 6 3 -3 -5 -10 -18 -15 -24 -9 -24 -9 11 -25 19 -8 31 -16
25 -16 -5 0 5 -7 24 -16 19 -8 54 -30 77 -49 51 -42 67 -45 33 -8 -13 15 -16
22 -7 14 9 -7 22 -10 28 -6 7 4 9 -3 6 -20 -6 -30 39 -103 64 -105 9 -1 10 -3
3 -6 -9 -4 -8 -15 2 -47 7 -23 19 -69 26 -102 12 -55 14 -57 20 -30 5 21 7 13
7 -30 0 -46 -2 -53 -8 -30 -5 20 -7 3 -7 -52 0 -46 4 -83 9 -83 4 0 8 -12 7
-27 l-1 -28 -8 25 c-9 27 -9 26 -14 -50 -1 -8 -4 -19 -8 -25 -3 -5 -9 -28 -12
-50 -15 -90 -81 -268 -133 -358 -20 -33 -32 -65 -29 -74 8 -19 -2 -53 -15 -53
-6 0 -5 8 1 21 7 11 10 23 7 25 -7 7 -77 -108 -71 -117 3 -5 0 -8 -7 -7 -6 2
-14 -3 -17 -11 -3 -9 0 -11 8 -6 9 6 9 3 1 -14 -14 -25 -22 -28 -15 -3 3 9 -8
1 -24 -18 -17 -19 -28 -38 -26 -42 6 -10 -16 -51 -23 -44 -3 3 0 12 7 21 29
34 -1 9 -99 -85 -59 -57 -97 -100 -87 -100 9 0 16 5 16 10 0 6 5 10 11 10 8 0
7 -5 -2 -16 -7 -9 -21 -13 -33 -10 -13 3 -39 -7 -71 -29 -28 -18 -67 -41 -88
-51 -20 -9 -33 -22 -30 -27 3 -6 1 -7 -5 -3 -6 4 -33 0 -59 -9 -119 -41 -255
-37 -345 9 -27 14 -55 23 -60 19 -6 -3 -8 -1 -4 5 3 6 -25 28 -69 54 -124 71
-185 118 -215 165 -15 24 -30 40 -32 36 -3 -4 -3 -2 -1 5 1 8 -6 35 -16 60
-49 118 -53 235 -16 467 10 64 78 266 97 292 6 7 6 18 2 24 -5 8 -3 9 6 4 10
-6 12 -1 7 21 -3 16 -4 23 0 16 3 -8 31 30 68 92 34 58 70 113 79 122 10 9 15
23 12 31 -3 8 -2 12 3 9 4 -3 39 30 76 74 80 93 199 200 223 200 6 0 12 4 14
8 2 5 21 21 43 36 30 21 34 26 15 21 -14 -4 -29 -11 -34 -16 -6 -5 -15 -9 -20
-9 -6 0 -3 5 7 11 9 6 15 13 13 17 -2 4 12 7 32 6 20 -1 55 6 77 16 44 19 129
47 160 52 60 10 170 -2 223 -23z m-2226 -1188 c-9 -5 2 -10 32 -13 25 -3 68
-17 95 -32 55 -28 65 -31 56 -16 -3 6 1 7 10 3 12 -4 13 -8 4 -13 -15 -10 18
-29 46 -27 13 1 19 -4 18 -13 -1 -9 22 -26 60 -45 107 -52 189 -144 222 -251
53 -170 34 -419 -50 -639 -14 -38 -32 -86 -38 -105 -6 -19 -14 -37 -18 -40 -3
-3 -16 -24 -28 -48 -28 -56 -86 -147 -124 -195 -16 -21 -27 -41 -23 -44 3 -3
8 2 12 11 3 9 11 16 17 16 5 0 2 -9 -8 -20 -9 -10 -20 -18 -24 -17 -3 1 -33
-27 -65 -63 -32 -36 -67 -73 -78 -82 -11 -10 -16 -23 -12 -29 4 -8 3 -9 -4 -5
-15 9 -94 -53 -85 -67 3 -6 1 -7 -5 -3 -6 4 -33 -9 -59 -27 -122 -86 -226
-120 -364 -121 -105 0 -111 2 -266 92 -78 45 -93 51 -73 27 11 -13 10 -14 -4
-9 -10 4 -15 13 -12 20 7 17 -25 35 -50 28 -12 -3 -30 3 -45 16 l-24 22 28
-17 c47 -28 51 -12 5 21 -123 87 -177 264 -157 511 13 162 63 333 145 495 14
27 22 54 18 61 -4 7 -3 9 1 4 5 -4 37 35 71 88 59 92 170 224 227 273 15 13
24 29 20 34 -3 6 -1 8 4 5 6 -4 33 11 59 33 27 22 52 40 56 40 3 0 10 9 13 21
4 11 12 18 18 16 15 -5 125 49 154 76 13 11 26 17 30 14 3 -4 1 -7 -5 -7 -7 0
-12 -5 -12 -10 0 -7 6 -7 18 -2 18 10 79 22 137 26 19 2 38 6 42 10 3 3 11 6
17 6 6 0 5 -4 -2 -9z m-2040 -1247 c29 -10 76 -32 103 -49 28 -18 81 -49 119
-70 55 -31 70 -35 77 -24 8 12 9 11 7 -1 -2 -8 19 -35 46 -60 26 -24 61 -66
76 -93 15 -27 30 -45 32 -40 3 4 3 2 2 -5 -2 -7 -1 -25 2 -41 5 -22 10 -28 23
-24 11 4 13 3 6 -5 -7 -8 -8 -47 -2 -118 8 -109 2 -191 -27 -332 -8 -40 -13
-80 -10 -90 4 -12 3 -13 -3 -4 -6 8 -15 -6 -27 -45 -10 -32 -42 -107 -72 -167
-29 -60 -50 -114 -47 -119 3 -6 2 -7 -3 -4 -6 3 -21 -12 -34 -34 -14 -21 -28
-39 -32 -39 -5 0 -8 -6 -8 -12 0 -7 -20 -39 -45 -70 -25 -32 -45 -61 -45 -65
0 -5 7 1 15 11 8 11 17 17 20 14 3 -2 -7 -15 -22 -29 -14 -13 -23 -18 -19 -11
15 25 -4 10 -78 -64 -72 -73 -90 -94 -64 -78 7 4 8 3 4 -4 -4 -6 -13 -9 -20
-6 -8 3 -17 1 -20 -5 -11 -17 -141 -98 -196 -122 -37 -16 -48 -25 -38 -31 9
-6 6 -7 -8 -3 -12 3 -48 -2 -80 -10 -54 -14 -150 -20 -199 -12 -29 5 -132 54
-140 66 -3 6 -15 11 -26 11 -10 0 -19 5 -19 10 0 6 -33 26 -72 45 -40 19 -68
35 -63 35 6 0 2 5 -8 11 -9 5 -22 7 -27 4 -15 -9 -52 15 -46 31 3 7 0 17 -7
21 -26 17 -81 128 -103 208 -13 48 -22 294 -11 312 3 4 8 31 12 58 9 69 57
224 96 312 10 23 17 48 16 55 -2 7 -2 9 1 4 2 -5 19 17 36 48 71 129 101 175
157 243 37 45 56 78 53 88 -3 8 -1 15 6 15 6 0 8 -4 5 -10 -12 -20 1 -9 75 61
41 38 66 67 55 64 -15 -5 -17 -4 -6 3 8 6 20 8 28 5 7 -3 13 -1 13 4 0 5 14
17 32 27 17 11 50 35 72 55 22 20 36 30 32 24 -10 -18 -3 -16 43 8 104 54 268
73 363 43z"/>
<path d="M37135 32330 c-315 -38 -643 -197 -965 -468 -538 -453 -963 -1137
-1146 -1842 -162 -623 -104 -1177 157 -1505 80 -101 137 -143 400 -296 123
-71 231 -134 239 -139 8 -6 22 -13 30 -16 26 -10 53 -23 110 -54 63 -35 159
-63 276 -81 91 -14 279 0 351 25 21 7 58 17 83 21 25 4 47 10 50 14 3 4 44 21
93 39 48 18 114 48 147 67 32 18 68 36 79 40 12 3 21 11 21 16 0 5 5 9 10 9
14 0 92 51 106 69 6 8 18 15 26 17 12 1 165 113 204 149 240 219 337 319 424
434 14 19 32 42 40 51 82 97 221 302 216 317 -3 7 0 12 6 10 14 -3 70 92 62
105 -4 6 -3 8 3 5 5 -3 23 19 39 49 16 29 32 54 37 54 4 0 7 6 7 13 0 6 7 25
15 41 8 16 26 49 39 75 14 25 32 64 41 86 9 22 23 52 31 67 8 14 14 33 14 41
0 9 3 17 8 19 4 2 15 26 26 53 10 28 27 73 38 100 44 115 99 290 115 370 36
185 52 284 53 327 0 26 4 49 9 52 14 9 22 254 11 361 -19 192 -53 357 -80 389
-5 7 -7 16 -4 19 4 3 -3 28 -15 54 -58 126 -66 143 -73 143 -5 0 -8 5 -8 11 0
6 -13 28 -30 49 -16 21 -30 40 -30 42 0 14 -91 98 -100 93 -6 -4 -9 -2 -8 4 2
6 -15 26 -37 46 -30 27 -45 34 -65 30 -14 -3 -32 0 -40 5 -11 8 -8 9 13 4 37
-9 34 0 -10 27 -21 13 -40 26 -43 30 -3 3 -36 24 -75 46 -38 22 -128 74 -200
117 -183 108 -278 153 -370 175 -96 24 -235 32 -330 21z m130 -820 c3 -5 20
-10 37 -10 29 0 227 -104 310 -161 27 -20 43 -25 34 -11 -2 4 4 8 15 8 19 0
19 -1 3 -13 -16 -12 -12 -18 9 -14 5 1 6 -3 3 -8 -4 -5 0 -13 8 -18 7 -4 25
-41 40 -82 22 -62 27 -91 27 -180 1 -58 -4 -128 -10 -155 -7 -26 -9 -58 -6
-70 5 -15 4 -17 -3 -8 -7 11 -11 7 -16 -14 -4 -16 -16 -48 -27 -72 -11 -24
-18 -50 -15 -58 3 -8 2 -13 -2 -10 -5 3 -16 -10 -25 -29 -9 -19 -15 -35 -14
-35 2 0 23 10 48 22 45 22 174 34 162 15 -3 -5 4 -6 18 -2 18 4 20 4 10 -4
-12 -7 -7 -13 25 -28 21 -10 41 -21 44 -24 15 -19 102 -58 117 -53 13 4 14 3
5 -3 -9 -7 -4 -15 18 -32 47 -34 43 -11 96 -476 1 -16 6 -48 9 -70 3 -22 8
-61 10 -87 2 -26 6 -51 8 -55 3 -5 3 -14 -1 -20 -7 -10 -205 -130 -267 -161
-16 -8 -42 -23 -56 -33 -23 -16 -29 -16 -52 -4 l-27 14 0 -320 c0 -295 -1
-320 -17 -326 -10 -4 -33 -16 -51 -26 -26 -15 -30 -22 -20 -29 10 -7 8 -8 -5
-4 -22 7 -429 -223 -420 -238 4 -5 1 -6 -6 -2 -7 5 -20 2 -29 -6 -9 -8 -42
-27 -72 -43 -30 -15 -88 -47 -127 -71 -40 -24 -77 -44 -82 -44 -5 0 -11 -3
-13 -7 -1 -5 -23 -19 -48 -32 -25 -13 -51 -31 -57 -39 -7 -9 -13 -13 -13 -9 0
4 -20 -4 -44 -18 -43 -24 -45 -24 -77 -8 -19 9 -40 23 -48 30 -7 8 -22 11 -35
8 -13 -4 -16 -3 -9 2 15 11 -112 87 -127 78 -6 -3 -10 -1 -10 4 0 6 5 11 11
11 7 0 10 44 7 140 -1 77 -4 140 -6 140 -9 0 -123 -63 -128 -71 -12 -19 -30
-11 -209 90 -67 38 -68 40 -60 96 4 27 8 68 11 90 2 22 8 81 14 130 5 50 12
117 14 150 3 33 12 122 20 199 13 120 19 147 48 205 18 36 32 72 32 78 -1 7 2
11 6 8 9 -6 76 67 72 78 -1 5 2 5 9 2 6 -4 18 1 28 11 10 11 52 39 94 64 49
29 75 50 72 59 -4 9 0 11 11 7 24 -9 170 74 153 86 -10 7 -8 8 6 4 14 -4 45 9
94 39 40 25 77 45 83 45 5 0 6 10 3 23 -4 15 -4 18 3 8 5 -7 15 -12 22 -9 7 2
-10 16 -36 31 -27 15 -67 39 -89 53 -22 13 -50 29 -63 34 -13 6 -30 17 -38 25
-8 8 -23 20 -32 27 -60 44 -95 152 -94 293 0 55 2 107 5 115 3 8 13 49 22 90
39 169 166 385 304 515 22 21 37 41 32 44 -5 4 -2 13 7 21 14 13 15 12 9 -3
-3 -9 -4 -17 -1 -17 7 0 67 42 74 52 11 15 150 68 179 68 16 0 33 5 36 10 3 6
15 10 25 10 10 0 22 -4 25 -10z"/>
<path d="M24629 31143 c-238 -243 -383 -538 -498 -1013 -108 -447 -197 -1118
-231 -1755 -17 -319 -17 -345 -10 -350 3 -2 258 0 565 5 308 5 560 8 561 7 1
-1 -16 -72 -37 -157 -152 -613 -238 -1175 -291 -1905 -19 -259 -15 -1005 6
-1235 17 -188 22 -220 34 -220 4 1 85 110 180 243 95 133 239 332 318 442 186
255 248 342 351 488 46 65 88 124 93 130 6 7 47 64 93 127 171 239 280 389
371 515 52 72 125 173 163 225 l69 95 12 975 c7 536 15 1083 17 1215 3 132 7
444 11 693 l6 453 -44 -22 c-276 -140 -632 -494 -867 -863 -171 -270 -311
-600 -427 -1008 -21 -75 -40 -136 -41 -134 -7 7 -76 621 -163 1436 -40 377
-90 893 -156 1613 -3 37 -9 67 -13 67 -3 0 -36 -30 -72 -67z"/>
<path d="M10515 29992 c-16 -10 -32 -19 -35 -23 -6 -6 -220 -127 -234 -132 -5
-2 -2 -2322 8 -5727 31 -10717 36 -11851 47 -11935 20 -154 87 -306 175 -399
42 -45 76 -69 174 -123 30 -17 86 -50 125 -72 78 -46 107 -54 54 -16 -52 39
-98 101 -139 190 -52 111 -71 196 -81 370 -11 191 -27 4672 -34 9835 -3 2208
-8 4035 -10 4060 -2 25 -5 933 -6 2018 -2 1084 -6 1972 -9 1971 -3 0 -18 -8
-35 -17z"/>
<path d="M30847 29211 c-15 -43 -25 -86 -21 -94 3 -8 1 -18 -5 -22 -6 -3 -11
-16 -11 -28 0 -15 -3 -18 -8 -9 -6 9 -14 -3 -24 -35 -9 -26 -19 -57 -23 -68
-6 -16 -5 -17 4 -5 6 8 16 32 22 54 18 65 19 35 1 -42 -15 -68 -31 -94 -33
-54 0 12 -3 11 -10 -6 -10 -27 -5 -42 16 -42 15 0 25 22 25 58 0 22 2 24 11
12 9 -12 10 -12 5 4 -6 18 29 140 47 164 6 8 6 17 -1 25 -6 7 -8 24 -5 37 5
20 8 16 18 -25 8 -31 10 -59 4 -79 -5 -17 -9 -43 -9 -58 0 -18 -5 -28 -15 -28
-18 0 -20 -32 -4 -62 9 -16 7 -26 -10 -49 -25 -34 -26 -41 -5 -37 11 2 22 23
31 58 7 30 19 57 25 61 6 4 9 16 6 27 -3 10 -2 43 3 73 6 36 5 55 -2 60 -15 9
-19 103 -7 146 18 67 1 42 -25 -36z"/>
<path d="M37220 26423 c-111 -18 -220 -66 -415 -179 -82 -47 -175 -100 -205
-117 -30 -16 -59 -33 -65 -37 -11 -8 -239 -140 -345 -200 -36 -20 -180 -103
-320 -185 -140 -81 -284 -165 -320 -185 -36 -20 -123 -71 -195 -112 -453 -262
-645 -373 -685 -396 -25 -13 -70 -39 -100 -57 -30 -18 -86 -50 -125 -73 -38
-22 -178 -102 -310 -179 -132 -76 -283 -163 -335 -192 -52 -30 -147 -84 -210
-122 -63 -37 -245 -142 -405 -234 -159 -92 -344 -199 -410 -238 -66 -38 -149
-87 -185 -107 -36 -20 -184 -105 -330 -190 -146 -84 -353 -203 -460 -265 -107
-61 -280 -161 -385 -222 -270 -156 -435 -252 -587 -339 -73 -42 -173 -100
-223 -129 -120 -69 -313 -181 -515 -297 -91 -52 -210 -121 -265 -153 -55 -32
-130 -76 -167 -97 -78 -44 -49 -27 -448 -258 -173 -101 -335 -194 -360 -208
-25 -13 -70 -39 -100 -57 -77 -46 -286 -167 -340 -197 -25 -14 -160 -92 -300
-173 -140 -81 -288 -166 -328 -189 -232 -131 -441 -330 -615 -584 -31 -46 -57
-86 -57 -89 0 -2 -8 -17 -19 -31 -38 -55 -110 -201 -154 -312 -84 -214 -120
-377 -133 -603 l-7 -124 -111 64 c-61 36 -165 96 -231 134 -66 39 -127 74
-135 79 -122 76 -308 176 -358 192 -56 18 -81 20 -176 15 -159 -8 -261 -47
-536 -208 -128 -75 -551 -319 -638 -368 -34 -20 -165 -95 -290 -167 -125 -73
-324 -188 -442 -256 -471 -272 -945 -546 -1135 -656 -110 -64 -213 -123 -230
-132 -16 -9 -41 -23 -55 -31 -31 -19 -88 -53 -455 -264 -535 -309 -620 -358
-715 -413 -52 -30 -183 -105 -290 -167 -107 -61 -233 -134 -280 -162 -47 -28
-105 -62 -130 -75 -110 -62 -490 -283 -535 -311 -117 -74 -303 -246 -407 -377
-184 -232 -319 -492 -399 -770 -58 -204 -60 -229 -59 -975 0 -396 5 -706 11
-743 15 -99 56 -214 98 -278 71 -109 82 -116 494 -355 109 -62 282 -163 385
-223 403 -234 394 -230 547 -230 166 -1 249 30 575 218 124 71 252 145 285
163 33 19 74 42 90 52 41 25 98 57 175 100 36 19 70 39 75 44 6 5 152 89 325
188 173 99 358 205 410 236 143 84 190 111 375 218 94 54 211 121 260 150 50
29 128 74 175 100 47 27 132 77 190 111 58 34 125 73 150 86 25 14 73 42 107
62 34 20 66 36 71 36 6 0 12 4 14 8 2 4 111 70 243 146 132 75 247 141 255
146 63 38 153 91 195 115 138 77 215 121 385 220 102 59 205 119 230 133 25
13 70 39 100 57 62 36 127 74 345 199 83 48 157 91 165 96 8 5 119 68 245 141
127 72 273 160 325 194 99 65 252 195 307 262 18 21 48 56 68 78 92 104 213
292 292 455 124 253 181 468 192 722 l6 147 55 -33 c54 -32 165 -97 463 -270
175 -102 295 -161 357 -175 160 -37 376 17 575 144 30 19 56 35 59 35 3 0 35
18 71 40 36 22 67 40 69 40 3 0 114 63 248 141 134 78 272 158 308 178 159 92
207 120 240 139 19 10 87 50 150 87 63 37 214 124 335 193 121 69 248 143 283
164 34 21 64 38 66 38 2 0 72 41 155 90 84 50 154 90 156 90 2 0 38 20 78 45
41 25 77 45 80 45 3 0 34 17 69 39 35 21 144 85 243 141 99 57 213 123 252
147 40 24 75 43 78 43 2 0 28 15 57 34 29 18 89 53 133 78 44 25 140 79 213
122 73 42 141 80 150 84 9 3 22 10 27 14 10 8 159 97 240 142 22 13 84 48 138
79 53 32 141 82 195 114 53 31 117 67 142 81 25 14 50 28 55 32 11 9 317 185
405 233 30 17 79 45 108 64 29 18 56 33 61 33 5 0 16 6 23 13 7 6 31 22 53 34
22 11 54 29 72 40 17 10 78 45 135 77 57 33 123 71 148 87 52 31 343 199 410
236 25 14 70 40 100 58 46 27 365 212 635 367 39 23 95 55 125 73 30 18 75 44
100 57 25 14 96 55 158 92 62 36 116 66 119 66 4 0 14 6 22 14 9 7 45 28 81
47 35 19 69 38 75 42 10 9 506 294 585 337 25 14 47 28 50 31 3 3 32 21 65 39
33 18 77 44 97 57 21 12 40 23 43 23 2 0 97 54 210 120 113 66 208 120 211
120 2 0 17 8 32 19 15 10 59 36 97 58 39 22 111 64 160 93 50 29 110 64 135
78 45 25 230 132 350 202 186 110 397 319 544 540 148 223 219 375 306 655 5
17 19 85 30 152 20 118 21 149 18 835 l-3 713 -28 90 c-33 105 -85 204 -136
258 -51 54 -171 131 -481 307 -36 20 -190 109 -342 198 -330 192 -357 206
-426 221 -51 11 -170 13 -222 4z m1084 -1023 c78 -30 139 -88 181 -173 19 -40
39 -94 44 -122 5 -27 12 -320 16 -650 8 -675 5 -712 -60 -914 -78 -240 -220
-468 -398 -638 -96 -91 -141 -120 -552 -356 -187 -107 -380 -218 -430 -247
-49 -29 -106 -62 -126 -74 -20 -12 -56 -33 -80 -47 -76 -44 -661 -381 -729
-419 -36 -20 -84 -48 -107 -63 -24 -15 -44 -27 -47 -27 -2 0 -34 -18 -70 -40
-36 -22 -69 -40 -74 -40 -4 0 -17 -7 -27 -16 -11 -8 -137 -83 -280 -165 -143
-82 -267 -154 -275 -159 -41 -25 -237 -137 -250 -143 -8 -4 -28 -15 -45 -26
-27 -16 -332 -192 -690 -398 -71 -41 -168 -97 -215 -125 -47 -27 -107 -62
-135 -77 -27 -16 -78 -45 -112 -65 -34 -20 -66 -36 -72 -36 -6 0 -11 -3 -11
-8 0 -4 -17 -16 -37 -27 -21 -11 -99 -55 -173 -98 -144 -84 -192 -112 -267
-153 -27 -15 -55 -33 -64 -40 -8 -8 -19 -14 -22 -14 -4 0 -24 -11 -45 -23 -20
-13 -64 -39 -97 -57 -33 -18 -72 -40 -87 -49 -15 -9 -78 -45 -140 -80 -62 -36
-178 -103 -258 -149 -80 -46 -174 -101 -210 -122 -36 -20 -119 -69 -185 -107
-66 -39 -156 -91 -200 -116 -44 -25 -94 -54 -112 -64 -345 -199 -526 -303
-567 -326 -28 -16 -62 -36 -76 -45 -14 -9 -52 -31 -85 -50 -33 -19 -75 -43
-92 -53 -18 -11 -48 -27 -65 -38 -18 -10 -168 -96 -333 -191 -251 -144 -382
-220 -485 -280 -8 -5 -161 -93 -340 -196 -179 -103 -406 -234 -505 -292 -570
-333 -625 -360 -751 -377 -93 -12 -216 22 -279 77 -46 40 -97 125 -118 199
-21 71 -22 96 -25 694 -2 423 0 645 8 698 20 141 51 238 127 407 89 195 301
452 458 555 49 32 237 142 339 198 28 16 62 36 76 45 14 9 39 24 55 33 17 9
46 26 65 38 19 11 42 24 50 28 8 4 38 20 65 36 90 54 498 289 580 335 44 24
92 53 107 63 14 11 30 19 36 19 5 0 20 8 33 18 13 10 49 32 79 47 30 16 62 34
70 41 8 6 40 25 70 41 54 30 286 163 465 268 95 55 141 82 215 123 25 13 52
31 61 38 8 8 19 14 22 14 4 0 24 11 45 23 20 13 57 35 82 49 43 24 426 243
616 353 50 29 109 64 130 77 21 13 50 29 64 36 14 6 54 30 90 51 36 22 103 61
149 88 47 26 108 62 137 78 153 88 183 105 192 105 6 0 12 4 14 8 2 7 222 137
383 227 22 13 102 59 178 104 75 44 140 81 142 81 3 0 22 11 43 24 20 12 145
85 277 161 132 76 265 153 295 171 30 18 87 49 125 69 39 21 77 43 85 49 14
12 104 65 200 118 25 14 117 67 205 118 88 51 196 113 240 138 44 24 92 53
107 63 14 11 29 19 32 19 4 0 50 26 104 58 53 32 151 89 217 127 66 38 172 99
235 135 63 37 165 96 225 130 173 99 354 204 422 243 34 21 66 37 71 37 6 0
12 4 14 8 2 4 23 19 48 33 45 25 471 272 500 289 31 19 257 149 302 174 48 27
496 285 678 391 206 120 270 143 397 144 60 1 97 -5 137 -19z m-11499 -7296
l62 -36 6 -157 c4 -86 7 -361 7 -613 l0 -456 -112 -65 c-171 -99 -154 -96
-237 -51 l-71 39 0 143 c0 78 -4 142 -9 142 -4 0 -25 -11 -45 -25 -20 -14 -39
-25 -42 -25 -3 0 -19 -9 -34 -20 l-29 -21 6 -223 6 -223 -107 -61 c-60 -34
-110 -62 -113 -62 -3 0 -16 -9 -30 -19 l-24 -20 -67 36 c-37 20 -70 39 -74 42
-3 3 -8 282 -10 619 l-3 614 129 74 c70 41 135 74 144 74 8 0 44 -17 79 -37
l63 -37 0 -143 c0 -79 3 -143 8 -143 4 1 30 14 57 30 28 16 60 35 73 42 23 11
23 12 22 241 l-1 230 113 64 c62 36 117 69 123 74 17 17 48 9 110 -27z m-1197
-729 c142 -77 185 -108 209 -152 l18 -33 -67 -67 c-37 -38 -86 -90 -111 -117
l-44 -48 -31 16 c-45 23 -82 20 -133 -13 -55 -35 -91 -74 -118 -127 -20 -38
-21 -54 -19 -244 l3 -203 33 28 c39 33 88 102 97 137 6 25 8 25 128 30 97 5
128 2 152 -10 17 -8 32 -18 35 -21 3 -4 19 -13 37 -20 17 -7 34 -18 36 -25 7
-17 -42 -128 -91 -209 -53 -87 -54 -88 -148 -182 -92 -92 -186 -149 -284 -172
-94 -23 -137 -13 -257 57 -85 50 -107 68 -130 107 l-28 48 -3 302 c-4 338 0
368 64 502 66 141 176 267 315 362 122 82 246 102 337 54z m-1001 -597 c21
-13 55 -32 76 -43 58 -30 105 -80 119 -128 22 -71 16 -268 -10 -360 -28 -98
-48 -137 -113 -223 l-51 -68 55 -51 c30 -27 66 -59 79 -69 82 -68 138 -121
138 -130 -1 -10 -73 -53 -284 -170 l-52 -29 -71 41 c-39 23 -101 71 -136 107
-36 36 -67 65 -71 65 -3 0 -7 -86 -8 -192 l-3 -191 -125 -73 c-69 -40 -133
-73 -143 -73 -10 -1 -47 16 -82 36 l-65 37 -2 609 c-2 335 -1 612 2 616 3 4
43 29 90 55 47 27 126 73 176 102 51 30 96 54 102 54 6 0 12 4 14 9 6 17 133
74 213 95 39 10 114 -3 152 -26z m-1217 -649 c39 -23 73 -47 75 -53 9 -29 58
-164 70 -191 8 -17 32 -78 53 -135 22 -58 58 -154 82 -215 23 -60 55 -144 70
-185 16 -41 44 -115 63 -165 32 -84 36 -115 16 -115 -4 0 -48 -23 -96 -51 -48
-28 -108 -63 -133 -76 l-45 -25 -69 39 c-48 27 -73 48 -84 70 l-16 33 -75 -41
c-42 -23 -82 -47 -89 -53 -12 -11 -21 -47 -65 -234 l-12 -53 -148 -85 c-132
-76 -150 -84 -165 -71 -16 13 -110 67 -118 67 -2 0 -4 -36 -4 -80 l0 -80 -37
-23 c-21 -13 -58 -35 -83 -49 -25 -14 -61 -35 -80 -46 -85 -51 -161 -92 -170
-92 -4 0 -10 -3 -12 -8 -2 -6 -112 -70 -338 -200 -23 -13 -30 -11 -98 28 l-72
42 2 616 3 617 40 22 c22 13 47 26 55 30 8 4 64 35 123 70 60 35 112 63 117
63 4 0 10 3 12 8 3 6 79 52 218 130 19 10 64 36 100 57 l64 38 73 -38 72 -39
3 -149 c2 -82 1 -152 -2 -156 -3 -5 -45 -30 -95 -58 -49 -27 -133 -75 -185
-105 -52 -30 -113 -65 -135 -77 -23 -12 -29 -19 -16 -15 14 4 52 23 85 43 34
21 85 50 114 66 l53 29 37 -19 c20 -11 54 -30 75 -43 l38 -23 -3 -137 -3 -137
-53 -32 -54 -32 75 -43 c75 -43 76 -43 79 -88 3 -41 6 -34 35 80 17 69 55 215
84 325 28 110 57 225 64 255 20 89 176 684 182 693 3 4 15 12 26 17 12 6 63
34 112 64 50 30 95 55 102 55 6 1 44 -18 83 -40z m-1834 -1125 c100 -52 154
-87 154 -101 0 -7 -28 -53 -62 -103 -35 -50 -69 -102 -75 -114 -21 -38 -39
-49 -62 -37 -30 17 -91 13 -136 -8 -40 -19 -115 -85 -115 -102 0 -9 34 -4 78
12 13 5 53 9 90 9 60 0 74 -4 136 -40 37 -22 71 -40 75 -40 16 0 71 -61 86
-96 13 -31 16 -62 13 -149 -4 -96 -9 -120 -38 -188 -98 -235 -318 -439 -514
-479 -48 -9 -67 -8 -119 6 -34 10 -73 25 -87 34 -14 9 -54 33 -90 53 -36 20
-66 44 -68 52 -4 18 156 287 170 287 5 0 20 -7 34 -16 33 -22 100 -13 164 22
45 25 115 83 107 90 -1 2 -25 -4 -52 -12 -88 -27 -146 -16 -257 49 -145 86
-164 116 -162 267 1 146 64 286 189 418 136 144 275 221 401 222 62 0 80 -4
140 -36z"/>
<path d="M31793 25333 l-18 -58 -6 35 -6 35 -2 -35 c0 -20 4 -41 10 -47 9 -9
9 -23 0 -57 -6 -25 -11 -80 -11 -123 0 -54 -3 -73 -10 -63 -7 11 -10 3 -10
-30 0 -26 -4 -50 -9 -55 -13 -15 -22 -75 -11 -75 6 0 10 -15 9 -32 l-1 -33 -9
33 c-14 46 -39 43 -38 -5 l1 -38 9 30 c7 24 7 22 4 -15 -3 -25 -8 -72 -11
-106 -4 -38 -2 -68 4 -80 9 -15 10 -9 6 29 -7 56 0 89 23 113 11 11 18 35 20
68 1 28 9 84 17 124 9 40 16 89 16 108 0 21 4 33 10 29 6 -3 10 -2 10 4 0 5
-4 13 -10 16 -5 3 -10 23 -9 43 1 33 2 34 9 12 l7 -25 12 30 c8 19 9 43 5 65
-12 52 -9 110 5 110 5 0 12 -8 14 -17 3 -10 5 1 6 25 1 59 -15 52 -36 -15z"/>
<path d="M8950 13995 c0 -45 4 -57 23 -70 38 -28 869 -505 878 -505 5 0 9 26
9 58 0 56 -1 58 -38 78 -41 23 -386 221 -527 304 -172 100 -332 190 -339 190
-3 0 -6 -25 -6 -55z"/>
</g>
</svg>
