<?xml version="1.0" standalone="no"?>
<!DOCTYPE svg PUBLIC "-//W3C//DTD SVG 20010904//EN"
 "http://www.w3.org/TR/2001/REC-SVG-20010904/DTD/svg10.dtd">
<svg version="1.0" xmlns="http://www.w3.org/2000/svg"
 width="5000.000000pt" height="5714.000000pt" viewBox="0 0 5000.000000 5714.000000"
 preserveAspectRatio="xMidYMid meet">
<metadata>
Created by potrace 1.16, written by Peter Selinger 2001-2019
</metadata>
<g transform="translate(0.000000,5714.000000) scale(0.100000,-0.100000)"
fill="#000000" stroke="none">
<path d="M0 28565 l0 -28565 25000 0 25000 0 0 28565 0 28565 -25000 0 -25000
0 0 -28565z m40828 21703 c137 -39 180 -71 438 -317 273 -261 447 -426 454
-431 9 -6 260 -243 450 -424 36 -34 101 -96 145 -136 44 -41 98 -97 120 -125
22 -27 53 -63 68 -79 30 -32 29 -29 51 -171 14 -91 16 -612 16 -5092 0 -5369
3 -5055 -49 -5193 -64 -169 -257 -323 -450 -360 -77 -14 -8496 -14 -8577 1
-32 6 -95 28 -139 49 -164 79 -276 211 -324 381 l-21 76 3 5689 2 5689 22 55
c26 70 64 140 75 140 4 0 8 6 8 14 0 19 128 146 146 146 8 0 14 3 14 8 0 17
153 83 220 95 14 2 1651 5 3638 6 l3614 1 76 -22z m-27685 -28 c478 -35 903
-199 1253 -486 113 -92 287 -266 334 -334 14 -19 32 -44 42 -54 43 -48 154
-227 217 -353 257 -510 302 -1129 122 -1681 -87 -266 -236 -534 -409 -737 -19
-22 -77 -84 -130 -137 l-97 -98 1073 0 c701 0 1106 -4 1170 -11 507 -56 944
-302 1251 -705 190 -250 311 -548 350 -864 17 -129 14 -515 -4 -653 -15 -115
-64 -303 -106 -409 -28 -73 -98 -210 -149 -293 -144 -237 -433 -509 -662 -624
-24 -12 -50 -26 -58 -31 -37 -23 -157 -73 -241 -100 -124 -40 -252 -67 -384
-80 -79 -8 -1162 -10 -3835 -8 -3719 4 -3725 4 -3830 24 -387 77 -707 249
-976 526 -215 222 -365 485 -443 778 -43 163 -53 250 -58 497 -8 376 20 551
136 853 33 87 135 263 212 367 281 378 675 622 1152 710 83 16 212 18 1271 20
l1178 4 -114 117 c-202 209 -328 396 -443 659 -92 208 -143 400 -170 631 -96
817 266 1618 943 2086 325 225 707 359 1097 386 162 11 159 11 308 0z m13507
-64 c50 -33 70 -76 70 -148 -2 -123 -89 -192 -218 -173 -37 5 -55 15 -84 46
-89 93 -66 234 47 294 46 24 133 16 185 -19z m840 11 c63 -33 93 -92 88 -172
-4 -67 -22 -98 -77 -136 -28 -19 -48 -24 -101 -24 -75 0 -103 14 -146 71 -65
84 -31 221 65 263 61 27 118 26 171 -2z m859 1 c61 -35 86 -81 86 -158 -1 -52
-6 -73 -25 -103 -63 -95 -213 -103 -291 -15 -48 56 -52 158 -7 224 48 71 161
96 237 52z m878 -14 c78 -63 89 -193 22 -268 -70 -80 -216 -71 -280 17 -25 34
-29 49 -29 105 0 78 22 120 83 157 36 22 51 25 104 23 51 -3 69 -9 100 -34z
m827 16 c23 -11 53 -37 69 -57 22 -30 27 -46 27 -94 0 -69 -9 -94 -47 -135
-46 -50 -122 -67 -194 -43 -46 16 -78 46 -100 94 -72 156 91 312 245 235z
m-7264 -20 c145 -11 315 -32 400 -50 144 -32 309 -74 405 -106 119 -38 389
-150 470 -194 28 -15 82 -44 120 -65 85 -46 319 -201 395 -262 137 -110 160
-130 280 -247 203 -198 420 -471 525 -661 6 -11 26 -46 44 -79 46 -82 161
-314 161 -325 0 -4 13 -37 29 -72 16 -35 50 -131 75 -214 186 -596 203 -1215
51 -1817 -26 -105 -122 -396 -135 -413 -4 -5 -11 -21 -15 -35 -26 -85 -232
-468 -308 -573 -149 -204 -190 -256 -277 -351 -75 -83 -222 -228 -285 -282
-97 -83 -114 -97 -234 -183 -629 -454 -1395 -670 -2171 -611 -153 12 -347 41
-465 69 -44 11 -81 19 -82 18 -2 -3 -113 -297 -113 -301 0 -2 20 -11 44 -20
57 -22 77 -46 83 -99 4 -33 -1 -57 -21 -101 -14 -31 -26 -59 -26 -63 0 -3 -19
-54 -41 -112 -23 -58 -57 -146 -76 -196 -19 -49 -50 -128 -68 -175 -69 -173
-125 -321 -125 -326 0 -3 -20 -55 -44 -117 -54 -137 -170 -439 -203 -527 -13
-36 -30 -78 -37 -95 -8 -16 -24 -57 -36 -90 -12 -33 -32 -87 -45 -120 -27 -67
-94 -242 -180 -470 -31 -82 -65 -170 -75 -195 -10 -25 -37 -94 -60 -155 -66
-171 -94 -225 -152 -285 -105 -111 -275 -167 -431 -142 -137 21 -347 116 -423
190 -90 89 -144 224 -144 357 1 107 7 126 174 555 18 47 70 182 115 300 45
118 93 242 106 275 28 70 147 381 182 475 13 36 30 79 38 97 9 18 28 67 44
110 16 43 52 139 81 213 28 74 67 176 85 225 18 50 38 101 44 115 5 14 31 79
56 145 26 66 65 167 87 225 23 58 44 114 48 125 40 105 67 159 88 176 30 23
91 25 133 3 17 -8 32 -14 33 -12 4 7 66 166 82 213 10 28 22 55 27 62 13 18 5
25 -95 82 -183 104 -370 238 -533 381 -141 124 -396 404 -461 506 -10 16 -21
31 -25 34 -9 8 -103 149 -153 233 -70 116 -188 356 -241 492 -97 245 -159 493
-201 795 -24 175 -25 624 0 800 55 399 157 733 325 1070 68 134 188 338 240
406 9 12 23 32 31 44 122 182 377 451 591 626 65 51 120 94 124 94 3 0 14 7
22 16 18 18 208 144 217 144 3 0 25 14 50 31 70 47 307 162 441 214 471 184
950 259 1435 225z m-14992 -34 c60 -31 102 -98 102 -161 0 -106 -76 -185 -177
-185 -110 0 -183 72 -183 179 0 104 75 181 177 181 30 0 66 -6 81 -14z m1039
3 c42 -15 90 -72 103 -120 41 -152 -101 -273 -249 -213 -63 25 -95 75 -99 157
-4 60 -1 72 23 108 44 67 145 98 222 68z m1081 -19 c53 -40 72 -79 72 -150 0
-71 -19 -111 -70 -149 -46 -34 -133 -40 -186 -13 -69 36 -96 81 -96 162 0 81
27 127 97 165 45 24 141 16 183 -15z m6456 10 c124 -60 128 -253 6 -317 -128
-68 -269 15 -270 158 0 68 39 131 105 167 32 18 115 14 159 -8z m1045 2 c88
-44 122 -144 82 -238 -28 -65 -74 -97 -151 -102 -47 -3 -66 0 -97 18 -127 71
-124 255 4 324 38 21 120 20 162 -2z m1047 2 c130 -62 135 -250 9 -321 -76
-43 -183 -20 -236 49 -20 28 -24 44 -24 108 0 63 4 80 23 108 47 66 152 92
228 56z m11591 -860 c56 -27 87 -76 91 -148 4 -72 -15 -115 -69 -158 -68 -55
-184 -46 -240 18 -85 97 -54 244 61 296 29 13 122 8 157 -8z m-22240 -179 c93
-55 111 -207 33 -285 -66 -66 -192 -67 -260 -1 -83 79 -60 238 42 290 51 26
138 24 185 -4z m22206 -726 c83 -21 127 -81 127 -175 0 -52 -4 -67 -31 -103
-36 -50 -80 -71 -148 -71 -62 0 -92 11 -126 47 -96 100 -57 264 73 303 38 12
57 11 105 -1z m-22208 -303 c91 -60 112 -196 43 -277 -67 -76 -197 -80 -269
-8 -68 68 -63 208 10 267 54 44 162 53 216 18z m22265 -637 c94 -70 94 -229
-1 -299 -40 -29 -132 -39 -179 -20 -44 18 -97 85 -105 131 -15 87 26 172 100
206 46 21 145 11 185 -18z m-2 -919 c49 -37 72 -82 72 -146 0 -112 -67 -178
-180 -178 -68 0 -112 22 -145 73 -62 94 -38 202 60 263 44 28 148 22 193 -12z
m-54 -891 c78 -19 126 -86 126 -174 0 -64 -22 -109 -71 -144 -37 -27 -50 -31
-108 -31 -87 0 -134 30 -165 105 -43 102 9 213 114 243 47 14 54 14 104 1z
m2059 -393 c185 -91 278 -285 236 -488 -20 -95 37 -5 -764 -1213 -186 -280
-396 -598 -467 -705 l-128 -194 0 -1681 c0 -1487 -2 -1688 -16 -1740 -27 -105
-87 -188 -177 -248 -106 -71 -26 -67 -1383 -67 -1071 0 -1226 -2 -1258 -15
-20 -9 -96 -60 -169 -114 -497 -370 -1149 -613 -1825 -681 -84 -8 -109 -7
-137 4 -55 23 -82 100 -52 152 7 12 43 47 81 78 165 135 355 328 510 519 l38
47 -759 0 c-625 0 -768 3 -813 14 -159 42 -286 184 -311 350 -6 37 -8 833 -7
2026 l3 1965 24 62 c46 117 134 207 250 255 l56 23 2757 3 2757 2 193 292
c908 1372 836 1267 896 1307 115 76 166 91 294 87 88 -3 103 -6 171 -40z
m-2040 -530 c78 -36 111 -91 105 -181 -4 -70 -26 -106 -86 -142 -68 -42 -171
-26 -221 33 -84 97 -59 230 54 288 38 20 106 20 148 2z m-19339 -3171 c140
-21 282 -73 501 -182 105 -52 195 -98 200 -103 6 -4 121 -64 257 -133 136 -70
293 -151 350 -180 224 -117 792 -410 879 -453 81 -40 160 -97 225 -159 54 -53
59 -56 83 -45 27 13 321 132 491 200 52 21 194 78 315 127 121 49 339 138 485
197 146 59 274 111 285 116 22 10 214 88 475 192 96 38 189 76 205 83 17 7 89
36 160 64 72 29 164 67 205 86 220 102 468 102 672 0 196 -99 338 -275 394
-490 37 -143 19 -347 -43 -489 -62 -141 -186 -276 -323 -353 -19 -11 -161 -94
-315 -185 -154 -90 -386 -226 -515 -302 -129 -75 -242 -141 -250 -146 -77 -46
-312 -184 -525 -310 -369 -216 -587 -345 -681 -401 -118 -70 -228 -124 -321
-158 -75 -27 -149 -48 -563 -157 -269 -70 -441 -115 -570 -150 -74 -20 -209
-56 -300 -79 -91 -24 -235 -62 -320 -85 -474 -128 -569 -144 -830 -144 -190 1
-300 13 -479 55 -115 27 -2720 894 -2795 931 -69 34 -117 67 -186 132 -98 91
-159 191 -202 326 -23 74 -23 80 -23 545 0 420 2 479 18 555 39 175 103 332
193 473 51 78 44 69 124 164 193 230 514 411 813 457 140 21 1769 22 1911 1z
m5368 -3341 c13 -9 36 -33 51 -52 23 -30 27 -45 27 -102 0 -66 -12 -94 -60
-142 -21 -20 -76 -38 -120 -38 -119 0 -205 117 -171 231 14 48 54 96 95 114
42 20 146 13 178 -11z m1063 1 c59 -34 85 -81 85 -156 0 -76 -32 -132 -93
-160 -148 -67 -299 56 -257 210 31 114 162 167 265 106z m1061 6 c75 -34 111
-108 95 -196 -5 -26 -17 -59 -28 -74 -26 -36 -99 -71 -148 -71 -54 0 -124 37
-152 79 -31 46 -32 149 -3 196 19 31 54 60 90 77 29 13 105 7 146 -11z m1098
-14 c86 -66 98 -189 26 -271 -77 -87 -245 -65 -295 39 -24 53 -18 149 14 193
36 51 85 73 157 69 49 -2 69 -8 98 -30z m1055 11 c61 -35 86 -81 86 -158 -1
-52 -6 -73 -25 -103 -63 -95 -213 -103 -291 -15 -48 56 -52 158 -7 224 48 71
161 96 237 52z m1065 2 c86 -42 123 -160 76 -245 -55 -102 -191 -127 -277 -52
-61 54 -80 137 -48 213 38 91 155 130 249 84z m1076 -1 c59 -37 90 -93 90
-166 0 -134 -147 -215 -271 -150 -118 62 -115 254 4 315 56 29 130 29 177 1z
m1057 6 c72 -30 103 -80 103 -166 0 -57 -4 -71 -29 -106 -33 -45 -90 -73 -150
-73 -132 0 -218 134 -162 255 42 92 143 130 238 90z m13803 -3415 c828 -33
1501 -151 2087 -365 331 -120 526 -212 830 -393 88 -52 352 -237 373 -262 3
-3 25 -21 50 -40 45 -34 210 -178 221 -192 3 -4 75 -79 160 -165 210 -214 359
-398 539 -667 243 -364 465 -805 634 -1258 61 -163 106 -293 106 -305 0 -6
-21 -16 -47 -22 -137 -30 -436 -95 -493 -106 -36 -7 -112 -24 -170 -38 -114
-28 -445 -101 -550 -122 -36 -7 -112 -25 -170 -39 -106 -25 -430 -97 -550
-121 -36 -7 -119 -27 -185 -43 -66 -17 -147 -35 -180 -42 -33 -6 -107 -22
-165 -35 -344 -81 -693 -154 -702 -149 -4 3 -12 19 -17 37 -63 216 -202 535
-296 683 -125 196 -381 448 -600 593 -89 59 -285 158 -395 199 -112 42 -287
87 -424 109 -154 24 -552 24 -718 0 -385 -57 -713 -191 -1003 -411 -89 -67
-266 -239 -341 -331 -27 -33 -51 -62 -54 -65 -22 -22 -180 -253 -180 -264 0
-2 -16 -33 -36 -67 -174 -309 -311 -825 -363 -1374 -37 -386 -40 -1151 -6
-1545 61 -729 178 -1213 389 -1618 178 -341 513 -648 886 -810 154 -67 313
-114 505 -147 183 -33 502 -44 718 -26 134 11 389 56 490 86 446 133 760 372
1039 792 76 115 187 321 239 443 17 41 39 93 49 115 66 151 164 462 220 703
18 72 36 132 42 132 6 0 45 -11 87 -24 113 -35 296 -91 381 -116 41 -12 163
-49 270 -81 332 -101 591 -179 890 -269 110 -34 294 -89 430 -130 52 -16 178
-54 280 -85 102 -31 223 -68 270 -82 144 -43 201 -60 320 -97 63 -19 144 -44
180 -54 77 -23 80 -29 50 -133 -12 -41 -30 -108 -41 -149 -46 -175 -145 -479
-204 -630 -62 -159 -98 -247 -105 -255 -4 -5 -11 -21 -15 -34 -8 -25 -69 -159
-122 -266 -51 -103 -163 -305 -215 -389 -65 -104 -121 -190 -128 -196 -3 -3
-18 -25 -34 -49 -30 -46 -178 -245 -202 -271 -8 -8 -46 -53 -85 -100 -117
-139 -483 -497 -546 -534 -9 -4 -24 -17 -34 -27 -11 -11 -70 -57 -132 -102
-705 -521 -1496 -802 -2537 -901 -309 -30 -523 -39 -925 -39 -583 1 -947 24
-1455 94 -551 76 -1172 240 -1528 405 -29 13 -55 24 -57 24 -3 0 -39 16 -81
35 -41 19 -77 35 -78 35 -12 0 -314 172 -398 226 -95 62 -283 194 -327 230
-274 226 -488 427 -636 598 -33 38 -67 77 -75 85 -8 9 -48 57 -87 106 -40 50
-79 97 -86 105 -7 8 -40 51 -73 95 -478 643 -758 1217 -954 1955 -315 1187
-335 2774 -49 4035 104 463 253 889 449 1286 206 418 449 779 750 1114 146
162 422 421 559 525 18 14 47 36 65 50 211 172 528 368 846 524 425 208 800
334 1365 460 557 124 1371 185 2085 156z m-23250 -200 c402 -18 689 -53 1050
-129 186 -40 491 -135 666 -208 97 -40 415 -199 424 -211 3 -5 25 -20 50 -34
208 -120 522 -396 686 -603 35 -44 69 -87 77 -95 26 -29 104 -146 157 -235 29
-49 60 -101 69 -115 8 -14 39 -74 69 -135 263 -535 387 -1197 368 -1970 -9
-375 -35 -604 -107 -934 -97 -443 -276 -866 -507 -1195 -40 -58 -151 -205
-167 -222 -5 -6 -30 -35 -55 -65 -97 -115 -319 -326 -430 -409 -19 -14 -54
-41 -79 -60 -50 -39 -176 -119 -311 -198 -303 -177 -702 -322 -1190 -432 -187
-43 -526 -88 -900 -121 -79 -7 -571 -13 -1347 -16 l-1223 -5 0 -2181 0 -2182
-1825 3 -1825 2 0 5880 0 5880 3063 0 c1882 0 3149 -4 3287 -10z m11840 0
c599 -26 1024 -98 1507 -256 292 -95 661 -288 900 -470 538 -410 903 -980
1084 -1694 155 -616 179 -1370 64 -2054 -153 -911 -619 -1681 -1315 -2172
-100 -71 -235 -154 -250 -154 -5 0 -10 -4 -10 -8 0 -14 -347 -178 -492 -233
-529 -200 -1093 -306 -1813 -339 -121 -5 -703 -10 -1292 -10 l-1073 0 0 -2180
0 -2180 -1830 0 -1830 0 0 5873 c0 3231 3 5877 7 5880 11 11 6081 8 6343 -3z
m4280 -14551 c101 -57 110 -223 17 -300 -54 -44 -175 -42 -228 5 -49 42 -63
74 -63 140 1 80 40 145 104 169 38 14 133 7 170 -14z m1026 -5 c56 -41 69 -70
69 -148 0 -64 -3 -77 -28 -109 -37 -49 -80 -70 -142 -70 -101 0 -173 64 -183
163 -6 63 25 131 77 166 32 22 44 25 108 22 53 -2 79 -9 99 -24z m1017 1 c72
-49 98 -154 58 -233 -26 -52 -53 -73 -111 -88 -58 -15 -135 -1 -171 32 -85 76
-75 225 18 289 31 20 50 25 103 25 53 0 72 -5 103 -25z m1019 -1 c21 -15 47
-46 59 -71 41 -86 5 -199 -77 -238 -48 -22 -129 -23 -171 -1 -95 49 -124 195
-56 277 36 42 76 58 147 59 49 0 67 -5 98 -26z m1024 -3 c43 -32 69 -93 68
-158 -2 -82 -54 -144 -134 -162 -53 -11 -124 1 -157 28 -85 71 -85 229 1 291
37 27 50 30 121 27 55 -2 77 -7 101 -26z m1015 4 c48 -36 63 -66 67 -134 4
-54 1 -72 -19 -107 -30 -56 -85 -87 -154 -87 -187 0 -250 239 -89 336 40 24
158 20 195 -8z m1018 -6 c49 -35 71 -80 71 -142 0 -82 -53 -159 -118 -173 -15
-3 -35 -7 -44 -9 -29 -5 -99 14 -131 37 -90 64 -86 222 6 289 35 25 49 29 107
29 59 0 72 -4 109 -31z m1018 2 c94 -68 96 -225 5 -290 -103 -73 -267 -19
-288 96 -9 47 2 118 22 149 34 51 82 74 155 74 57 0 71 -4 106 -29z m986 20
c84 -32 130 -150 93 -234 -34 -75 -85 -109 -163 -110 -111 -1 -175 60 -181
172 -3 56 0 71 20 101 38 56 82 80 149 80 32 0 69 -4 82 -9z m1049 -16 c45
-34 68 -85 68 -154 0 -120 -90 -193 -211 -171 -86 16 -139 82 -139 173 0 73
26 125 79 156 48 29 162 26 203 -4z m1017 -6 c54 -39 74 -86 69 -160 -8 -116
-102 -183 -219 -158 -106 23 -168 142 -124 240 33 77 84 109 171 109 52 0 67
-4 103 -31z m1036 -9 c74 -71 74 -201 0 -270 -55 -52 -171 -56 -237 -9 -93 67
-88 226 10 294 33 24 45 26 114 23 72 -3 79 -5 113 -38z m976 26 c110 -46 134
-210 42 -293 -88 -80 -245 -50 -288 54 -34 82 -11 174 58 224 33 24 50 29 97
29 32 0 73 -6 91 -14z m-34112 -224 c25 -24 28 -37 35 -120 27 -361 278 -601
791 -756 232 -71 494 -110 835 -127 266 -12 381 -29 529 -75 307 -96 574 -293
729 -539 131 -208 216 -485 229 -747 l6 -118 272 0 c263 0 419 -9 535 -31 535
-100 993 -423 1259 -889 70 -122 181 -385 202 -479 15 -70 39 -344 39 -460 l0
-104 33 27 c181 146 439 200 660 136 128 -36 214 -87 308 -180 101 -100 158
-190 202 -322 l32 -93 3 -2175 c2 -1497 0 -2221 -8 -2322 -43 -581 -240 -1141
-568 -1613 -200 -287 -499 -589 -777 -784 -429 -301 -909 -484 -1425 -542
-144 -17 -532 -17 -665 0 -366 44 -706 143 -1010 291 -341 166 -503 288 -874
654 -157 155 -257 271 -368 428 -53 76 -212 322 -254 395 -174 301 -232 406
-344 628 -72 143 -155 314 -184 380 -30 66 -69 152 -86 190 -18 39 -44 101
-60 139 -15 38 -31 77 -36 85 -21 41 -187 460 -261 661 -78 211 -154 433 -223
650 -18 58 -45 137 -59 177 -48 134 -53 323 -12 463 24 81 77 180 136 254 218
274 603 350 917 181 l82 -45 4 1333 c3 1447 0 1372 58 1602 52 206 157 430
283 605 80 110 220 259 326 347 187 154 427 279 665 344 184 51 273 61 634 66
l344 5 -6 107 c-20 367 -191 710 -447 901 -123 91 -273 162 -435 205 -85 22
-192 34 -411 45 -873 42 -1453 274 -1697 678 -76 125 -127 308 -127 453 0 51
3 61 31 88 26 26 38 31 81 31 41 0 54 -5 77 -28z m20698 4 c60 -29 123 -88
155 -148 l23 -43 0 -4660 0 -4660 -22 -45 c-30 -61 -90 -121 -149 -151 l-49
-24 -6342 -3 -6342 -2 -58 22 c-74 27 -151 103 -176 173 -16 47 -17 286 -15
4705 l3 4655 27 45 c46 78 106 129 177 151 14 4 2881 8 6371 8 l6345 1 52 -24z
m-20594 -2155 c14 -6 33 -18 44 -29 10 -10 97 -92 193 -182 96 -90 204 -191
240 -225 36 -35 119 -113 185 -174 65 -61 125 -121 132 -133 22 -41 16 -90
-16 -126 -26 -28 -36 -32 -80 -32 -55 0 -59 2 -195 133 -77 73 -82 77 -381
357 -137 129 -255 243 -262 255 -7 11 -12 37 -13 59 0 30 7 45 34 72 36 36 71
43 119 25z m33432 -79 c377 -108 654 -418 709 -793 14 -95 16 -476 16 -3545
-1 -2140 -4 -3467 -10 -3513 -30 -229 -122 -417 -284 -576 -129 -128 -281
-212 -464 -258 l-87 -21 -2057 -3 -2058 -3 0 -585 0 -585 796 0 796 0 29 -29
c24 -25 29 -38 29 -78 0 -51 -18 -82 -57 -102 -16 -8 -768 -11 -2778 -11
-2468 0 -2760 2 -2790 15 -62 30 -77 125 -26 176 l29 29 796 0 796 0 0 585 0
585 -2002 3 -2003 3 -87 21 c-187 47 -335 130 -469 263 -139 139 -226 300
-267 494 -16 75 -17 326 -17 3586 0 3769 -3 3560 51 3717 112 327 426 594 752
642 31 5 2424 8 5317 7 l5260 -1 80 -23z m-33772 -978 c161 -64 348 -138 417
-166 69 -28 141 -56 160 -64 129 -47 149 -63 157 -121 9 -74 -35 -128 -106
-127 -22 0 -169 53 -381 138 -190 76 -406 162 -480 191 -74 30 -145 64 -157
75 -68 65 -16 188 80 190 10 0 150 -52 310 -116z m509 -1004 c80 -23 107 -123
49 -181 l-29 -29 -555 0 -554 0 -26 24 c-54 50 -41 147 24 179 30 15 89 17
544 17 319 0 524 -4 547 -10z m6644 -7812 c50 -34 74 -85 74 -155 0 -46 -5
-68 -22 -93 -42 -61 -71 -75 -153 -75 -59 0 -79 4 -102 21 -69 51 -94 131 -67
210 9 26 21 52 27 59 23 21 72 53 92 58 39 11 118 -2 151 -25z m1071 0 c49
-32 73 -85 73 -156 0 -65 -21 -108 -73 -146 -40 -30 -170 -30 -208 -1 -50 37
-71 83 -72 150 -1 87 43 150 122 176 41 13 120 2 158 -23z m1052 8 c10 -9 22
-16 27 -17 5 0 20 -14 34 -32 20 -25 25 -45 28 -101 3 -61 1 -76 -20 -105 -37
-55 -71 -74 -137 -79 -47 -3 -69 0 -105 18 -25 12 -46 25 -46 29 0 5 -9 18
-20 30 -28 34 -35 97 -15 155 17 49 54 89 104 113 34 16 128 9 150 -11z m1057
5 c22 -10 55 -36 72 -57 29 -35 32 -45 32 -105 0 -58 -4 -71 -31 -108 -39 -55
-86 -74 -161 -69 -86 6 -140 53 -159 137 -18 82 20 164 93 200 53 26 100 26
154 2z m1103 -15 c54 -38 71 -73 71 -149 0 -56 -4 -70 -31 -106 -36 -50 -80
-71 -148 -71 -89 0 -149 46 -172 132 -23 84 23 177 106 215 45 20 129 10 174
-21z m1064 2 c57 -37 80 -87 75 -164 -4 -68 -21 -100 -72 -138 -22 -17 -42
-21 -105 -21 -67 0 -81 3 -108 25 -35 28 -73 104 -73 147 1 63 53 140 115 169
42 20 124 11 168 -18z m1071 3 c48 -30 76 -87 76 -158 0 -51 -5 -66 -31 -102
-35 -49 -80 -71 -144 -71 -60 0 -103 19 -141 62 -36 41 -50 110 -34 168 12 46
66 103 111 118 46 15 123 7 163 -17z m1070 -2 c52 -31 76 -78 76 -153 0 -54
-4 -69 -31 -105 -35 -50 -80 -71 -147 -71 -203 0 -250 270 -61 350 35 14 122
3 163 -21z m1073 -1 c49 -32 73 -85 73 -156 0 -50 -5 -66 -31 -101 -39 -55
-86 -74 -161 -69 -88 6 -148 62 -162 148 -13 82 43 177 118 200 47 14 124 4
163 -22z m1023 22 c80 -24 124 -92 118 -185 -7 -105 -70 -165 -175 -165 -93 0
-162 58 -177 148 -21 135 101 240 234 202z m1112 -22 c51 -32 78 -84 78 -148
0 -102 -59 -170 -155 -178 -71 -6 -116 11 -158 59 -80 90 -45 232 69 285 42
19 122 11 166 -18z m1043 13 c22 -10 53 -33 70 -50 26 -28 30 -40 33 -104 4
-68 2 -75 -28 -115 -37 -51 -80 -72 -151 -72 -119 0 -200 106 -169 222 16 59
42 92 92 117 53 26 100 26 153 2z m1100 -13 c56 -38 78 -88 73 -166 -3 -57 -8
-72 -33 -101 -38 -43 -81 -61 -145 -61 -127 0 -205 106 -170 232 12 42 59 94
105 115 43 19 129 10 170 -19z m1068 0 c57 -37 80 -87 75 -164 -4 -68 -21
-100 -72 -138 -42 -32 -159 -30 -208 3 -114 79 -94 258 37 318 42 19 124 10
168 -19z m1071 3 c48 -30 76 -87 76 -158 0 -51 -5 -66 -31 -102 -90 -125 -297
-79 -324 72 -16 83 39 179 116 205 46 15 123 7 163 -17z m1069 -1 c18 -11 44
-38 56 -61 49 -87 11 -219 -75 -255 -48 -20 -121 -17 -168 6 -134 65 -122 263
18 326 40 19 124 10 169 -16z m1026 20 c39 -11 86 -51 107 -92 8 -15 14 -54
14 -86 0 -50 -5 -65 -31 -101 -17 -24 -46 -49 -67 -58 -49 -20 -143 -14 -180
14 -167 124 -43 381 157 323z"/>
<path d="M33533 50060 c-109 -26 -212 -110 -264 -216 l-34 -69 0 -5660 0
-5660 23 -57 c27 -67 93 -143 160 -187 104 -66 -268 -61 4392 -59 3432 3 4232
5 4263 16 70 24 159 94 203 160 82 122 74 -408 74 5177 0 4331 -2 4990 -14
5020 l-15 35 -729 0 c-721 0 -730 0 -755 21 -15 11 -31 37 -36 57 -5 20 -13
346 -16 724 l-7 688 -37 10 c-43 12 -7158 12 -7208 0z m2132 -830 c227 -33
376 -110 536 -278 294 -308 340 -786 112 -1155 -27 -42 -85 -114 -131 -161
l-83 -84 53 -7 c206 -26 382 -113 535 -264 231 -228 368 -574 463 -1168 25
-156 25 -235 0 -291 -26 -56 -83 -108 -148 -132 -53 -20 -73 -20 -1460 -18
l-1407 3 -56 36 c-36 24 -66 54 -85 85 -26 45 -29 57 -29 139 1 140 94 595
163 795 47 135 58 161 113 267 69 135 121 212 195 292 141 152 311 239 506
259 l68 7 -75 75 c-211 212 -303 469 -275 771 21 225 117 428 277 583 37 36
70 66 74 66 3 0 17 9 30 21 75 65 223 128 349 149 41 6 82 13 90 15 34 6 119
4 185 -5z m5636 -1251 c41 -44 41 -105 0 -151 l-29 -33 -1627 -3 c-895 -1
-1641 2 -1658 6 -38 10 -77 62 -77 104 0 35 24 83 47 97 12 7 565 10 1666 11
l1649 0 29 -31z m520 -838 c39 -40 42 -115 5 -158 l-24 -28 -1910 -3 -1910 -2
-30 25 c-51 43 -54 122 -6 170 l25 25 1910 0 1911 0 29 -29z m-596 -853 c23
-28 27 -39 23 -80 -6 -57 -27 -84 -77 -98 -51 -14 -3103 -14 -3154 1 -43 12
-77 57 -77 102 0 34 24 82 47 96 12 7 549 10 1615 11 l1596 0 27 -32z m-5972
-1382 c77 -28 89 -49 121 -211 l22 -110 49 -12 c59 -15 53 -19 133 97 67 99
99 120 183 120 54 0 61 -3 160 -74 57 -41 124 -89 149 -106 212 -147 225 -163
218 -259 -4 -49 -12 -68 -69 -152 l-65 -95 28 -38 c15 -20 28 -42 30 -47 2 -7
44 -3 116 11 135 25 170 21 222 -29 44 -42 44 -42 94 -316 49 -272 48 -289
-19 -364 -41 -45 -86 -64 -192 -81 l-72 -12 -11 -55 c-11 -51 -10 -56 9 -69
11 -8 27 -21 35 -29 8 -8 17 -15 21 -15 13 0 116 -82 129 -103 20 -30 30 -90
22 -131 -6 -31 -84 -155 -239 -377 -73 -104 -108 -129 -178 -129 -48 0 -79 15
-181 86 l-77 54 -46 -31 c-40 -27 -45 -35 -41 -58 27 -132 36 -207 31 -234
-10 -44 -51 -96 -90 -113 -45 -18 -403 -84 -495 -91 -67 -5 -79 -3 -109 18
-57 40 -70 67 -93 191 l-21 117 -56 12 c-36 7 -56 8 -59 1 -1 -5 -20 -32 -40
-60 -20 -28 -49 -69 -64 -90 -34 -49 -81 -72 -146 -72 -52 0 -47 -3 -202 105
-41 28 -98 67 -125 86 -176 120 -211 163 -203 253 4 42 15 67 68 144 56 83 62
95 51 115 -49 90 -33 83 -144 62 -152 -29 -222 -13 -263 59 -12 22 -31 97 -48
189 -15 83 -34 186 -42 228 -42 227 -1 278 258 314 26 3 50 10 52 14 3 4 8 30
11 57 l7 50 -98 70 c-79 56 -101 77 -117 113 -36 82 -27 106 134 344 79 116
148 217 154 223 30 30 79 46 132 42 47 -4 67 -14 150 -70 l95 -66 44 30 c24
16 44 31 44 33 0 2 -9 56 -20 120 -24 139 -18 177 34 223 42 37 37 35 211 67
388 73 357 69 408 51z m5962 -1247 c31 -27 35 -37 35 -79 0 -42 -4 -52 -35
-79 l-36 -31 -1845 0 -1846 0 -30 30 c-28 29 -30 35 -26 87 4 46 10 61 32 80
l27 23 1844 0 1844 0 36 -31z m-1269 -741 c41 -31 44 -37 44 -91 0 -40 -5 -53
-29 -78 l-29 -29 -1180 0 -1180 0 -26 31 c-20 23 -26 42 -26 78 0 49 15 76 55
99 15 8 331 11 1181 12 l1161 0 29 -22z m705 -717 c24 -24 29 -38 29 -76 0
-57 -12 -80 -50 -100 -43 -22 -3002 -23 -3055 0 -40 16 -55 46 -55 107 0 32 6
46 31 69 l31 29 1520 0 1520 0 29 -29z m-4741 -948 c16 -9 33 -27 39 -40 8
-17 11 -382 11 -1223 l0 -1198 -31 -31 -31 -31 -384 0 c-394 0 -412 2 -441 39
-10 12 -12 291 -13 1227 l0 1212 29 31 29 31 382 0 c338 0 385 -2 410 -17z
m-1370 -674 c74 -22 70 35 70 -929 l0 -862 -29 -29 -29 -29 -407 0 -407 0 -29
29 -29 29 0 862 c0 800 1 864 17 891 10 17 31 34 48 38 46 14 750 13 795 0z
m7329 1 c78 -22 102 -126 43 -185 l-25 -25 -2593 0 -2593 0 -26 23 c-35 30
-46 104 -21 143 38 57 -134 53 2631 54 1616 0 2562 -4 2584 -10z m-499 -667
c69 -40 66 -159 -5 -191 -20 -9 -568 -12 -2344 -12 l-2318 0 -26 24 c-31 29
-42 64 -34 112 6 38 24 59 59 73 14 6 938 10 2331 10 2137 1 2311 0 2337 -16z
m-1865 -654 c2459 -12 2272 -6 2301 -75 20 -48 9 -98 -28 -129 -36 -30 296
-28 -2728 -15 -1381 6 -2319 14 -2340 20 -79 21 -95 137 -26 192 26 22 -87 22
2821 7z"/>
<path d="M35475 49010 c-146 -22 -293 -95 -391 -195 -42 -42 -117 -151 -140
-203 -45 -102 -66 -200 -66 -307 0 -363 256 -658 612 -706 187 -25 407 59 548
210 142 153 219 384 193 575 -45 325 -263 562 -570 620 -89 17 -108 18 -186 6z"/>
<path d="M35055 47331 c-163 -7 -200 -16 -310 -80 -33 -19 -92 -67 -131 -106
-189 -190 -315 -524 -414 -1093 -21 -118 -21 -124 -4 -143 17 -19 45 -19 1369
-19 1573 0 1397 -16 1376 123 -107 731 -305 1121 -640 1262 -128 53 -160 56
-646 60 -247 1 -517 0 -600 -4z"/>
<path d="M34962 44652 l-143 -27 5 -30 c43 -270 42 -271 -141 -387 -140 -88
-177 -88 -307 6 -44 31 -82 56 -85 56 -3 0 -31 -37 -60 -82 -30 -46 -57 -85
-61 -88 -13 -12 -68 -104 -65 -110 2 -4 39 -30 82 -60 133 -92 146 -123 115
-270 -12 -52 -24 -112 -27 -132 -3 -21 -17 -51 -32 -68 -24 -29 -74 -62 -90
-59 -23 2 -163 -26 -163 -33 0 -5 -4 -6 -10 -3 -14 9 -13 -3 15 -151 31 -169
35 -184 49 -184 6 0 43 7 81 15 132 28 210 12 248 -50 11 -16 43 -68 73 -114
48 -75 54 -90 54 -138 0 -60 -12 -90 -76 -180 -24 -34 -44 -65 -44 -70 1 -7
249 -183 269 -191 4 -1 35 38 70 88 68 98 97 120 163 120 45 0 225 -34 270
-52 52 -20 79 -70 98 -184 9 -58 20 -107 22 -110 11 -11 320 50 325 64 3 7 -2
51 -11 97 -9 46 -16 98 -16 115 0 48 36 107 83 136 23 15 75 49 115 75 62 42
81 49 122 49 42 0 59 -8 145 -65 54 -36 99 -65 101 -65 1 0 21 30 45 68 23 37
45 69 48 72 12 9 94 141 90 144 -2 1 -35 25 -74 51 -118 82 -135 106 -135 183
0 58 45 269 62 289 29 35 73 54 169 73 56 11 105 23 107 25 4 4 -47 325 -53
333 -1 1 -56 -5 -122 -15 -119 -17 -119 -17 -164 5 -34 17 -53 36 -83 84 -21
35 -53 88 -72 118 -26 42 -34 65 -34 103 0 54 14 85 76 173 24 34 44 65 44 70
0 5 -39 36 -87 69 -47 33 -106 75 -130 93 -25 18 -49 32 -54 30 -4 -2 -35 -41
-66 -88 -70 -102 -102 -123 -183 -117 -46 3 -148 21 -236 42 -26 6 -73 52 -86
85 -5 14 -16 59 -24 100 -22 121 -22 120 -47 119 -12 -1 -86 -13 -165 -27z
m371 -667 c187 -39 355 -191 418 -375 45 -133 33 -333 -26 -450 -84 -166 -248
-285 -427 -310 -297 -42 -566 139 -640 432 -17 68 -20 101 -15 179 22 357 339
599 690 524z"/>
<path d="M35143 43771 c-109 -28 -204 -107 -251 -209 -22 -47 -26 -72 -27
-137 0 -69 5 -89 31 -145 52 -110 129 -173 250 -205 74 -19 133 -11 219 32 82
40 140 106 174 196 62 170 -30 372 -204 447 -55 23 -144 33 -192 21z"/>
<path d="M35280 40000 l0 -1050 230 0 230 0 -2 1048 -3 1047 -227 3 -228 2 0
-1050z"/>
<path d="M33900 39660 l0 -710 245 0 245 0 0 710 0 710 -245 0 -245 0 0 -710z"/>
<path d="M41003 49495 c4 -187 7 -424 7 -527 l0 -188 568 0 c565 1 567 1 543
20 -13 11 -73 67 -135 124 -61 57 -124 117 -141 131 -16 15 -61 57 -100 94
-38 36 -95 88 -125 115 -30 27 -91 84 -135 125 -45 42 -128 119 -185 171 -57
52 -118 109 -135 125 -59 55 -130 120 -149 135 -19 15 -19 9 -13 -325z"/>
<path d="M12853 50019 c-259 -20 -484 -81 -728 -199 -565 -274 -971 -806
-1091 -1430 -31 -158 -42 -411 -25 -560 44 -389 181 -730 418 -1035 317 -408
781 -676 1301 -751 139 -20 405 -20 544 0 919 133 1615 855 1719 1786 17 149
6 402 -25 560 -120 624 -526 1156 -1091 1430 -249 120 -465 178 -745 200 -137
10 -132 10 -277 -1z m191 -713 c49 -20 66 -51 66 -117 l0 -57 69 -15 c89 -21
187 -65 264 -121 145 -103 224 -239 234 -401 5 -76 4 -82 -21 -112 -34 -41
-85 -52 -132 -30 -41 20 -60 55 -67 129 -7 74 -47 147 -110 204 -52 46 -151
100 -204 110 l-33 7 0 -365 0 -365 53 -6 c130 -16 300 -101 402 -202 116 -116
176 -253 177 -403 1 -103 -14 -176 -53 -253 -95 -190 -277 -321 -517 -370
l-62 -13 0 -49 c0 -42 -5 -54 -34 -83 -28 -28 -42 -34 -75 -34 -62 0 -101 39
-109 110 l-7 54 -85 22 c-158 40 -244 84 -353 181 -68 60 -144 177 -169 258
-5 16 -13 64 -18 105 -13 118 20 170 108 170 65 0 97 -36 107 -121 20 -184
169 -330 388 -383 l27 -6 -2 407 -3 407 -82 22 c-150 39 -300 127 -368 216
-16 21 -35 44 -41 51 -22 24 -62 112 -79 172 -24 80 -16 226 15 310 28 73 105
181 169 234 91 77 286 161 371 161 18 0 20 6 20 58 0 66 17 97 64 118 40 17
49 17 90 0z"/>
<path d="M12839 48900 c-14 -4 -57 -22 -95 -40 -136 -65 -224 -188 -224 -313
0 -140 147 -296 323 -343 l47 -12 0 359 c0 281 -3 359 -12 358 -7 0 -25 -4
-39 -9z"/>
<path d="M13110 47550 l0 -400 28 6 c225 54 384 217 384 393 0 104 -36 179
-129 268 -47 46 -183 116 -245 127 l-38 7 0 -401z"/>
<path d="M9235 46134 c-224 -26 -382 -72 -569 -166 -164 -82 -257 -150 -407
-298 -250 -246 -409 -564 -454 -907 -19 -146 -19 -455 0 -588 54 -374 214
-681 490 -943 216 -204 459 -331 779 -405 l91 -22 3725 -2 c4126 -4 3834 -8
4078 62 179 52 328 127 522 262 45 32 93 76 178 163 224 230 380 548 428 871
24 163 15 572 -15 709 -81 371 -287 703 -576 927 -33 26 -62 50 -65 54 -9 11
-202 120 -260 146 -110 50 -210 82 -360 115 -94 22 -111 22 -1374 25 -1070 3
-1281 1 -1295 -10 -22 -19 -99 -62 -190 -107 -183 -91 -474 -174 -696 -200
-55 -7 -174 -12 -265 -12 -197 0 -319 13 -500 54 -219 49 -498 160 -635 254
l-36 24 -1282 -1 c-705 -1 -1295 -4 -1312 -5z m1137 -935 c94 -19 208 -81 289
-157 134 -126 175 -233 113 -295 -58 -59 -136 -43 -187 38 -39 62 -132 143
-197 174 -46 22 -69 26 -145 26 -83 0 -95 -2 -153 -34 -78 -42 -123 -87 -169
-169 -77 -138 -101 -302 -64 -455 30 -125 65 -191 141 -267 50 -50 80 -70 128
-89 127 -47 273 -12 382 91 45 43 110 135 110 156 0 17 49 51 85 58 38 7 86
-14 109 -48 34 -48 11 -133 -58 -223 -142 -187 -304 -275 -504 -275 -166 0
-293 51 -408 165 -213 210 -282 560 -174 874 74 212 244 379 436 425 72 17
195 20 266 5z m2819 -18 l29 -29 0 -680 0 -680 -29 -31 c-24 -26 -36 -31 -75
-31 -36 0 -52 6 -78 29 l-33 29 -3 664 c-2 484 1 670 9 691 30 72 126 92 180
38z m1318 13 c151 -38 283 -133 377 -273 39 -58 47 -84 39 -122 -21 -96 -153
-119 -204 -35 -55 88 -120 149 -211 197 -38 20 -60 23 -140 24 -84 0 -101 -3
-146 -27 -109 -58 -194 -167 -236 -303 -28 -91 -30 -259 -4 -355 33 -120 114
-243 195 -294 105 -66 238 -73 347 -18 76 38 163 124 200 198 35 69 64 89 123
88 89 -2 128 -92 80 -187 -64 -124 -180 -238 -304 -298 -91 -44 -157 -59 -261
-59 -100 0 -165 16 -254 61 -99 50 -167 112 -236 215 -159 240 -177 577 -43
850 90 184 242 309 424 347 50 11 194 6 254 -9z m1932 -23 c25 -25 29 -37 29
-82 l0 -52 -148 -151 c-81 -83 -180 -185 -219 -226 l-71 -75 39 -55 c21 -30
46 -66 56 -80 20 -28 108 -150 120 -165 17 -21 89 -120 103 -141 8 -12 42 -60
75 -105 109 -150 115 -161 115 -196 0 -68 -42 -112 -106 -113 -67 0 -42 -29
-393 455 -84 116 -156 216 -161 224 -6 11 -33 -12 -109 -90 l-100 -104 -1
-183 c0 -145 -3 -191 -15 -217 -33 -69 -135 -75 -187 -11 -16 19 -18 69 -18
653 l0 632 23 27 c18 21 35 28 75 32 49 4 54 2 87 -31 l35 -35 0 -272 0 -271
207 213 c114 117 260 266 323 331 l115 117 48 0 c40 0 54 -5 78 -29z m-4769
-110 l33 -29 3 -541 3 -541 302 0 c268 0 306 -2 337 -18 69 -34 81 -113 26
-168 l-34 -34 -395 0 -395 0 -31 26 -31 26 0 625 0 625 29 29 c42 41 107 41
153 0z"/>
<path d="M22358 49949 c-548 -39 -1114 -243 -1560 -562 -89 -64 -118 -86 -252
-200 -115 -97 -282 -275 -404 -432 -36 -47 -137 -195 -175 -258 -231 -380
-364 -759 -433 -1232 -25 -166 -25 -561 -1 -730 34 -234 54 -322 122 -548 60
-195 167 -443 253 -587 12 -19 29 -48 38 -65 25 -45 124 -195 158 -240 244
-318 462 -529 746 -721 169 -114 406 -242 558 -299 34 -14 77 -31 95 -39 29
-13 84 -31 242 -79 217 -67 568 -117 817 -117 484 0 974 120 1406 346 184 96
276 154 437 274 182 136 333 276 465 429 30 35 62 71 70 80 41 44 240 330 240
346 0 2 11 21 25 41 33 49 139 258 176 348 324 779 328 1583 11 2361 -45 112
-157 336 -193 386 -10 15 -19 30 -19 34 0 10 -143 216 -216 311 -113 146 -289
326 -449 458 -81 67 -270 206 -281 206 -3 0 -26 14 -50 31 -131 90 -445 239
-639 304 -389 129 -797 182 -1187 154z m622 -338 c235 -39 339 -66 545 -141
376 -138 695 -342 979 -626 124 -124 147 -149 222 -246 307 -398 477 -796 561
-1313 26 -159 25 -612 -1 -775 -32 -200 -84 -408 -140 -557 -9 -24 -23 -62
-32 -85 -66 -182 -270 -526 -419 -709 -108 -132 -339 -357 -428 -418 -12 -8
-24 -17 -27 -20 -3 -4 -36 -29 -75 -56 -300 -215 -684 -383 -1040 -454 -212
-42 -364 -54 -620 -48 -264 6 -400 23 -609 77 -115 29 -250 72 -291 91 -11 5
-50 20 -88 34 -163 60 -443 221 -617 353 -186 142 -418 380 -556 572 -53 73
-143 218 -190 305 -20 39 -41 77 -45 85 -102 187 -208 523 -250 792 -30 188
-37 543 -15 730 39 340 121 619 273 926 65 131 215 374 278 451 207 250 417
448 610 575 174 115 215 139 350 205 253 124 540 214 795 251 194 28 201 28
465 25 184 -3 269 -8 365 -24z"/>
<path d="M22365 49414 c-618 -64 -1159 -317 -1580 -739 -49 -50 -106 -110
-125 -134 -19 -23 -43 -53 -54 -64 -26 -31 -116 -154 -147 -202 -190 -295
-316 -620 -380 -985 -27 -150 -36 -460 -20 -625 21 -202 67 -412 132 -595 38
-107 53 -143 115 -275 112 -241 317 -521 525 -719 238 -226 558 -427 846 -532
241 -88 374 -121 608 -150 174 -22 519 -15 682 15 305 54 625 169 858 306 664
393 1096 1014 1232 1775 23 129 26 172 27 395 1 194 -3 276 -17 365 -84 543
-327 1033 -699 1410 -138 140 -250 233 -404 336 -166 111 -414 234 -554 276
-19 5 -39 13 -45 18 -19 14 -332 89 -440 105 -105 16 -472 28 -560 19z m1240
-1009 c176 -31 296 -80 453 -188 80 -55 213 -189 266 -270 61 -91 125 -231
153 -333 25 -91 28 -113 28 -284 0 -162 -3 -197 -24 -280 -45 -180 -144 -360
-274 -492 -143 -147 -312 -246 -512 -299 -111 -30 -132 -32 -280 -32 -207 0
-301 20 -475 101 -75 36 -182 100 -188 115 -7 15 -24 5 -89 -58 -53 -51 -94
-79 -187 -125 -168 -84 -219 -79 -265 25 l-20 44 -78 -36 c-43 -19 -82 -39
-88 -43 -5 -4 -53 -26 -105 -50 -92 -41 -97 -42 -172 -37 l-77 6 -48 -77 c-26
-42 -54 -83 -63 -90 -15 -13 -98 -11 -195 4 l-41 6 -34 -70 c-43 -90 -95 -119
-162 -93 -13 5 -97 33 -188 62 -518 165 -510 161 -510 247 0 42 7 55 87 161
48 64 107 141 131 171 60 76 60 77 121 158 57 75 82 91 241 157 30 13 107 46
170 75 63 28 144 64 180 79 36 15 90 39 120 54 30 14 102 46 160 72 58 26 143
64 190 85 47 21 108 49 135 61 28 12 95 42 150 67 55 24 124 54 152 66 50 20
53 23 53 57 1 195 129 482 297 664 59 64 193 166 278 211 74 40 234 94 317
108 113 19 284 19 393 1z"/>
<path d="M23254 48185 c-80 -14 -222 -69 -302 -117 -92 -55 -292 -263 -292
-304 0 -4 -7 -15 -15 -23 -22 -26 -81 -189 -94 -261 -6 -36 -14 -101 -17 -144
-5 -71 -9 -83 -34 -105 -16 -15 -55 -37 -87 -50 -32 -14 -95 -42 -141 -63 -45
-21 -85 -38 -88 -38 -2 0 -51 -21 -107 -46 -56 -25 -147 -66 -202 -91 -55 -25
-125 -56 -155 -70 -30 -14 -73 -32 -95 -41 -22 -8 -44 -18 -50 -22 -5 -4 -84
-40 -175 -80 -91 -39 -197 -87 -236 -105 -39 -18 -80 -36 -92 -39 -72 -23
-106 -55 -223 -206 -65 -85 -119 -157 -119 -160 0 -3 80 -32 178 -64 97 -32
183 -60 189 -63 8 -3 23 17 38 50 32 66 57 95 92 103 24 6 145 -8 195 -22 16
-5 42 31 96 132 16 29 61 54 99 54 15 -1 57 -7 93 -15 74 -16 37 -29 338 116
109 53 175 79 199 79 51 0 90 -27 110 -77 10 -24 21 -43 24 -43 28 0 82 40
173 128 59 56 115 106 126 112 45 24 105 7 155 -43 73 -75 245 -166 375 -199
124 -31 292 -30 421 5 306 81 532 301 629 612 27 88 38 286 21 377 -24 125
-78 261 -143 357 -42 62 -171 189 -233 228 -27 18 -55 37 -61 42 -20 16 -206
83 -274 97 -80 17 -221 17 -316 -1z m677 -377 c111 -58 168 -155 169 -283 0
-92 -24 -156 -82 -221 -156 -170 -437 -126 -535 84 -23 48 -25 64 -21 145 5
109 22 152 89 219 101 102 253 124 380 56z"/>
<path d="M23739 47615 c-86 -46 -73 -169 20 -190 53 -11 121 40 121 93 0 39
-29 83 -65 98 -41 17 -43 17 -76 -1z"/>
<path d="M21223 43873 c-6 -16 -18 -46 -27 -68 -8 -22 -26 -71 -41 -109 -15
-37 -23 -72 -18 -76 13 -12 305 -121 310 -116 13 12 103 268 98 276 -3 6 -13
10 -21 10 -8 0 -75 25 -150 55 -75 30 -137 55 -138 55 -1 0 -6 -12 -13 -27z"/>
<path d="M20870 43460 c0 -9 -20 -63 -140 -370 -53 -137 -102 -264 -157 -410
-20 -52 -51 -133 -69 -180 -18 -47 -53 -139 -79 -205 -25 -66 -64 -166 -85
-222 -62 -159 -116 -300 -149 -388 -40 -106 -111 -290 -173 -450 -27 -71 -60
-157 -73 -190 -13 -33 -44 -114 -70 -180 -25 -65 -49 -138 -52 -161 -12 -92
44 -207 127 -259 22 -14 84 -42 137 -63 124 -47 192 -49 269 -9 45 23 134 109
134 129 0 7 24 70 140 368 50 131 98 254 155 405 42 109 115 299 159 415 131
339 184 478 225 585 17 44 51 133 76 198 25 64 65 170 90 235 25 64 59 151 75
192 15 41 49 128 74 193 49 126 52 137 36 137 -9 0 -118 41 -345 130 -301 118
-305 119 -305 100z"/>
<path d="M31804 45030 c-44 -22 -84 -55 -84 -69 0 -5 77 -66 172 -136 160
-119 172 -127 185 -109 16 22 33 80 33 114 0 74 -55 160 -123 196 -52 26 -135
28 -183 4z"/>
<path d="M31577 44752 c-8 -9 -33 -46 -56 -80 -41 -61 -42 -64 -24 -78 66 -51
166 -124 244 -178 l92 -64 49 71 c26 40 47 77 46 84 -2 7 -78 68 -170 137
-152 114 -167 123 -181 108z"/>
<path d="M31293 44327 c-34 -51 -217 -328 -409 -617 -191 -289 -469 -709 -619
-935 -327 -493 -699 -1055 -883 -1335 -74 -113 -139 -210 -144 -217 -7 -8 38
-48 154 -134 90 -67 168 -126 175 -131 11 -9 86 101 884 1307 715 1080 830
1254 868 1310 95 138 381 577 381 585 0 4 -21 24 -47 42 -230 166 -279 202
-289 209 -6 5 -32 -25 -71 -84z"/>
<path d="M25065 43353 c-42 -10 -103 -58 -131 -102 l-29 -46 0 -1970 c0 -1894
1 -1971 18 -2007 25 -49 63 -87 112 -109 38 -18 85 -19 838 -19 895 0 842 4
898 -73 51 -71 51 -181 -1 -258 -38 -56 -198 -240 -303 -348 l-82 -84 40 7
c190 34 553 143 735 222 19 9 44 19 55 24 223 95 440 223 655 385 52 40 111
80 130 90 88 45 69 45 1349 45 904 0 1224 3 1253 12 48 14 110 81 126 136 9
29 12 418 12 1538 l0 1498 -188 -284 c-849 -1282 -856 -1293 -923 -1351 -35
-31 -167 -146 -294 -255 -292 -252 -257 -222 -420 -364 -77 -67 -155 -129
-174 -137 -47 -20 -97 -9 -133 29 -42 45 -38 89 32 301 109 334 140 429 140
433 0 2 -673 4 -1496 4 l-1496 0 -34 34 c-46 46 -48 101 -5 148 l29 33 1537 5
1537 5 18 50 c10 28 33 95 50 151 25 80 47 124 110 220 l78 119 -1657 5
c-1320 4 -1661 8 -1678 18 -28 15 -53 62 -53 97 0 34 25 82 49 95 13 7 583 10
1753 10 1640 0 1734 1 1746 18 43 61 345 519 349 530 4 9 -382 12 -1912 12
l-1917 0 -34 34 c-28 28 -34 42 -34 76 0 36 6 48 36 76 l35 34 1992 0 1992 0
285 431 c157 237 293 444 303 460 l19 29 -2649 -1 c-1456 -1 -2657 -3 -2668
-6z m3071 -3261 c68 -54 55 -156 -23 -188 -27 -12 -231 -14 -1163 -14 -1188 0
-1172 -1 -1208 43 -20 24 -26 83 -12 117 26 63 -45 59 1225 59 1084 1 1161 -1
1181 -17z"/>
<path d="M29116 40982 c-9 -36 -184 -580 -197 -611 -16 -37 -4 -36 42 5 23 22
47 44 53 49 6 6 100 86 209 180 108 93 196 174 194 179 -2 6 -50 45 -108 87
-57 43 -123 91 -145 108 l-42 31 -6 -28z"/>
<path d="M8803 41299 c-50 -10 -127 -32 -171 -48 -73 -27 -218 -99 -245 -122
-7 -5 -46 -35 -87 -68 -194 -149 -336 -370 -407 -630 -26 -95 -27 -100 -31
-516 -4 -440 -1 -479 40 -573 48 -108 119 -190 223 -254 46 -29 2677 -907
2805 -937 154 -35 243 -45 410 -44 181 0 314 18 515 72 177 47 440 117 570
151 66 17 154 40 195 52 126 33 376 100 655 173 662 174 577 140 1053 420 244
143 457 269 692 408 74 44 149 88 165 97 136 78 244 141 325 190 52 31 163 96
245 145 83 48 213 125 290 170 77 46 196 116 265 156 174 101 214 132 271 209
61 82 109 224 109 323 0 57 -37 182 -72 243 -38 68 -124 160 -185 198 -146 90
-335 100 -498 27 -28 -13 -131 -56 -230 -96 -99 -40 -288 -116 -420 -170 -132
-54 -285 -115 -340 -137 -55 -22 -118 -48 -140 -58 -22 -10 -83 -34 -135 -54
-52 -20 -120 -48 -150 -61 -30 -13 -98 -40 -150 -60 -52 -21 -108 -43 -125
-51 -35 -15 -75 -31 -420 -170 -143 -58 -273 -111 -290 -118 -16 -8 -79 -33
-140 -57 -60 -23 -111 -43 -113 -44 -1 -1 4 -21 13 -44 25 -73 36 -195 25
-295 -37 -320 -249 -572 -556 -657 -61 -17 -105 -22 -194 -22 -137 1 -233 23
-360 84 -73 36 -536 253 -759 356 -41 19 -135 63 -210 97 -75 35 -156 73 -181
84 -297 135 -728 344 -747 361 -18 19 -23 34 -23 76 0 47 4 56 31 79 43 37 95
35 183 -8 126 -61 308 -146 311 -146 2 0 50 -22 107 -49 202 -95 285 -134 410
-191 168 -78 266 -124 363 -170 83 -40 165 -78 400 -187 77 -36 177 -82 222
-103 183 -86 318 -89 478 -10 100 49 143 84 201 165 152 214 140 484 -31 659
-68 70 -112 99 -305 196 -91 45 -183 93 -205 105 -22 12 -157 82 -300 155
-143 73 -264 136 -270 140 -5 4 -104 56 -220 114 -115 59 -257 132 -315 162
-357 187 -470 238 -605 276 -80 23 -83 23 -965 25 -843 2 -889 1 -977 -18z"/>
<path d="M11408 32184 c-5 -4 -8 -592 -8 -1306 l0 -1298 508 0 c689 0 916 15
1208 81 240 54 442 137 578 238 127 95 287 283 355 419 152 303 169 682 45
1037 -73 210 -264 461 -433 570 -189 122 -423 196 -771 242 -90 12 -262 16
-795 20 -374 3 -683 1 -687 -3z"/>
<path d="M23250 30884 l0 -1306 613 5 c339 3 659 10 717 16 490 52 811 165
1043 370 165 145 286 332 347 538 40 136 50 206 50 368 0 286 -63 504 -213
739 -28 44 -62 91 -75 105 -13 14 -38 43 -56 64 -108 132 -374 270 -636 332
-262 61 -479 75 -1197 75 l-593 0 0 -1306z"/>
<path d="M10604 17100 c-716 -76 -1279 -594 -1427 -1312 -20 -101 -21 -125
-24 -1548 l-4 -1446 49 -104 c74 -159 105 -224 165 -355 30 -66 73 -158 95
-205 22 -47 78 -168 125 -270 47 -102 106 -228 131 -280 l45 -95 0 1916 c1
1883 1 1917 21 1995 50 198 186 381 358 481 143 84 360 115 522 74 106 -26
213 -77 289 -135 l58 -45 7 264 c8 309 15 344 80 408 24 23 67 64 95 92 l51
50 0 262 0 263 -282 -1 c-156 -1 -315 -5 -354 -9z"/>
<path d="M11460 16925 l0 -187 23 5 c12 3 47 13 77 22 30 8 96 18 146 22 302
20 568 -140 708 -428 l42 -85 69 63 c78 71 166 121 275 154 61 19 99 23 200
24 69 0 140 -3 158 -7 18 -4 32 -3 32 2 0 20 -222 229 -311 292 -190 136 -425
237 -649 279 -87 17 -163 21 -437 26 l-333 5 0 -187z"/>
<path d="M11633 16555 c-175 -49 -306 -171 -370 -345 l-28 -75 -5 -1717 -5
-1716 -24 -26 c-13 -14 -39 -28 -56 -32 -40 -7 -99 17 -117 48 -11 19 -14 270
-18 1343 l-5 1320 -44 90 c-58 118 -139 202 -243 249 -128 59 -224 69 -345 37
-141 -37 -263 -136 -329 -269 -64 -128 -64 -128 -64 -651 0 -447 1 -473 18
-466 113 48 214 64 407 65 139 0 164 -3 191 -19 61 -37 69 -123 16 -173 -27
-26 -29 -26 -217 -31 -200 -4 -241 -12 -370 -73 l-40 -19 -5 -1575 c-5 -1495
-6 -1576 -23 -1601 -37 -54 -128 -63 -169 -16 -10 12 -66 123 -124 247 -57
124 -109 234 -114 245 -26 54 -228 493 -270 585 -26 58 -65 143 -87 190 -22
47 -84 180 -138 297 -112 244 -160 312 -271 384 -82 54 -136 75 -226 89 -201
31 -416 -86 -512 -277 -46 -92 -58 -143 -58 -243 0 -82 5 -99 122 -450 124
-372 272 -777 364 -997 14 -35 37 -89 49 -120 21 -51 119 -278 179 -413 174
-392 366 -754 643 -1212 31 -51 139 -208 211 -308 87 -121 379 -421 577 -593
91 -79 266 -207 283 -207 4 0 21 -11 38 -23 46 -35 306 -160 426 -205 229 -86
462 -143 715 -173 137 -17 486 -17 620 0 721 89 1375 442 1848 996 106 124
147 180 259 349 80 121 216 396 277 561 46 124 112 360 135 480 53 271 50 138
53 2515 4 2457 9 2279 -64 2425 -47 93 -156 201 -245 244 -132 63 -252 64
-408 5 -63 -24 -87 -41 -151 -104 -87 -85 -133 -165 -155 -269 -11 -54 -14
-256 -14 -1138 l0 -1071 -26 -31 c-43 -52 -124 -51 -171 1 -17 19 -18 89 -23
1602 l-5 1581 -33 81 c-93 233 -287 365 -512 351 -213 -14 -390 -155 -468
-376 -15 -42 -17 -199 -22 -1634 l-5 -1589 -33 -29 c-37 -33 -77 -37 -122 -14
-64 33 -60 -92 -60 1752 0 1858 4 1741 -66 1874 -90 171 -253 279 -434 286
-54 2 -104 -3 -137 -12z"/>
<path d="M16279 19591 l-29 -29 0 -636 0 -636 6358 2 6357 3 3 615 c1 338 0
624 -3 636 -2 11 -17 33 -31 47 l-27 27 -6299 0 -6300 0 -29 -29z m10431 -260
c79 -43 130 -92 159 -155 30 -62 31 -67 31 -215 0 -126 -3 -159 -20 -203 -34
-88 -107 -155 -201 -182 -50 -15 -368 -16 -3534 -14 l-3480 3 -55 26 c-67 33
-126 89 -154 149 -19 40 -21 63 -21 215 0 153 2 175 22 217 34 75 115 142 203
169 14 4 1600 7 3525 6 2947 -2 3504 -4 3525 -16z m-9710 -27 c105 -24 186
-88 238 -189 23 -44 26 -62 27 -155 0 -95 -3 -110 -28 -162 -35 -72 -95 -131
-174 -170 -60 -29 -66 -30 -165 -25 -98 4 -178 27 -178 49 0 4 -6 8 -13 8 -19
0 -92 79 -117 126 -67 132 -43 317 56 418 53 54 109 86 178 101 80 18 99 18
176 -1z m1016 -15 c79 -30 163 -114 194 -196 27 -71 30 -195 6 -262 -35 -95
-123 -183 -217 -216 -56 -20 -183 -19 -244 2 -64 21 -123 62 -163 112 -41 52
-59 92 -70 167 -46 287 218 496 494 393z m882 16 c71 -17 122 -46 173 -101 76
-82 104 -163 97 -277 -9 -127 -76 -230 -191 -293 -44 -24 -66 -29 -147 -32
-78 -3 -105 0 -148 16 -187 72 -278 274 -209 465 29 79 52 109 125 164 38 29
77 47 117 57 78 19 107 19 183 1z m9125 -57 c25 -29 55 -64 66 -78 l21 -25 27
30 c16 17 46 52 67 78 l39 47 123 0 c114 0 123 -1 129 -20 6 -20 -28 -68 -104
-150 -13 -14 -48 -54 -77 -89 -58 -70 -58 -71 -7 -127 15 -16 45 -50 65 -75
20 -24 48 -57 63 -74 14 -16 35 -40 46 -53 23 -27 25 -58 3 -66 -9 -3 -66 -6
-127 -5 l-112 0 -50 61 c-64 77 -75 88 -85 88 -4 0 -36 -34 -71 -75 l-64 -74
-125 2 c-117 2 -125 3 -128 22 -1 11 8 32 20 46 26 29 53 63 113 134 22 27 47
56 55 65 57 62 55 56 27 94 -15 19 -32 40 -40 48 -47 49 -166 197 -167 209 -6
38 -2 39 124 39 l124 0 45 -52z"/>
<path d="M19705 19116 c-43 -18 -55 -53 -55 -155 0 -113 11 -144 58 -165 34
-15 299 -16 3477 -14 l3440 3 25 25 c23 23 25 33 28 134 4 120 -4 148 -50 172
-39 20 -6876 20 -6923 0z"/>
<path d="M16839 19067 c-116 -77 -63 -247 77 -247 34 0 49 7 85 39 42 37 44
42 44 92 0 59 -19 95 -67 123 -38 23 -99 20 -139 -7z"/>
<path d="M17802 19069 c-112 -72 -62 -249 71 -249 101 0 170 110 124 200 -33
65 -131 90 -195 49z"/>
<path d="M18790 19093 c-57 -18 -80 -36 -100 -78 -30 -62 -21 -107 31 -157 35
-34 46 -38 91 -38 45 0 54 4 88 38 51 51 61 101 31 157 -29 55 -97 92 -141 78z"/>
<path d="M16250 14219 c0 -2622 3 -3856 10 -3870 6 -10 24 -26 40 -34 26 -13
727 -15 6304 -15 4175 0 6284 3 6301 10 15 6 34 18 43 27 16 15 17 282 20
3875 l2 3858 -6360 0 -6360 0 0 -3851z m6421 3041 c51 -28 49 41 49 -1480 0
-1529 3 -1446 -52 -1484 -20 -14 -249 -16 -2263 -16 -1771 0 -2245 3 -2265 13
-14 7 -33 28 -43 47 -16 33 -17 118 -15 1452 l3 1417 29 30 30 31 2254 0
c1526 0 2260 -3 2273 -10z m4892 -81 c15 -11 32 -37 38 -59 10 -32 9 -44 -7
-76 -11 -22 -30 -44 -44 -51 -34 -17 -3266 -19 -3303 -2 -74 34 -76 154 -2
197 15 8 440 11 1656 12 1636 0 1636 0 1662 -21z m-646 -704 c33 -33 35 -39
30 -82 -4 -37 -12 -54 -36 -75 l-31 -28 -1305 0 c-990 0 -1310 3 -1330 12 -69
31 -74 156 -8 192 25 13 187 15 1336 16 l1309 0 35 -35z m403 -618 c70 -24 90
-132 34 -184 l-25 -23 -1541 0 -1540 0 -29 31 c-55 59 -31 156 44 178 51 15
3014 13 3057 -2z m-160 -785 c130 -45 220 -102 320 -202 458 -458 217 -1254
-417 -1376 -112 -21 -2478 -21 -2580 0 -339 72 -586 329 -644 670 -15 91 -6
260 20 355 68 252 275 470 526 551 116 38 117 38 1415 37 l1265 -2 95 -33z
m-558 -1798 c62 -26 133 -54 158 -64 25 -9 90 -36 145 -59 55 -23 109 -46 120
-51 11 -4 40 -17 65 -29 25 -11 77 -32 115 -46 179 -67 215 -95 215 -166 0
-42 -12 -61 -83 -133 -34 -34 -73 -74 -86 -89 l-25 -27 122 -124 c120 -121
122 -123 122 -169 0 -84 -74 -136 -148 -105 -18 7 -83 63 -145 125 l-113 112
-90 -90 c-96 -97 -130 -114 -189 -98 -43 12 -54 28 -105 148 -23 53 -45 105
-50 116 -34 77 -54 125 -100 235 -29 69 -64 152 -80 185 -15 33 -31 71 -35 84
-4 13 -20 52 -36 85 -43 91 -37 160 18 190 45 25 84 19 205 -30z m-2722 -49
c32 -16 60 -61 60 -94 0 -34 -31 -88 -57 -100 -35 -16 -6645 -16 -6676 0 -52
27 -71 90 -47 153 22 60 -243 55 3378 56 2942 0 3316 -2 3342 -15z m-2502
-529 c72 -37 75 -163 5 -195 -17 -8 -599 -11 -2097 -11 l-2074 0 -31 29 c-25
23 -31 37 -31 70 0 51 15 83 48 104 25 15 186 16 2090 17 1759 0 2067 -2 2090
-14z m-2752 -919 c18 -22 24 -40 24 -79 0 -43 -4 -54 -31 -79 l-31 -29 -678 0
c-408 0 -689 4 -704 10 -30 11 -56 57 -56 100 0 41 25 89 53 100 12 5 323 8
710 7 l689 -2 24 -28z m914 4 c32 -26 35 -34 35 -81 0 -46 -4 -55 -33 -81
l-32 -29 -363 0 c-199 0 -372 3 -384 6 -30 8 -63 63 -63 105 0 35 35 96 60
103 8 2 179 4 380 5 l366 1 34 -29z m1639 0 c42 -49 40 -130 -4 -168 l-26 -23
-701 0 c-643 0 -702 1 -729 17 -59 35 -63 131 -8 178 l31 25 708 -2 708 -3 21
-24z m1269 13 c29 -20 52 -66 52 -105 0 -22 -10 -41 -34 -65 l-34 -34 -518 0
-518 0 -33 32 c-28 27 -33 39 -33 79 0 41 4 51 35 78 l36 31 512 0 c448 0 515
-2 535 -16z m1243 -7 c30 -20 34 -28 37 -75 4 -61 -8 -86 -48 -107 -26 -14
-98 -15 -544 -13 l-514 3 -26 24 c-21 20 -26 34 -26 73 0 59 11 83 48 102 23
13 106 15 533 16 l506 0 34 -23z m1376 3 c56 -34 63 -130 12 -176 -20 -18 -47
-19 -555 -22 l-533 -3 -31 32 c-25 27 -30 40 -30 80 0 41 5 52 33 78 l32 31
520 0 c497 0 521 -1 552 -20z m-3873 -802 c18 -26 21 -86 5 -121 -24 -53 -7
-52 -659 -55 -656 -3 -674 -2 -703 48 -25 41 -22 99 7 135 l24 30 629 5 c668
5 664 6 697 -42z m-2591 31 c30 -14 47 -48 47 -95 0 -54 -24 -91 -68 -103 -53
-15 -1312 -15 -1362 0 -43 13 -70 51 -70 99 0 37 23 85 47 99 26 15 1374 15
1406 0z m1077 -4 c32 -16 38 -31 42 -91 2 -54 -21 -90 -69 -104 -26 -8 -175
-10 -467 -8 l-428 3 -29 35 c-19 23 -29 45 -29 68 0 39 22 87 47 101 12 7 179
11 461 11 373 0 448 -2 472 -15z m2777 -2 c64 -57 53 -157 -22 -189 -50 -21
-989 -21 -1039 0 -72 30 -90 118 -37 175 l29 31 524 0 c486 0 526 -1 545 -17z
m1674 7 c26 -15 49 -62 49 -104 0 -25 -9 -45 -29 -68 l-29 -33 -719 -3 c-395
-2 -733 0 -751 3 -52 10 -82 50 -82 113 0 44 4 57 26 77 l27 25 744 0 c491 0
751 -3 764 -10z"/>
<path d="M18300 15868 l1 -1183 26 30 c14 17 46 55 72 85 25 30 53 61 61 70 8
9 46 52 85 96 38 43 76 87 85 96 8 9 20 23 25 30 6 7 37 45 70 83 33 38 71 83
85 99 14 16 34 39 45 50 11 12 45 50 75 86 30 36 60 70 65 76 6 6 35 39 65 74
50 58 92 106 184 210 17 19 71 82 121 140 49 58 92 107 95 110 10 10 87 98
135 154 28 33 61 71 74 85 13 14 37 43 55 64 36 44 74 67 111 67 26 0 80 -23
87 -37 1 -5 30 -30 63 -57 33 -28 80 -68 105 -90 25 -23 72 -64 105 -93 33
-28 72 -62 86 -75 14 -12 41 -36 60 -52 19 -16 52 -45 75 -65 223 -196 373
-325 384 -329 4 -2 59 34 121 79 280 203 256 189 312 189 l50 0 124 -122 c68
-68 341 -338 606 -600 265 -263 483 -478 485 -478 1 0 2 538 2 1195 l0 1195
-2100 0 -2100 0 0 -1182z"/>
<path d="M19830 16103 c0 -5 -23 -33 -51 -63 -29 -30 -99 -111 -157 -180 -59
-69 -142 -166 -187 -215 -44 -50 -102 -117 -130 -150 -58 -68 -130 -149 -162
-183 -13 -12 -23 -26 -23 -29 0 -3 -21 -29 -47 -57 -27 -29 -70 -78 -98 -110
-27 -32 -57 -67 -65 -76 -8 -9 -40 -46 -70 -81 -58 -67 -132 -151 -140 -159
-3 -3 -46 -52 -95 -110 -49 -58 -92 -107 -95 -110 -3 -3 -21 -22 -39 -43 l-35
-37 1950 0 1949 0 -555 550 c-305 302 -558 550 -562 550 -4 0 -89 -59 -189
-131 -100 -72 -194 -134 -208 -139 -41 -11 -78 5 -145 62 -33 29 -74 64 -90
78 -16 14 -39 34 -50 45 -25 23 -78 70 -161 140 -32 28 -65 57 -74 65 -8 8
-29 26 -46 40 -17 14 -64 54 -105 90 -95 85 -84 75 -170 150 -41 36 -86 75
-100 87 -24 23 -50 30 -50 16z"/>
<path d="M24490 14867 c-123 -38 -214 -95 -292 -184 -123 -143 -174 -338 -132
-513 52 -225 231 -403 457 -455 59 -14 210 -15 1285 -13 l1217 3 60 26 c137
60 162 75 235 149 167 168 219 395 140 611 -62 170 -182 293 -350 360 l-85 34
-1230 2 -1230 2 -75 -22z m710 -183 c107 -49 160 -130 160 -247 0 -107 -42
-184 -128 -234 -42 -25 -59 -29 -162 -33 l-115 -5 -5 -135 c-3 -94 -9 -142
-19 -157 -41 -61 -153 -56 -187 8 -19 38 -21 730 -1 769 26 52 65 61 247 58
141 -3 172 -7 210 -24z m630 11 c21 -11 41 -41 79 -119 28 -57 59 -126 70
-153 10 -26 38 -88 61 -138 23 -49 48 -103 55 -120 7 -16 30 -66 50 -110 31
-67 36 -88 32 -129 -6 -65 -39 -96 -102 -96 -56 0 -94 31 -124 100 l-22 50
-144 0 -145 0 -25 -54 c-32 -70 -65 -96 -120 -96 -33 0 -50 6 -74 29 -43 41
-42 94 4 200 19 43 35 81 35 84 0 3 15 38 34 79 18 40 39 89 46 108 8 19 29
68 47 108 18 39 33 74 33 77 0 3 16 41 36 85 28 61 43 82 68 94 39 20 69 20
106 1z m568 -1 c15 -9 60 -68 101 -130 41 -63 77 -114 80 -114 3 0 22 24 41
52 73 108 132 183 153 195 52 29 137 0 158 -54 22 -59 9 -86 -131 -278 -44
-60 -83 -118 -86 -127 -4 -10 -10 -18 -15 -18 -5 0 -9 -68 -9 -150 0 -209 -16
-240 -121 -240 -31 0 -47 7 -70 29 l-29 29 0 156 0 156 -108 162 c-131 197
-132 198 -132 240 1 87 93 138 168 92z"/>
<path d="M24957 14483 c-4 -3 -7 -26 -7 -50 l0 -43 83 0 c72 0 84 2 95 21 17
27 6 58 -25 70 -28 10 -136 12 -146 2z"/>
<path d="M26680 12990 c0 -7 19 -54 55 -135 7 -16 25 -59 40 -95 15 -36 38
-89 51 -118 13 -29 24 -57 24 -62 0 -6 3 -10 8 -10 10 0 242 236 242 247 0 5
-17 15 -37 22 -21 8 -56 22 -78 32 -106 49 -305 126 -305 119z"/>
<path d="M31195 17373 c-152 -32 -335 -149 -429 -274 -89 -119 -137 -235 -156
-379 -8 -61 -10 -1068 -8 -3535 l3 -3450 21 -70 c98 -321 343 -530 663 -566
54 -6 2020 -8 5251 -7 l5165 3 90 28 c129 41 223 96 314 186 88 85 139 160
182 263 63 154 59 -106 59 3658 0 2412 -3 3452 -11 3507 -36 262 -215 491
-464 595 -148 62 279 58 -5405 57 -4575 -1 -5213 -2 -5275 -16z m10515 -232
c186 -69 329 -221 379 -402 l21 -75 0 -3376 0 -3376 -26 -31 c-14 -17 -42 -35
-62 -41 -26 -8 -1697 -10 -5577 -8 -5522 3 -5540 3 -5567 23 -15 11 -31 30
-37 43 -15 31 -15 6747 -1 6812 32 145 154 309 287 385 37 20 135 56 188 68
11 3 2340 4 5175 3 l5155 -1 65 -24z m-4751 -7580 c27 -25 31 -36 31 -79 0
-39 -6 -57 -24 -79 l-24 -28 -499 -3 c-274 -1 -509 0 -521 3 -42 10 -72 53
-72 102 0 38 6 51 34 79 l34 34 505 0 505 0 31 -29z"/>
<path d="M31304 16926 c-116 -43 -200 -128 -238 -240 -15 -46 -16 -309 -16
-3343 l0 -3293 5420 0 5420 0 0 3297 c0 3067 -1 3301 -17 3343 -36 98 -115
183 -212 229 l-56 26 -5120 2 -5120 2 -61 -23z m4909 -915 c14 -6 35 -20 46
-32 l21 -23 0 -1473 0 -1474 -30 -29 -31 -30 -2159 0 -2160 0 -32 29 -33 29
-3 1456 c-3 1609 -6 1512 60 1541 28 12 340 14 2165 15 1305 0 2141 -4 2156
-9z m4672 -5 c70 -30 65 82 65 -1517 0 -1067 -3 -1451 -12 -1475 -25 -69 134
-64 -1907 -64 l-1841 0 -32 29 -33 29 -3 1456 c-3 1609 -6 1512 60 1541 49 21
3651 22 3703 1z m-4678 -3797 c53 -20 73 -48 73 -102 0 -40 -5 -53 -29 -78
l-29 -29 -2165 0 -2164 0 -26 26 c-35 34 -43 81 -23 128 29 70 -147 65 2208
66 1483 0 2135 -3 2155 -11z m4678 -3 c69 -29 84 -124 28 -180 l-26 -26 -1851
0 -1851 0 -27 25 c-55 51 -42 146 23 178 31 15 176 17 1852 17 1562 0 1822 -2
1852 -14z m-4634 -675 c24 -25 29 -38 29 -79 0 -45 -4 -53 -35 -81 l-36 -31
-2145 0 c-2365 0 -2185 -5 -2220 62 -21 41 -12 93 22 130 l28 28 2164 0 2164
0 29 -29z m4658 3 c55 -46 51 -132 -9 -174 -28 -20 -52 -20 -1860 -20 -2035 0
-1876 -6 -1907 67 -20 49 -10 96 28 127 l31 26 1843 0 1843 0 31 -26z m-4686
-635 c61 -31 77 -118 33 -174 l-24 -30 -2159 -3 c-2008 -3 -2160 -2 -2190 14
-70 37 -63 164 10 194 34 14 4303 13 4330 -1z m4692 -22 c49 -55 37 -149 -21
-176 -18 -8 -510 -11 -1864 -11 l-1838 0 -30 25 c-55 46 -51 133 8 173 l33 22
1844 -2 1845 -3 23 -28z"/>
<path d="M32057 15793 c-4 -3 -7 -406 -7 -895 l0 -888 582 2 583 3 67 245 c37
135 84 306 103 380 65 248 69 261 103 291 38 34 94 39 147 13 36 -17 55 -53
94 -179 54 -171 163 -512 170 -530 10 -24 10 -23 81 245 46 177 85 320 125
470 8 30 29 107 45 170 64 246 73 276 87 306 20 40 65 64 118 64 36 0 50 -6
78 -32 30 -29 37 -47 61 -153 15 -66 46 -194 67 -285 22 -91 46 -192 54 -225
58 -249 110 -465 131 -550 13 -56 24 -110 24 -122 0 -51 18 -26 28 40 60 373
163 911 177 934 9 13 27 28 41 33 15 6 235 10 535 10 l509 0 0 330 0 330
-1998 0 c-1099 0 -2002 -3 -2005 -7z"/>
<path d="M34341 14978 c-3 -16 -77 -296 -186 -703 -37 -137 -77 -290 -90 -340
-19 -75 -28 -94 -56 -117 -57 -48 -133 -49 -188 -2 -24 20 -39 55 -81 187 -29
89 -75 229 -101 310 -27 81 -49 155 -49 163 0 8 -3 14 -8 14 -4 0 -27 -73 -51
-162 -24 -90 -54 -201 -67 -248 -13 -47 -31 -111 -40 -143 -8 -31 -27 -71 -41
-87 -52 -62 -23 -60 -708 -60 l-625 0 0 -310 0 -310 2005 0 2005 0 0 875 0
875 -452 -2 -452 -3 -7 -40 c-4 -22 -17 -94 -29 -160 -11 -66 -37 -208 -56
-315 -18 -107 -45 -258 -59 -335 -13 -77 -36 -204 -50 -283 -26 -153 -43 -190
-95 -217 -61 -31 -151 -10 -182 43 -15 24 -46 143 -94 352 -8 36 -23 101 -34
145 -46 189 -179 754 -203 860 -3 11 -5 17 -6 13z"/>
<path d="M37340 14485 l0 -1315 1695 0 1695 0 -2 1313 -3 1312 -1692 3 -1693
2 0 -1315z m1820 1055 c240 -30 432 -120 608 -286 292 -274 400 -685 286
-1080 -100 -345 -379 -619 -734 -719 -130 -37 -353 -46 -480 -20 -350 71 -614
274 -765 586 -25 52 -57 139 -72 194 -23 88 -26 119 -26 260 -1 202 19 298 93
461 58 130 145 243 284 370 30 27 144 98 214 133 116 59 186 78 372 105 52 7
139 6 220 -4z"/>
<path d="M38845 15305 c-187 -46 -374 -171 -488 -324 -57 -78 -113 -193 -139
-291 -32 -118 -32 -289 0 -412 95 -364 406 -617 779 -635 154 -8 277 18 416
87 113 57 113 45 6 162 -52 56 -103 112 -114 124 -11 11 -36 39 -55 60 -52 58
-214 238 -220 244 -3 3 -26 29 -53 59 l-47 53 0 444 c0 502 10 453 -85 429z"/>
<path d="M39150 14922 l0 -398 36 -40 c20 -21 50 -55 67 -74 16 -19 67 -75
112 -125 45 -49 99 -110 121 -135 21 -24 46 -51 54 -60 8 -9 43 -47 78 -84 35
-37 65 -66 66 -64 67 80 147 241 173 348 27 113 25 301 -5 405 -73 255 -250
459 -487 563 -55 24 -184 62 -211 62 -2 0 -4 -179 -4 -398z"/>
<path d="M35450 8285 l0 -585 970 0 970 0 0 585 0 585 -970 0 -970 0 0 -585z"/>
</g>
</svg>
