<?xml version="1.0" standalone="no"?>
<!DOCTYPE svg PUBLIC "-//W3C//DTD SVG 20010904//EN"
 "http://www.w3.org/TR/2001/REC-SVG-20010904/DTD/svg10.dtd">
<svg version="1.0" xmlns="http://www.w3.org/2000/svg"
 width="3000.000000pt" height="4000.000000pt" viewBox="0 0 3000.000000 4000.000000"
 preserveAspectRatio="xMidYMid meet">
<metadata>
Created by potrace 1.16, written by Peter Selinger 2001-2019
</metadata>
<g transform="translate(0.000000,4000.000000) scale(0.100000,-0.100000)"
fill="#000000" stroke="none">
<path d="M0 20000 l0 -20000 15000 0 15000 0 0 20000 0 20000 -15000 0 -15000
0 0 -20000z m14182 16607 c61 -30 156 -116 181 -163 8 -16 29 -67 47 -114 17
-47 42 -112 55 -145 l23 -60 613 -2 c433 -2 622 -6 642 -14 38 -16 67 -60 67
-104 0 -31 -54 -217 -161 -555 -55 -174 -6 -160 -577 -160 -524 0 -513 -1
-546 64 -14 27 -87 257 -201 636 -98 322 -125 384 -190 428 -44 31 -122 43
-265 42 -174 -2 -168 -3 -195 25 -35 34 -35 96 0 131 l26 25 212 -3 c209 -3
213 -3 269 -31z m4973 -35 c314 -83 541 -322 606 -637 24 -116 24 -209 0 -322
-45 -208 -145 -366 -321 -505 -52 -41 -184 -103 -275 -129 -113 -33 -304 -33
-420 0 -295 83 -511 303 -590 601 -24 87 -25 290 -2 380 55 224 190 407 385
522 81 48 207 95 295 109 76 12 241 2 322 -19z m4438 -153 c12 -7 24 -13 26
-15 2 -2 -304 -361 -329 -384 -3 -3 -32 -36 -65 -75 -67 -79 -318 -367 -352
-404 -12 -14 -41 -48 -65 -77 -24 -29 -48 -53 -55 -54 -10 0 -530 319 -758
465 -27 18 -93 58 -145 89 -177 107 -215 133 -214 142 1 21 67 52 121 58 32 4
81 11 108 16 65 11 160 26 685 104 239 36 495 75 567 86 73 11 181 27 240 35
60 9 113 18 118 20 22 8 98 4 118 -6z m186 -725 c39 -258 73 -484 76 -502 3
-18 7 -46 10 -63 4 -22 1 -30 -9 -27 -18 4 -796 481 -796 488 0 3 35 46 78 96
42 50 97 115 122 144 25 30 61 72 81 94 20 23 105 122 189 221 l154 179 12
-79 c6 -44 44 -292 83 -551z m-16674 320 c95 -45 155 -140 155 -247 0 -56 -13
-106 -91 -342 -57 -174 -96 -278 -106 -282 -23 -9 -558 173 -608 207 -23 16
-58 53 -76 82 -30 46 -34 62 -38 130 -3 66 0 84 23 131 56 119 186 182 317
154 35 -7 36 -6 53 31 30 66 102 132 166 151 50 15 159 7 205 -15z m14573 -58
c84 -54 585 -369 669 -421 37 -22 60 -42 56 -49 -15 -25 -616 -706 -620 -703
-4 4 -32 186 -104 662 -16 110 -38 254 -49 320 -26 163 -34 235 -26 235 4 0
37 -20 74 -44z m1412 -490 c186 -117 536 -334 559 -346 14 -7 30 -17 35 -22
10 -8 77 -51 132 -84 10 -6 14 -15 10 -22 -17 -28 -80 -45 -265 -73 -108 -16
-223 -33 -256 -39 -33 -5 -152 -23 -265 -40 -113 -17 -295 -44 -405 -61 -110
-16 -243 -36 -295 -44 -52 -8 -171 -26 -263 -41 -162 -26 -170 -26 -204 -10
l-36 17 20 22 c11 12 34 38 50 57 32 37 150 172 416 478 87 100 161 182 163
182 3 0 69 -41 147 -91 l142 -91 42 49 c23 26 73 85 110 130 37 45 70 82 73
82 2 1 43 -23 90 -53z m-8286 -260 c105 -44 123 -159 38 -240 -59 -55 -168
-31 -207 44 -37 71 -4 163 68 194 42 19 61 19 101 2z m625 -5 c72 -37 96 -109
63 -184 -24 -54 -64 -79 -127 -79 -143 0 -186 194 -58 261 48 26 74 26 122 2z
m-4729 -566 c18 -19 25 -40 28 -83 4 -57 3 -58 -82 -195 -47 -76 -86 -143 -86
-150 1 -7 44 -39 98 -71 53 -33 112 -71 131 -84 36 -27 70 -91 71 -133 0 -23
-51 -139 -73 -164 -7 -8 -100 -158 -217 -350 -49 -79 -122 -117 -190 -96 -29
9 -175 95 -330 195 -19 13 -89 57 -155 99 -66 42 -137 88 -157 101 -62 42 -57
61 88 296 69 113 147 237 172 275 46 69 48 70 97 75 28 3 85 22 127 42 42 20
115 50 162 67 131 46 156 63 230 154 21 26 44 47 50 47 7 0 23 -11 36 -25z
m-779 -111 c37 -24 70 -47 73 -53 4 -6 -11 -38 -34 -71 -22 -34 -40 -63 -40
-65 0 -8 -324 -521 -333 -527 -6 -3 -42 15 -81 41 -39 27 -86 56 -103 65 -18
9 -33 21 -33 28 0 13 189 323 363 595 l47 74 38 -22 c20 -13 67 -42 103 -65z
m10405 -944 c197 -35 365 -106 508 -214 120 -90 168 -138 246 -241 110 -147
183 -310 221 -495 29 -142 23 -367 -14 -510 -106 -413 -412 -732 -817 -853
-248 -75 -550 -60 -790 39 -386 158 -665 514 -726 926 -55 376 69 752 337
1018 274 271 666 397 1035 330z m4554 -515 c19 -3 56 -22 82 -41 114 -82 133
-238 44 -359 -15 -19 -13 -20 52 -21 93 -1 153 -33 215 -116 58 -77 66 -200
21 -293 -66 -134 -251 -240 -428 -246 -31 -1 -58 0 -60 2 -3 2 -6 31 -8 64
l-3 60 75 7 c235 23 353 163 268 318 -53 98 -175 115 -321 45 -28 -14 -54 -25
-58 -25 -5 0 -19 22 -33 49 -28 56 -28 55 49 94 134 68 182 190 109 277 -35
41 -91 57 -146 41 -64 -19 -134 -68 -170 -117 -17 -24 -36 -44 -42 -44 -18 0
-76 66 -76 85 0 30 130 149 200 183 67 33 140 53 175 47 11 -2 36 -6 55 -10z
m-736 -448 c111 -51 187 -153 208 -281 12 -73 1 -124 -61 -296 -56 -154 -93
-258 -149 -419 -26 -73 -52 -136 -59 -138 -13 -5 -195 55 -448 147 -71 26
-159 57 -195 70 -98 34 -167 77 -210 131 -80 101 -100 225 -59 348 30 87 118
178 204 210 80 30 157 36 219 17 52 -16 66 -14 66 10 0 43 102 158 172 195 89
46 219 48 312 6z m-18144 -321 c222 -56 420 -169 588 -336 54 -53 46 -65 -47
-74 -171 -15 -361 -105 -504 -236 -306 -281 -385 -751 -186 -1118 49 -92 120
-183 192 -248 66 -60 191 -141 240 -156 61 -18 49 -42 -40 -83 -103 -48 -210
-83 -308 -100 -90 -15 -93 -17 -187 -155 -91 -131 -158 -220 -168 -220 -9 0
-19 19 -136 275 l-60 130 -90 35 c-379 148 -641 456 -741 872 -25 102 -24 382
0 488 67 289 223 538 437 699 131 99 198 136 342 187 146 53 226 64 423 60
121 -3 201 -9 245 -20z m870 -530 c306 -75 548 -322 614 -626 51 -234 4 -474
-128 -657 -37 -52 -37 -52 -27 -110 6 -32 15 -89 21 -128 7 -38 14 -77 16 -85
2 -8 0 -21 -5 -29 -7 -11 -34 -4 -143 38 -74 28 -139 51 -145 51 -5 0 -27 -9
-49 -19 -107 -52 -182 -66 -344 -66 -175 0 -235 12 -359 71 -250 118 -417 339
-466 619 -19 102 -19 171 0 265 30 157 72 255 158 370 38 51 64 77 157 159 76
67 275 149 400 165 58 7 241 -4 300 -18z m7835 -156 c68 -26 145 -74 192 -119
18 -17 35 -31 38 -31 4 0 30 20 58 45 105 92 256 143 401 133 326 -23 562
-337 495 -660 -6 -29 -27 -87 -47 -128 -34 -71 -59 -98 -466 -507 -237 -238
-434 -433 -438 -433 -4 0 -194 187 -423 416 -270 269 -430 437 -456 477 -58
90 -84 181 -83 297 0 146 52 266 162 378 73 74 157 123 253 147 82 21 239 13
314 -15z m5397 -1492 l107 -22 75 22 c136 40 205 24 253 -56 16 -25 44 -62 64
-83 34 -37 45 -41 119 -54 56 -9 127 -84 145 -153 20 -75 54 -123 114 -162 28
-18 62 -51 77 -73 25 -38 32 -66 55 -232 14 -101 15 -412 2 -464 -11 -41 -9
-48 17 -95 16 -28 52 -123 81 -211 73 -226 279 -686 341 -762 5 -7 6 -17 2
-24 -6 -11 91 -9 306 6 389 27 1121 38 1143 16 8 -8 13 -1757 9 -3403 l-3
-987 -33 -29 c-22 -19 -53 -33 -97 -41 -35 -8 -107 -24 -159 -36 -127 -31
-396 -80 -545 -99 -75 -9 -246 -17 -456 -20 -185 -3 -392 -11 -460 -18 -158
-15 -651 -15 -834 1 -77 6 -241 14 -365 16 -263 5 -774 29 -843 40 -19 3 -26
1 -21 -7 5 -7 3 -8 -5 -3 -7 4 -70 9 -139 11 -252 7 -637 25 -655 31 -10 2
-69 6 -130 8 -120 4 -386 26 -612 50 -77 8 -234 24 -350 36 -115 12 -216 23
-222 25 -9 2 -13 27 -13 78 l0 74 -31 11 c-44 15 -74 14 -89 -4 -15 -18 -39
-19 -46 -2 -8 21 -32 231 -27 240 2 4 18 7 34 7 41 0 120 20 144 37 20 13 20
25 21 1201 1 824 4 1224 13 1307 15 158 36 396 62 688 43 507 66 709 80 718
14 9 121 43 171 53 l27 6 3 108 3 107 127 0 c158 1 457 -23 708 -55 41 -5 206
-23 365 -40 160 -17 334 -35 388 -41 56 -7 102 -8 107 -3 5 5 14 74 20 154 25
322 77 569 175 836 25 67 45 131 45 142 0 17 -15 29 -62 53 -81 40 -131 78
-124 94 6 17 -38 57 -92 84 -50 26 -82 72 -82 121 0 38 23 80 44 80 7 0 25 9
38 20 41 31 97 39 180 24 40 -7 95 -22 121 -34 27 -12 50 -20 51 -18 2 1 9 39
15 83 13 86 60 234 94 293 56 98 208 277 290 341 44 35 121 38 259 9z m5958
-1283 c486 -107 872 -461 1023 -940 84 -268 74 -610 -26 -875 -183 -487 -626
-826 -1152 -881 -258 -27 -517 25 -765 153 -124 63 -212 130 -336 253 -296
295 -436 713 -379 1135 26 198 89 366 210 568 35 58 111 149 189 225 204 199
469 332 755 377 86 14 393 4 481 -15z m-17866 -925 c49 -6 112 -17 140 -26
204 -59 249 -78 377 -155 272 -164 455 -377 579 -674 29 -70 58 -182 90 -355
14 -72 5 -296 -14 -385 -35 -154 -80 -289 -128 -379 -46 -87 -99 -170 -109
-174 -5 -2 -9 -8 -9 -14 0 -6 -21 -36 -47 -66 -200 -234 -427 -376 -728 -458
-89 -24 -123 -27 -302 -32 -183 -4 -212 -2 -300 18 -357 80 -676 290 -851 560
-19 30 -45 71 -58 90 -122 189 -207 549 -184 785 15 158 26 212 69 343 75 224
167 371 337 539 179 176 399 298 649 359 135 33 326 42 489 24z m5971 -201 c4
-6 -2 -13 -13 -16 -13 -3 -19 -13 -18 -29 0 -13 3 -24 6 -24 3 0 11 -9 18 -20
11 -19 10 -19 -36 -14 -46 5 -46 5 -22 -10 l25 -16 -30 6 c-27 5 -28 4 -13 -8
11 -10 14 -19 7 -29 -7 -11 -9 -11 -9 0 0 8 -6 11 -17 7 -9 -4 -20 -2 -23 5
-4 6 -9 0 -12 -15 -3 -14 -2 -25 1 -24 25 3 42 -5 51 -23 16 -29 7 -33 -23 -8
l-27 20 -1 -23 c-1 -13 -1 -28 0 -35 1 -6 -3 -15 -9 -18 -8 -5 -6 -13 5 -25
11 -12 13 -20 6 -25 -14 -8 -14 -25 -1 -25 6 0 10 7 10 15 0 8 7 15 16 15 10
0 14 -6 10 -15 -3 -8 -2 -15 3 -15 14 0 20 -37 7 -51 -8 -10 -7 -10 7 0 14 11
20 11 32 1 9 -7 13 -15 10 -18 -10 -11 40 -29 53 -19 9 7 20 1 41 -22 15 -17
33 -31 39 -31 5 0 12 -5 14 -12 2 -6 18 -13 35 -14 29 -2 83 -44 83 -64 0 -6
6 -10 13 -10 6 0 28 -23 47 -50 19 -27 38 -50 41 -50 4 0 20 -13 37 -28 16
-15 47 -41 68 -57 22 -16 59 -48 84 -72 25 -24 49 -43 54 -43 5 0 16 -8 25
-18 9 -9 34 -31 56 -47 73 -55 162 -149 196 -210 18 -33 34 -62 34 -65 -1 -5
20 -32 43 -55 6 -8 12 -18 12 -24 0 -18 49 -84 113 -151 34 -36 71 -79 81 -95
11 -17 26 -36 33 -43 44 -44 114 -174 117 -217 4 -45 28 -171 36 -187 12 -23
28 -127 35 -227 3 -47 7 -86 10 -89 2 -3 -1 -14 -7 -26 -10 -18 -9 -19 4 -8
14 11 15 9 2 -25 -7 -21 -13 -58 -14 -83 0 -25 -8 -56 -16 -70 l-15 -25 5 32
c3 18 3 40 -1 50 -6 15 -7 15 -14 -3 -4 -10 -8 -42 -8 -70 -1 -27 -6 -55 -13
-62 -9 -9 -8 -13 4 -17 17 -7 15 -67 -2 -73 -6 -2 -10 -12 -10 -23 0 -10 -6
-19 -12 -20 -9 0 -9 -2 -2 -5 9 -4 8 -14 -4 -36 -8 -18 -17 -55 -19 -82 -5
-83 -14 -125 -29 -137 -8 -6 -14 -19 -14 -29 0 -9 -3 -20 -7 -24 -4 -3 -8 -14
-10 -24 -21 -127 -26 -152 -32 -152 -4 0 -8 -15 -9 -32 -6 -160 -15 -209 -46
-252 -47 -66 -169 -196 -184 -196 -6 0 -14 -9 -17 -20 -3 -11 -10 -20 -14 -20
-9 0 -172 -126 -218 -168 -18 -16 -35 -27 -38 -24 -3 3 -12 -4 -21 -16 -8 -12
-32 -31 -52 -42 -20 -11 -49 -28 -63 -38 -15 -9 -41 -26 -58 -37 -17 -10 -31
-23 -31 -27 0 -4 -5 -8 -11 -8 -6 0 -39 -29 -74 -65 -57 -59 -81 -73 -119 -66
-5 1 -16 -5 -25 -13 -9 -9 -50 -22 -90 -31 -71 -15 -74 -15 -88 4 -8 12 -20
18 -29 14 -8 -3 -22 2 -32 10 -9 8 -29 18 -44 22 -15 4 -29 14 -32 22 -4 10
-14 13 -35 8 -17 -4 -38 -1 -49 6 -16 10 -23 10 -35 0 -10 -8 -17 -9 -22 -1
-10 15 -23 12 -28 -7 -3 -14 -7 -11 -17 12 -8 17 -22 41 -32 54 -13 18 -15 26
-7 32 16 9 1 32 -17 25 -8 -3 -14 -1 -14 4 0 6 6 10 14 10 14 0 26 42 26 91 0
18 7 32 20 39 11 6 20 9 20 7 0 -3 21 -1 48 4 48 9 112 38 112 51 0 4 6 5 14
2 22 -8 30 45 10 67 -9 10 -21 16 -25 13 -22 -13 -6 10 28 41 31 29 35 36 24
49 -8 9 -22 16 -32 16 -11 0 -19 7 -19 15 0 8 -7 15 -15 15 -8 0 -15 -9 -15
-21 0 -16 -4 -19 -21 -14 -14 5 -25 2 -30 -6 -7 -11 -9 -10 -9 3 0 25 -20 32
-34 12 -15 -19 -36 -11 -36 14 0 14 -2 14 -9 3 -14 -22 -28 -5 -24 31 l3 33
-10 -32 c-6 -18 -15 -35 -20 -38 -6 -3 -10 -16 -11 -28 0 -12 -3 -17 -5 -10
-9 22 -58 -15 -84 -63 -21 -39 -34 -50 -80 -68 -30 -13 -89 -30 -130 -40 -116
-27 -111 -26 -106 -8 5 15 -3 17 -49 17 -30 0 -55 -3 -55 -6 0 -3 -6 -6 -12
-7 -7 0 -23 -4 -35 -7 -16 -5 -22 -2 -26 12 -4 15 -5 14 -6 -4 -1 -24 -21 -43
-21 -21 -1 7 -12 -16 -26 -52 -13 -36 -31 -78 -40 -95 -15 -29 -15 -30 -10 -3
3 15 2 30 -4 33 -5 3 -10 1 -10 -5 0 -6 -4 -8 -10 -5 -5 3 -8 0 -5 -7 4 -9 -6
-14 -31 -15 -20 -1 -46 -9 -59 -17 -13 -9 -45 -17 -72 -20 -26 -2 -68 -12 -93
-21 -25 -9 -54 -18 -65 -20 -46 -7 -86 -18 -91 -26 -3 -5 -23 -9 -45 -9 -21 0
-39 -4 -39 -10 0 -5 -10 -10 -22 -10 -13 0 -61 -13 -108 -30 -47 -16 -94 -29
-104 -30 -27 0 -86 -22 -86 -32 0 -4 -22 -8 -49 -8 -28 0 -53 -5 -56 -11 -4
-5 -17 -9 -30 -7 -12 1 -28 -2 -36 -8 -8 -6 -27 -14 -44 -18 -16 -4 -46 -14
-65 -23 -47 -20 -64 -27 -135 -53 -33 -12 -73 -28 -90 -35 -16 -8 -52 -19 -80
-26 -27 -7 -59 -18 -70 -26 -11 -7 -32 -13 -48 -13 -18 0 -26 -4 -21 -11 4 -8
0 -9 -15 -4 -11 3 -21 2 -21 -3 0 -8 -32 -19 -72 -26 -3 -1 -9 -4 -13 -8 -4
-4 -13 -4 -21 -1 -8 3 -14 -1 -14 -11 0 -9 -6 -16 -14 -16 -7 0 -19 -6 -25
-14 -7 -8 -35 -20 -62 -26 -28 -7 -53 -19 -56 -26 -3 -8 -13 -14 -23 -14 -10
0 -23 -7 -30 -15 -7 -8 -20 -15 -29 -15 -10 0 -30 -13 -45 -29 -16 -16 -34
-27 -42 -24 -7 2 -25 -7 -40 -22 -15 -15 -29 -22 -33 -17 -4 6 -16 3 -30 -9
-17 -14 -20 -23 -13 -32 7 -9 3 -17 -14 -30 -20 -15 -24 -15 -24 -3 0 8 6 17
13 19 6 3 8 6 2 6 -5 0 -18 -6 -28 -13 -15 -12 -16 -18 -7 -35 10 -19 8 -21
-22 -21 -22 0 -29 -3 -19 -9 11 -7 11 -10 0 -17 -8 -4 -22 -9 -31 -9 -20 -2
-116 -98 -137 -138 -8 -14 -17 -24 -22 -22 -4 3 -12 -9 -18 -27 l-11 -32 32
29 c18 17 35 33 38 36 20 24 199 124 207 116 2 -3 -16 -21 -41 -40 -25 -19
-42 -38 -38 -42 4 -5 2 -5 -5 -1 -6 3 -30 -12 -55 -36 -24 -24 -64 -59 -88
-78 -65 -50 -73 -59 -75 -84 -2 -13 -10 -38 -20 -55 -30 -60 -4 -46 71 37 l76
82 139 0 c205 0 219 12 219 186 l0 92 34 22 c19 11 36 24 38 28 3 7 50 28 160
72 l46 19 30 -27 c17 -15 36 -46 43 -69 10 -36 10 -46 -5 -67 -12 -19 -16 -52
-17 -138 -1 -144 -5 -158 -57 -186 -26 -14 -44 -33 -48 -48 -4 -13 -14 -29
-23 -34 -24 -12 -82 -123 -98 -185 -7 -27 -22 -78 -34 -112 -20 -58 -25 -64
-72 -88 -28 -14 -59 -25 -69 -25 -10 0 -34 -16 -55 -35 -36 -34 -52 -66 -77
-158 -9 -33 -26 -59 -55 -86 -22 -21 -41 -40 -42 -42 -24 -129 -24 -165 -2
-219 12 -30 23 -66 23 -78 0 -35 97 -329 127 -385 21 -41 24 -57 18 -102 -6
-49 -3 -57 28 -106 19 -30 49 -84 66 -120 30 -62 33 -79 43 -227 6 -88 8 -167
5 -174 -3 -8 -31 -28 -64 -45 -175 -89 -229 -144 -458 -460 -16 -23 -52 -70
-78 -104 -95 -124 -223 -364 -252 -474 -7 -27 -20 -63 -28 -80 -34 -66 -84
-245 -74 -263 3 -4 -1 -23 -9 -42 -10 -29 -13 241 -13 1540 l-1 1575 76 30
c59 23 90 43 138 90 75 74 89 92 128 163 61 112 70 133 65 139 -4 3 -12 -6
-18 -21 -7 -14 -19 -25 -27 -24 -8 2 -17 -4 -19 -12 -4 -13 -3 -13 6 0 9 12
11 12 11 1 0 -7 -12 -25 -26 -38 -17 -16 -24 -31 -21 -43 3 -12 1 -18 -5 -14
-6 4 -13 2 -17 -3 -46 -73 -158 -182 -222 -217 -56 -31 -165 -57 -235 -57
-365 0 -752 380 -985 971 -71 181 -141 470 -158 660 -16 165 -13 417 4 555 15
113 21 140 49 224 14 41 36 53 36 19 0 -13 5 -29 12 -36 17 -17 38 4 38 38 0
19 6 29 20 33 17 4 18 2 9 -15 -8 -15 -8 -27 0 -44 9 -20 18 -24 51 -24 22 0
40 -5 40 -11 0 -6 11 -20 25 -31 18 -14 24 -26 20 -39 -4 -12 1 -22 14 -31 12
-7 21 -21 21 -30 0 -10 4 -18 9 -18 5 0 16 -18 25 -40 9 -22 23 -40 31 -40 8
0 15 -6 15 -14 0 -7 18 -32 40 -54 22 -22 40 -45 40 -51 0 -18 31 -61 44 -61
6 0 24 -10 39 -23 25 -19 27 -26 18 -49 -10 -28 -5 -68 10 -68 5 0 9 -7 9 -15
0 -8 9 -20 20 -27 11 -7 20 -21 20 -31 0 -14 5 -17 16 -13 14 5 15 4 4 -9 -7
-9 -9 -19 -5 -23 4 -4 10 -1 12 6 3 6 9 12 15 12 6 0 4 -8 -4 -17 -20 -24 -30
-53 -18 -53 6 0 10 6 10 13 0 8 11 20 25 27 14 7 25 18 25 25 0 21 62 96 93
112 17 8 71 28 121 44 70 22 105 27 155 25 37 -2 85 1 109 6 78 19 54 1 -55
-41 -59 -23 -97 -39 -83 -36 14 3 51 12 83 19 49 12 57 12 57 0 0 -8 5 -14 11
-14 13 0 78 -69 116 -123 31 -45 57 -152 42 -178 -5 -10 -9 -27 -9 -37 0 -11
-16 -34 -35 -51 -20 -17 -32 -31 -28 -31 4 -1 -3 -7 -17 -16 l-25 -15 25 7
c39 10 11 -13 -30 -24 -46 -13 -10 -15 61 -3 81 14 183 21 173 12 -5 -5 -52
-18 -104 -29 -260 -57 -294 -60 -331 -26 -15 13 -18 11 -29 -16 -17 -42 -75
-90 -108 -90 -15 0 -38 7 -51 17 -24 16 -24 16 -19 -10 3 -14 0 -28 -6 -31 -6
-3 5 -5 24 -5 19 0 58 -6 85 -13 l50 -13 -43 -3 c-26 -2 -40 -7 -36 -14 4 -5
0 -14 -7 -19 -8 -5 -9 -9 -3 -9 7 0 8 -19 2 -62 -5 -35 -5 -97 -1 -138 3 -41
7 -136 7 -210 1 -137 6 -160 32 -160 8 0 14 -8 14 -18 0 -23 41 -53 103 -77
50 -19 129 -16 194 7 29 11 35 10 47 -8 16 -21 13 -20 138 -23 81 -1 89 -3
120 -31 l32 -30 23 37 c13 21 23 43 23 50 0 6 3 13 8 15 12 5 49 125 72 233
32 143 39 456 15 650 -91 754 -529 1447 -993 1571 -118 31 -227 26 -327 -16
-11 -5 -31 -12 -44 -15 -13 -4 -31 -13 -40 -20 -108 -89 -109 -90 -194 -205
-19 -26 26 60 50 95 45 66 140 146 220 186 79 39 93 43 184 47 179 9 313 -40
514 -186 62 -44 353 -120 570 -148 228 -29 514 -11 918 60 43 7 83 18 90 25 6
6 17 34 24 61 15 58 42 99 82 123 15 8 142 45 281 81 140 36 325 84 410 106
178 46 200 54 200 74 0 9 13 30 29 48 16 18 38 49 48 68 17 29 25 35 52 33 31
-1 165 -54 206 -80 11 -7 31 -13 46 -13 50 0 94 -23 150 -77 l55 -54 70 7 c96
9 205 -11 274 -49 30 -17 84 -59 120 -92 36 -33 77 -69 92 -78 27 -17 28 -17
34 7 8 33 57 45 85 20 11 -10 19 -12 19 -6 0 39 76 66 120 42 13 -7 24 -5 43
10 29 23 89 26 107 6 9 -12 17 -12 35 -4 35 16 92 1 111 -27 16 -24 54 -35 54
-15 0 15 19 12 36 -4 18 -19 18 -70 0 -85 -12 -10 -20 -10 -38 0 -13 7 -29 12
-35 11 -8 -2 -10 3 -6 14 4 12 3 15 -5 10 -7 -4 -12 -14 -12 -22 0 -24 -87
-19 -102 6 -15 24 -28 26 -28 5 0 -27 -47 -48 -95 -43 -25 3 -45 1 -45 -4 0
-17 -73 -40 -112 -35 -21 3 -41 1 -44 -4 -3 -5 -14 -9 -25 -9 -12 0 -19 -3
-17 -7 2 -5 18 -37 37 -73 18 -35 47 -103 65 -150 23 -64 35 -86 46 -83 26 7
64 27 89 45 13 10 33 18 44 18 11 0 28 6 36 14 9 7 45 24 81 36 36 12 77 29
91 38 24 13 31 13 74 -2 27 -9 57 -16 67 -16 10 0 18 -7 18 -15 0 -26 17 -16
64 37 63 72 79 110 74 169 -4 37 -14 59 -44 96 -79 97 -102 114 -194 136 -47
12 -88 25 -91 30 -3 5 -9 2 -12 -7 -7 -18 -87 -23 -87 -6 0 14 -43 13 -75 -2
-32 -14 -45 -3 -19 17 17 13 13 14 -41 9 -80 -8 -94 -12 -75 -24 13 -8 12 -10
-2 -10 -10 0 -18 5 -18 10 0 6 -7 10 -15 10 -8 0 -15 5 -15 10 0 6 -4 10 -10
10 -5 0 -10 -7 -10 -15 0 -12 -5 -11 -30 3 -27 15 -28 18 -14 29 20 15 11 43
-13 43 -10 1 -29 7 -43 14 -24 14 -24 14 20 26 25 6 64 17 88 24 l43 12 -27
27 c-23 23 -25 29 -13 43 24 29 87 54 137 54 58 0 106 28 135 79 l20 33 -33
-17 c-20 -10 -29 -12 -24 -4 5 9 2 11 -9 6 -9 -3 -17 -2 -19 3 -4 13 -125 30
-173 25 -32 -3 -34 -3 -10 3 28 7 28 8 8 14 -13 3 -41 0 -64 -6 -35 -11 -39
-14 -23 -21 10 -4 25 -7 33 -6 7 1 1 -10 -13 -26 -31 -33 -59 -36 -66 -8 -3
11 -12 20 -20 20 -31 1 -110 28 -121 41 -6 8 -19 14 -28 14 -9 0 -26 7 -37 15
-26 18 -34 11 -34 -32 0 -18 -4 -33 -9 -33 -5 0 -15 -14 -22 -32 -7 -18 -21
-40 -31 -50 -10 -10 -18 -22 -18 -28 0 -5 -8 -6 -17 -3 -16 6 -16 4 -5 -9 11
-14 10 -19 -10 -32 -17 -11 -38 -14 -81 -9 -48 5 -57 9 -57 26 0 15 -3 17 -14
8 -11 -9 -15 -4 -20 28 -3 22 -15 61 -27 88 -11 27 -20 65 -18 88 3 63 0 92
-9 78 -11 -18 -7 85 7 148 l12 56 52 12 c29 6 86 18 127 26 106 20 157 34 221
61 68 29 70 29 62 7 -5 -15 -3 -14 10 2 9 11 17 25 17 32 0 6 4 13 8 15 20 8
74 99 85 144 11 45 15 50 47 56 28 5 25 6 -17 4 -44 -2 -53 0 -61 18 -16 32
-21 66 -11 66 5 0 9 5 9 10 0 6 -14 10 -31 10 -26 0 -31 3 -26 20 3 13 0 20
-9 20 -8 0 -14 9 -14 21 0 34 -19 61 -40 54 -10 -3 -21 -1 -25 5 -10 17 -25
11 -19 -7 4 -13 3 -14 -3 -5 -5 7 -36 17 -69 23 -32 6 -66 14 -74 18 -19 9
-132 7 -147 -2 -17 -10 -43 3 -43 22 0 14 -2 14 -10 1 -6 -10 -12 -12 -20 -4
-13 13 20 117 48 147 12 13 25 50 32 87 7 36 17 69 21 75 5 5 9 24 9 41 0 18
4 35 9 38 5 3 9 48 8 100 0 64 3 100 12 110 8 10 9 16 3 16 -6 0 0 12 13 26
14 15 25 31 25 36 0 10 61 68 71 68 4 0 38 24 77 54 39 30 80 59 91 66 12 6
19 15 16 19 -3 5 14 18 38 30 28 14 36 21 22 22 l-20 0 20 9 c11 4 40 13 65
18 l45 10 -40 2 -40 2 60 20 c33 11 74 24 90 28 29 8 29 8 -10 10 -32 1 -36 3
-20 10 11 5 34 9 50 10 26 1 27 3 10 10 -18 7 -18 9 -3 15 9 4 14 13 11 21 -3
9 2 14 16 14 12 0 21 5 21 10 0 6 -5 10 -12 10 -6 0 3 14 20 31 37 36 39 44
15 58 -16 8 -14 11 10 22 15 7 27 17 27 23 1 20 49 66 63 60 15 -5 17 22 3 44
-9 15 8 16 34 2 16 -9 18 -8 13 5 -4 11 1 18 15 22 12 3 28 16 37 29 17 26 30
30 40 13z m-610 -1857 c29 -26 62 -67 46 -57 -8 4 -17 2 -22 -6 -7 -11 -12
-12 -29 -1 -25 15 -25 15 -44 -3 -17 -17 -105 -24 -143 -11 -29 9 -31 36 -3
29 29 -8 70 5 65 20 -15 40 90 64 130 29z m-4355 -1277 c0 -11 11 -15 36 -15
22 0 33 -4 29 -10 -17 -27 3 -37 57 -29 48 7 55 5 75 -17 12 -13 33 -24 47
-24 15 0 37 -12 53 -28 16 -16 37 -34 48 -40 25 -14 -34 -17 -276 -12 l-165 2
-32 -32 c-18 -17 -32 -36 -32 -41 0 -5 -6 -9 -12 -9 -23 0 -21 137 2 185 23
47 56 79 76 71 8 -3 14 -1 14 4 0 6 18 10 40 10 29 0 40 -4 40 -15z m6317
-406 c-3 -12 -1 -17 6 -12 6 4 8 1 5 -8 -3 -8 -2 -39 3 -68 8 -52 8 -54 -28
-87 -20 -19 -42 -34 -49 -34 -8 0 -14 -9 -14 -20 0 -17 5 -19 28 -15 24 5 24
4 -6 -10 -43 -20 -65 -6 -56 34 8 31 23 53 33 46 4 -2 7 6 6 18 -1 12 4 32 10
44 7 13 11 49 10 80 -1 32 0 50 2 41 2 -10 9 -18 14 -18 6 0 9 8 8 18 -1 9 -1
26 0 37 1 18 2 18 17 -3 9 -13 14 -32 11 -43z m-2507 -924 c0 -19 -7 -52 -15
-72 -8 -21 -21 -86 -30 -146 -25 -185 -77 -368 -109 -389 -6 -4 -43 -8 -83 -8
-49 0 -97 -8 -149 -24 -54 -18 -83 -22 -95 -16 -27 15 -43 4 -80 -55 -19 -30
-38 -55 -42 -55 -5 0 -5 -4 -2 -10 3 -6 -1 -7 -9 -4 -9 3 -13 10 -10 15 3 5
-7 9 -21 9 -15 0 -24 -4 -20 -10 3 -5 12 -10 19 -10 18 0 94 -83 107 -118 6
-15 12 -56 13 -92 1 -36 5 -70 8 -76 4 -6 3 -25 -2 -43 -5 -19 -5 -29 1 -26 5
4 9 -3 9 -14 0 -11 -4 -22 -8 -25 -5 -3 -6 -20 -4 -38 2 -18 5 -48 5 -65 0
-18 5 -33 10 -33 5 0 6 -7 3 -16 -3 -8 -2 -13 3 -10 11 7 31 -63 31 -113 0
-58 -18 -125 -41 -150 -10 -11 -19 -24 -19 -29 0 -4 -9 -28 -21 -52 -11 -23
-23 -54 -25 -68 -3 -14 -11 -37 -18 -51 -8 -14 -19 -46 -25 -71 -7 -25 -19
-70 -27 -100 -9 -30 -21 -75 -27 -100 -6 -25 -14 -47 -18 -50 -3 -3 -14 -20
-23 -37 -10 -21 -24 -33 -36 -33 -11 0 -28 -9 -37 -20 -10 -11 -23 -20 -30
-20 -7 0 -13 -7 -13 -15 0 -9 -7 -18 -15 -21 -10 -4 -13 -13 -10 -25 5 -16 1
-19 -32 -20 -21 -1 -42 -1 -46 0 -4 1 -3 -7 3 -18 17 -33 12 -41 -17 -25 -33
16 -91 29 -100 21 -3 -4 7 -21 22 -39 l28 -33 -92 -10 c-71 -8 -89 -13 -80
-22 9 -9 1 -14 -32 -24 -51 -14 -388 -13 -404 2 -5 5 -19 9 -32 9 -14 0 -23 6
-23 15 0 17 -25 18 -100 6 -63 -9 -163 30 -146 58 3 5 -3 11 -13 14 -20 5 -51
59 -51 88 0 10 -4 21 -10 24 -10 6 -8 131 3 141 7 7 47 -18 47 -31 1 -17 88
-105 104 -105 9 0 16 -6 16 -13 0 -8 18 -22 40 -32 22 -10 40 -21 40 -25 0 -9
54 -21 89 -20 13 0 40 -4 59 -10 27 -7 38 -6 46 5 6 7 30 23 53 35 67 34 125
111 93 122 -6 2 -6 8 0 18 8 13 10 12 10 -2 0 -25 6 -23 50 20 22 20 54 51 72
67 18 17 40 41 48 54 8 14 23 33 33 43 23 24 22 26 -10 20 -23 -4 -26 -2 -16
8 21 22 -16 76 -45 65 -14 -5 -11 2 19 45 22 32 36 100 20 100 -6 0 -11 -5
-11 -11 0 -6 -6 -9 -12 -6 -7 2 -48 -11 -92 -30 l-78 -33 -62 44 c-78 57 -120
101 -111 117 6 8 4 10 -4 4 -8 -4 -25 4 -44 23 -18 16 -41 34 -51 40 -11 5
-20 16 -22 24 -1 8 -16 43 -34 79 -24 46 -33 81 -36 126 -3 60 -3 63 26 80 17
9 30 21 30 25 0 4 7 8 15 8 8 0 15 5 15 10 0 30 46 -1 136 -92 97 -100 149
-148 159 -148 22 0 121 -104 159 -168 17 -29 41 -70 54 -90 15 -24 21 -47 18
-64 -3 -16 3 -46 14 -70 21 -46 27 -35 9 16 -9 25 -7 39 7 71 10 22 17 46 15
54 -1 7 2 10 8 6 7 -3 8 0 5 9 -3 9 -2 16 4 16 6 0 18 21 27 48 18 54 107 206
118 203 13 -3 39 28 32 39 -4 6 6 8 25 6 23 -3 30 0 26 10 -7 18 13 18 57 -1
34 -14 56 -7 44 13 -3 4 -8 23 -11 44 -4 26 -2 38 9 42 8 3 15 15 15 26 0 11
7 20 15 20 18 0 19 12 4 27 -7 7 -1 18 20 36 51 42 40 107 -20 127 -22 8 -56
32 -78 57 -22 23 -45 43 -50 43 -6 0 -11 6 -11 13 0 7 -16 32 -35 54 -19 23
-35 45 -35 50 0 5 -11 24 -25 43 -13 18 -22 37 -19 42 3 5 0 17 -7 26 -7 9 2
4 21 -13 19 -16 36 -33 38 -37 6 -12 73 -51 78 -45 3 2 -22 30 -55 62 -35 33
-65 72 -72 92 -11 33 -7 112 7 134 7 11 57 -23 101 -70 44 -47 42 -31 -4 32
-84 114 -84 139 -5 218 64 64 101 79 208 82 l66 2 39 -44 c42 -47 53 -37 17
15 -23 33 -71 60 -118 67 -15 2 -7 5 22 8 25 2 44 1 42 -2 -6 -10 43 -32 55
-24 7 4 18 1 26 -5 13 -10 15 -8 15 16 0 41 9 49 60 60 45 9 45 9 50 56 3 27
10 52 15 57 6 5 44 16 85 25 41 8 113 28 160 45 47 16 97 29 113 30 24 1 27
-2 27 -34z m-6244 -230 c296 -55 561 -221 743 -465 241 -323 300 -763 152
-1145 -150 -389 -516 -681 -935 -746 -97 -15 -363 -6 -446 16 -232 59 -422
165 -576 320 -164 165 -260 337 -321 573 -25 97 -27 122 -27 277 1 150 4 182
27 268 99 373 322 650 650 806 221 106 492 141 733 96z m4273 -355 c-5 -127
-9 -130 -180 -130 -71 0 -129 3 -129 8 1 4 21 23 47 42 25 19 73 58 107 86 80
67 139 104 150 94 4 -4 6 -49 5 -100z m795 -133 c3 4 6 1 6 -5 0 -7 5 -11 12
-9 12 2 38 -45 94 -168 15 -33 28 -82 29 -110 2 -27 6 -62 10 -76 5 -21 1 -30
-20 -48 -39 -30 -85 -28 -116 7 -45 49 -62 84 -61 128 1 34 -2 42 -13 37 -11
-4 -13 -1 -8 13 4 11 3 15 -4 11 -6 -4 -13 0 -17 8 -6 18 10 30 17 13 4 -10 7
-10 15 0 5 7 20 16 34 20 l26 7 -24 30 c-22 27 -26 28 -35 12 -6 -9 -14 -15
-19 -12 -5 3 -16 -5 -24 -17 -15 -22 -16 -22 -16 -2 0 11 5 25 11 31 7 7 9 19
5 29 -6 15 -9 15 -29 -5 -26 -24 -67 -28 -67 -7 0 8 -2 21 -5 28 -7 17 26 58
46 58 8 1 27 11 43 24 27 22 32 23 67 11 20 -7 40 -11 43 -8z m13029 -86 c34
-13 76 -57 83 -88 4 -14 2 -49 -3 -77 -11 -58 -108 -472 -123 -526 -5 -19 -30
-123 -55 -230 -26 -107 -57 -242 -71 -300 -13 -58 -32 -136 -41 -175 -13 -55
-24 -78 -54 -107 -31 -32 -43 -38 -78 -38 -23 0 -52 5 -64 11 -11 7 -131 97
-266 202 -135 105 -323 250 -417 323 -94 73 -174 140 -177 148 -3 8 0 41 8 73
33 135 66 275 90 383 32 143 51 198 73 204 9 3 114 24 232 46 118 23 346 68
505 100 316 63 322 64 358 51z m-1396 -142 c73 -17 140 -37 150 -44 15 -11 15
-19 6 -66 -17 -85 -52 -241 -63 -279 -5 -19 -21 -85 -36 -147 -35 -151 -34
-150 -117 -130 -36 10 -70 17 -76 17 -5 0 -12 -24 -16 -52 -10 -85 -34 -239
-46 -296 -11 -55 -28 -72 -72 -72 -32 0 -125 75 -133 107 -6 22 10 107 52 273
20 76 18 85 -20 110 -18 13 -45 42 -60 65 -40 64 -37 117 20 355 25 102 68
159 141 186 50 19 107 13 270 -27z m-11856 -27 c117 -77 249 -227 249 -282 0
-4 -21 -17 -47 -27 -47 -17 -52 -19 -72 -22 -5 0 -17 -8 -25 -17 -28 -27 -80
-29 -123 -4 -51 31 -84 61 -77 71 3 5 -2 6 -10 3 -9 -4 -16 -1 -16 6 0 7 -22
37 -50 66 -27 29 -50 57 -50 62 0 5 10 19 23 31 74 72 108 101 117 101 6 0 10
7 10 15 0 20 39 19 71 -3z m372 -222 c9 -11 17 -27 17 -34 0 -8 8 -34 18 -58
13 -30 16 -52 11 -71 -4 -16 -5 -35 -3 -42 3 -7 -14 -48 -36 -91 -112 -211
-140 -250 -140 -193 0 11 -4 18 -9 15 -5 -3 -12 1 -15 10 -3 8 -2 12 4 9 6 -3
7 1 4 9 -3 9 -10 16 -14 16 -5 0 -6 9 -3 21 4 12 0 25 -8 30 -10 6 -6 9 14 9
32 0 84 27 92 48 3 10 -1 12 -17 6 -17 -5 -20 -3 -15 10 5 13 3 16 -11 12 -9
-3 -28 1 -42 9 -22 12 -22 14 -6 15 15 0 17 3 9 11 -8 8 -20 6 -43 -6 l-33
-17 21 29 c11 15 33 41 49 56 34 32 56 28 78 -12 l14 -26 1 33 c0 24 -4 32
-17 32 -33 1 -54 26 -47 54 7 31 20 34 29 6 3 -11 10 -20 15 -20 16 0 21 37
11 81 -5 24 -8 45 -5 48 2 2 4 -2 4 -10 0 -8 6 -4 16 9 19 27 35 28 57 2z
m-633 -442 c74 -61 159 -127 225 -173 66 -47 75 -60 74 -112 0 -42 -17 -95
-18 -59 -1 17 -4 16 -28 -8 -37 -37 -66 -41 -136 -20 -65 19 -107 48 -107 71
0 8 -5 11 -12 7 -8 -5 -9 -2 -5 9 5 13 -8 23 -58 46 -36 17 -65 35 -65 40 0 6
-18 29 -39 50 l-39 39 30 15 c23 11 26 16 14 20 -24 9 -19 31 17 75 44 56 78
56 147 0z m-1579 -750 c1 -501 -3 -628 -21 -628 -11 0 -46 33 -57 55 -16 30
-18 1054 -2 1088 14 31 60 51 72 31 4 -7 7 -252 8 -546z m10326 -9188 c-3
-6087 -4 -6500 -20 -6577 -71 -343 -204 -593 -436 -823 -170 -168 -352 -279
-587 -359 -246 -84 147 -76 -3964 -76 -3531 0 -3658 1 -3745 19 -49 10 -144
36 -210 58 -570 188 -974 695 -1035 1297 -15 150 -14 11599 1 11584 6 -6 17
-41 25 -78 8 -37 23 -78 34 -92 11 -14 20 -39 20 -55 0 -16 11 -50 24 -76 13
-26 26 -64 29 -85 3 -20 15 -49 26 -64 13 -15 21 -40 21 -63 0 -20 7 -60 15
-88 19 -64 103 -153 161 -172 21 -7 46 -18 54 -25 8 -7 34 -18 58 -25 23 -6
64 -22 89 -35 25 -14 52 -25 59 -25 7 0 28 -6 46 -14 173 -72 359 -95 806 -98
l272 -1 0 -29 c0 -18 -16 -49 -47 -89 -126 -161 -139 -181 -204 -311 -68 -135
-94 -229 -135 -483 -26 -156 -28 -192 -28 -440 0 -257 2 -276 28 -400 16 -71
28 -134 28 -140 -5 -184 -17 -334 -33 -399 -10 -44 -19 -98 -19 -120 0 -22 -7
-83 -16 -135 -15 -84 -21 -100 -51 -132 -78 -83 -90 -221 -25 -286 24 -23 32
-40 32 -66 0 -45 -25 -105 -58 -140 -26 -27 -26 -28 -10 -60 12 -23 17 -60 17
-130 1 -54 6 -118 12 -143 9 -34 9 -51 0 -71 -9 -20 -9 -28 0 -34 8 -5 10 -21
4 -56 -20 -128 -21 -152 -7 -158 7 -3 147 -5 310 -5 267 0 297 2 316 18 20 16
20 16 7 0 -15 -20 -16 -20 429 -17 124 1 232 1 240 0 107 -9 115 -8 140 13 14
11 19 14 13 6 -7 -8 -13 -17 -13 -20 0 -3 159 -7 353 -8 193 -1 551 -5 795 -7
391 -5 442 -4 442 10 0 8 5 15 11 15 5 0 7 -5 4 -10 -3 -6 0 -12 7 -15 7 -2
297 -6 645 -8 453 -3 635 -1 644 7 7 6 9 7 6 1 -8 -15 124 -16 142 -2 11 9 13
9 8 0 -8 -13 49 -13 71 0 7 5 12 3 12 -5 1 -8 7 -5 17 7 13 16 15 17 10 3 -10
-27 6 -21 25 10 10 15 18 22 18 15 0 -6 -4 -15 -10 -18 -5 -3 -10 -11 -10 -17
0 -6 9 -3 20 7 16 14 19 15 15 4 -7 -18 26 -22 37 -5 5 7 8 6 8 -3 0 -11 3
-11 17 0 11 10 14 10 9 2 -5 -10 2 -13 26 -13 19 0 40 6 47 13 8 7 11 7 8 1
-5 -8 27 -12 111 -13 64 -1 122 -2 127 -2 6 -1 21 0 35 1 14 1 60 0 104 -1 68
-3 80 0 93 17 15 19 15 19 9 -1 -6 -20 5 -22 124 -13 8 1 20 8 27 17 10 14 11
13 7 -4 -5 -19 -1 -21 38 -21 24 0 46 5 50 11 5 7 8 7 8 0 0 -16 543 -17 552
-1 6 8 8 8 8 -1 0 -15 149 -15 168 0 8 6 12 6 12 0 0 -6 37 -11 86 -12 l86 -2
-19 25 c-10 14 -26 28 -35 31 -10 4 -18 11 -18 16 0 6 -11 21 -25 35 -14 14
-22 30 -19 36 4 6 1 9 -7 6 -19 -6 -42 19 -33 34 5 8 0 7 -11 -2 -17 -14 -17
-13 -10 9 4 15 3 21 -3 17 -5 -3 -12 4 -15 15 -4 14 -11 20 -20 16 -11 -4 -13
0 -9 15 4 16 2 19 -8 13 -9 -6 -12 -4 -8 6 6 16 -16 42 -26 31 -4 -3 -4 1 0
11 5 13 2 16 -12 10 -12 -4 -15 -3 -10 5 4 7 2 12 -4 12 -7 0 -10 6 -7 14 3 8
-1 13 -10 12 -9 0 -18 6 -20 14 -4 13 -3 13 6 0 8 -11 11 -11 11 -2 0 7 -7 15
-15 18 -8 4 -15 13 -15 21 0 8 -4 11 -10 8 -6 -4 -7 1 -4 12 5 17 5 17 -9 0
-15 -18 -15 -18 -22 2 -3 12 -3 26 1 33 5 8 2 9 -10 5 -9 -4 -15 -3 -11 2 8
14 -6 42 -17 35 -6 -4 -7 2 -3 16 5 15 4 20 -4 16 -12 -8 -15 6 -4 17 9 9 43
-22 43 -40 0 -7 4 -13 9 -13 14 0 23 -32 11 -44 -5 -5 -10 -14 -10 -20 0 -5 6
-2 13 9 13 16 23 6 116 -118 56 -75 129 -167 163 -204 101 -113 89 -105 128
-91 19 6 40 17 45 24 6 8 26 12 47 11 31 -2 35 -4 24 -15 -11 -11 -18 -11 -35
-2 -18 9 -22 9 -20 -2 3 -28 -2 -38 -21 -38 -11 0 -20 -5 -20 -10 0 -6 36 -10
93 -10 50 0 163 -2 249 -4 87 -2 160 -1 163 4 7 11 -13 73 -26 81 -7 4 -14 41
-16 83 -2 42 -13 104 -23 137 -11 34 -20 68 -20 77 0 8 -16 51 -35 96 -50 118
-68 194 -85 376 -19 194 -10 272 35 335 12 17 34 54 50 83 l28 52 -11 123 c-7
67 -12 151 -13 187 0 85 -11 137 -47 240 -44 125 -82 291 -82 361 0 96 54 250
105 303 58 58 130 168 205 311 27 52 109 247 169 402 63 165 176 544 192 643
7 46 34 194 69 380 22 117 43 248 65 390 8 52 21 133 29 180 8 47 20 114 26
150 14 86 42 217 91 420 11 47 29 132 39 190 26 140 36 185 56 250 27 92 44
163 48 206 2 22 7 56 10 75 3 18 15 93 26 164 22 140 42 235 72 329 10 33 18
68 18 78 0 11 6 31 14 46 7 15 18 50 25 77 7 28 22 77 34 110 21 60 30 70 184
219 27 26 49 61 63 97 11 32 41 85 65 118 24 33 58 84 75 113 17 29 53 85 81
123 28 39 76 108 107 155 31 47 62 91 69 98 7 7 20 26 30 43 17 29 18 1 21
-818 1 -466 1 -3771 -1 -7343z m-10327 7909 c2 -19 5 -491 5 -1049 0 -747 -3
-1025 -12 -1052 -8 -26 -8 -38 -1 -38 7 0 7 -5 -1 -13 -6 -8 -8 -17 -4 -20 12
-13 -13 -7 -33 7 -44 31 -45 64 -42 1136 2 558 7 1022 11 1031 9 18 46 39 62
35 5 -1 12 -18 15 -37z m10722 -1 c10 -19 13 -323 13 -1544 0 -1483 0 -1522
-19 -1543 -37 -41 -44 -28 -52 107 -11 162 -12 2914 -1 2965 9 43 38 51 59 15z
m-13610 -836 c23 -27 70 -84 103 -128 33 -43 62 -81 65 -84 3 -3 17 -21 32
-42 15 -20 34 -42 41 -50 7 -7 80 -98 162 -203 81 -104 168 -214 191 -243 60
-74 71 -111 49 -168 -11 -30 -29 -53 -54 -69 -36 -25 -43 -25 -566 -52 -292
-15 -543 -23 -558 -20 -15 4 -37 22 -48 40 -24 38 -21 81 10 149 11 26 21 49
21 51 0 3 22 51 49 108 26 57 108 237 182 399 148 329 169 360 237 360 35 0
45 -6 84 -48z m2887 -2005 c11 -82 7 -2090 -5 -2094 -6 -2 -9 -19 -8 -38 4
-41 -5 -43 -43 -11 l-28 24 -3 1046 c-2 939 -1 1049 13 1076 13 24 21 30 38
26 12 -3 16 -3 8 0 -11 5 -11 8 0 15 18 11 22 6 28 -44z"/>
<path d="M19447 28953 c-11 -10 -8 -183 8 -488 8 -154 15 -364 15 -467 0 -124
4 -188 10 -188 6 0 100 -9 208 -20 192 -19 694 -34 1005 -31 l47 1 -1 178 c-1
97 -4 165 -6 150 -4 -25 -5 -26 -24 -10 -10 9 -19 29 -19 45 0 19 -12 41 -35
65 -19 20 -35 42 -35 47 0 6 -13 25 -30 43 -35 39 -36 42 -12 43 15 0 15 1 0
7 -9 4 -32 22 -52 40 -20 18 -48 38 -64 44 -23 9 -24 12 -8 16 10 2 22 -2 27
-9 7 -11 11 -11 21 -1 11 11 8 17 -12 33 -14 11 -38 22 -53 26 -25 5 -53 34
-42 44 2 2 -15 4 -38 5 -23 1 -67 4 -97 7 -30 4 -84 10 -120 13 -36 4 -69 10
-75 14 -5 4 -26 11 -45 15 -19 4 -41 11 -50 16 -8 4 -40 19 -71 32 -54 24
-173 118 -249 197 -34 35 -176 140 -190 140 -4 0 -10 -3 -13 -7z"/>
<path d="M19337 28642 c-15 -54 -31 -118 -37 -143 -5 -24 -18 -80 -29 -124
-25 -103 -40 -217 -51 -380 -5 -71 -12 -139 -15 -151 -4 -20 -2 -21 88 -19 50
2 96 3 101 4 5 1 6 72 2 174 -4 94 -9 217 -10 272 -4 141 -18 459 -21 463 -1
1 -14 -42 -28 -96z"/>
<path d="M14285 26335 c-64 -18 -183 -59 -192 -67 -7 -6 -14 -20 -14 -32 -1
-15 -3 -13 -8 9 l-8 30 -12 -43 c-19 -66 -12 -85 31 -95 28 -7 45 -5 65 6 114
61 156 78 214 87 130 20 304 14 335 -11 7 -6 16 -9 20 -7 5 1 19 -3 32 -10 15
-9 22 -9 22 -2 0 6 -15 17 -32 25 -28 12 -30 14 -10 15 12 0 33 -6 45 -14 12
-8 33 -17 47 -21 25 -8 25 -8 6 14 -11 11 -25 21 -33 21 -8 0 -11 5 -8 10 4 7
11 7 18 2 19 -14 58 -22 50 -9 -4 6 2 8 15 5 12 -4 22 -4 22 -2 0 8 -55 26
-90 29 -19 2 -60 11 -90 19 -30 9 -66 16 -80 15 -23 0 -23 -1 -5 -10 42 -19
-50 -1 -104 20 -40 16 -56 19 -61 10 -4 -6 -13 -8 -19 -5 -11 7 -138 16 -156
11z"/>
<path d="M14399 26086 c-2 -2 -24 -7 -49 -11 -25 -4 -49 -11 -54 -16 -6 -5
-19 -9 -30 -9 -12 0 -32 -9 -46 -20 -19 -15 -41 -20 -90 -20 -36 0 -72 -5 -80
-10 -11 -7 -2 -9 30 -5 40 4 42 4 15 -5 -28 -10 -63 -9 -235 4 l-65 5 55 -9
c30 -5 68 -14 84 -20 16 -6 49 -8 78 -4 48 7 50 6 43 -15 -7 -22 4 -28 21 -11
8 8 19 7 38 -1 21 -10 31 -10 54 2 15 8 29 17 32 20 8 9 51 31 55 27 2 -2 -3
-9 -11 -16 -8 -7 -14 -10 -14 -6 0 4 -8 -2 -17 -13 -10 -11 -29 -25 -41 -32
-40 -21 -16 -24 50 -7 35 10 74 15 88 12 14 -2 28 -5 33 -5 4 -1 7 -7 7 -15 0
-8 10 -18 23 -21 12 -4 30 -9 40 -11 9 -3 17 -1 17 5 0 6 -7 11 -16 11 -8 0
-12 5 -9 10 3 6 16 10 29 10 12 0 26 3 30 7 12 12 49 14 80 3 21 -7 33 -7 40
0 8 8 6 9 -6 5 -11 -4 -18 -2 -18 5 0 21 54 6 66 -19 11 -21 13 -22 17 -5 4
16 5 15 6 -3 1 -14 7 -23 17 -23 11 0 15 6 11 20 -3 11 -3 20 -1 20 2 0 13 -9
24 -20 22 -22 50 -27 50 -8 0 9 3 9 12 0 7 -7 28 -12 48 -11 l35 1 -40 14 -40
14 50 -4 c28 -2 70 0 95 4 40 7 36 8 -40 10 -82 3 -83 3 -28 9 73 8 94 25 32
28 -48 2 -78 18 -67 37 3 6 3 8 -2 4 -4 -4 -35 8 -69 27 -75 42 -167 65 -262
65 -39 0 -73 -2 -75 -4z"/>
<path d="M14070 25482 c0 -5 23 -34 50 -63 87 -93 247 -346 311 -491 17 -39
46 -99 65 -133 19 -34 34 -74 34 -89 0 -15 4 -25 9 -21 13 7 5 82 -15 141 -25
75 -124 252 -146 262 -5 2 -8 10 -8 18 0 8 -4 14 -10 14 -5 0 -10 4 -10 10 0
5 -18 39 -40 75 -22 36 -40 69 -40 74 0 4 -9 16 -20 26 -11 10 -20 22 -20 27
0 16 -92 111 -140 145 -11 8 -20 10 -20 5z"/>
<path d="M9578 23552 c-29 -34 -44 -94 -30 -118 7 -13 11 -9 16 17 7 33 8 33
18 12 13 -27 23 -29 32 -8 3 8 17 15 33 15 24 -1 25 -2 11 -11 -26 -14 -22
-46 7 -65 14 -9 25 -20 25 -25 0 -5 12 -28 26 -51 23 -37 27 -39 37 -23 7 12
6 34 -2 68 -14 60 -7 75 9 20 22 -74 28 -103 19 -97 -5 3 -9 -2 -9 -11 0 -9 5
-13 10 -10 22 14 -2 -85 -26 -110 -9 -8 -11 -15 -6 -15 19 0 50 47 59 90 13
64 -2 151 -37 225 -34 72 -79 113 -132 122 -30 4 -38 1 -60 -25z"/>
<path d="M10578 11560 c-72 -38 -107 -124 -86 -207 9 -37 26 -62 77 -114 67
-68 208 -179 226 -179 17 0 160 116 158 128 -2 6 3 9 11 6 23 -9 122 108 135
160 23 92 -37 203 -119 221 -48 11 -112 -3 -144 -30 -36 -31 -39 -31 -82 2
-46 35 -123 40 -176 13z"/>
<path d="M11733 11551 c-143 -68 -197 -248 -109 -363 87 -115 204 -154 334
-112 47 15 56 15 114 1 34 -9 63 -15 65 -14 1 2 -5 30 -14 64 -16 58 -16 65 2
121 67 223 -171 407 -392 303z m242 -19 c115 -58 165 -186 119 -303 -14 -34
-15 -47 -5 -81 7 -22 10 -42 7 -45 -3 -3 -25 -1 -48 5 -36 9 -52 8 -98 -8 -67
-24 -114 -25 -171 -5 -58 21 -106 59 -140 113 -24 38 -29 57 -29 106 1 115 64
199 180 237 41 14 142 3 185 -19z"/>
<path d="M12615 11551 c-3 -5 49 -52 114 -105 134 -108 120 -84 156 -281 20
-108 24 -125 34 -125 4 0 46 64 93 143 47 78 115 191 152 251 36 60 63 112 60
117 -6 11 -602 11 -609 0z m530 -17 c15 -6 -48 -45 -231 -140 l-51 -27 -99 79
-99 79 230 5 c127 3 231 7 232 8 1 1 9 -1 18 -4z m25 -39 c0 -5 -202 -344
-229 -385 -6 -8 -12 -12 -16 -9 -8 9 -47 230 -42 243 3 6 58 40 123 75 66 34
123 67 129 72 10 10 35 12 35 4z"/>
<path d="M19260 11315 c0 -146 4 -245 9 -245 6 0 53 36 106 80 53 44 99 80
102 80 3 0 42 -30 87 -68 111 -92 116 -96 122 -89 3 3 5 112 5 243 l0 239
-216 3 -215 2 0 -245z m410 10 c0 -118 -2 -215 -5 -215 -3 0 -40 29 -83 66
-42 36 -84 69 -93 74 -12 7 -38 -10 -106 -66 -50 -41 -94 -74 -97 -74 -3 0 -6
97 -6 215 l0 215 195 0 195 0 0 -215z"/>
<path d="M11340 10654 c0 -40 -2 -45 -17 -39 -46 20 -82 17 -107 -9 -33 -32
-34 -75 -3 -104 26 -25 85 -30 105 -10 10 10 15 10 22 -2 7 -10 10 23 10 98 0
61 -2 112 -5 112 -3 0 -5 -21 -5 -46z"/>
<path d="M11512 10590 c-1 -75 2 -110 8 -100 7 12 12 12 22 2 6 -6 29 -12 49
-12 70 0 103 77 54 125 -25 26 -78 34 -90 15 -3 -5 -12 -10 -20 -10 -9 0 -15
15 -18 48 -2 26 -4 -5 -5 -68z"/>
<path d="M12370 10617 c-34 -17 -48 -69 -27 -101 21 -32 75 -50 111 -37 38 15
33 33 -8 26 -34 -7 -76 7 -76 25 0 6 29 10 65 10 59 0 65 2 65 20 0 30 -44 70
-77 70 -15 0 -39 -6 -53 -13z"/>
<path d="M12918 10623 c-10 -2 -18 -9 -18 -15 0 -6 10 -8 24 -4 28 7 76 -8 76
-24 0 -5 -15 -10 -33 -10 -72 0 -102 -61 -43 -88 23 -12 32 -12 53 -1 20 11
26 11 33 0 15 -26 30 1 30 55 0 81 -39 109 -122 87z"/>
<path d="M13102 10550 c3 -87 22 -98 26 -15 4 66 27 87 67 61 19 -13 25 -26
27 -68 4 -68 22 -69 26 -2 4 65 29 93 67 76 22 -10 25 -18 25 -65 0 -57 5 -68
24 -61 17 7 5 132 -14 144 -21 14 -74 12 -88 -2 -9 -9 -17 -9 -34 0 -13 7 -47
11 -76 9 l-53 -2 3 -75z"/>
<path d="M13445 10605 c-14 -13 -25 -35 -25 -48 0 -57 71 -100 125 -75 36 16
31 30 -9 23 -34 -7 -76 7 -76 25 0 6 30 10 66 10 l66 0 -6 28 c-15 62 -95 84
-141 37z"/>
<path d="M14195 10605 c-62 -61 6 -153 92 -124 45 15 42 31 -5 23 -29 -5 -43
-1 -62 15 l-25 20 66 1 c36 0 68 3 72 6 10 10 -14 64 -33 74 -33 18 -79 11
-105 -15z"/>
<path d="M14738 10623 c-35 -9 -18 -25 20 -18 25 4 43 1 56 -8 23 -17 14 -37
-14 -30 -11 3 -34 0 -51 -7 -24 -10 -29 -18 -27 -39 4 -34 48 -57 78 -41 15 8
25 8 34 1 20 -17 26 -3 26 60 0 48 -4 60 -22 73 -21 15 -63 19 -100 9z"/>
<path d="M14920 10555 c0 -76 4 -87 26 -78 10 3 14 22 14 59 0 43 4 55 20 64
14 8 26 8 40 0 16 -9 20 -21 20 -64 0 -37 4 -56 14 -59 22 -8 26 2 26 60 0 47
3 55 25 65 38 17 63 -11 67 -75 2 -29 8 -52 16 -55 9 -3 12 14 12 62 0 59 -3
67 -25 82 -17 11 -35 14 -57 10 -18 -4 -40 -6 -48 -6 -8 0 -45 2 -82 4 l-68 3
0 -72z"/>
<path d="M15276 10609 c-69 -54 4 -157 91 -128 47 15 41 30 -10 23 -34 -5 -47
-2 -62 12 -18 19 -17 19 48 22 63 3 67 4 67 27 0 30 -43 65 -80 65 -15 0 -39
-9 -54 -21z"/>
<path d="M16666 10609 c-56 -44 -17 -133 59 -133 76 0 115 89 59 133 -15 12
-41 21 -59 21 -18 0 -44 -9 -59 -21z"/>
<path d="M17226 10609 c-67 -53 1 -154 88 -131 45 12 47 35 2 27 -27 -6 -43
-3 -64 11 l-27 19 70 5 c68 5 70 6 67 30 -5 56 -85 79 -136 39z"/>
<path d="M10947 10178 c-29 -23 -39 -66 -22 -97 16 -32 33 -41 75 -41 35 0 60
9 60 22 0 6 -14 8 -35 4 -35 -7 -75 6 -75 24 0 6 29 10 65 10 61 0 65 1 65 23
0 52 -88 88 -133 55z"/>
<path d="M11493 10183 c-28 -11 -10 -21 32 -20 31 1 49 -3 55 -13 8 -12 1 -16
-36 -22 -52 -7 -74 -22 -74 -49 0 -27 28 -38 93 -36 l57 1 0 57 c0 48 -4 60
-22 73 -21 15 -79 20 -105 9z"/>
<path d="M11680 10113 c0 -58 3 -73 15 -73 11 0 15 12 15 48 0 54 6 67 36 76
34 10 54 -17 54 -75 0 -37 4 -49 15 -49 11 0 15 11 15 39 0 50 7 69 31 82 13
6 25 6 39 -1 16 -9 20 -21 20 -65 0 -47 3 -55 19 -55 17 0 18 7 16 61 -1 47
-6 65 -20 75 -23 17 -77 18 -92 3 -8 -8 -17 -8 -31 0 -11 6 -45 10 -76 9 l-56
-2 0 -73z"/>
<path d="M12019 10171 c-17 -13 -23 -29 -23 -56 0 -27 6 -43 23 -56 32 -26
121 -24 121 3 0 5 -15 6 -34 3 -34 -7 -76 7 -76 25 0 6 29 10 65 10 62 0 65 1
65 24 0 55 -93 86 -141 47z"/>
<path d="M13545 10165 c-14 -13 -25 -36 -25 -50 0 -38 42 -75 85 -75 45 0 75
29 75 73 0 70 -85 103 -135 52z"/>
<path d="M14302 10167 c-46 -49 -10 -117 61 -117 20 0 39 5 42 10 10 17 25 11
25 -10 0 -11 -9 -29 -21 -41 -21 -21 -55 -23 -104 -5 -20 8 -20 7 -1 -8 28
-23 91 -21 116 4 17 17 20 33 20 108 0 58 -3 82 -10 72 -7 -12 -12 -12 -22 -2
-21 21 -82 15 -106 -11z"/>
<path d="M14531 10171 c-34 -26 -35 -86 -2 -112 54 -44 131 -10 131 58 0 65
-74 96 -129 54z"/>
<path d="M14736 10169 c-26 -20 -36 -69 -18 -95 11 -18 49 -34 77 -34 33 0 75
42 75 75 0 35 -42 75 -78 75 -16 0 -41 -9 -56 -21z"/>
<path d="M15565 10166 c-22 -22 -26 -33 -21 -59 18 -96 156 -86 156 11 0 42
-20 63 -70 69 -32 5 -43 1 -65 -21z"/>
<path d="M11721 8544 c-38 -31 -40 -63 -7 -101 19 -22 32 -28 65 -28 46 0 76
23 86 67 6 22 1 33 -23 58 -39 38 -79 40 -121 4z"/>
<path d="M12658 8540 c-24 -25 -29 -36 -23 -58 3 -15 14 -35 22 -44 21 -23 75
-33 102 -19 33 18 25 33 -13 26 -34 -7 -76 7 -76 25 0 6 29 10 65 10 62 0 65
1 65 24 0 31 -43 66 -82 66 -20 0 -40 -10 -60 -30z"/>
<path d="M13218 8563 c-37 -10 -18 -28 29 -28 37 0 48 -4 51 -17 3 -15 -4 -18
-35 -18 -73 0 -97 -48 -41 -80 23 -12 31 -13 49 -2 15 10 24 10 34 2 23 -19
35 -1 35 54 0 81 -40 111 -122 89z"/>
<path d="M13400 8488 c0 -63 3 -78 15 -78 11 0 15 13 15 53 0 59 12 77 51 77
32 0 39 -15 39 -81 0 -37 4 -49 15 -49 11 0 15 12 15 48 0 61 16 85 55 80 29
-3 30 -4 33 -66 3 -53 6 -63 20 -60 13 2 18 16 20 53 5 85 -43 125 -112 94
-18 -9 -29 -9 -38 -1 -7 6 -39 10 -71 9 l-57 -1 0 -78z"/>
<path d="M13769 8563 c-17 -4 -49 -53 -49 -76 0 -48 84 -92 129 -68 33 18 24
30 -19 24 -38 -5 -70 8 -70 28 0 5 29 9 65 9 59 0 65 2 65 20 0 48 -61 80
-121 63z"/>
<path d="M13370 8184 c0 -40 -2 -45 -17 -39 -46 20 -82 17 -107 -9 -65 -64 2
-160 86 -125 25 10 31 10 39 -2 5 -9 9 31 9 104 0 64 -2 117 -5 117 -3 0 -5
-21 -5 -46z"/>
<path d="M11530 8105 l0 -105 58 0 c76 0 122 24 140 71 12 32 12 41 -3 72 -21
45 -67 67 -139 67 l-56 0 0 -105z m161 56 c17 -18 29 -40 29 -56 0 -16 -12
-38 -29 -56 -26 -25 -37 -29 -85 -29 l-56 0 0 85 0 85 56 0 c48 0 59 -4 85
-29z"/>
<path d="M11795 8135 c-51 -50 -11 -135 64 -135 10 0 30 9 45 21 20 15 26 29
26 57 0 43 -7 55 -37 71 -35 18 -72 13 -98 -14z"/>
<path d="M12835 8135 c-68 -67 26 -175 102 -118 33 24 42 50 32 89 -15 55 -92
72 -134 29z"/>
<path d="M16060 6750 c-274 -3 -504 -9 -515 -14 -32 -15 -83 -68 -100 -102
-23 -48 -22 -611 0 -655 24 -46 46 -69 88 -90 36 -19 64 -20 670 -22 728 -2
652 9 775 -114 94 -93 103 -98 141 -78 36 18 182 152 173 158 -4 2 -1 2 7 0 8
-2 23 5 33 14 19 17 62 18 658 20 616 1 638 2 676 21 47 24 79 57 94 97 8 20
12 128 11 327 0 256 -2 301 -16 328 -25 48 -70 88 -114 100 -44 11 -1757 18
-2581 10z m-65 -268 c40 -19 74 -51 91 -84 17 -33 18 -118 2 -153 -8 -18 -8
-35 -1 -58 14 -48 8 -57 -33 -45 -24 6 -52 5 -88 -3 -87 -19 -140 -6 -196 50
-63 63 -77 129 -41 199 29 56 76 92 151 115 22 7 81 -4 115 -21z m1975 -14
c61 -38 60 -129 -2 -172 -27 -19 -87 -21 -123 -4 -50 23 -71 101 -39 147 33
47 113 61 164 29z m-1110 -5 c33 -17 37 -17 70 -1 45 23 78 23 113 0 41 -28
56 -53 57 -96 0 -49 -25 -87 -96 -145 -30 -24 -51 -47 -48 -52 3 -5 -1 -6 -9
-3 -8 3 -20 -2 -27 -11 -13 -16 -36 -20 -42 -7 -1 4 -30 28 -63 54 -101 77
-118 101 -119 157 -1 42 4 55 28 80 41 43 84 50 136 24z m-515 -173 c0 -143 0
-145 -22 -148 -23 -3 -23 -3 -23 127 l0 131 -34 0 c-19 0 -38 5 -41 10 -13 21
9 31 63 28 l57 -3 0 -145z m1002 142 c8 -5 9 -13 3 -22 -5 -8 -6 -72 -3 -143
l6 -129 -24 4 c-24 3 -24 4 -27 131 l-3 127 -33 0 c-31 0 -53 19 -39 34 9 9
106 7 120 -2z m1001 -139 c-3 -145 -3 -148 -25 -151 -23 -3 -23 -3 -23 127 l0
131 -34 0 c-20 0 -36 6 -39 14 -9 22 2 26 65 26 l59 0 -3 -147z m-273 -58 c18
-18 25 -35 25 -65 l0 -40 -197 2 -198 3 1 38 c1 25 9 46 24 62 23 24 27 25
172 25 145 0 150 -1 173 -25z"/>
<path d="M14895 4931 c-47 -22 -89 -64 -104 -104 -15 -38 -14 -300 1 -349 17
-56 76 -104 147 -119 34 -7 109 -10 191 -7 173 6 219 26 264 115 13 25 16 64
16 182 0 160 -6 190 -48 235 -53 56 -90 66 -267 66 -135 0 -166 -3 -200 -19z
m406 -24 c27 -15 52 -38 66 -63 21 -35 23 -52 23 -187 0 -165 -8 -197 -59
-240 -46 -38 -90 -47 -236 -47 -146 0 -190 9 -236 47 -51 43 -59 76 -59 233 0
151 8 189 51 230 46 43 75 49 245 50 149 0 164 -2 205 -23z"/>
<path d="M12969 4896 c-94 -33 -159 -124 -159 -220 0 -100 73 -192 176 -222
71 -20 129 -14 195 23 l50 27 59 -59 c33 -32 63 -56 67 -52 4 4 -19 34 -51 65
l-57 58 26 51 c35 67 41 119 21 180 -20 59 -82 123 -144 147 -50 19 -133 20
-183 2z m186 -25 c207 -95 155 -381 -74 -408 -129 -15 -251 91 -251 219 0 81
62 165 142 195 50 18 137 15 183 -6z"/>
<path d="M19003 4884 c-71 -47 -93 -131 -50 -194 46 -69 133 -92 207 -56 49
24 73 61 77 120 5 64 -19 107 -76 136 -56 28 -108 26 -158 -6z m142 -8 c65
-28 94 -115 59 -176 -24 -40 -65 -60 -123 -60 -42 0 -56 5 -85 30 -66 58 -54
161 24 202 42 22 79 23 125 4z"/>
<path d="M11050 4869 c-19 -17 -81 -77 -137 -132 l-103 -101 0 -107 c0 -136 3
-139 108 -139 122 0 119 -2 124 97 5 93 11 103 65 103 43 0 53 -21 53 -109 0
-86 7 -91 115 -91 116 0 115 -1 115 136 l0 116 -37 36 c-150 147 -235 222
-250 222 -10 0 -34 -14 -53 -31z"/>
<path d="M16928 4880 c-97 -29 -145 -137 -104 -233 14 -35 117 -130 210 -195
67 -47 64 -47 156 23 152 116 190 166 190 245 0 140 -147 213 -255 128 -22
-17 -31 -19 -44 -10 -57 41 -110 55 -153 42z m118 -42 c16 -12 33 -28 37 -36
7 -10 18 -5 48 23 35 31 45 35 94 35 49 0 60 -4 93 -34 36 -34 37 -36 37 -105
0 -68 -1 -71 -40 -112 -65 -68 -216 -180 -229 -171 -6 5 -40 30 -76 57 -83 62
-148 123 -166 157 -17 33 -18 105 -1 138 34 67 145 93 203 48z"/>
<path d="M18874 4546 c-47 -21 -74 -61 -74 -113 0 -27 4 -42 10 -38 6 3 10 22
10 40 0 24 9 45 29 67 l29 33 188 3 c103 2 197 1 209 -2 36 -9 75 -55 75 -90
0 -38 14 -64 25 -46 21 34 -22 118 -75 145 -39 20 -380 21 -426 1z"/>
</g>
</svg>
