<?xml version="1.0" standalone="no"?>
<!DOCTYPE svg PUBLIC "-//W3C//DTD SVG 20010904//EN"
 "http://www.w3.org/TR/2001/REC-SVG-20010904/DTD/svg10.dtd">
<svg version="1.0" xmlns="http://www.w3.org/2000/svg"
 width="6250.000000pt" height="4156.000000pt" viewBox="0 0 6250.000000 4156.000000"
 preserveAspectRatio="xMidYMid meet">
<metadata>
Created by potrace 1.16, written by Peter Selinger 2001-2019
</metadata>
<g transform="translate(0.000000,4156.000000) scale(0.100000,-0.100000)"
fill="#000000" stroke="none">
<path d="M26875 37803 c-22 -2 -47 -7 -55 -10 -8 -3 -19 -5 -23 -4 -4 1 -34
-6 -65 -14 -257 -71 -418 -178 -591 -391 -36 -45 -136 -224 -124 -224 3 0 0
-6 -6 -14 -12 -14 -16 -24 -54 -156 l-22 -75 -2 -2360 c-3 -2032 -1 -2373 12
-2450 65 -400 328 -713 710 -843 152 -52 162 -53 1188 -59 l957 -6 0 -3443 0
-3444 -22 -4 c-13 -3 -135 -10 -273 -17 -363 -17 -384 -22 -185 -37 91 -7 217
-17 280 -22 297 -26 1241 -100 1278 -100 29 0 44 -5 50 -17 5 -10 12 -115 16
-233 3 -118 10 -336 16 -485 5 -148 12 -344 15 -435 14 -468 25 -814 30 -895
3 -49 8 -173 10 -275 3 -102 9 -295 15 -430 5 -135 12 -331 16 -436 3 -105 10
-198 15 -205 6 -10 9 -10 9 -2 0 7 7 10 15 7 8 -4 97 -1 198 5 100 6 227 13
282 16 275 14 513 27 700 40 33 2 125 7 205 10 80 3 199 10 265 15 66 5 179
12 250 15 166 7 640 33 725 40 36 2 110 7 165 10 55 3 188 10 295 16 338 19
650 36 790 43 74 3 194 10 265 16 72 5 178 12 238 14 116 5 107 7 287 -77 79
-36 242 -138 340 -211 112 -84 338 -306 434 -426 165 -207 345 -518 433 -750
l40 -104 -111 -118 c-148 -156 -693 -696 -735 -728 -19 -14 -47 -37 -63 -52
-16 -16 -31 -28 -34 -28 -3 0 -22 -16 -42 -35 -20 -19 -40 -35 -44 -35 -4 0
-22 -13 -40 -28 -37 -31 -180 -122 -274 -172 -60 -33 -62 -35 -78 -94 -9 -34
-18 -74 -19 -91 -1 -16 -5 -32 -9 -35 -13 -10 -21 -80 -9 -80 14 0 160 67 292
135 10 5 19 13 19 17 0 5 5 8 12 8 6 0 26 11 44 25 18 14 35 25 39 25 3 0 57
38 119 85 63 47 115 85 117 85 21 0 658 640 659 661 0 3 33 39 73 80 39 41 89
94 109 117 21 23 39 42 41 42 13 0 84 -331 93 -433 l6 -72 -71 -145 c-39 -80
-71 -151 -71 -157 0 -7 -4 -13 -10 -13 -5 0 -10 -8 -10 -17 0 -10 -7 -31 -16
-48 -39 -74 -41 -799 -3 -1230 15 -168 15 -166 -40 -322 -166 -470 -413 -894
-751 -1289 -74 -86 -341 -344 -435 -419 -362 -292 -762 -491 -1160 -579 -143
-32 -194 -38 -605 -80 -190 -20 -545 -56 -790 -81 -245 -25 -488 -50 -540 -55
-52 -5 -160 -16 -240 -24 -80 -9 -302 -32 -495 -51 -192 -20 -479 -49 -636
-65 -158 -17 -301 -30 -318 -30 l-31 0 0 3309 c0 2146 -3 3312 -10 3316 -5 3
-85 1 -177 -5 -153 -9 -519 -30 -830 -47 l-123 -6 0 -3343 0 -3342 -37 -6
c-21 -3 -87 -11 -148 -16 -60 -6 -111 -12 -112 -14 -1 -1 156 -10 350 -20 193
-9 433 -21 532 -26 99 -6 307 -17 461 -25 155 -8 312 -15 348 -15 44 0 68 -4
71 -12 3 -7 14 -159 25 -338 11 -179 32 -489 45 -690 14 -201 39 -574 55 -830
17 -256 37 -559 45 -675 8 -115 24 -361 36 -545 12 -184 23 -336 24 -338 2 -2
99 6 217 18 117 11 328 32 468 45 140 14 300 30 355 35 55 6 291 28 525 50
234 22 612 58 840 80 636 61 924 89 1045 100 61 5 225 21 365 35 140 13 352
33 470 45 448 42 561 60 906 145 511 125 1029 341 1509 628 355 213 800 547
1095 823 282 264 616 629 815 889 37 50 74 97 82 105 91 103 452 648 578 875
110 198 148 269 219 410 45 88 96 194 115 235 68 151 181 413 187 434 3 11 12
35 20 51 36 81 153 416 227 650 59 186 191 714 212 844 6 39 5 42 -11 37 -47
-14 -289 -59 -413 -76 -76 -11 -202 -22 -282 -25 -189 -8 -374 -28 -704 -76
-525 -77 -752 -101 -1121 -119 -230 -11 -295 -7 -362 19 -260 103 -513 365
-514 534 -1 127 115 452 228 640 97 160 237 317 377 421 42 32 77 62 77 67 0
5 4 9 9 9 6 0 30 14 55 30 122 83 416 200 601 240 245 53 487 88 810 116 237
20 410 41 454 55 49 16 203 91 219 107 8 7 28 20 45 29 31 16 129 86 155 111
7 6 16 12 20 12 4 0 23 15 42 33 19 17 52 45 73 61 21 15 95 78 165 138 70 61
143 117 162 125 19 8 53 22 75 32 66 29 163 44 278 42 59 -1 107 2 107 6 0 5
-8 16 -17 24 -10 9 -32 32 -50 51 -52 58 -168 104 -232 93 -43 -7 -96 -25
-129 -44 -13 -7 -25 -11 -27 -9 -1 2 -10 62 -20 133 -33 247 -148 753 -230
1010 -14 44 -25 88 -25 97 0 10 -4 18 -10 18 -5 0 -10 7 -10 15 0 21 -107 324
-149 420 -5 11 -23 54 -41 95 -87 204 -189 418 -207 438 -7 7 -13 17 -13 22 0
5 -34 68 -75 141 -41 72 -75 136 -75 140 0 5 -4 9 -9 9 -5 0 -12 9 -16 20 -3
11 -22 42 -41 69 -19 28 -34 55 -34 61 0 5 -4 10 -8 10 -5 0 -15 12 -23 27 -8
16 -31 53 -52 83 -35 52 -46 67 -92 130 -22 30 -156 202 -183 235 -49 60 -121
145 -156 185 -49 55 -378 384 -426 425 -95 82 -179 153 -210 177 -132 102
-191 144 -310 222 -74 49 -147 97 -162 107 -15 11 -29 19 -32 19 -3 0 -29 14
-58 31 -74 44 -368 195 -397 204 -14 4 -56 22 -95 40 -39 18 -105 45 -146 59
-41 15 -91 34 -110 42 -87 34 -430 130 -530 148 -14 2 -43 9 -65 14 -38 10
-258 42 -430 63 -44 5 -209 14 -367 19 -441 15 -1277 58 -1430 75 -195 21
-517 29 -698 16 -373 -25 -780 -51 -970 -61 -194 -10 -745 -41 -1330 -75 -256
-15 -382 -22 -1150 -65 -195 -10 -390 -22 -432 -25 l-78 -5 0 3157 c0 2712 2
3171 15 3253 17 113 68 271 116 358 l34 63 830 0 830 -1 18 -22 c59 -74 222
-272 267 -325 10 -11 38 -45 62 -75 24 -29 79 -96 122 -148 43 -52 83 -102 89
-110 7 -8 46 -55 87 -105 41 -49 80 -97 87 -105 33 -41 213 -257 228 -274 17
-18 269 -326 284 -347 12 -18 29 -19 227 -19 l213 0 35 43 c58 71 243 294 407
493 86 104 177 215 203 247 26 33 56 69 66 80 43 51 283 341 370 447 51 63 96
117 100 120 3 3 23 28 45 55 l40 50 1583 -2 1584 -3 4 -1897 c2 -1044 6 -1934
9 -1978 7 -105 24 -172 69 -273 79 -181 216 -334 374 -418 25 -13 50 -28 56
-33 14 -11 125 -49 163 -56 15 -2 44 -10 63 -17 26 -8 544 -12 2095 -15 1560
-3 2063 -7 2074 -16 8 -7 31 -34 51 -62 21 -27 46 -59 57 -70 10 -11 36 -42
58 -70 22 -27 53 -66 70 -85 16 -20 48 -58 70 -84 22 -27 78 -95 125 -151 47
-56 130 -157 185 -225 55 -68 110 -135 122 -149 12 -14 50 -60 83 -101 121
-147 135 -164 150 -180 8 -9 27 -32 43 -52 l27 -37 88 -3 87 -3 3 -1372 2
-1373 -40 0 c-54 0 -153 -34 -209 -73 -61 -41 -139 -122 -195 -200 -54 -75
-139 -227 -132 -234 3 -3 133 6 290 19 l286 23 0 -2563 0 -2564 -22 5 c-13 3
-61 11 -108 17 -47 6 -147 20 -224 31 -76 11 -140 18 -142 17 -2 -2 2 -13 9
-24 7 -12 22 -39 34 -61 36 -66 136 -195 199 -256 64 -63 142 -113 208 -132
l41 -12 0 -4479 c0 -4291 -1 -4483 -18 -4569 -60 -296 -216 -554 -444 -733
-195 -154 -394 -234 -645 -261 -129 -14 -11651 -15 -11819 -1 -311 26 -566
140 -779 351 -87 86 -125 134 -187 235 -103 169 -157 342 -174 559 -7 88 -8
559 -4 1448 l7 1319 -63 -6 c-178 -18 -582 -56 -639 -61 -114 -10 -374 -36
-408 -41 l-32 -5 2 -2602 c3 -2477 4 -2605 21 -2667 36 -129 60 -196 98 -272
189 -383 523 -625 946 -687 32 -5 -3120 -9 -7004 -10 l-7063 -1 0 -105 0 -105
14220 0 14220 0 0 105 c0 76 4 107 13 109 6 2 44 9 82 16 153 26 330 87 495
170 526 263 905 768 1015 1355 27 147 33 1190 45 8365 6 3644 13 7973 17 9620
l6 2995 1721 0 c1626 0 1725 1 1798 18 162 38 291 106 409 215 128 119 214
256 261 418 l22 79 3 1995 c4 2198 6 2088 -58 2249 -93 233 -287 422 -519 506
-161 58 -64 55 -2054 55 l-1832 0 -23 41 c-41 73 -171 239 -254 326 -292 304
-703 509 -1124 562 -46 6 -461 13 -960 16 -483 3 -1302 8 -1820 11 l-943 6 0
1907 c0 1604 -3 1920 -15 1996 -17 109 -28 148 -68 245 -135 330 -440 573
-796 635 -73 13 -888 15 -6415 13 -3482 -1 -6349 -3 -6371 -5z m4248 -1567
c147 -43 273 -190 292 -341 5 -45 3 -678 -5 -1655 l-5 -665 -28 -54 c-51 -99
-132 -173 -232 -210 -69 -26 -151 -28 -1370 -37 -489 -3 -897 -10 -905 -14
-10 -5 -20 -36 -28 -82 -27 -160 -114 -373 -222 -545 -133 -213 -325 -394
-510 -480 -94 -44 -270 -80 -270 -55 0 4 16 54 36 112 33 97 82 294 99 400 5
25 10 56 13 70 2 14 7 96 9 182 4 120 1 175 -11 235 -23 111 -45 162 -70 168
-12 2 -107 7 -213 10 -105 3 -206 10 -225 16 -134 44 -227 128 -284 259 -18
44 -19 81 -22 1194 -2 1143 -2 1150 18 1210 49 142 122 217 264 274 37 15 139
17 1051 22 556 3 1360 4 1787 3 676 -1 784 -3 831 -17z m4467 -1630 c3 -681 2
-1026 -5 -1027 -5 0 -97 -1 -202 -2 l-193 -2 -1 713 c-1 391 -3 717 -4 722 -1
6 -3 12 -4 16 0 3 -16 -9 -33 -26 -48 -45 -182 -133 -271 -177 -43 -22 -76
-41 -73 -43 2 -3 -8 -5 -23 -6 -15 -1 -42 -8 -59 -16 -17 -9 -33 -13 -36 -10
-8 7 -8 346 0 366 3 9 9 14 13 12 11 -7 176 79 176 92 0 5 4 14 9 19 5 5 6 3
2 -4 -14 -25 12 -12 82 40 135 100 224 202 272 312 l22 50 161 -2 162 -2 5
-1025z m1380 1010 c203 -42 358 -190 434 -414 66 -193 94 -476 76 -777 -11
-182 -15 -212 -43 -341 -62 -278 -215 -462 -433 -518 -85 -22 -282 -23 -359
-1 -98 27 -174 73 -256 155 -80 79 -111 128 -146 225 -61 165 -83 344 -83 655
1 273 30 493 80 605 9 22 21 50 24 62 11 34 51 102 94 158 68 89 183 162 299
188 84 20 227 21 313 3z m1595 -1 c52 -9 188 -83 236 -127 122 -114 196 -273
235 -508 24 -146 25 -152 24 -370 -1 -215 -5 -325 -13 -350 -3 -8 -11 -51 -17
-95 -48 -320 -217 -545 -452 -600 -75 -18 -265 -20 -340 -4 -97 21 -226 94
-282 160 -112 133 -156 233 -193 449 -40 229 -39 555 2 825 48 313 200 534
419 605 21 7 62 16 90 21 51 8 235 4 291 -6z m-4745 -315 c3 0 4 -116 3 -257
-2 -194 0 -259 10 -265 6 -4 122 -8 257 -8 135 0 251 0 258 0 10 0 12 -41 10
-186 l-3 -187 -255 2 c-140 1 -261 -2 -268 -7 -10 -7 -12 -65 -10 -265 l3
-256 -178 -3 c-99 -2 -183 -1 -188 2 -5 3 -10 123 -11 265 l-3 260 -260 2
-260 1 -5 186 c-3 121 -1 186 5 186 6 1 125 2 265 3 l255 2 0 260 c0 143 3
262 7 265 4 4 313 4 368 0z m6122 -4584 c198 -38 380 -137 525 -285 68 -68
179 -235 202 -303 l17 -50 29 68 c97 234 325 443 565 518 30 10 69 22 85 27
69 22 252 33 352 21 110 -13 105 -12 188 -37 155 -46 308 -142 420 -264 22
-24 45 -49 50 -55 57 -59 145 -232 181 -356 25 -86 28 -111 28 -260 1 -102 -4
-180 -11 -205 -7 -22 -20 -67 -30 -100 -9 -33 -30 -86 -45 -118 -16 -32 -26
-63 -22 -68 3 -5 1 -8 -4 -7 -6 2 -34 -26 -62 -62 -66 -82 -162 -181 -281
-290 -51 -47 -97 -90 -103 -95 -134 -125 -604 -485 -1020 -779 -30 -22 -52
-44 -49 -49 3 -6 1 -7 -4 -4 -6 4 -73 -35 -149 -86 l-139 -93 -55 38 c-30 20
-64 44 -75 52 -11 8 -63 45 -115 82 -52 38 -99 72 -105 76 -53 44 -138 97
-147 92 -6 -4 -8 -3 -4 4 4 6 -28 37 -76 74 -46 34 -87 66 -93 70 -16 13 -168
130 -205 158 -19 14 -47 36 -64 50 -17 14 -40 32 -51 41 -405 330 -700 624
-793 790 -31 57 -79 206 -92 289 -15 93 -8 272 14 362 82 348 323 613 655 722
42 14 99 29 126 35 78 14 276 12 357 -3z m6042 -495 c14 -1 16 -4 7 -15 -8
-10 -11 -243 -11 -857 l0 -844 -170 -3 -170 -2 0 606 0 607 -32 -27 c-91 -72
-239 -156 -339 -191 -31 -11 -41 -12 -44 -2 -3 7 -6 76 -7 154 l-3 142 70 32
c183 84 332 216 400 357 l23 47 128 -2 c71 -1 137 -2 148 -2z m1199 -21 c208
-63 317 -225 373 -555 14 -83 16 -141 11 -345 -4 -135 -11 -267 -17 -295 -6
-27 -13 -59 -14 -70 -2 -11 -8 -33 -15 -48 -6 -16 -11 -35 -11 -44 0 -9 -19
-52 -42 -97 -59 -110 -142 -193 -233 -232 -67 -28 -76 -29 -221 -29 l-150 0
-80 39 c-165 82 -258 223 -300 456 -21 120 -24 162 -24 364 -1 158 3 215 26
379 16 115 87 273 157 350 42 47 141 117 164 117 6 0 24 5 40 11 15 7 44 14
63 16 19 2 35 5 36 6 11 11 181 -6 237 -23z m1287 10 c10 -5 27 -10 37 -10 34
0 136 -60 183 -108 76 -76 128 -177 165 -317 52 -201 47 -680 -9 -887 -42
-154 -144 -298 -253 -355 -84 -45 -133 -55 -257 -54 -126 2 -189 17 -269 65
-204 123 -290 362 -287 801 0 99 3 193 5 210 2 16 6 52 10 80 3 27 11 75 17
105 7 30 12 60 13 65 1 6 5 19 10 30 4 11 18 46 30 77 55 137 158 240 288 286
76 26 276 34 317 12z m-3973 -264 c2 -2 4 -101 3 -220 l-1 -216 224 0 c123 0
226 -2 228 -4 2 -2 3 -74 1 -160 l-3 -156 -219 0 c-219 0 -220 0 -225 -22 -3
-13 -5 -112 -3 -221 2 -108 1 -197 -2 -197 -12 -1 -296 -1 -305 -1 -6 1 -9 72
-7 198 2 109 0 208 -3 221 l-6 23 -214 -3 c-138 -2 -215 1 -216 7 0 9 0 290 1
308 0 4 99 7 220 7 l219 0 0 215 c0 119 2 219 5 223 4 7 295 6 303 -2z"/>
<path d="M27625 35722 c-7 -7 -6 -227 1 -246 6 -15 164 -16 1695 -16 l1690 0
-3 133 -3 132 -1687 1 c-928 1 -1690 -1 -1693 -4z"/>
<path d="M27636 35112 c-15 -3 -17 -17 -15 -123 2 -102 5 -122 20 -129 20 -11
1879 -13 1895 -2 13 9 18 221 6 240 -7 10 -197 13 -948 15 -517 1 -948 0 -958
-1z"/>
<path d="M29822 35101 c-10 -11 -13 -40 -11 -125 2 -62 8 -114 14 -118 12 -9
1130 -10 1163 -2 21 6 22 10 22 130 0 122 0 124 -22 124 -13 0 -277 2 -587 3
-474 2 -567 0 -579 -12z"/>
<path d="M27628 34582 c-2 -4 -5 -59 -7 -123 -3 -115 -3 -116 21 -122 12 -4
776 -7 1696 -7 l1673 0 -3 128 -3 127 -1687 2 c-928 2 -1689 -1 -1690 -5z"/>
<path d="M27637 34069 c-16 -10 -18 -24 -16 -130 l3 -119 31 -5 c16 -3 278 -5
580 -3 l550 3 0 130 0 130 -565 2 c-383 2 -571 -1 -583 -8z"/>
<path d="M29016 34072 c-3 -5 -4 -64 -3 -133 l2 -124 995 0 995 0 3 124 c2 92
-1 126 -10 132 -17 11 -1975 12 -1982 1z"/>
<path d="M36765 35282 c-52 -22 -76 -40 -101 -77 -71 -105 -102 -424 -82 -840
16 -327 85 -471 231 -483 45 -3 60 0 99 24 83 50 123 153 143 369 23 239 11
680 -20 769 -8 23 -15 48 -15 56 0 26 -47 116 -71 139 -55 52 -124 68 -184 43z"/>
<path d="M38347 35281 c-57 -20 -90 -49 -117 -101 -59 -115 -87 -381 -76 -718
9 -271 43 -441 103 -513 56 -66 144 -86 219 -50 78 38 116 113 149 296 21 116
27 653 8 705 -3 8 -5 29 -4 45 3 39 -34 177 -61 232 -30 60 -67 92 -125 107
-44 12 -56 11 -96 -3z"/>
<path d="M46974 29932 c-12 -4 -37 -18 -57 -32 -44 -31 -71 -105 -91 -260 -18
-127 -21 -431 -6 -561 17 -149 44 -226 96 -276 39 -38 50 -43 90 -43 121 0
181 95 204 321 13 130 12 404 -1 538 -20 203 -78 307 -177 317 -20 1 -46 0
-58 -4z"/>
<path d="M48272 29923 c-53 -26 -94 -95 -116 -196 -23 -103 -27 -566 -7 -710
30 -203 131 -299 253 -239 104 50 133 173 133 567 0 286 -4 339 -35 437 -41
132 -132 189 -228 141z"/>
<path d="M20320 33951 c-85 -26 -180 -111 -207 -183 -9 -25 -12 -379 -12
-1419 -1 -1544 -6 -1436 69 -1521 21 -24 62 -57 91 -73 l54 -30 202 -3 202 -3
7 28 c28 124 42 167 95 281 32 68 88 161 131 217 65 86 180 207 225 237 18 13
31 29 28 36 -3 7 -1 11 4 7 13 -7 82 35 75 46 -3 5 4 9 15 9 11 0 23 5 26 10
4 6 26 20 50 31 25 12 43 26 42 32 -1 6 12 11 29 13 17 1 42 8 55 17 13 8 43
21 66 28 23 6 40 15 38 19 -3 5 5 8 18 8 12 0 47 7 77 16 201 58 517 59 739 1
69 -18 273 -94 281 -106 3 -3 25 -16 50 -29 48 -24 171 -113 232 -168 21 -19
41 -31 46 -28 5 3 18 -1 28 -9 18 -13 18 -14 1 -15 -17 0 -16 -1 2 -21 11 -12
24 -18 30 -15 6 4 9 1 6 -6 -6 -16 70 -106 77 -92 3 5 3 3 2 -3 -2 -7 14 -39
35 -70 53 -81 97 -160 116 -213 10 -25 23 -59 31 -76 7 -17 21 -63 31 -103 15
-61 21 -73 42 -78 49 -12 215 36 216 63 1 5 6 19 13 30 6 12 8 25 4 29 -4 5 0
6 9 2 9 -3 22 0 28 6 8 8 11 8 11 -1 0 -7 -4 -12 -9 -12 -14 0 -41 -29 -41
-43 1 -25 78 75 96 125 18 51 19 97 22 1166 2 764 -1 1119 -8 1132 -7 14 -7
20 0 20 6 0 10 65 10 187 0 259 -19 356 -82 428 -35 39 -42 43 -64 35 -36 -14
-43 -12 -15 4 l24 14 -22 11 c-77 42 -40 41 -1706 40 -874 0 -1601 -4 -1615
-8z m1840 -656 c59 -8 119 -24 150 -40 14 -7 45 -21 70 -32 59 -27 148 -100
204 -168 24 -30 46 -52 49 -47 2 4 2 1 1 -5 -5 -19 28 -72 48 -79 30 -9 36
-64 36 -289 -1 -121 -4 -209 -8 -195 -6 23 -8 20 -23 -25 -52 -149 -175 -287
-323 -360 -109 -54 -187 -68 -329 -61 -209 11 -235 16 -235 42 0 8 -4 14 -8
14 -5 0 -35 16 -68 36 -32 20 -66 37 -76 36 -9 0 -24 8 -34 19 -21 23 -12 26
11 3 9 -9 18 -14 20 -12 3 2 -15 24 -38 49 -60 62 -99 115 -131 179 -31 62
-27 23 4 -44 l20 -41 -24 29 c-13 15 -25 23 -27 17 -2 -6 -4 24 -4 67 0 42 -4
86 -9 97 -14 31 -17 60 -15 184 0 66 6 123 12 134 9 15 9 21 0 24 -8 3 -5 11
8 24 15 15 19 28 15 52 -3 18 -3 24 2 15 6 -14 13 -5 37 40 33 62 40 73 100
140 24 27 33 43 22 39 -11 -4 -16 -3 -12 3 4 6 12 10 18 9 24 -3 34 2 63 26
36 31 154 89 214 105 50 14 177 29 200 24 8 -2 35 -6 60 -9z"/>
<path d="M17080 29240 l-405 -5 -67 -33 c-95 -46 -172 -139 -204 -242 -5 -14
-7 -794 -5 -1735 3 -1660 4 -1712 22 -1762 27 -69 76 -132 141 -176 85 -58
140 -67 390 -67 l217 1 16 57 c48 178 122 364 175 442 9 14 35 52 56 85 158
245 438 483 704 599 36 16 79 34 95 42 53 23 153 52 252 74 324 71 667 50 972
-59 353 -126 642 -354 860 -678 81 -121 145 -265 195 -438 l32 -110 95 1 c82
0 101 4 151 28 101 49 178 145 204 253 21 89 20 3322 -1 3424 -26 123 -111
226 -224 271 -45 18 -80 23 -181 25 -244 5 -3091 8 -3490 3z m1970 -845 c92
-22 204 -74 275 -128 160 -121 270 -284 310 -458 59 -261 2 -518 -158 -713
-67 -81 -98 -108 -186 -167 -230 -152 -538 -173 -788 -54 -100 47 -156 87
-238 170 -163 166 -251 418 -225 644 43 364 288 635 648 716 81 18 264 13 362
-10z"/>
<path d="M12660 23520 c-124 -13 -217 -78 -269 -189 l-26 -56 0 -1511 0 -1511
35 -69 c25 -48 51 -81 88 -111 80 -65 123 -74 358 -71 l199 3 6 25 c82 296
192 498 373 684 132 135 241 214 421 305 132 66 252 104 410 131 112 19 154
22 305 17 194 -6 310 -26 463 -79 382 -132 721 -442 866 -793 19 -44 38 -89
43 -100 5 -12 19 -59 32 -105 l22 -85 79 1 c133 2 234 65 292 181 l28 58 3
1507 c2 1496 2 1507 -18 1561 -27 73 -85 136 -162 178 l-63 34 -1710 1 c-940
1 -1739 -2 -1775 -6z m2012 -734 c136 -29 286 -118 381 -227 64 -73 132 -209
151 -301 20 -99 20 -239 0 -331 -27 -125 -86 -230 -184 -328 -129 -130 -243
-186 -430 -210 -194 -25 -415 46 -556 180 -56 53 -114 124 -114 140 0 6 -4 11
-9 11 -12 0 -67 126 -87 200 -12 44 -17 100 -16 175 1 209 75 382 220 517 133
124 292 186 477 187 55 0 130 -6 167 -13z"/>
<path d="M17155 19970 l-311 -5 -65 -32 c-79 -39 -140 -102 -177 -181 l-27
-57 -3 -1699 c-2 -1854 -5 -1761 53 -1861 52 -89 148 -155 254 -175 30 -5 149
-10 266 -10 l212 0 7 48 c10 80 63 230 125 357 184 376 522 676 934 829 437
163 963 135 1372 -72 250 -127 428 -274 615 -509 109 -137 251 -447 276 -603
l7 -40 86 0 c171 0 310 94 361 243 20 60 20 81 20 994 l0 933 -412 0 c-227 0
-530 3 -674 7 l-260 6 -13 -34 c-81 -213 -176 -341 -332 -444 -122 -82 -300
-135 -451 -135 -223 0 -473 116 -614 286 -202 242 -247 599 -110 879 102 208
293 365 521 426 65 18 108 22 228 22 l147 1 -2 410 -3 411 -40 7 c-45 8 -1508
7 -1990 -2z"/>
<path d="M39643 17888 c-13 -17 -33 -152 -26 -178 3 -11 0 -27 -7 -35 -9 -11
-13 -86 -14 -282 -1 -224 2 -283 18 -363 19 -98 43 -170 57 -170 19 0 40 34
34 54 -4 12 -17 80 -30 151 -20 104 -24 164 -24 300 0 94 4 206 10 250 25 214
28 260 17 272 -13 16 -23 16 -35 1z"/>
<path d="M39385 17857 c-24 -37 -35 -148 -42 -422 -6 -269 1 -369 34 -517 18
-81 37 -103 61 -71 14 20 9 71 -15 138 -8 22 -19 115 -25 208 -11 165 -4 354
22 586 5 47 7 88 4 93 -9 14 -23 9 -39 -15z"/>
<path d="M12597 15726 c-96 -26 -183 -111 -212 -209 -15 -47 -16 -189 -10
-1412 4 -865 10 -1375 16 -1400 16 -62 70 -128 136 -166 l58 -34 193 -3 c129
-2 192 0 192 7 0 6 6 8 14 5 10 -4 17 10 26 48 7 29 18 59 24 67 8 11 8 15 -1
18 -7 3 -13 12 -12 21 0 11 2 12 6 4 6 -15 23 -6 23 14 0 8 20 57 45 110 48
101 51 109 34 99 -6 -4 1 16 15 43 14 28 31 54 37 58 6 3 -1 -14 -16 -40 -45
-76 -21 -64 30 16 26 40 51 74 56 76 5 2 9 8 9 12 0 5 37 47 83 93 87 90 236
208 296 235 20 9 38 20 41 24 9 12 127 63 220 96 47 16 133 37 190 46 57 10
107 19 112 22 19 12 327 2 348 -11 6 -4 54 -8 106 -10 95 -4 204 -28 204 -45
0 -5 -24 -1 -52 9 -29 11 -73 22 -98 25 -50 6 -36 0 65 -28 33 -10 74 -23 90
-31 135 -60 202 -96 280 -150 86 -60 104 -74 187 -152 21 -19 43 -31 49 -27 6
3 22 -6 35 -22 29 -35 31 -51 4 -24 -11 11 -20 25 -20 30 0 6 -4 10 -10 10
-17 0 -12 -9 43 -78 62 -77 141 -199 152 -232 6 -18 9 -20 17 -9 7 11 8 9 4
-5 -4 -10 -2 -24 3 -30 12 -15 65 -168 80 -231 l12 -51 76 -2 c86 -2 126 12
189 63 53 44 107 147 99 187 -4 17 -2 28 4 28 8 0 11 196 11 665 0 445 -3 665
-10 665 -7 0 -10 231 -10 700 1 673 0 702 -19 743 -10 23 -30 54 -43 68 -32
35 -118 92 -126 84 -8 -8 26 -35 45 -35 7 0 10 -7 7 -17 -5 -15 -4 -15 5 -3 5
8 13 11 18 7 12 -13 -16 -24 -45 -19 -23 5 -24 6 -7 12 18 6 17 9 -12 24 -21
10 -30 21 -27 31 4 9 -1 14 -13 14 -10 0 -659 0 -1442 0 -784 0 -1436 -2
-1450 -4 -23 -5 -23 -4 -6 4 32 15 -291 12 -348 -3z m3453 -926 c0 -447 -3
-680 -10 -680 -7 0 -10 213 -10 619 0 546 4 741 16 741 2 0 4 -306 4 -680z
m-1492 244 c42 -14 80 -30 83 -36 4 -6 22 -11 40 -12 19 -1 34 -7 34 -14 0 -6
11 -19 25 -29 14 -9 33 -28 44 -41 10 -13 21 -21 24 -18 2 3 -1 13 -9 22 -13
16 -12 16 8 4 12 -8 19 -18 16 -22 -8 -14 17 -37 33 -31 8 3 14 10 14 15 0 6
-7 8 -14 5 -10 -4 -13 -1 -10 8 3 7 11 16 18 18 17 7 14 -42 -3 -52 -12 -8 -9
-15 13 -42 78 -93 138 -283 132 -420 -7 -141 -52 -270 -131 -373 -36 -47 -43
-72 -11 -41 9 9 16 12 16 7 0 -17 -27 -33 -44 -26 -11 4 -16 1 -16 -10 0 -9
-4 -16 -10 -16 -18 0 -96 -66 -92 -78 2 -7 -2 -10 -12 -6 -9 3 -23 1 -32 -6
-13 -11 -11 -15 13 -31 15 -11 24 -19 20 -19 -4 0 -18 7 -31 16 -23 14 -30 13
-108 -14 -73 -26 -98 -30 -205 -31 -99 -2 -135 2 -189 19 -134 41 -196 76
-281 157 -14 13 -30 20 -41 17 -11 -4 -13 -3 -5 3 9 7 3 22 -23 58 -92 127
-136 274 -129 428 4 78 39 234 55 247 14 11 59 102 56 113 -1 7 -1 8 2 4 2 -5
12 -1 22 8 14 13 18 27 15 58 -3 29 -2 36 4 22 5 -11 6 -27 3 -35 -5 -13 32
15 81 62 10 10 31 25 47 33 38 19 39 29 3 21 -23 -5 -25 -4 -10 5 10 6 25 8
33 5 8 -3 33 4 56 16 80 42 155 57 291 57 113 1 138 -2 205 -25z"/>
<path d="M20429 14111 c-83 -17 -171 -91 -212 -180 l-22 -46 0 -1385 0 -1385
26 -55 c37 -79 72 -115 142 -149 60 -29 68 -30 258 -36 l196 -7 7 36 c12 65
56 189 98 276 36 76 93 176 108 190 3 3 24 30 47 60 196 260 527 455 858 506
132 21 447 15 550 -10 293 -72 562 -233 737 -441 79 -94 74 -88 117 -153 84
-127 156 -298 176 -416 l6 -39 77 6 c73 5 136 24 169 50 67 54 101 106 122
187 9 34 11 380 9 1390 -2 740 -7 1358 -11 1374 -24 91 -85 162 -175 204 l-57
27 -1595 1 c-877 1 -1611 -1 -1631 -5z m1911 -678 c200 -48 376 -209 447 -410
26 -72 28 -89 28 -228 -1 -137 -3 -156 -27 -217 -80 -209 -231 -350 -438 -409
-80 -23 -252 -28 -330 -9 -217 53 -396 215 -472 428 -28 80 -35 261 -14 360
53 253 277 459 541 501 66 10 184 3 265 -16z"/>
</g>
</svg>
