<?xml version="1.0" standalone="no"?>
<!DOCTYPE svg PUBLIC "-//W3C//DTD SVG 20010904//EN"
 "http://www.w3.org/TR/2001/REC-SVG-20010904/DTD/svg10.dtd">
<svg version="1.0" xmlns="http://www.w3.org/2000/svg"
 width="10907.000000pt" height="6168.000000pt" viewBox="0 0 10907.000000 6168.000000"
 preserveAspectRatio="xMidYMid meet">
<metadata>
Created by potrace 1.16, written by Peter Selinger 2001-2019
</metadata>
<g transform="translate(0.000000,6168.000000) scale(0.100000,-0.100000)"
fill="#000000" stroke="none">
<path d="M27100 56194 c-83 -22 -168 -65 -232 -117 -69 -57 -150 -175 -180
-265 l-23 -67 -3 -5150 -2 -5150 36 36 36 36 3 174 c5 245 15 547 20 594 2 22
7 67 10 100 10 102 20 120 73 143 55 23 110 35 258 57 167 25 161 20 252 184
5 8 13 16 18 18 19 6 104 -57 131 -98 39 -60 39 -144 0 -211 -33 -56 -133
-149 -205 -191 l-54 -30 6 -211 c26 -939 26 -944 -1 -1017 -56 -152 -176 -313
-405 -541 l-178 -177 0 -2201 c0 -2092 -1 -2201 -17 -2196 -110 32 -529 122
-843 180 -879 163 -2060 325 -3210 441 -140 14 -274 28 -296 31 l-42 5 1 147
1 147 -120 5 c-119 5 -119 5 -119 30 0 25 -1 25 -90 25 -89 0 -90 0 -90 -25
l0 -25 -627 -3 -628 -2 9 22 c5 13 66 170 135 350 l126 328 -29 57 c-56 113
-134 300 -181 439 -148 434 -187 735 -145 1129 26 253 15 710 -26 985 -6 41
-13 91 -15 110 -36 266 -136 668 -220 883 -55 140 -126 284 -183 369 l-52 77
15 73 c37 178 47 497 18 569 -7 18 -76 70 -222 168 -116 77 -214 141 -218 141
-13 -1 -292 -456 -292 -477 0 -33 48 -179 85 -259 44 -97 104 -183 164 -235
l50 -44 25 -170 c105 -710 133 -1419 71 -1770 -31 -173 -105 -397 -244 -739
-243 -596 -303 -811 -305 -1091 -1 -148 12 -239 47 -342 19 -55 48 -92 237
-310 118 -136 217 -251 218 -255 2 -4 -98 -8 -222 -8 l-226 0 0 35 0 35 -90 0
-90 0 0 -35 0 -35 -451 0 -452 0 39 -31 c129 -101 250 -247 259 -314 3 -25
-21 -55 -51 -65 -58 -19 -102 2 -266 126 -78 58 -189 119 -208 112 -7 -2 23
-35 66 -73 216 -194 333 -350 364 -490 18 -78 -38 -135 -134 -135 -24 0 -67
-5 -95 -12 -37 -8 -67 -8 -118 0 -67 11 -104 23 -313 96 -121 43 -173 51 -262
42 l-65 -7 -26 -142 c-40 -214 -63 -374 -102 -702 -12 -101 -45 -528 -55 -695
-5 -102 -12 -219 -15 -260 -27 -429 -27 -2242 0 -2785 2 -44 7 -163 10 -265 3
-102 8 -225 10 -275 2 -49 7 -151 10 -225 3 -74 8 -178 10 -230 3 -52 9 -187
15 -300 14 -295 63 -1166 75 -1340 3 -41 16 -250 30 -465 24 -362 73 -1097
130 -1912 l23 -342 -29 -116 c-16 -64 -27 -120 -24 -125 3 -4 2 -10 -3 -12 -8
-3 -195 -759 -196 -793 -1 -11 -3 -22 -6 -25 -7 -7 -173 -689 -174 -715 -1
-11 -5 -23 -9 -26 -4 -3 -9 -21 -11 -40 -2 -19 -6 -41 -10 -49 -15 -38 -185
-753 -181 -760 3 -5 2 -10 -3 -12 -8 -3 -175 -679 -176 -713 -1 -11 -5 -23 -9
-26 -4 -3 -9 -21 -11 -41 -2 -19 -5 -39 -8 -44 -8 -13 -181 -726 -182 -749 -1
-11 -3 -22 -6 -25 -7 -7 -173 -689 -174 -715 -1 -11 -5 -23 -9 -26 -4 -3 -9
-21 -11 -41 -2 -19 -5 -39 -8 -44 -5 -8 -180 -727 -249 -1024 -17 -74 -71
-297 -119 -495 -49 -198 -98 -400 -110 -450 -21 -88 -109 -450 -250 -1025 -38
-157 -101 -415 -140 -575 -159 -652 -186 -766 -275 -1130 -52 -209 -103 -420
-115 -470 -12 -49 -48 -198 -81 -330 -33 -132 -62 -250 -65 -262 -4 -23 -243
-1006 -344 -1418 -34 -137 -74 -304 -90 -370 -16 -66 -65 -268 -109 -450 -45
-181 -124 -508 -177 -725 -53 -217 -128 -521 -166 -675 -81 -329 -68 -274
-112 -460 -19 -82 -78 -325 -131 -540 -52 -214 -115 -473 -140 -575 -25 -102
-67 -275 -94 -385 -27 -110 -72 -297 -101 -415 -29 -118 -74 -305 -101 -415
-27 -110 -69 -283 -94 -385 -25 -102 -90 -369 -145 -595 -129 -527 -192 -787
-246 -1010 -24 -99 -89 -367 -145 -595 -56 -228 -143 -586 -194 -795 -51 -209
-147 -603 -213 -875 -67 -272 -140 -571 -162 -665 -23 -93 -81 -332 -129 -530
-99 -405 -180 -733 -276 -1130 -36 -148 -97 -398 -135 -555 -39 -157 -106
-433 -150 -615 -45 -181 -112 -458 -150 -615 -39 -157 -104 -424 -145 -595
-42 -170 -107 -438 -145 -595 -78 -316 -237 -972 -245 -1008 l-5 -22 572 2
572 3 223 915 c123 503 301 1237 397 1630 96 393 275 1125 397 1625 121 501
223 914 226 918 3 4 750 7 1661 6 912 -1 1663 -1 1670 0 9 1 12 98 12 451 l0
450 -1560 0 c-858 0 -1560 4 -1560 8 0 7 517 2133 1190 4892 33 135 104 423
157 640 l98 395 830 2 c457 1 833 2 838 2 4 1 7 204 7 451 0 248 -3 450 -7
450 -5 0 -331 1 -726 1 l-719 1 7 37 c7 37 41 180 160 666 179 734 214 879
307 1255 55 223 101 412 103 420 17 74 149 619 294 1215 91 371 244 999 330
1350 l48 200 684 2 c376 2 2221 -1 4100 -5 l3416 -7 -53 -218 c-30 -121 -52
-223 -49 -227 3 -5 2 -10 -3 -12 -4 -1 -45 -158 -90 -348 -46 -190 -94 -388
-107 -440 -13 -52 -26 -106 -29 -120 -2 -14 -39 -164 -81 -335 -75 -304 -143
-583 -170 -698 l-13 -57 576 2 576 3 17 70 c9 39 36 149 59 245 53 223 194
800 221 905 33 130 276 1125 469 1915 98 404 278 1142 400 1640 121 498 293
1205 383 1571 l162 665 3 -3508 2 -3509 570 2 c520 1 570 3 571 18 0 9 1 2658
2 5886 l2 5870 122 490 c109 442 455 1855 619 2535 36 146 67 273 70 284 6 18
17 18 235 12 157 -4 229 -3 229 5 0 45 -183 239 -295 314 -33 21 -63 42 -68
45 -7 6 10 82 137 600 154 633 354 1451 391 1605 24 99 112 459 195 800 83
341 229 942 325 1335 96 393 201 827 235 965 34 137 124 506 200 820 76 313
162 665 190 780 28 116 118 485 200 820 82 336 157 642 167 680 17 68 18 -163
23 -8075 l5 -8145 28 -90 c97 -310 322 -535 632 -632 l90 -28 7065 0 7065 0
78 23 c355 103 610 383 672 739 13 75 15 767 15 5699 l0 5614 -3027 1 c-1666
0 -3041 3 -3058 5 -16 2 -64 9 -106 14 -261 36 -574 158 -804 313 -580 392
-914 1083 -857 1775 79 949 801 1694 1747 1802 60 6 1105 10 3098 10 l3007 0
-3 3598 -2 3597 -23 80 c-107 376 -417 642 -797 685 -73 8 -1995 10 -7070 8
l-6970 -3 -85 -24 c-178 -49 -322 -134 -442 -259 -117 -122 -186 -243 -231
-402 -21 -72 -21 -100 -27 -815 l-6 -740 -96 -385 c-52 -212 -119 -479 -147
-595 -28 -115 -96 -394 -151 -620 -55 -225 -120 -493 -145 -595 -25 -102 -106
-435 -180 -740 -75 -305 -154 -629 -176 -720 -22 -91 -78 -320 -124 -510 -95
-385 -227 -927 -275 -1125 -17 -71 -69 -285 -116 -475 -46 -190 -127 -523
-180 -740 -53 -217 -116 -474 -139 -570 l-43 -175 -601 -3 -601 -2 0 7940 0
7940 30522 -2 30523 -3 0 -1166 0 -1167 -69 -7 c-463 -45 -948 -435 -1071
-860 -18 -63 -37 -105 -66 -143 -125 -164 -276 -260 -558 -352 l-146 -48 -3
924 -2 924 -28600 0 -28600 0 0 -1230 0 -1230 28388 0 28389 0 12 -52 c17 -80
55 -152 108 -209 70 -75 121 -95 137 -53 9 22 -3 42 -39 64 -58 36 -119 133
-131 209 l-7 41 92 0 91 0 0 -49 c0 -28 11 -86 25 -129 23 -73 39 -102 154
-271 103 -152 81 -411 -46 -552 -43 -47 -79 -68 -135 -77 -81 -14 -78 -79 3
-74 99 6 200 85 260 204 45 89 62 176 56 293 -5 123 -33 196 -113 305 -31 41
-67 96 -80 122 -27 52 -51 146 -50 193 1 28 4 30 44 33 l42 3 0 109 c0 103 1
111 25 134 53 53 104 82 297 167 130 57 207 97 271 141 l59 40 -33 -62 c-46
-88 -127 -165 -261 -254 -73 -48 -128 -92 -147 -118 -110 -150 -105 -377 13
-643 76 -170 52 -363 -74 -602 -27 -53 -50 -98 -50 -100 0 -2 318 -2 708 -1
l707 3 17 85 c17 85 22 117 33 220 3 30 8 71 10 90 2 19 7 121 10 225 l7 190
-21 -33 c-47 -73 -157 -67 -197 10 -19 36 -13 91 12 119 14 15 14 19 3 23 -8
2 -30 9 -49 15 -81 25 -143 104 -155 197 -29 217 228 349 401 207 142 -118
203 -153 267 -155 80 -1 143 53 172 148 22 71 14 291 -15 404 -28 110 -34 197
-22 288 6 41 12 75 14 77 2 2 48 11 103 20 55 8 143 27 195 41 53 15 115 25
140 24 190 -11 298 16 428 107 105 74 187 198 212 320 6 29 13 53 15 53 2 0
37 -51 78 -112 107 -159 171 -305 203 -458 12 -58 15 -1155 3 -1255 -46 -403
-401 -725 -798 -725 -80 0 -73 12 -91 -145 -30 -246 40 -386 225 -449 28 -9
104 -23 170 -31 66 -8 130 -17 143 -20 l22 -5 0 260 0 260 538 2 c506 3 535 4
507 20 -87 47 -147 146 -153 248 -5 91 23 161 96 242 32 35 67 79 79 98 77
127 61 299 -41 438 -51 69 -100 110 -216 183 -223 139 -321 239 -360 367 -29
94 -27 125 12 156 l33 25 10 -47 c23 -99 106 -228 194 -301 73 -60 131 -96
258 -162 148 -77 193 -108 269 -184 69 -68 116 -152 133 -235 10 -52 10 -70
-5 -145 -11 -54 -52 -121 -118 -193 -87 -95 -109 -140 -110 -222 -1 -104 60
-214 150 -266 45 -26 74 -30 92 -12 22 22 13 37 -41 71 -96 62 -145 169 -118
259 8 26 36 65 76 108 113 121 156 213 156 338 0 221 -149 402 -459 556 -224
111 -340 222 -390 372 -27 81 -34 131 -21 156 13 25 21 17 44 -47 54 -150 199
-274 444 -380 164 -71 255 -130 356 -230 69 -68 100 -107 125 -159 56 -114 53
-224 -10 -317 -35 -52 -39 -85 -9 -94 38 -12 96 62 125 161 39 135 -13 293
-141 432 -108 116 -221 192 -411 275 -262 115 -378 222 -424 392 -16 56 -17
115 -5 260 17 217 -67 438 -234 617 -112 119 -236 201 -373 244 l-58 18 0
1580 c0 1350 -2 1589 -15 1636 -54 202 -223 367 -428 415 -54 13 -3818 15
-31222 14 -27363 0 -31167 -2 -31215 -15z m58950 -4234 l0 -630 -630 0 -630 0
0 630 0 630 630 0 630 0 0 -630z m-2228 377 l188 188 110 -110 110 -110 -187
-187 -188 -188 190 -190 190 -190 -113 -112 -112 -113 -190 190 -190 190 -188
-188 -187 -187 -110 110 -110 110 188 188 187 187 -190 190 -190 190 112 112
113 113 190 -190 190 -190 187 187z m6105 -15 c18 -24 21 -39 17 -87 -13 -163
-112 -313 -253 -385 -53 -27 -127 -50 -161 -50 -20 0 -12 8 40 42 95 61 208
179 252 263 37 71 68 171 68 219 0 34 11 33 37 -2z m-58968 -12 c210 -40 358
-246 323 -449 -39 -219 -249 -372 -455 -331 -175 34 -301 162 -328 333 -27
163 68 341 217 412 88 42 157 52 243 35z m1633 -1 c123 -26 233 -113 286 -227
24 -50 27 -69 27 -162 0 -93 -3 -112 -27 -162 -75 -160 -258 -259 -424 -229
-159 30 -279 140 -320 296 -64 239 123 484 378 494 15 1 51 -4 80 -10z m1695
-20 c259 -98 336 -428 147 -638 -83 -92 -228 -143 -348 -122 -187 33 -321 178
-333 361 -20 293 259 501 534 399z m48043 -654 l0 -155 -695 0 -695 0 0 155 0
155 695 0 695 0 0 -155z m5327 -67 c-12 -86 -30 -120 -94 -178 -75 -68 -162
-118 -369 -211 -96 -44 -195 -93 -220 -110 l-44 -30 0 99 c0 86 2 101 18 107
9 3 73 25 142 47 247 80 409 168 520 282 30 31 55 56 56 56 0 0 -3 -28 -9 -62z
m1236 -588 c-12 -152 -63 -211 -149 -175 -67 28 -70 35 -23 62 73 41 121 114
151 228 l13 50 6 -60 c3 -33 4 -80 2 -105z m-53843 -4625 c809 -95 1524 -498
2026 -1145 328 -421 548 -973 601 -1506 10 -99 10 -505 1 -600 -60 -580 -273
-1103 -639 -1565 -102 -129 -332 -360 -459 -460 -414 -329 -876 -535 -1386
-618 -291 -47 -623 -49 -923 -5 -534 78 -1063 318 -1481 672 -105 89 -308 299
-398 410 -525 656 -750 1521 -611 2352 165 984 823 1831 1734 2231 287 126
635 216 930 242 118 10 492 6 605 -8z m9142 -108 c47 -24 84 -61 112 -112 20
-39 21 -50 21 -435 0 -442 1 -434 -73 -506 -71 -69 127 -64 -2638 -62 l-2501
3 -49 30 c-30 19 -60 49 -79 79 l-30 49 0 406 0 406 28 47 c31 53 71 85 130
104 34 10 509 12 2542 11 2407 -2 2501 -3 2537 -20z m6 -2850 c48 -26 98 -81
114 -125 10 -28 13 -129 13 -427 0 -381 -1 -391 -22 -430 -25 -47 -64 -85
-113 -111 -34 -18 -115 -19 -2545 -19 -2042 0 -2517 2 -2547 13 -20 7 -55 31
-77 53 -69 69 -71 85 -71 498 0 214 4 381 10 402 13 45 47 96 81 121 67 50
-74 47 2614 45 2406 -2 2511 -3 2543 -20z m-15418 -5110 c0 -2 -41 -170 -90
-373 -50 -203 -117 -479 -150 -614 -60 -249 -116 -480 -235 -965 -36 -148 -93
-382 -127 -520 -33 -137 -102 -421 -153 -630 -51 -209 -117 -477 -145 -595
-29 -118 -58 -235 -65 -260 -11 -38 -14 276 -14 1951 -1 1098 2 1999 6 2002 6
7 973 10 973 4z m-6042 -639 c2020 -240 2133 -254 2137 -273 2 -11 95 -695
205 -1520 110 -825 202 -1504 204 -1510 3 -10 61 -8 430 10 77 4 180 8 230 10
50 2 156 7 236 10 80 4 188 8 241 10 l96 3 -30 -57 c-46 -88 -86 -219 -99
-325 -17 -133 -26 -141 -156 -140 -79 2 -119 8 -217 37 -66 20 -152 49 -191
65 l-72 29 -25 -86 c-50 -164 -71 -278 -83 -436 -9 -118 -9 -406 1 -482 l6
-53 507 -3 c279 -1 -1015 -3 -2875 -5 -2358 -1 -3383 1 -3383 9 0 5 38 317 85
692 69 549 93 715 125 853 182 792 337 1781 420 2689 25 277 50 615 50 678 0
30 4 47 13 48 6 0 972 -114 2145 -253z m21430 -1953 c60 -18 124 -78 144 -134
10 -27 13 -133 13 -426 0 -348 -2 -394 -17 -426 -22 -47 -66 -91 -115 -115
-37 -19 -165 -19 -5983 -19 -4814 0 -5952 2 -5981 13 -44 15 -101 70 -126 121
-16 32 -18 72 -21 409 -3 318 -1 381 13 428 20 70 75 127 142 148 42 13 783
15 5964 15 5269 1 5921 -1 5967 -14z m25 -3551 c45 -23 85 -62 110 -109 21
-39 22 -49 22 -435 0 -395 0 -395 -24 -443 -25 -52 -71 -92 -128 -113 -56 -20
-11880 -20 -11936 0 -57 21 -103 61 -128 113 -24 48 -24 48 -24 443 0 386 1
396 22 435 24 45 64 85 108 108 27 15 580 16 5988 17 5464 0 5961 -1 5990 -16z
m-17533 -1335 c0 -1048 -2 -1209 -15 -1260 -9 -33 -13 -64 -10 -69 3 -4 2 -10
-3 -12 -8 -3 -175 -679 -176 -713 -1 -11 -3 -22 -6 -25 -7 -6 -203 -809 -204
-835 -1 -11 -3 -22 -6 -25 -7 -7 -173 -689 -174 -715 -1 -11 -5 -23 -9 -26 -4
-3 -9 -21 -11 -41 -2 -19 -5 -39 -8 -44 -3 -5 -14 -44 -24 -86 l-18 -78 -2507
0 -2508 0 -30 44 c-74 107 -224 233 -386 324 -166 94 -482 215 -785 302 -122
35 -168 58 -90 45 71 -12 85 -11 85 5 0 37 -119 54 -175 25 -27 -14 -38 -12
-192 34 -191 58 -279 89 -257 90 9 1 31 -4 49 -10 26 -9 34 -9 41 2 18 30 -17
44 -114 44 -91 0 -94 1 -165 43 -70 42 -113 86 -126 129 -7 21 -5 21 26 12 47
-13 58 -11 58 10 0 19 -35 36 -89 43 -19 2 -28 14 -42 53 -32 92 -54 85 246
85 l264 0 6 33 c6 38 475 3792 475 3807 0 7 1112 10 3440 10 l3440 0 0 -1201z
m17524 -2203 c52 -22 103 -73 123 -124 16 -42 18 -84 18 -427 0 -344 -2 -384
-18 -427 -22 -56 -79 -110 -136 -126 -61 -19 -11900 -17 -11944 1 -47 20 -95
64 -120 111 -22 40 -22 48 -22 441 0 393 0 401 22 441 24 46 72 90 118 110 46
20 11911 20 11959 0z m-25848 -484 c-18 -50 -44 -174 -50 -237 -6 -66 -12 -80
-42 -94 -73 -33 -207 -17 -407 49 -199 66 -178 46 -203 193 l-21 127 368 0
368 0 -13 -38z m7430 -2179 c-26 -93 -115 -477 -111 -483 3 -5 2 -10 -3 -12
-8 -3 -175 -679 -176 -713 -1 -11 -3 -22 -6 -25 -7 -6 -203 -809 -204 -835 -1
-11 -3 -22 -6 -25 -7 -7 -173 -689 -174 -715 -1 -11 -3 -22 -6 -25 -7 -6 -203
-809 -204 -835 -1 -11 -3 -22 -6 -25 -7 -7 -173 -689 -174 -715 -1 -11 -4 -22
-7 -25 -3 -3 -21 -70 -40 -150 l-34 -145 -4100 -7 c-2254 -4 -4100 -6 -4102
-4 -2 1 26 124 62 272 37 148 107 436 156 639 50 204 106 431 124 505 52 205
410 1665 627 2553 l192 787 4099 0 c3898 0 4098 -1 4093 -17z"/>
<path d="M85040 51960 l0 -380 380 0 380 0 0 380 0 380 -380 0 -380 0 0 -380z"/>
<path d="M89235 51503 c-89 -18 -225 -73 -239 -95 -18 -29 1 -31 56 -5 129 60
312 95 418 78 30 -5 58 -7 63 -4 18 11 4 31 -24 37 -54 11 -201 5 -274 -11z"/>
<path d="M89926 51318 c-38 -58 -93 -272 -102 -393 -10 -146 13 -173 153 -182
109 -7 109 -7 -8 -103 -69 -57 -99 -100 -69 -100 12 0 146 113 187 159 57 63
47 73 -94 82 -59 3 -109 12 -118 19 -36 30 -6 260 56 436 20 56 27 90 21 96
-7 7 -16 2 -26 -14z"/>
<path d="M89287 51200 c-87 -103 -26 -340 77 -300 55 20 88 147 62 234 -29 95
-90 124 -139 66z"/>
<path d="M90003 51188 c-28 -32 -40 -56 -48 -105 -16 -101 43 -223 101 -209
53 14 85 73 86 159 2 77 -16 130 -49 157 -34 26 -65 25 -90 -2z"/>
<path d="M90016 50318 c-65 -47 -134 -63 -276 -62 -133 1 -214 16 -302 58 -27
13 -48 20 -48 16 0 -19 94 -133 140 -169 107 -85 254 -109 361 -59 47 22 140
98 138 113 0 3 7 25 16 49 9 24 15 52 13 63 -3 19 -5 18 -42 -9z"/>
<path d="M20153 50065 c-74 -16 -148 -54 -207 -107 -42 -36 -46 -37 -232 -68
-594 -97 -938 -221 -1107 -399 -108 -113 -133 -214 -123 -496 5 -167 31 -402
63 -581 l16 -91 53 -6 c70 -7 131 -41 169 -95 28 -39 33 -42 68 -38 66 7 110
63 128 160 8 43 4 92 -20 262 -46 331 -45 305 -15 294 38 -15 92 -12 130 6 39
19 71 76 80 147 7 46 7 46 33 33 45 -24 222 -75 321 -93 66 -12 146 -17 265
-17 194 0 291 16 450 70 55 19 107 37 117 40 14 5 17 -6 24 -73 4 -43 7 -146
8 -230 l0 -152 29 17 c49 29 135 129 166 196 43 89 58 194 43 293 l-12 77 34
35 c82 86 128 203 128 323 0 89 -6 124 -35 193 -64 155 -197 267 -354 300 -83
18 -138 18 -220 0z"/>
<path d="M20133 48840 c-29 -17 -60 -57 -51 -65 2 -2 30 -6 63 -10 33 -4 87
-11 120 -16 78 -12 85 -11 85 3 0 20 -43 75 -71 92 -37 22 -107 20 -146 -4z"/>
<path d="M19474 48840 c-75 -15 -184 -82 -184 -111 0 -7 10 -9 28 -4 57 14
201 34 292 41 52 4 97 8 99 11 9 7 -24 30 -64 46 -55 21 -121 27 -171 17z"/>
<path d="M19969 48728 c-8 -29 -13 -87 -13 -129 1 -99 14 -122 165 -281 157
-167 181 -195 171 -202 -5 -3 -65 -8 -133 -11 -156 -8 -177 -12 -158 -29 11
-10 45 -11 147 -5 166 10 192 15 192 39 0 17 -29 52 -156 189 l-42 44 29 24
c51 43 64 146 28 219 -34 72 -84 71 -119 -2 -16 -33 -21 -58 -18 -99 1 -30 1
-55 0 -55 -7 0 -42 45 -56 70 -26 47 -26 127 0 248 5 25 3 32 -9 32 -10 0 -20
-18 -28 -52z"/>
<path d="M19503 48605 c-69 -49 -52 -252 23 -271 83 -21 123 171 53 260 -23
30 -45 33 -76 11z"/>
<path d="M56631 48164 c-155 -41 -283 -167 -331 -323 -20 -62 -20 -113 -20
-3650 0 -2962 3 -3595 14 -3636 42 -158 161 -285 319 -339 l62 -21 13035 -2
c9178 -2 13050 1 13085 8 75 16 185 73 234 121 64 62 116 147 137 225 18 66
19 182 19 3643 l-1 3575 -21 70 c-52 165 -178 288 -338 330 -53 13 -1415 15
-13100 14 -11362 0 -13047 -2 -13094 -15z m1951 -1906 c117 -58 200 -160 232
-283 58 -220 -60 -444 -274 -522 -119 -44 -227 -37 -346 22 -268 132 -326 484
-114 696 96 97 179 129 326 126 94 -2 106 -5 176 -39z m2839 4 c134 -64 224
-181 250 -326 53 -288 -207 -552 -499 -506 -213 34 -371 220 -372 436 0 187
119 350 305 417 38 13 73 17 150 14 88 -3 108 -7 166 -35z m15922 -256 c54
-27 96 -72 124 -132 l24 -52 -3 -459 c-3 -429 -4 -460 -22 -497 -27 -55 -91
-113 -144 -131 -41 -13 -661 -15 -5952 -15 -5332 0 -5911 2 -5952 16 -58 19
-114 73 -144 138 l-24 51 0 450 0 450 24 50 c34 73 82 118 151 143 21 7 1785
10 5955 9 5796 -2 5926 -2 5963 -21z m3466 -2142 c39 -11 67 -29 102 -64 80
-80 80 -84 77 -601 -3 -436 -3 -445 -25 -485 -30 -56 -79 -103 -133 -128 l-45
-21 -7670 0 -7670 0 -55 30 c-62 34 -114 97 -130 155 -7 26 -10 195 -8 492 3
446 3 454 25 494 29 55 96 111 153 129 38 12 1175 14 7686 14 6926 1 7645 0
7693 -15z m-22355 -414 c127 -21 262 -113 319 -218 122 -225 37 -497 -192
-610 -73 -36 -77 -37 -190 -37 -110 0 -120 2 -184 32 -119 56 -217 178 -246
304 -60 260 140 517 419 538 8 0 41 -3 74 -9z m2851 0 c238 -39 407 -269 367
-502 -25 -146 -114 -263 -250 -330 -64 -31 -72 -33 -182 -33 -109 0 -119 2
-182 32 -277 131 -345 479 -136 700 82 86 175 129 308 141 8 1 42 -3 75 -8z"/>
<path d="M19490 47929 c0 -16 81 -48 182 -71 151 -34 465 -30 514 7 32 23 12
25 -81 8 -157 -27 -388 -7 -542 47 -66 23 -73 24 -73 9z"/>
<path d="M21566 47079 c-36 -149 -64 -275 -61 -279 3 -5 2 -10 -3 -12 -12 -5
-102 -383 -91 -386 49 -18 409 -263 794 -541 99 -71 183 -127 186 -123 4 4 84
327 179 717 94 391 182 752 195 803 l23 92 -578 0 -578 0 -66 -271z"/>
<path d="M92193 45993 c-524 -2 -953 -7 -953 -11 0 -9 16 58 -375 -1602 -169
-718 -362 -1539 -429 -1825 l-122 -520 -890 -2 c-489 -1 -960 -2 -1046 -3
l-158 0 0 -175 0 -175 208 0 c323 0 7099 0 7170 0 l62 0 0 175 c0 148 2 175
15 175 8 0 17 10 20 23 152 631 923 3933 919 3936 -6 6 -2767 8 -4421 4z
m1757 -1903 c0 -200 -2 -224 -20 -259 -26 -51 -82 -97 -136 -110 -27 -7 -184
-11 -428 -11 l-386 0 0 215 c0 235 5 262 58 319 61 65 65 66 510 66 l402 0 0
-220z"/>
<path d="M87046 42587 c-54 -166 -99 -306 -100 -312 -1 -10 290 -15 342 -6
l22 3 -2 306 -3 306 -81 2 -80 3 -98 -302z"/>
<path d="M87530 42575 l0 -308 741 6 c407 4 745 9 750 13 5 3 9 130 9 295 l0
289 -92 0 c-51 0 -389 3 -750 7 l-658 6 0 -308z"/>
<path d="M89252 42577 l3 -292 305 0 c168 0 368 2 444 5 l140 5 66 280 c37
154 66 281 66 281 -1 1 -232 4 -514 7 l-512 6 2 -292z"/>
<path d="M17170 40849 c14 -11 44 -31 68 -45 51 -32 71 -28 156 26 l61 40
-155 0 -155 0 25 -21z"/>
<path d="M70883 35185 c-764 -97 -1449 -482 -1918 -1080 -279 -356 -469 -767
-559 -1210 -42 -206 -51 -314 -50 -585 1 -274 17 -426 69 -645 124 -522 387
-993 766 -1374 599 -601 1398 -898 2259 -838 114 8 128 10 270 33 400 67 859
257 1175 487 703 512 1122 1242 1204 2097 10 96 7 492 -4 565 -29 198 -41 266
-70 384 -96 387 -254 718 -502 1050 -97 130 -360 399 -493 505 -310 247 -707
445 -1088 541 -248 63 -365 77 -672 81 -196 2 -307 -1 -387 -11z"/>
<path d="M94236 32192 c-74 -182 -76 -189 -78 -255 -2 -87 8 -133 59 -277 42
-118 47 -143 82 -428 21 -166 42 -306 46 -310 6 -6 456 -5 461 1 1 1 4 114 7
251 3 137 9 252 14 257 11 11 136 -31 223 -75 140 -72 271 -170 436 -326 88
-84 106 -92 254 -110 72 -8 597 -5 670 4 19 2 73 7 120 11 96 6 236 23 263 31
27 8 22 56 -10 86 -43 40 -113 70 -303 133 -96 32 -187 64 -202 71 -23 12 -48
11 -174 -6 -81 -11 -186 -20 -234 -20 -105 0 -92 -9 -290 186 -236 230 -359
341 -531 474 -219 170 -480 320 -680 388 l-85 30 -48 -116z"/>
<path d="M89115 30230 l-270 -5 0 -1952 c0 -1074 0 -1953 1 -1953 0 0 27 13
60 28 32 16 158 75 279 132 220 104 759 374 783 393 9 7 12 357 12 1687 l0
1678 -297 -2 c-164 0 -420 -3 -568 -6z"/>
<path d="M92271 29689 c-176 -34 -338 -199 -371 -378 -13 -70 -14 -23870 -1
-23956 26 -170 114 -288 271 -364 l75 -36 900 0 900 0 75 36 c128 62 204 146
252 280 l23 64 3 11965 c1 8569 -1 11980 -9 12018 -37 180 -197 337 -378 372
-66 12 -1676 12 -1740 -1z"/>
<path d="M66259 20454 c-100 -30 -190 -117 -220 -212 -14 -43 -17 -390 -18
-1844 l-1 -968 -12629 -2 -12629 -3 43 -72 c42 -72 74 -155 103 -268 14 -52
16 -223 19 -1325 2 -695 5 -1265 7 -1267 1 -2 2793 -3 6204 -3 l6202 0 0
-4755 0 -4755 -4316 0 -4316 0 -497 -110 c-739 -163 -1728 -380 -2141 -471
-201 -44 -383 -84 -405 -89 -64 -15 -724 -160 -730 -160 -3 0 -5 -72 -5 -160
l0 -161 -27 20 c-21 15 -8938 5559 -9840 6118 l-152 94 -1108 -691 -1107 -692
-30 16 c-17 9 -76 44 -131 79 -84 54 -233 146 -598 373 -26 16 -93 58 -150 93
-84 53 -355 221 -590 367 -26 16 -93 58 -150 93 -56 35 -147 92 -202 126 -55
34 -174 108 -265 165 -136 85 -168 101 -186 94 -13 -5 -2269 -1413 -5014
-3129 l-4991 -3120 6 -95 c7 -120 11 -142 41 -269 124 -526 538 -949 1068
-1092 176 -47 184 -48 1376 -48 735 -1 1126 -5 1128 -11 5 -14 1152 -14 1152
0 0 7 3032 10 9075 10 6043 0 9075 -3 9075 -10 0 -7 6371 -10 19094 -10
l19093 0 94 24 c170 43 336 136 461 259 35 34 169 195 298 358 231 292 616
776 1142 1438 233 292 275 350 323 446 87 176 100 235 99 455 0 221 -14 283
-98 455 -73 148 -157 249 -319 386 -511 430 -1039 1008 -1489 1630 -870 1202
-1503 2608 -1804 4003 -19 88 -36 171 -39 182 -4 19 -21 25 -142 48 -671 126
-1847 324 -2818 475 -746 116 -1390 208 -2355 336 -279 37 -424 54 -428 50 -3
-2 -5 -166 -4 -362 1 -369 11 -617 38 -927 9 -98 13 -187 11 -197 -5 -19 37
-19 1731 -20 956 0 1748 -2 1762 -5 142 -24 219 -54 326 -125 128 -85 229
-221 282 -376 l27 -78 0 -3685 c0 -2027 -4 -3702 -8 -3723 -28 -129 -97 -256
-190 -351 -97 -98 -190 -155 -327 -198 l-75 -23 -4735 0 c-3935 0 -4744 2
-4790 13 -78 20 -225 93 -292 147 -80 63 -142 144 -194 251 -37 77 -79 220
-73 250 4 24 -3 1557 -8 1547 -3 -10 -73 -13 -299 -13 l-294 0 0 4755 0 4755
1354 0 1354 0 4 -147 c3 -131 7 -153 27 -193 37 -72 75 -112 137 -150 l58 -35
1606 -5 1605 -5 0 3258 0 3257 -1575 -1 c-1334 0 -1582 -3 -1621 -15z m-25330
-16981 c-1 -131 -6 -272 -11 -313 -40 -340 -266 -635 -577 -759 -145 -57 -189
-63 -496 -68 -154 -3 -278 -3 -275 0 3 2 34 8 69 11 36 4 67 9 70 10 3 2 23 7
43 10 74 12 236 69 343 122 276 136 513 366 656 638 82 155 134 306 155 449 3
21 7 46 9 55 2 9 4 32 4 50 1 17 3 32 6 32 3 0 5 -107 4 -237z"/>
<path d="M67373 9067 c-108 -38 -189 -110 -219 -194 -10 -31 -13 -447 -13
-2276 0 -2068 1 -2241 16 -2280 18 -44 24 -54 59 -90 32 -33 63 -57 74 -57 6
0 10 -4 10 -8 0 -5 30 -19 68 -32 55 -20 85 -25 167 -24 55 0 111 4 125 7 33
9 134 49 140 56 9 10 195 101 201 98 4 -1 16 7 28 17 12 11 21 15 21 11 0 -4
8 -1 18 8 10 10 22 14 25 10 4 -3 7 -1 7 6 0 7 4 10 9 7 5 -4 11 -3 13 2 1 4
98 54 213 112 116 57 212 107 215 110 3 3 11 6 19 8 8 2 26 11 40 22 14 10 29
18 33 19 15 2 209 99 223 111 8 7 15 9 15 5 0 -5 8 -2 18 6 21 18 94 53 105
51 4 -1 7 3 7 9 0 5 5 7 10 4 6 -3 10 -1 10 4 0 6 3 10 8 9 7 -2 142 62 152
72 3 3 28 16 55 29 28 13 59 28 70 34 70 37 195 97 199 95 2 -2 12 4 22 13 11
9 105 58 209 110 105 52 192 97 193 102 2 4 7 5 12 2 5 -3 15 2 24 10 8 9 19
16 23 17 15 2 58 23 64 31 3 5 8 8 10 7 6 -2 55 21 129 60 36 19 67 35 70 35
16 4 106 52 112 60 4 6 8 6 8 1 0 -5 8 -2 18 7 10 10 21 15 24 12 3 -3 11 1
18 10 7 8 21 15 30 15 10 0 20 3 22 8 3 8 190 102 198 100 3 -1 24 11 47 25
24 15 49 27 58 27 8 0 15 4 15 8 0 7 59 34 69 31 2 0 7 3 10 8 8 12 333 173
349 173 6 0 12 4 12 9 0 5 15 15 33 23 17 7 79 38 137 68 58 30 107 54 110 55
3 1 56 27 117 58 62 31 115 56 117 55 2 -2 14 6 26 17 12 11 24 19 26 17 2 -1
27 9 55 23 65 33 135 98 161 148 26 52 34 133 17 173 l-14 32 -1990 -1004
c-1094 -552 -2019 -1013 -2055 -1024 -194 -63 -439 14 -517 162 l-28 53 -3
2163 c-1 1189 -6 2162 -10 2162 -4 0 -35 -11 -69 -23z"/>
</g>
</svg>
