<?xml version="1.0" standalone="no"?>
<!DOCTYPE svg PUBLIC "-//W3C//DTD SVG 20010904//EN"
 "http://www.w3.org/TR/2001/REC-SVG-20010904/DTD/svg10.dtd">
<svg version="1.0" xmlns="http://www.w3.org/2000/svg"
 width="2000.000000pt" height="2000.000000pt" viewBox="0 0 2000.000000 2000.000000"
 preserveAspectRatio="xMidYMid meet">
<metadata>
Created by potrace 1.16, written by Peter Selinger 2001-2019
</metadata>
<g transform="translate(0.000000,2000.000000) scale(0.100000,-0.100000)"
fill="#000000" stroke="none">
<path d="M8185 17730 c-341 -74 -635 -315 -765 -627 -115 -277 -116 -573 -3
-843 77 -184 234 -373 398 -481 88 -58 132 -80 223 -113 143 -51 205 -61 377
-60 139 1 173 4 256 26 316 85 563 285 706 573 125 250 142 569 46 840 -113
319 -386 570 -728 671 -78 23 -113 27 -255 30 -136 3 -181 0 -255 -16z m480
-28 c482 -134 798 -539 798 -1022 0 -129 -12 -209 -49 -324 -158 -495 -659
-804 -1169 -721 -654 106 -1052 776 -829 1395 127 355 430 614 804 686 97 19
356 11 445 -14z"/>
<path d="M7566 17108 c-67 -115 -106 -270 -106 -419 0 -107 7 -169 19 -169 4
0 6 66 6 148 0 173 14 237 81 381 49 104 48 101 34 101 -5 0 -20 -19 -34 -42z"/>
<path d="M14835 16989 c-291 -42 -585 -218 -765 -458 -90 -120 -174 -298 -201
-426 -7 -33 -16 -64 -20 -69 -4 -4 -39 6 -77 24 -39 18 -76 30 -84 27 -7 -2
25 -23 71 -45 l84 -40 -2 -148 c-3 -220 29 -364 120 -549 196 -397 597 -645
1044 -645 142 0 255 18 375 58 174 59 306 139 436 264 l81 78 57 -25 c63 -28
66 -29 66 -17 0 5 -22 19 -50 32 -27 13 -50 27 -50 32 0 4 19 34 43 67 167
226 246 546 207 838 -60 444 -378 822 -810 960 -152 48 -363 65 -525 42z m425
-38 c422 -97 755 -420 861 -837 166 -657 -261 -1309 -931 -1420 -134 -23 -332
-14 -460 20 -424 111 -734 426 -842 853 -19 75 -23 114 -22 268 0 162 3 190
27 279 15 54 51 149 80 210 174 360 500 594 907 649 72 10 296 -3 380 -22z"/>
<path d="M11405 15313 c-115 -24 -251 -105 -321 -191 -89 -109 -128 -218 -128
-357 0 -156 53 -284 164 -395 111 -111 234 -161 396 -162 305 0 554 249 554
557 0 252 -173 474 -420 540 -51 14 -198 19 -245 8z m234 -28 c93 -22 177 -71
251 -145 215 -215 214 -540 -3 -754 -110 -109 -222 -156 -372 -156 -150 0
-276 51 -380 155 -105 105 -155 227 -155 381 0 119 25 199 92 300 124 185 346
271 567 219z"/>
<path d="M11306 15000 c-67 -21 -115 -108 -103 -187 15 -91 101 -207 236 -317
l71 -58 28 17 c60 39 227 220 255 277 56 117 25 237 -70 269 -58 19 -119 3
-169 -43 l-44 -41 -21 27 c-38 48 -123 74 -183 56z m112 -34 c28 -15 81 -66
68 -66 -4 0 -1 -7 8 -15 20 -20 21 -20 47 21 30 50 74 74 132 74 29 0 46 -4
42 -10 -3 -5 0 -7 8 -4 18 6 50 -24 41 -38 -4 -6 -2 -8 4 -4 15 9 35 -60 29
-101 -4 -20 -18 -58 -33 -87 -27 -53 -103 -143 -116 -138 -5 1 -7 -3 -5 -8 1
-6 -27 -35 -63 -64 -54 -46 -68 -53 -84 -44 -45 24 -213 205 -239 257 -48 96
-28 204 41 230 40 14 89 13 120 -3z"/>
<path d="M3100 15156 c-239 -43 -482 -178 -639 -357 -349 -397 -386 -947 -92
-1394 58 -89 206 -237 294 -294 37 -24 67 -46 67 -50 0 -4 -7 -17 -16 -29 -23
-34 -7 -41 19 -9 l22 28 77 -36 c287 -132 655 -131 943 4 418 196 677 625 652
1081 -13 232 -91 449 -222 620 l-53 67 55 69 c30 38 68 86 84 106 16 20 26 39
21 42 -8 4 -56 -51 -160 -182 -11 -14 -17 -11 -55 24 -152 145 -320 240 -513
290 -82 22 -126 27 -254 30 -99 2 -182 -2 -230 -10z m609 -622 c54 -18 99 -41
130 -65 29 -23 45 -24 37 -3 -5 14 -4 15 9 4 12 -10 27 -7 82 14 36 14 69 24
71 21 10 -9 -20 -63 -55 -98 -23 -24 -30 -37 -20 -37 22 0 48 11 43 19 -2 3
13 5 35 3 21 -2 39 -5 39 -7 0 -1 -32 -35 -71 -75 l-71 -73 4 -48 c3 -29 1
-49 -5 -49 -6 0 -7 -17 -4 -40 3 -22 1 -42 -3 -45 -9 -5 -25 -84 -21 -99 1 -5
-2 -12 -6 -15 -11 -7 -49 -94 -45 -100 2 -2 0 -7 -5 -10 -5 -3 -26 -33 -46
-67 -20 -33 -45 -68 -57 -79 -20 -18 -28 -41 -10 -30 16 10 11 -1 -7 -16 -11
-10 -14 -10 -9 -1 12 21 -4 13 -33 -15 -55 -54 -87 -78 -158 -119 -40 -23 -69
-44 -66 -48 4 -4 -1 -4 -11 0 -11 4 -17 3 -14 -2 3 -5 -7 -9 -23 -10 -16 -1
-37 -9 -47 -18 -10 -9 -21 -14 -24 -11 -2 3 -49 -2 -104 -11 -126 -21 -152
-23 -183 -13 -26 8 -174 33 -179 30 -1 -1 -15 5 -31 14 -17 8 -38 12 -47 8
-10 -4 -15 -2 -11 3 3 5 -22 23 -56 39 l-62 30 45 8 c25 4 56 8 70 9 39 1 120
19 116 26 -2 4 8 7 23 8 32 1 142 64 135 76 -3 4 -16 8 -29 8 -13 0 -25 3 -27
8 -4 10 -81 47 -95 45 -7 0 -10 3 -8 8 3 5 -4 14 -16 21 -30 18 -64 98 -47
110 15 9 25 11 53 9 14 0 12 3 -10 13 -16 8 -48 31 -70 52 -22 21 -44 37 -48
36 -5 -1 -6 2 -3 7 9 14 -15 62 -27 54 -5 -3 -6 3 -2 16 3 11 3 21 -2 21 -4 0
-9 18 -10 40 -1 36 2 40 22 40 13 0 35 -4 49 -10 17 -6 26 -6 26 0 0 6 -4 10
-9 10 -15 0 -71 117 -81 171 -11 55 1 131 25 163 14 19 16 19 34 2 11 -10 25
-15 32 -10 9 5 10 2 6 -8 -7 -20 101 -121 121 -113 7 2 11 1 7 -4 -6 -11 63
-51 148 -85 113 -45 268 -72 251 -44 -9 14 -9 56 -1 78 8 22 18 72 20 97 1 11
5 19 10 16 4 -2 7 0 7 5 0 15 81 90 111 103 16 6 29 19 30 28 0 9 3 11 5 5 3
-8 21 -8 62 1 31 7 59 13 62 14 3 0 25 -6 49 -15z"/>
<path d="M7065 13939 c-74 -11 -112 -25 -166 -60 -63 -40 -122 -108 -109 -124
7 -8 5 -12 -5 -12 -8 0 -11 5 -8 10 3 5 0 7 -8 5 -8 -3 -13 -12 -13 -21 1 -9
-2 -15 -6 -12 -12 7 -270 -266 -263 -278 3 -6 2 -7 -4 -4 -5 3 -40 -25 -78
-63 -57 -57 -66 -71 -56 -84 10 -12 9 -14 -6 -11 -21 3 -95 -64 -86 -78 3 -6
2 -7 -3 -4 -5 3 -39 -25 -74 -61 -197 -203 -223 -232 -217 -238 4 -4 13 1 20
11 10 13 14 14 14 3 0 -7 -5 -18 -12 -23 -15 -14 -38 -17 -30 -5 13 21 -12 9
-34 -16 -19 -22 -20 -28 -9 -42 12 -15 11 -16 -4 -3 -15 11 -21 9 -45 -20 -50
-59 -63 -67 -163 -95 -100 -28 -128 -39 -119 -48 2 -3 42 6 89 19 46 14 85 23
87 22 1 -2 -15 -23 -37 -47 l-39 -43 -160 18 c-96 10 -183 15 -218 11 -84 -9
-560 -175 -741 -257 -46 -21 -80 -34 -77 -29 8 13 20 15 -134 -29 -74 -21
-137 -43 -139 -49 -3 -11 154 28 217 54 19 8 36 13 38 10 2 -2 -11 -9 -29 -16
-68 -27 -225 -108 -286 -148 -35 -22 -68 -43 -75 -45 -7 -2 -9 -7 -5 -11 7 -9
68 21 133 65 90 61 499 244 656 295 46 15 152 51 234 81 187 69 236 73 470 44
94 -11 231 -24 304 -28 119 -5 139 -9 170 -30 84 -57 230 -67 390 -27 l74 18
23 -30 c55 -68 70 -199 35 -298 -62 -177 -287 -354 -530 -417 -137 -36 -396
-31 -586 10 -179 39 -168 33 -102 60 31 13 57 27 57 32 0 13 -1 13 -94 -26
-47 -19 -91 -35 -100 -35 -8 0 -16 -4 -18 -8 -1 -4 -39 -23 -83 -41 -44 -18
-84 -37 -89 -42 -21 -19 24 -8 117 31 105 44 112 45 202 29 l63 -11 6 -45 c13
-98 90 -200 191 -252 272 -140 633 26 661 305 6 58 8 61 51 89 75 47 147 110
191 167 38 50 47 56 99 68 129 28 237 106 293 211 27 52 34 78 38 140 4 67 1
83 -23 138 -19 42 -46 78 -85 114 -75 70 -147 98 -264 105 -102 5 -176 -8
-256 -47 -64 -31 -168 -123 -176 -157 -3 -13 -14 -24 -23 -24 -9 0 -65 -3
-126 -6 -60 -3 -129 -1 -152 3 l-42 8 61 65 c34 36 147 154 252 264 105 109
193 202 196 206 8 13 425 446 554 576 107 108 127 124 175 138 63 18 139 21
194 5 46 -13 128 -67 712 -478 253 -178 678 -477 945 -664 267 -187 498 -351
513 -366 71 -65 91 -175 48 -259 -12 -23 -90 -113 -174 -200 -229 -237 -876
-912 -1059 -1106 l-84 -88 -168 93 c-138 77 -173 100 -197 135 -84 122 -275
187 -445 151 -254 -54 -411 -270 -348 -480 15 -52 29 -73 84 -128 71 -72 135
-104 235 -115 51 -6 58 -10 105 -65 28 -32 82 -81 120 -110 l70 -51 -180 -188
-180 -187 -100 20 -99 20 28 41 c130 189 42 427 -187 508 -171 60 -376 15
-505 -110 -78 -76 -122 -212 -98 -306 9 -37 8 -49 -10 -86 -11 -23 -24 -64
-28 -91 -5 -27 -10 -51 -12 -53 -2 -3 -29 2 -59 10 -202 52 -446 -58 -535
-241 -25 -51 -30 -72 -30 -140 0 -105 29 -171 107 -240 l55 -48 -29 -25 c-71
-60 -123 -232 -100 -333 24 -104 105 -196 228 -261 l66 -35 -133 -139 c-73
-76 -263 -276 -423 -444 -436 -458 -414 -439 -542 -448 -120 -8 -132 -2 -469
237 -27 19 -75 52 -105 73 -30 21 -80 56 -110 78 -30 22 -82 58 -115 81 -33
23 -86 60 -118 83 -33 23 -73 50 -91 61 -18 11 -79 54 -137 95 -57 42 -114 82
-125 90 -58 40 -175 123 -224 159 -30 22 -75 53 -100 68 -25 15 -51 33 -58 40
-8 7 -71 52 -140 100 -458 316 -512 357 -541 418 -25 53 -28 130 -7 180 14 33
150 180 596 645 119 124 366 383 550 575 183 193 377 395 430 450 53 55 197
206 320 335 123 129 269 282 325 340 55 58 107 114 115 124 18 23 -93 -51
-132 -88 -15 -14 -31 -26 -37 -26 -5 0 -11 -3 -13 -7 -1 -5 -20 -21 -41 -37
-21 -15 -36 -31 -32 -34 3 -4 10 0 15 8 6 10 10 11 10 3 0 -7 -10 -17 -21 -24
-17 -8 -20 -8 -14 1 13 21 -10 7 -64 -39 -28 -24 -48 -47 -45 -52 3 -5 2 -8
-3 -7 -4 2 -51 -42 -104 -97 -251 -261 -277 -290 -266 -298 8 -6 6 -7 -5 -4
-18 6 -101 -80 -92 -95 7 -11 -14 -38 -29 -38 -6 0 -2 6 9 14 10 8 16 18 11
22 -4 4 -8 5 -9 3 -2 -3 -41 -44 -87 -91 -47 -48 -82 -91 -78 -94 4 -4 13 1
21 11 10 14 15 15 21 5 5 -8 4 -11 -2 -7 -6 4 -14 0 -17 -9 -3 -9 -12 -14 -20
-11 -19 7 -191 -167 -181 -183 5 -9 4 -11 -4 -6 -6 4 -18 1 -26 -8 -20 -19
-19 -32 0 -16 13 11 18 11 28 0 9 -10 9 -11 0 -6 -7 4 -13 3 -13 -3 0 -5 -10
-8 -22 -6 -22 5 -56 -30 -50 -50 2 -5 0 -6 -4 -2 -4 4 -38 -23 -76 -60 -52
-52 -65 -70 -56 -80 8 -10 7 -12 -3 -8 -17 6 -223 -198 -211 -209 4 -4 2 -6
-3 -4 -12 4 -211 -201 -208 -213 2 -5 -1 -8 -5 -6 -11 3 -226 -221 -230 -240
-3 -10 0 -13 9 -8 8 5 10 4 5 -4 -6 -9 -11 -9 -24 1 -13 11 -15 10 -9 -11 4
-16 3 -21 -4 -14 -12 12 -63 -33 -54 -47 3 -5 -1 -22 -10 -37 -15 -25 -14 -20
2 27 3 8 -16 -6 -42 -33 -41 -41 -45 -50 -34 -65 11 -14 11 -15 -1 -4 -19 17
-33 15 -26 -4 3 -8 2 -12 -4 -9 -15 9 -100 -85 -122 -135 -26 -60 -43 -231
-29 -306 14 -72 61 -160 114 -211 23 -22 276 -205 562 -405 286 -200 543 -380
570 -399 154 -109 839 -589 890 -624 177 -122 390 -138 583 -43 70 34 120 80
323 293 57 61 255 268 440 460 315 329 338 350 363 344 47 -13 153 -21 175
-14 37 11 23 23 -23 18 -91 -11 -291 56 -510 170 -151 78 -231 185 -231 309 0
36 3 70 7 74 4 4 38 -7 75 -24 91 -41 136 -52 213 -52 81 0 142 26 170 72 11
18 30 65 42 103 12 39 23 72 25 74 4 6 235 -38 337 -63 130 -34 243 -83 293
-129 76 -70 131 -245 138 -442 4 -111 -6 -190 -35 -273 -19 -54 -19 -82 1 -52
14 23 49 139 49 165 0 22 3 22 138 28 302 12 496 110 551 280 35 109 71 382
71 547 l0 86 100 12 c117 14 248 45 301 73 79 40 141 120 190 247 43 112 119
429 143 600 2 19 7 36 9 38 4 4 78 -10 120 -22 11 -4 17 0 17 10 0 9 -8 16
-19 16 -11 0 -42 5 -70 12 l-51 11 0 91 c0 100 -17 177 -50 233 -11 20 -17 39
-13 44 4 4 71 32 148 62 771 303 1161 584 1215 879 12 63 0 140 -30 204 -20
41 -111 136 -140 146 -13 4 -13 8 1 24 26 30 55 95 69 153 28 120 -16 258
-114 356 -51 51 -86 72 -71 43 4 -7 0 -5 -8 4 -8 10 -17 14 -21 10 -4 -4 -7
-2 -6 3 5 25 -1 36 -17 31 -10 -3 -25 -1 -33 5 -11 8 -9 9 10 4 l25 -7 -23 21
c-22 22 -49 20 -36 -1 4 -7 2 -8 -5 -4 -8 6 -9 11 -1 21 8 9 0 19 -30 39 -22
14 -40 24 -40 22 0 -3 -12 6 -27 20 -15 14 -32 23 -39 20 -7 -3 -18 3 -26 12
-12 16 -11 16 7 2 18 -14 19 -14 7 2 -8 10 -49 40 -92 68 -43 27 -82 54 -85
60 -4 7 -12 7 -25 0 -19 -10 -39 4 -26 17 3 4 6 1 6 -6 0 -7 5 -9 10 -6 10 6
-70 75 -87 75 -4 0 -1 -5 7 -11 13 -9 13 -10 0 -6 -8 2 -14 9 -13 15 3 12 -91
82 -109 82 -6 0 -3 -7 8 -15 18 -14 17 -14 -9 -3 -19 8 -24 14 -15 19 7 4 10
9 8 11 -3 2 -19 13 -37 26 -18 12 -35 22 -38 22 -3 0 -14 9 -25 20 -12 12 -25
18 -30 15 -5 -3 -12 0 -16 6 -4 8 -3 9 4 5 7 -4 12 -5 12 -3 0 2 -19 17 -41
32 -23 15 -38 21 -33 13 6 -10 5 -11 -8 -1 -8 7 -18 10 -22 6 -4 -4 -5 -1 -2
7 4 10 -46 51 -161 132 -145 102 -169 115 -187 106 -18 -10 -19 -9 -9 4 11 12
9 18 -6 32 -11 10 -24 15 -30 12 -5 -4 -13 -1 -17 5 -5 8 -3 9 6 4 9 -6 11 -4
6 4 -5 7 -15 10 -23 7 -8 -3 -11 -2 -8 3 3 6 -2 14 -11 19 -15 9 -15 10 4 16
12 4 22 12 22 17 0 12 -12 11 -45 -1 -21 -8 -30 -6 -47 10 -12 10 -25 17 -30
14 -5 -3 -7 0 -6 8 2 7 -5 12 -14 12 -10 -1 -16 1 -14 5 2 3 -14 18 -35 33
-24 17 -39 23 -40 15 0 -6 -5 -1 -10 12 -6 14 -15 21 -24 17 -8 -3 -17 0 -21
6 -5 7 -2 8 7 4 30 -16 -41 38 -141 106 -58 40 -127 89 -154 110 -28 20 -53
35 -58 32 -4 -3 -8 -1 -8 5 0 5 -29 30 -65 55 -72 50 -110 72 -102 59 3 -4 -6
-9 -19 -9 -23 -2 -24 -1 -7 11 20 15 21 14 -47 33 -54 16 -120 20 -175 11z
m-382 -1149 c83 -31 156 -94 192 -165 39 -75 42 -173 8 -248 -31 -67 -114
-151 -185 -187 -57 -28 -124 -47 -133 -38 -3 2 4 28 15 56 25 66 27 179 3 247
-23 68 -93 137 -163 160 -43 14 -75 17 -166 13 l-113 -5 26 34 c50 66 137 121
236 148 73 21 205 14 280 -15z m-240 -205 c45 -23 38 -29 -63 -50 -132 -28
-255 -15 -329 34 -25 16 -24 16 59 27 126 18 286 12 333 -11z m-228 -846 c-35
-104 -144 -202 -268 -241 -116 -36 -283 -16 -372 44 -79 55 -145 157 -145 224
0 22 1 22 58 9 45 -10 184 -25 257 -27 56 -2 250 17 288 27 26 8 55 11 64 8
11 -4 14 -3 9 5 -4 7 -2 12 6 12 7 0 36 11 63 23 l50 24 3 -29 c2 -16 -4 -51
-13 -79z m3380 20 c140 -101 169 -282 72 -449 -100 -171 -389 -381 -763 -554
-175 -81 -541 -229 -554 -224 -12 5 265 288 282 288 8 0 30 17 49 38 18 20
143 151 276 291 134 140 243 261 243 269 0 12 336 372 347 372 3 0 24 -14 48
-31z m-2064 -754 c24 -9 98 -48 164 -86 66 -39 174 -100 240 -136 264 -144
397 -248 447 -351 31 -62 33 -74 36 -187 5 -141 -15 -274 -77 -523 -68 -273
-128 -395 -226 -460 -60 -39 -279 -92 -386 -92 l-36 0 -7 79 c-12 151 -58 288
-120 364 l-35 43 58 59 c50 50 181 239 194 278 2 8 20 5 55 -12 87 -41 69 -16
-25 34 -147 79 -314 196 -389 271 -118 119 -187 277 -187 429 0 97 13 148 56
212 55 83 142 111 238 78z m-750 -659 c178 -38 292 -161 293 -316 0 -68 -29
-150 -70 -197 l-19 -22 -275 74 c-151 41 -295 74 -320 75 -28 0 -58 -8 -78
-20 -41 -25 -46 -16 -40 78 7 122 82 224 212 287 105 52 191 63 297 41z m-61
-487 c168 -44 348 -89 400 -100 324 -66 380 -88 446 -176 61 -80 101 -241 110
-443 9 -194 -26 -515 -69 -629 -57 -153 -246 -246 -529 -258 -73 -3 -128 -2
-128 3 -4 287 -61 493 -159 575 l-40 34 72 79 72 78 65 -20 c90 -27 140 -35
140 -22 0 5 -6 10 -14 10 -33 0 -198 55 -305 101 -310 134 -487 296 -540 494
-12 45 -13 180 -2 209 7 18 9 16 18 -11 17 -47 76 -106 138 -137 139 -71 299
-10 350 133 17 49 18 61 7 61 -4 0 -15 -23 -25 -51 -25 -68 -82 -124 -148
-143 -68 -21 -77 -20 -145 5 -110 42 -184 143 -158 218 12 34 69 71 108 71 18
0 169 -36 336 -81z m-715 -399 c10 -11 14 -20 10 -20 -5 0 2 -11 14 -24 l23
-25 30 22 c55 41 161 22 174 -30 7 -27 32 -43 65 -43 12 0 19 -3 16 -7 -4 -3
1 -16 10 -27 18 -21 18 -21 -4 -3 -17 15 -26 16 -40 8 -17 -10 -17 -10 2 -11
34 -1 -5 -20 -41 -20 -19 0 -39 -9 -53 -23 -12 -13 -45 -35 -74 -48 -28 -13
-58 -29 -65 -36 -8 -8 -34 -10 -80 -6 -37 3 -77 6 -89 5 -13 0 -23 3 -23 7 0
4 -17 13 -37 20 -55 20 -101 59 -124 104 -24 46 -20 55 14 32 24 -15 26 -15
36 2 11 17 11 17 9 -1 -2 -14 5 -21 25 -27 25 -7 28 -5 21 9 -14 30 -10 87 5
84 9 -2 11 3 7 13 -3 9 1 31 8 50 8 19 12 44 9 57 -3 16 1 12 13 -11 l18 -34
9 29 c12 37 26 54 52 64 18 6 21 2 31 -42 6 -26 19 -57 29 -68z m564 -289 l49
-26 -83 -88 -83 -88 -98 20 c-55 10 -119 22 -144 26 l-44 7 45 23 c65 34 146
110 181 172 l30 53 49 -36 c27 -20 71 -48 98 -63z m-555 -146 c60 -8 112 -17
115 -20 10 -11 -50 -172 -72 -193 -32 -30 -74 -43 -135 -43 -72 0 -103 7 -200
48 -92 40 -91 36 -47 123 28 55 52 78 102 95 40 14 59 13 237 -10z"/>
<path d="M11770 13269 c-91 -12 -231 -54 -317 -95 -291 -139 -506 -398 -591
-712 -23 -87 -26 -115 -26 -277 -1 -165 1 -188 26 -275 32 -115 81 -225 142
-320 61 -93 199 -236 291 -299 59 -41 194 -114 248 -134 7 -3 -11 -29 -41 -60
-30 -30 -50 -57 -45 -60 5 -3 34 18 63 48 30 30 63 55 73 55 15 0 18 5 13 23
-3 12 -6 203 -6 425 l0 402 -115 0 -115 0 0 135 c0 74 0 138 0 143 0 4 52 8
116 10 l115 3 -3 109 c-2 61 0 110 5 110 4 0 7 19 7 43 0 23 11 69 25 101 13
33 21 64 18 70 -3 6 -2 8 2 3 10 -9 87 62 80 74 -3 4 5 5 17 1 16 -4 19 -2 13
8 -5 8 -4 11 2 7 5 -3 31 0 58 8 33 10 96 15 201 15 l153 0 3 -129 3 -129
-118 -4 c-116 -3 -119 -4 -143 -31 -22 -26 -24 -36 -24 -143 l0 -114 133 0
c74 0 136 -3 140 -6 3 -3 2 -14 -3 -23 -4 -9 -14 -59 -20 -111 -19 -149 -10
-140 -140 -140 l-110 0 0 -444 c0 -248 -4 -447 -9 -450 -8 -5 -75 1 -201 19
-35 5 -35 5 -5 -5 17 -5 78 -15 137 -21 192 -21 393 17 584 111 216 106 387
277 494 495 27 55 62 145 77 200 25 91 28 115 28 275 0 177 -9 245 -49 357
l-15 42 130 136 c117 122 144 156 122 154 -5 0 -64 -60 -133 -133 l-125 -132
-46 86 c-60 114 -116 189 -206 277 -240 236 -573 346 -913 302z"/>
<path d="M17405 13234 c-225 -35 -425 -137 -589 -301 -492 -492 -384 -1314
221 -1668 154 -90 327 -136 518 -138 l120 -2 3 -227 c2 -162 6 -228 14 -228 8
0 10 62 5 229 l-5 230 31 6 c292 56 502 176 670 385 79 97 165 265 197 380 68
251 44 508 -69 745 -156 328 -463 547 -831 595 -99 13 -176 11 -285 -6z m331
-25 c60 -10 195 -50 204 -59 3 -3 12 -6 20 -8 8 -2 17 -8 18 -13 2 -5 7 -7 12
-4 9 6 53 -17 153 -82 79 -51 202 -165 252 -232 97 -133 186 -343 189 -446 0
-24 4 -41 9 -38 13 8 7 -241 -9 -330 -26 -151 -76 -268 -178 -419 -10 -15 -23
-25 -29 -21 -6 4 -7 1 -2 -6 15 -25 -213 -235 -244 -224 -9 4 -13 3 -9 -2 19
-20 -154 -105 -284 -138 -118 -31 -116 -31 -288 -31 -119 0 -161 4 -233 23
-92 24 -256 93 -269 114 -4 7 -8 9 -8 4 0 -4 -11 0 -25 9 -14 9 -23 20 -20 24
3 4 -1 7 -8 6 -25 -2 -195 146 -189 166 1 5 -2 7 -8 3 -5 -3 -13 1 -17 10 -3
9 -19 31 -34 48 -16 17 -29 37 -29 43 0 7 -4 14 -9 16 -12 4 -84 138 -74 138
4 0 2 4 -6 9 -8 5 -14 22 -15 39 0 17 -5 30 -10 29 -5 -1 -20 39 -34 88 -20
77 -24 114 -26 250 -1 104 4 179 12 215 83 341 276 585 582 735 53 26 193 70
265 83 70 14 270 14 341 1z"/>
<path d="M16658 12503 c-37 -96 -58 -208 -58 -312 0 -84 16 -191 29 -191 4 0
6 78 6 173 0 164 1 176 29 257 16 47 32 87 35 90 13 11 12 50 -1 50 -8 0 -25
-30 -40 -67z"/>
<path d="M18393 11707 c-56 -116 -208 -280 -347 -376 -32 -22 -45 -36 -38 -43
7 -7 20 -4 40 11 17 11 34 21 39 21 11 0 53 36 142 123 71 69 211 264 211 293
0 29 -27 12 -47 -29z"/>
<path d="M7992 13111 c-8 -5 -12 -16 -10 -26 3 -16 341 -263 380 -277 24 -10
56 17 43 37 -12 19 -375 275 -390 275 -5 0 -16 -4 -23 -9z"/>
<path d="M15375 13006 c-244 -57 -424 -232 -479 -466 -65 -273 75 -569 324
-688 105 -50 172 -66 275 -66 180 0 336 70 458 204 103 114 157 255 157 410 0
172 -58 310 -184 436 -86 86 -162 131 -266 159 -82 22 -215 27 -285 11z m228
-21 c120 -21 216 -73 312 -170 130 -130 182 -264 172 -445 -12 -213 -127 -395
-313 -492 -94 -50 -169 -68 -277 -68 -204 0 -377 91 -491 257 -161 236 -133
545 68 748 102 103 201 155 335 174 82 12 107 12 194 -4z"/>
<path d="M15275 12631 c-57 -26 -98 -106 -89 -176 10 -81 50 -144 157 -250 56
-56 114 -110 129 -120 l28 -17 58 51 c212 183 285 318 234 434 -26 58 -70 87
-134 87 -62 0 -88 -11 -129 -54 l-33 -36 -42 41 c-37 37 -47 41 -100 45 -33 2
-68 0 -79 -5z m75 -20 c0 -4 11 -7 25 -5 31 3 101 -58 89 -78 -4 -7 -4 -10 1
-6 4 4 13 1 20 -8 10 -14 14 -11 36 20 13 20 29 34 36 32 7 -3 10 1 7 8 -7 17
19 29 86 41 27 5 43 1 70 -17 44 -30 60 -61 60 -118 0 -91 -71 -194 -229 -332
l-54 -47 -28 20 c-16 11 -36 30 -44 42 -8 12 -19 22 -24 22 -4 0 -27 19 -50
43 -23 23 -38 42 -34 42 4 0 -2 7 -14 15 -11 8 -35 37 -52 64 -72 111 -41 245
60 264 13 2 27 5 32 6 4 0 7 -3 7 -8z"/>
<path d="M7139 12286 c-118 -34 -231 -125 -277 -223 -22 -48 -27 -72 -27 -138
0 -67 4 -89 28 -136 46 -95 129 -159 252 -194 78 -23 227 -16 304 15 174 69
285 225 267 378 -14 120 -89 216 -214 275 -61 29 -77 32 -177 34 -68 1 -128
-3 -156 -11z m252 -22 c116 -35 183 -83 237 -174 24 -39 27 -55 27 -130 0 -71
-4 -93 -25 -134 -13 -26 -35 -56 -48 -66 -13 -10 -22 -22 -21 -27 4 -13 -96
-76 -158 -100 -94 -36 -167 -39 -270 -13 -119 31 -191 82 -244 175 -25 43 -29
61 -29 124 0 62 5 83 31 135 17 33 50 80 74 103 106 103 286 148 426 107z"/>
<path d="M3694 11879 c-166 -144 -279 -291 -632 -824 -382 -576 -431 -670
-507 -956 -71 -263 -86 -315 -120 -392 -88 -206 -174 -308 -524 -626 -478
-434 -682 -598 -1456 -1175 -489 -365 -461 -343 -452 -352 4 -4 48 24 99 63
51 38 280 210 509 381 596 444 842 643 1234 995 243 219 429 404 488 488 99
139 153 272 223 549 87 344 120 408 546 1050 331 499 458 663 607 785 57 47
72 65 53 65 -5 0 -35 -23 -68 -51z"/>
<path d="M7980 11743 c-98 -16 -215 -78 -275 -144 -123 -137 -121 -336 6 -459
206 -199 592 -138 722 115 27 53 31 70 31 145 1 74 -3 92 -27 138 -80 152
-269 237 -457 205z m150 -24 c279 -44 403 -306 244 -514 -84 -110 -265 -178
-418 -156 -242 34 -377 241 -292 445 18 43 97 130 146 161 47 29 115 54 175
64 70 12 73 12 145 0z"/>
<path d="M6480 11624 c-129 -34 -233 -112 -286 -214 -26 -49 -29 -65 -29 -150
0 -86 3 -100 29 -148 56 -100 166 -172 296 -193 190 -32 397 64 486 223 26 48
29 62 29 148 0 81 -4 102 -25 143 -28 56 -99 126 -158 156 -98 50 -234 64
-342 35z m206 -15 c342 -63 412 -439 113 -612 -75 -44 -150 -60 -259 -55 -84
3 -105 8 -163 36 -83 41 -158 121 -182 193 -61 184 82 385 309 434 77 17 108
18 182 4z"/>
<path d="M4990 11447 c-83 -30 -134 -63 -187 -120 -65 -70 -86 -119 -91 -212
-7 -128 30 -204 141 -288 91 -70 264 -98 392 -63 122 32 237 122 285 221 29
60 38 165 20 231 -28 100 -132 198 -247 234 -93 29 -226 27 -313 -3z m308
-171 c20 -10 33 -11 47 -4 16 9 18 8 8 -3 -10 -10 -9 -16 3 -31 15 -16 14 -20
-12 -52 -16 -19 -33 -35 -38 -35 -4 -1 -21 10 -38 24 -16 14 -35 25 -41 25 -7
0 -6 -5 3 -11 12 -9 10 -10 -8 -6 -18 4 -22 2 -18 -9 3 -7 0 -13 -6 -11 -6 1
-12 -8 -13 -21 -2 -27 30 -53 54 -44 9 3 -4 -13 -29 -36 -51 -47 -67 -50 -103
-22 l-26 21 -105 -104 c-58 -58 -111 -107 -119 -110 -9 -3 -28 8 -47 28 -29
30 -31 35 -19 56 7 13 12 28 11 32 -1 5 1 6 6 3 12 -7 64 48 55 58 -5 4 -1 6
7 4 8 -1 14 3 15 10 0 6 3 11 7 10 12 -5 57 45 51 56 -3 6 -3 8 2 4 4 -4 15
-2 23 4 12 10 9 16 -17 38 l-32 25 40 39 39 38 31 -22 31 -22 48 40 c74 62
113 68 190 28z"/>
<path d="M13920 11179 c-404 -120 -958 -285 -1230 -365 -534 -158 -621 -192
-720 -281 -71 -64 -112 -152 -118 -252 -6 -101 8 -148 103 -346 41 -87 75
-159 75 -161 0 -2 -100 -1 -222 2 -150 5 -220 3 -213 -4 8 -7 266 -21 422 -22
17 0 29 -13 48 -50 14 -27 25 -60 25 -73 0 -13 21 -69 46 -123 211 -453 289
-612 309 -634 21 -23 119 -220 112 -226 -1 -2 -54 11 -117 27 -145 37 -262 50
-364 38 -149 -16 -281 -102 -340 -221 -30 -61 -36 -165 -11 -224 41 -98 143
-187 270 -234 75 -28 697 -194 788 -211 37 -7 66 -15 65 -18 -91 -175 -194
-394 -213 -451 -69 -201 -30 -374 120 -526 38 -39 89 -79 112 -89 l42 -18 -26
-51 c-46 -90 -63 -155 -63 -236 0 -108 27 -156 220 -389 88 -106 160 -196 160
-199 0 -3 -7 -14 -17 -24 -22 -24 -8 -36 16 -14 18 16 20 16 35 -6 21 -29 20
-36 -5 -93 -18 -40 -21 -62 -17 -124 8 -128 74 -226 192 -282 55 -26 62 -33
102 -109 129 -241 264 -340 704 -515 284 -113 260 -97 321 -222 43 -90 63
-119 123 -178 136 -134 335 -194 513 -154 l48 11 115 -77 c492 -325 1181 -590
1925 -740 203 -41 485 -86 630 -100 103 -10 300 -45 377 -66 142 -39 289 -121
450 -250 266 -214 511 -410 627 -502 217 -173 376 -312 524 -458 75 -75 137
-131 137 -125 0 18 -265 277 -400 393 -63 54 -176 146 -250 205 -74 59 -227
181 -338 270 -352 282 -413 328 -491 374 -167 97 -309 136 -656 179 -899 112
-1685 351 -2305 703 -146 83 -310 189 -310 201 0 5 10 11 23 13 12 3 139 40
282 83 143 43 393 117 555 166 162 48 502 149 755 224 253 75 514 153 580 172
213 61 297 132 356 299 49 142 51 149 45 212 -5 56 -27 110 -190 455 -101 216
-273 581 -381 812 -109 231 -218 463 -242 515 -113 238 -224 483 -221 486 5 4
128 -22 187 -38 39 -12 45 -18 63 -63 24 -60 48 -148 48 -175 0 -11 5 -20 11
-20 32 0 -32 203 -101 324 -97 170 -234 316 -597 635 l-152 134 43 38 c45 40
90 119 83 148 -2 9 -12 -5 -26 -36 -13 -30 -43 -71 -69 -95 l-45 -42 -101 105
c-234 243 -366 493 -366 694 0 120 49 273 115 359 62 81 183 99 298 42 64 -31
165 -126 242 -226 89 -118 138 -169 295 -313 462 -425 922 -787 1465 -1155
189 -127 278 -205 416 -360 206 -232 311 -395 534 -827 241 -470 348 -642 519
-838 75 -85 315 -301 325 -291 3 3 -28 36 -69 72 -133 116 -303 296 -372 393
-101 141 -199 311 -376 649 -248 475 -324 596 -494 795 -192 223 -254 277
-604 515 -364 248 -879 647 -1103 856 l-33 31 145 119 c135 110 170 145 132
130 -9 -3 -77 -56 -151 -118 -74 -62 -139 -113 -143 -113 -21 0 -343 310 -420
404 -118 144 -197 227 -256 268 l-50 34 210 -6 c150 -5 206 -4 195 4 -8 6 -64
11 -125 11 -60 0 -187 5 -282 10 -120 7 -180 7 -199 -1 -20 -7 -30 -7 -32 0
-2 6 -33 11 -72 11 l-68 0 -15 38 c-8 20 -113 244 -231 497 -119 253 -276 588
-349 744 -109 233 -141 293 -182 338 -89 99 -189 144 -322 142 -71 -1 -142
-20 -813 -220z m982 164 c72 -34 139 -89 173 -143 12 -19 62 -123 112 -230 51
-107 117 -249 148 -315 31 -66 103 -219 160 -340 56 -121 126 -269 155 -330
221 -471 214 -453 201 -482 -7 -14 -15 -22 -20 -17 -4 5 -135 281 -291 614
-156 333 -332 709 -391 835 -60 127 -123 250 -141 274 -21 29 -56 57 -97 80
-53 29 -77 35 -141 39 -86 5 -39 17 -580 -144 -157 -47 -359 -107 -450 -134
-225 -66 -1036 -307 -1299 -386 -117 -35 -233 -75 -257 -89 -82 -48 -127 -153
-104 -243 6 -26 42 -112 80 -192 75 -160 584 -1245 648 -1380 60 -129 573
-1220 631 -1343 28 -60 51 -110 51 -112 0 -2 -14 2 -31 8 -39 15 -73 80 -96
180 -19 85 -50 153 -105 224 -32 42 -259 510 -503 1038 -24 52 -80 172 -160
340 -26 55 -76 161 -110 235 -35 74 -91 194 -125 265 -34 72 -70 148 -80 170
-10 22 -71 153 -136 290 l-118 250 -1 80 c0 86 17 132 68 186 49 52 102 72
450 175 193 58 471 140 617 184 146 43 488 145 760 226 272 80 554 164 625
185 112 34 141 38 210 36 65 -3 94 -9 147 -34z m-17 -65 c28 -15 67 -44 88
-66 40 -41 110 -172 98 -184 -3 -3 -60 -22 -126 -41 -125 -37 -1775 -526
-2399 -712 -197 -58 -364 -104 -371 -101 -22 8 -77 155 -77 207 1 116 66 180
227 227 108 30 1552 460 1980 588 360 108 384 114 455 111 56 -3 87 -10 125
-29z m298 -473 c126 -268 540 -1151 594 -1265 l45 -95 -16 -50 c-8 -27 -18
-67 -22 -88 -3 -20 -9 -39 -13 -41 -10 -6 -2721 -836 -2752 -842 -23 -5 -28 1
-71 93 -25 54 -190 404 -365 778 -403 858 -397 844 -392 849 2 2 288 88 634
191 347 102 711 211 810 240 352 105 653 194 860 255 116 34 289 86 385 116
96 29 184 52 194 51 15 -2 41 -47 109 -192z m-2970 -1126 c27 -12 28 -13 223
-431 79 -168 144 -317 144 -330 0 -22 -16 -48 -30 -48 -4 0 -5 13 -2 29 3 21
-24 89 -106 262 -220 470 -232 494 -260 512 -32 19 -8 24 31 6z m3587 -682
c54 -179 182 -362 417 -595 l175 -173 215 -457 c203 -433 261 -556 401 -854
81 -172 80 -162 35 -177 -53 -16 -1155 -351 -1698 -516 -247 -75 -499 -151
-560 -169 -60 -19 -157 -48 -215 -66 -58 -17 -162 -49 -231 -71 -70 -21 -131
-39 -136 -39 -6 0 -16 21 -22 48 -17 67 -53 142 -88 182 -16 19 -98 182 -181
361 -136 293 -152 332 -152 380 -1 138 -65 285 -165 377 l-63 57 -252 540
c-138 297 -254 548 -257 557 -4 13 10 21 69 38 66 20 818 250 1093 335 165 51
1419 434 1505 460 l75 22 7 -84 c3 -46 16 -117 28 -156z m-3538 -307 c40 -6
127 -25 193 -43 l120 -33 122 -259 c68 -142 123 -269 123 -282 0 -13 20 -67
45 -120 45 -95 45 -97 27 -116 -18 -17 -24 -18 -83 -6 -124 23 -761 199 -835
230 -233 97 -315 293 -194 461 101 141 264 198 482 168z m4349 -751 c47 -101
222 -474 389 -829 166 -355 342 -728 390 -830 48 -102 165 -351 261 -555 l174
-370 -1 -75 c0 -87 -20 -134 -81 -191 -62 -60 -20 -45 -778 -269 -170 -51
-461 -137 -645 -191 -184 -55 -411 -123 -505 -150 -93 -28 -276 -82 -405 -121
-226 -67 -238 -70 -320 -66 -108 5 -193 42 -266 115 -46 45 -70 92 -259 494
-417 886 -385 813 -376 861 l8 43 15 -35 c9 -19 39 -84 68 -145 86 -181 131
-277 158 -335 13 -30 105 -226 203 -435 198 -421 212 -441 323 -491 111 -51
142 -46 596 90 217 64 494 147 615 182 121 36 263 79 315 94 52 16 223 67 380
114 695 205 767 228 802 251 63 42 92 97 96 179 4 77 6 72 -161 426 -61 130
-454 969 -620 1325 -74 160 -163 349 -197 420 -34 72 -70 148 -80 170 -24 54
-261 557 -268 570 -3 6 14 -6 38 -26 38 -31 56 -61 131 -220z m48 63 c101 -92
242 -250 307 -348 30 -45 54 -86 54 -91 0 -7 -30 -4 -77 8 -43 10 -94 21 -114
24 l-35 5 -109 233 c-59 127 -110 237 -113 242 -3 6 -1 6 4 2 5 -5 42 -39 83
-75z m-3572 -166 c64 -30 173 -137 206 -203 35 -69 57 -149 57 -207 0 -77 -8
-96 -39 -96 -36 0 -96 -43 -125 -88 -12 -20 -35 -71 -51 -112 -33 -91 -88
-196 -162 -312 l-56 -87 -48 25 c-66 33 -113 76 -162 148 -79 117 -106 230
-82 344 14 66 60 197 75 215 4 5 17 -7 29 -26 20 -33 39 -47 62 -47 28 0 129
142 129 181 0 15 -6 42 -14 60 -20 47 -29 121 -21 159 15 68 109 89 202 46z
m-215 -118 c3 -29 10 -74 18 -99 7 -25 10 -57 7 -71 -8 -31 -95 -138 -112
-138 -23 0 -55 51 -55 87 0 35 113 273 130 273 4 0 10 -24 12 -52z m611 -436
c231 -114 322 -415 221 -732 -13 -41 -37 -99 -54 -129 -30 -55 -37 -77 -21
-67 7 5 101 -184 101 -204 0 -4 -24 -23 -52 -43 -29 -20 -82 -59 -118 -87 -36
-28 -89 -67 -118 -87 -30 -20 -56 -42 -59 -50 -3 -7 -9 -11 -13 -8 -4 3 -29
-18 -55 -46 -36 -38 -50 -48 -56 -38 -15 27 -100 136 -174 224 -213 253 -239
292 -251 383 -8 66 8 137 56 239 38 81 140 252 150 253 3 0 16 -18 30 -39 25
-41 83 -81 118 -81 43 0 168 155 178 221 5 32 1 40 -47 90 -60 63 -79 101 -79
163 0 41 2 45 38 60 55 24 128 16 205 -22z m-226 -158 c12 -16 37 -45 57 -63
24 -23 36 -44 36 -62 0 -31 -62 -128 -114 -178 -33 -32 -38 -34 -73 -25 -29 7
-46 21 -74 62 l-37 52 28 53 c16 28 45 93 64 144 19 51 43 104 53 119 l17 27
11 -50 c6 -28 21 -63 32 -79z m3852 -416 c5 -13 39 -86 76 -163 37 -77 109
-230 160 -340 52 -110 150 -319 218 -465 68 -146 124 -266 123 -267 -1 -1
-795 -237 -1726 -513 -239 -71 -601 -178 -805 -239 -203 -60 -371 -108 -372
-107 -6 6 -583 1239 -581 1241 6 5 2874 873 2886 874 7 1 16 -9 21 -21z
m-3214 -262 c69 -148 124 -270 123 -272 -2 -1 -15 0 -29 3 -23 4 -39 32 -133
234 -99 210 -107 233 -101 270 4 22 9 39 10 37 2 -2 61 -124 130 -272z m111
-295 c107 -49 180 -217 163 -374 -19 -167 -218 -379 -435 -464 -57 -22 -86
-27 -164 -27 -88 -1 -100 1 -162 32 -114 56 -181 161 -181 282 0 119 53 195
217 315 57 41 106 75 108 75 3 0 15 -27 27 -61 13 -33 35 -75 51 -92 37 -42
87 -40 170 4 69 37 71 44 40 135 -12 32 -24 87 -27 121 -7 71 -7 70 92 72 39
0 74 -6 101 -18z m-177 -203 l20 -58 -22 -15 c-12 -8 -44 -24 -70 -35 -81 -36
-121 -14 -160 88 -28 71 -24 83 46 134 34 25 80 55 102 66 l40 20 12 -70 c7
-39 21 -97 32 -130z m238 -505 c29 -64 346 -740 365 -778 9 -16 19 -40 23 -53
7 -23 6 -23 -23 -8 -17 9 -117 50 -224 92 -320 127 -453 204 -569 332 -46 51
-149 214 -149 235 0 4 19 4 43 1 121 -16 313 64 460 193 20 18 41 33 45 33 5
0 18 -21 29 -47z m3660 -53 c45 -110 19 -215 -66 -273 -30 -21 -219 -81 -748
-238 -390 -115 -944 -280 -1233 -366 -586 -175 -600 -178 -702 -131 -75 34
-124 81 -158 149 l-30 58 33 10 c17 6 221 66 452 135 231 68 764 226 1185 351
421 125 866 258 990 295 124 37 232 67 240 66 8 -1 25 -26 37 -56z"/>
<path d="M13521 10804 c-201 -60 -235 -75 -228 -98 10 -31 38 -28 198 19 268
78 287 85 293 100 6 16 -19 46 -37 44 -7 -1 -109 -30 -226 -65z"/>
<path d="M14935 10582 l-110 -35 65 -24 c53 -20 71 -33 99 -71 19 -25 36 -42
37 -37 2 6 14 54 28 108 28 115 38 110 -119 59z"/>
<path d="M12578 9860 c-17 -17 -35 -30 -39 -30 -28 0 29 -145 60 -155 22 -7
181 41 200 59 12 12 9 24 -17 80 -17 36 -35 66 -39 67 -119 11 -133 9 -165
-21z m184 -50 c15 -30 27 -58 27 -62 1 -3 -29 -15 -66 -26 -129 -39 -119 -40
-147 17 -27 53 -33 81 -16 81 6 0 20 11 32 25 19 22 28 24 82 22 l61 -2 27
-55z"/>
<path d="M15350 8632 c-89 -30 -136 -59 -210 -128 -79 -75 -115 -140 -125
-224 -10 -93 -27 -180 -35 -180 -4 0 -69 16 -143 35 -258 66 -431 69 -597 11
-106 -36 -174 -81 -271 -176 -94 -93 -129 -152 -129 -219 0 -57 44 -102 120
-125 73 -22 117 -20 261 10 72 14 175 28 244 31 l120 5 -74 -36 c-257 -126
-447 -405 -428 -630 11 -127 89 -240 205 -294 49 -23 70 -27 147 -27 102 1
155 19 220 77 91 79 140 195 189 444 20 99 44 207 54 240 l18 59 96 -94 c157
-151 211 -182 286 -162 63 17 78 42 73 120 -2 36 -5 100 -5 143 -1 70 2 80 29
120 47 66 118 104 210 111 136 12 172 55 100 123 -27 25 -62 41 -138 65 -56
17 -109 33 -117 36 -9 2 6 15 39 33 166 91 260 216 269 358 8 121 -44 209
-153 262 -64 31 -182 36 -255 12z m195 -22 c27 -11 59 -23 65 -24 3 -1 22 -15
43 -31 105 -82 111 -218 17 -364 -51 -79 -126 -132 -331 -236 -97 -49 -191
-101 -208 -114 -123 -96 -203 -209 -247 -353 -10 -32 -22 -54 -27 -51 -6 3 -7
1 -3 -5 6 -10 -38 -246 -73 -384 -20 -81 -75 -198 -93 -198 -6 0 -8 -3 -5 -7
10 -10 -34 -54 -46 -46 -6 3 -7 1 -3 -5 11 -19 -77 -68 -144 -81 -115 -23
-238 26 -312 124 -96 127 -92 288 12 466 49 82 212 255 231 244 7 -5 10 -4 6
2 -3 5 7 17 24 27 16 9 29 15 29 12 0 -3 16 6 36 19 20 14 41 25 46 25 32 0
224 118 267 164 13 14 29 23 35 19 6 -3 8 -3 4 1 -3 4 15 36 41 70 26 34 60
93 75 131 28 70 56 202 56 262 0 45 41 130 87 181 31 34 41 40 51 30 11 -11
12 -10 7 4 -12 30 134 113 225 128 48 8 102 4 135 -10z m-936 -451 c88 -11
350 -74 364 -88 15 -15 -65 -152 -127 -218 -33 -37 -93 -87 -133 -113 l-71
-47 -149 -6 c-104 -3 -187 -13 -278 -32 -147 -30 -218 -29 -283 4 -111 57 -95
151 51 296 173 173 370 237 626 204z m911 -235 c112 -31 164 -55 185 -88 31
-47 13 -58 -123 -75 -111 -14 -176 -60 -227 -160 -20 -39 -21 -92 -5 -194 14
-88 6 -111 -46 -133 -69 -29 -120 -1 -282 159 -106 104 -106 100 -44 202 45
74 102 137 162 179 64 44 241 135 265 136 11 0 63 -12 115 -26z"/>
<path d="M13537 8286 c-50 -18 -76 -42 -98 -91 -60 -130 30 -262 172 -253 102
7 153 66 154 178 0 83 -23 126 -85 158 -50 25 -88 27 -143 8z m153 -36 c32
-22 60 -85 60 -132 0 -46 -38 -117 -74 -139 -37 -23 -103 -25 -151 -5 -87 37
-110 173 -42 251 47 55 149 67 207 25z"/>
<path d="M15995 7779 c-63 -22 -106 -49 -166 -106 -32 -30 -39 -33 -63 -23
-48 18 -129 12 -177 -13 -80 -42 -98 -115 -54 -222 14 -33 25 -67 25 -75 0 -8
-30 -53 -65 -100 -150 -197 -185 -267 -185 -373 0 -82 34 -153 92 -193 34 -24
51 -29 102 -29 117 0 231 83 305 224 l38 72 49 -46 c74 -69 168 -135 227 -157
152 -59 312 4 384 150 24 50 28 69 28 147 0 77 -4 96 -25 135 -36 63 -73 84
-197 109 -59 13 -118 25 -130 28 -21 5 -20 8 27 62 67 77 93 139 94 227 1 61
-3 76 -27 112 -54 82 -169 111 -282 71z m200 -29 c86 -42 112 -154 62 -264
-29 -62 -111 -156 -137 -156 -25 0 -92 62 -153 143 -64 84 -92 116 -127 140
l-25 18 45 39 c75 66 152 100 228 100 45 0 79 -6 107 -20z m-431 -121 c47 -13
111 -71 186 -170 105 -137 137 -156 313 -190 179 -33 217 -56 244 -148 40
-140 -26 -297 -153 -361 -132 -65 -299 0 -476 186 -173 180 -332 436 -344 553
-12 107 95 168 230 130z m-124 -410 c30 -50 86 -128 123 -175 l68 -84 -38 -73
c-131 -251 -384 -297 -453 -83 -29 91 6 198 112 336 36 47 77 105 93 128 15
23 30 42 34 42 3 -1 31 -41 61 -91z"/>
<path d="M17152 5908 c-13 -13 -16 -47 -4 -65 4 -7 19 -16 32 -22 17 -6 19
-10 8 -10 -17 -1 -48 -37 -48 -56 0 -5 4 -16 9 -24 7 -11 25 -8 102 14 52 15
97 30 102 34 4 4 -2 17 -13 29 -15 16 -32 22 -60 22 -37 0 -39 2 -28 19 19 30
-13 71 -55 71 -18 0 -38 -5 -45 -12z"/>
<path d="M16623 5758 c-13 -6 -23 -15 -23 -20 0 -4 -20 -8 -43 -8 -75 0 -99
-49 -49 -99 25 -26 125 -71 156 -71 18 0 66 99 66 137 0 58 -53 87 -107 61z
m75 -20 c7 -7 12 -25 12 -42 0 -32 -36 -116 -51 -116 -4 0 -32 9 -61 21 -92
36 -127 89 -72 109 18 7 33 6 55 -5 25 -13 29 -14 29 -1 0 37 61 61 88 34z"/>
<path d="M16000 5583 c-89 -32 -113 -71 -84 -142 29 -73 100 -98 184 -65 46
19 60 38 60 86 0 80 -89 147 -160 121z m98 -38 c65 -55 64 -123 -3 -151 -78
-32 -141 -8 -165 65 -11 35 -11 43 3 64 31 47 121 59 165 22z"/>
<path d="M15373 5390 c-27 -11 -43 -40 -43 -78 0 -61 98 -105 161 -72 14 8 27
7 48 -5 35 -17 41 -18 41 -6 0 5 -13 14 -29 20 -25 11 -28 17 -27 52 0 29 -6
45 -25 65 -28 28 -89 40 -126 24z m111 -35 c59 -55 1 -131 -81 -104 -36 12
-53 34 -53 73 0 55 86 75 134 31z"/>
<path d="M14770 5162 l-30 -56 30 -64 c23 -48 34 -63 46 -58 9 3 21 6 27 6 31
1 38 16 21 49 -18 35 -13 61 11 61 10 0 23 -16 32 -40 17 -43 23 -46 65 -27
l27 12 -32 65 c-32 64 -33 64 -99 86 l-67 22 -31 -56z m124 4 c49 -20 95 -126
55 -126 -5 0 -17 16 -26 35 -19 39 -54 55 -78 35 -18 -15 -19 -43 -2 -70 10
-17 9 -22 -3 -30 -24 -15 -27 -13 -53 43 l-24 52 21 43 c23 48 34 50 110 18z"/>
<path d="M5840 10930 c-255 -39 -425 -251 -365 -455 45 -155 178 -251 365
-262 220 -14 412 107 465 292 71 243 -176 469 -465 425z m205 -37 c156 -48
249 -163 249 -308 0 -92 -34 -164 -109 -234 -129 -117 -318 -153 -478 -91
-186 71 -272 257 -195 420 86 184 321 278 533 213z"/>
<path d="M4358 10794 c-252 -61 -389 -292 -295 -498 67 -147 256 -237 439
-209 146 21 254 84 325 187 193 281 -103 609 -469 520z m190 -14 c211 -35 347
-198 311 -373 -52 -251 -403 -384 -643 -243 -47 28 -107 89 -130 134 -103 198
56 437 320 481 69 12 72 12 142 1z"/>
<path d="M5150 10260 c-152 -29 -270 -115 -329 -239 -35 -76 -37 -193 -3 -262
32 -65 81 -119 143 -156 221 -132 542 -46 651 174 29 59 33 77 32 143 -2 150
-92 266 -251 321 -64 22 -180 31 -243 19z m195 -32 c25 -7 45 -16 45 -21 0 -4
5 -5 11 -2 9 6 65 -25 106 -59 68 -55 102 -117 110 -199 3 -36 2 -74 -2 -84
-5 -10 -7 -21 -7 -26 5 -20 -46 -97 -94 -144 -118 -114 -258 -148 -443 -109
-68 15 -201 108 -201 142 0 8 -4 14 -9 14 -18 0 -41 82 -41 146 0 153 120 290
297 339 62 17 170 18 228 3z"/>
<path d="M6765 7904 c-27 -26 -117 -87 -200 -136 -162 -97 -1112 -573 -1285
-643 -167 -69 -351 -127 -710 -225 -533 -145 -621 -175 -835 -282 -333 -167
-703 -464 -1211 -972 -374 -375 -555 -577 -1209 -1352 -684 -811 -916 -1055
-1214 -1276 -53 -39 -98 -73 -100 -75 -2 -2 -1 -6 2 -10 19 -18 306 217 492
403 202 201 383 407 971 1103 547 648 778 904 1135 1256 404 398 722 661 996
824 260 154 388 201 978 361 344 94 606 178 756 243 136 59 946 458 1069 526
257 143 430 260 430 292 0 17 -15 8 -65 -37z"/>
<path d="M3119 6393 c-148 -110 -322 -257 -427 -358 -46 -44 -88 -81 -93 -83
-5 -2 -9 -8 -9 -14 0 -17 15 -6 115 87 153 141 448 381 531 431 10 6 14 13 8
17 -6 3 -62 -33 -125 -80z"/>
<path d="M7095 5885 c-153 -30 -285 -84 -410 -168 -71 -48 -203 -173 -251
-238 l-34 -47 -182 99 c-100 54 -184 96 -186 94 -10 -10 21 -30 178 -115 94
-50 170 -94 170 -96 0 -3 -22 -51 -49 -107 -198 -410 -125 -874 189 -1201 469
-488 1269 -416 1644 148 65 97 111 200 147 326 21 75 24 105 24 260 -1 149 -4
187 -23 257 -106 392 -387 670 -782 775 -98 26 -334 33 -435 13z m408 -30
c609 -142 957 -756 762 -1342 -52 -157 -123 -273 -238 -392 -349 -361 -897
-422 -1317 -145 -230 151 -391 390 -447 664 -19 92 -21 303 -4 385 95 452 429
774 877 845 81 12 285 5 367 -15z"/>
<path d="M6375 5174 c-65 -157 -76 -391 -26 -565 21 -73 70 -179 83 -179 14 0
9 18 -17 70 -53 104 -70 192 -69 355 0 156 -1 150 61 338 11 33 -17 17 -32
-19z"/>
<path d="M11535 5674 c-211 -47 -369 -131 -520 -275 -225 -217 -338 -501 -322
-814 24 -465 352 -856 808 -965 401 -95 833 62 1079 392 240 323 277 746 95
1108 -55 109 -114 187 -215 284 -133 127 -266 203 -445 253 -117 33 -368 42
-480 17z m323 -10 c34 -4 60 -10 58 -13 -2 -3 13 -7 34 -8 59 -4 264 -78 255
-92 -2 -4 4 -7 13 -7 25 0 152 -86 145 -97 -3 -6 -2 -7 4 -4 12 8 79 -50 75
-65 -1 -5 2 -7 7 -4 5 3 24 -13 42 -36 18 -24 43 -54 56 -67 12 -13 20 -27 17
-32 -3 -5 -2 -8 3 -7 4 2 9 -1 10 -6 1 -5 5 -12 10 -15 21 -15 74 -111 67
-123 -4 -7 -3 -10 1 -5 13 11 60 -107 83 -208 37 -164 38 -302 1 -470 -17 -73
-69 -205 -81 -205 -6 0 -8 -3 -5 -7 10 -10 -75 -152 -119 -200 -7 -7 -15 -9
-19 -5 -5 4 -5 2 -2 -4 7 -11 -80 -99 -163 -166 -40 -32 -131 -84 -138 -79 -1
1 -10 -5 -18 -14 -9 -8 -20 -13 -25 -10 -5 4 -9 3 -9 -2 0 -9 -55 -32 -136
-57 -92 -28 -195 -39 -334 -33 -150 5 -258 31 -368 87 -33 16 -64 30 -69 30
-5 0 -19 9 -31 20 -12 11 -25 21 -29 23 -5 1 -7 6 -5 10 1 5 -2 6 -8 2 -13 -8
-100 57 -95 72 2 7 -1 10 -8 7 -26 -10 -239 241 -220 260 3 3 1 6 -6 6 -7 0
-10 4 -7 9 4 5 2 11 -2 13 -14 5 -74 137 -67 148 3 6 2 10 -4 10 -5 0 -19 44
-32 98 -31 135 -31 319 1 452 39 168 142 358 256 475 76 78 151 140 168 140 8
0 26 13 41 28 26 25 38 31 58 28 4 0 7 3 7 8 0 14 177 81 196 74 11 -4 15 -2
11 4 -6 9 30 17 163 37 45 6 156 6 218 0z"/>
<path d="M11370 3797 c0 -10 52 -49 70 -52 3 -1 35 -11 71 -22 100 -32 240
-46 339 -34 46 6 85 12 87 14 2 3 -2 9 -9 15 -9 7 -29 7 -58 2 -49 -10 -233
-5 -252 6 -6 4 -28 9 -49 10 -21 2 -71 20 -112 39 -82 39 -87 40 -87 22z"/>
<path d="M4083 5229 c-215 -36 -392 -197 -448 -409 -19 -72 -19 -211 0 -285
61 -232 266 -397 510 -412 164 -10 303 43 421 161 114 113 164 235 164 396 0
155 -52 282 -161 391 -128 129 -308 188 -486 158z m237 -36 c133 -36 265 -140
327 -258 155 -294 18 -649 -294 -762 -344 -125 -713 136 -713 505 0 357 334
610 680 515z"/>
<path d="M3941 4960 c-118 -27 -162 -172 -93 -312 36 -73 145 -195 252 -283
68 -56 72 -57 98 -44 45 24 255 241 290 300 41 71 59 158 43 216 -39 143 -212
180 -316 67 l-40 -44 -38 41 c-21 22 -48 44 -60 48 -36 14 -100 19 -136 11z
m129 -40 c21 -11 53 -40 72 -66 l33 -46 15 23 c53 81 104 112 178 108 67 -3
100 -23 123 -72 35 -79 17 -194 -40 -245 -14 -13 -19 -20 -12 -16 29 15 -28
-51 -121 -141 -140 -136 -133 -131 -163 -111 -13 9 -48 38 -78 65 -29 28 -62
58 -73 68 -47 40 -132 158 -149 204 -22 63 -17 148 12 187 44 59 133 78 203
42z"/>
</g>
</svg>
