<?xml version="1.0" standalone="no"?>
<!DOCTYPE svg PUBLIC "-//W3C//DTD SVG 20010904//EN"
 "http://www.w3.org/TR/2001/REC-SVG-20010904/DTD/svg10.dtd">
<svg version="1.0" xmlns="http://www.w3.org/2000/svg"
 width="737.000000pt" height="773.000000pt" viewBox="0 0 737.000000 773.000000"
 preserveAspectRatio="xMidYMid meet">
<metadata>
Created by potrace 1.16, written by Peter Selinger 2001-2019
</metadata>
<g transform="translate(0.000000,773.000000) scale(0.100000,-0.100000)"
fill="#000000" stroke="none">
<path d="M660 5169 c0 -5 6 -9 13 -9 8 0 30 -15 50 -32 33 -30 35 -35 22 -52
-13 -18 -15 -18 -49 4 -20 12 -53 23 -73 25 -21 1 -46 6 -55 10 -14 5 -18 2
-18 -14 0 -20 -2 -21 -34 -7 -37 15 -52 11 -35 -10 13 -16 2 -37 -14 -28 -7 3
2 -6 18 -21 l30 -26 -39 15 c-44 18 -70 21 -61 6 4 -6 10 -8 14 -6 4 3 13 1
21 -4 15 -10 14 -10 -52 -12 -18 0 -25 -4 -21 -14 3 -9 -2 -14 -15 -14 -11 0
-25 -7 -32 -15 -7 -8 -22 -15 -33 -15 -19 0 -20 -1 -2 -20 22 -24 14 -36 -13
-21 -35 19 -38 12 -5 -10 30 -19 31 -22 17 -37 -9 -8 -29 -15 -45 -15 -30 0
-39 -11 -16 -20 9 -4 9 -6 -1 -6 -8 -1 -30 -8 -49 -18 -25 -12 -33 -21 -30
-35 3 -10 -1 -21 -8 -26 -7 -4 -27 -32 -45 -62 -18 -30 -42 -68 -53 -84 -11
-16 -21 -36 -22 -45 -1 -9 -6 -25 -12 -36 -8 -14 -12 -112 -12 -289 -1 -238 1
-271 16 -299 10 -18 21 -34 24 -37 3 -3 14 -27 25 -55 10 -27 35 -66 56 -86
21 -20 38 -42 38 -48 0 -6 9 -11 20 -11 11 0 20 -3 20 -8 0 -17 143 -147 211
-191 24 -16 62 -47 84 -70 21 -22 45 -41 51 -41 7 0 14 -6 16 -12 7 -20 58 7
58 31 0 11 -4 22 -9 25 -5 3 -11 17 -13 31 -4 19 -1 25 12 25 11 0 20 10 23
28 7 34 4 37 -16 17 -23 -22 -26 -19 -17 21 9 37 20 57 20 34 0 -9 5 -7 15 6
14 18 15 18 8 0 -6 -18 -5 -18 23 2 34 24 100 37 109 22 3 -5 1 -10 -5 -10 -7
0 -10 -6 -7 -14 3 -8 -9 -26 -30 -42 -40 -32 -67 -85 -58 -114 6 -18 55 -60
70 -60 4 0 0 11 -9 25 -10 16 -14 34 -10 50 7 27 24 34 24 11 0 -8 16 -35 35
-60 19 -26 35 -48 35 -51 0 -3 -10 -5 -22 -6 -23 0 -23 0 1 -10 34 -13 60 -3
54 21 -4 17 0 20 26 20 33 0 44 -23 16 -34 -8 -3 -15 -11 -15 -18 0 -9 3 -9
12 0 23 23 39 14 36 -19 -2 -22 3 -35 15 -43 15 -9 22 -6 41 17 12 15 29 27
39 27 24 0 22 5 -28 70 -25 33 -43 65 -39 73 3 8 -2 17 -12 21 -12 5 -15 2
-10 -10 4 -10 1 -14 -6 -12 -13 5 -15 9 -17 53 -1 17 -10 29 -25 37 -14 6 -27
17 -31 26 -4 11 1 13 22 9 41 -8 85 3 79 19 -7 19 3 17 51 -10 23 -14 55 -26
70 -27 33 -3 73 9 73 21 0 5 10 10 23 12 16 2 21 9 20 26 -2 12 1 22 6 22 5 0
7 9 4 19 -4 17 1 19 40 19 25 0 55 6 67 12 13 7 25 8 29 4 12 -17 51 -34 76
-34 19 0 25 -5 25 -22 0 -21 1 -21 29 6 34 32 61 29 61 -7 0 -13 5 -28 12 -35
8 -8 8 -15 -1 -26 -10 -12 -8 -19 8 -35 26 -26 41 -27 42 -3 0 9 3 12 5 5 4
-8 14 -9 34 -3 31 9 52 -3 24 -14 -9 -4 -14 -13 -10 -21 6 -17 -30 -36 -51
-28 -7 3 -13 0 -13 -6 0 -21 -20 -11 -26 14 -3 14 -13 25 -23 25 -13 0 -14 -2
-1 -10 12 -7 12 -13 1 -33 -7 -14 -10 -30 -7 -36 5 -7 -2 -11 -15 -11 -17 0
-20 -3 -12 -11 9 -9 7 -18 -5 -37 -12 -19 -13 -27 -4 -30 7 -2 12 -21 12 -43
0 -25 8 -51 21 -68 20 -27 19 -58 -2 -46 -5 4 -9 -3 -9 -14 0 -21 -10 -25 -73
-37 -21 -3 -41 -13 -44 -20 -3 -8 -14 -14 -24 -14 -13 0 -19 -7 -18 -22 1 -18
2 -19 6 -5 7 25 37 17 41 -11 3 -17 -2 -25 -17 -29 -12 -3 -21 -10 -21 -15 0
-6 -7 -7 -16 -4 -8 3 -26 -1 -40 -10 -13 -9 -24 -13 -24 -10 0 4 -9 2 -20 -4
-11 -6 -17 -16 -14 -22 5 -8 -4 -9 -29 -5 -38 6 -59 -6 -31 -17 13 -5 14 -9 4
-21 -6 -8 -8 -20 -4 -26 4 -7 7 -27 8 -46 1 -28 -3 -35 -23 -40 -40 -10 -120
15 -250 79 -192 95 -266 173 -311 328 -28 96 -44 114 -34 40 8 -65 48 -146
113 -227 45 -56 205 -190 283 -236 167 -100 230 -134 292 -157 l72 -26 79 18
c67 17 80 17 92 5 12 -12 10 -16 -13 -32 -14 -9 -29 -13 -33 -8 -3 5 -29 9
-57 8 l-51 0 -113 -113 c-62 -62 -126 -120 -142 -130 -15 -9 -28 -19 -28 -23
0 -4 42 -40 93 -81 50 -41 171 -157 267 -257 96 -100 211 -217 255 -259 165
-158 297 -293 291 -299 -12 -12 -65 35 -221 192 -199 200 -401 388 -614 570
-146 125 -378 348 -577 556 -72 75 -93 120 -94 196 -1 25 -2 26 -12 9 -14 -25
-2 -125 19 -149 9 -10 18 -24 19 -32 4 -28 84 -130 180 -231 93 -97 319 -336
367 -387 54 -58 123 -159 172 -251 56 -105 89 -161 97 -164 4 -2 8 -10 8 -17
0 -7 7 -15 15 -19 18 -7 20 -42 3 -49 -7 -3 -3 -6 10 -6 12 -1 22 -7 22 -16 0
-8 5 -15 10 -15 6 0 10 7 10 15 0 8 -4 15 -10 15 -5 0 -10 9 -10 21 0 28 17
15 25 -20 3 -16 13 -32 22 -35 24 -10 -4 -37 -31 -30 -15 3 -28 -1 -37 -12 -9
-11 -9 -15 -2 -10 9 5 11 2 7 -9 -14 -35 -37 -4 -83 110 -62 155 -224 469
-245 473 -20 4 -20 1 4 -83 11 -39 23 -92 25 -119 3 -27 10 -55 16 -62 6 -7 8
-18 4 -24 -4 -7 2 -14 14 -17 18 -5 19 -8 9 -21 -7 -9 -8 -13 -2 -9 7 4 10 -2
6 -18 -2 -14 -6 -25 -7 -25 -2 0 -34 44 -71 98 -114 164 -178 235 -262 290
-42 27 -95 55 -117 62 -22 7 -55 19 -73 27 -62 27 -62 8 0 -26 127 -67 234
-145 315 -228 46 -46 81 -88 78 -93 -4 -6 -2 -10 4 -10 12 0 35 -39 28 -47 -3
-2 -29 19 -59 47 -29 29 -73 61 -98 72 -25 12 -47 24 -50 28 -10 15 -197 127
-273 164 -94 45 -116 41 -26 -5 91 -46 203 -123 223 -154 l18 -27 -34 7 c-29
5 -27 3 21 -24 30 -17 57 -31 60 -31 3 0 33 -14 66 -30 33 -16 49 -27 35 -25
-14 2 -54 7 -89 10 -35 3 -67 7 -70 10 -4 2 -22 0 -41 -4 -34 -7 -31 -8 60
-38 52 -18 129 -36 171 -41 65 -8 148 -36 137 -47 -1 -2 -28 3 -58 11 -69 18
-80 18 -80 -2 0 -14 -7 -15 -39 -10 -29 4 -44 2 -55 -10 -31 -31 -22 -34 144
-49 30 -3 74 -10 97 -16 38 -10 40 -13 27 -27 -11 -11 -18 -12 -27 -3 -15 15
-27 14 -27 -4 0 -11 12 -15 46 -15 25 0 43 -4 40 -9 -4 -5 3 -7 14 -4 14 4 20
0 20 -11 0 -9 21 -26 49 -41 27 -13 53 -30 56 -36 5 -7 2 -8 -11 0 -48 26 -93
39 -133 37 -49 -1 -72 -26 -24 -26 29 0 97 -21 109 -33 4 -4 16 -7 26 -7 45 0
129 -77 121 -110 -4 -14 0 -20 11 -20 10 0 13 5 9 17 -4 9 9 2 28 -16 32 -32
33 -34 15 -45 -23 -13 -145 -95 -233 -156 -35 -23 -63 -47 -63 -52 0 -6 23 7
51 27 71 51 176 98 203 91 25 -6 66 3 66 14 0 14 -39 18 -44 4 -3 -7 -12 -11
-21 -8 -17 7 -21 24 -5 24 6 0 24 10 40 22 l30 22 43 -46 44 -45 -33 -12 c-19
-7 -39 -18 -46 -24 -41 -38 -229 -173 -305 -217 -63 -37 -70 -49 -13 -20 64
33 349 207 366 224 16 17 49 22 40 7 -3 -5 1 -11 9 -15 19 -7 20 -56 1 -56
-25 0 -27 -27 -10 -103 4 -17 2 -27 -5 -27 -8 0 -9 -5 -2 -18 6 -10 7 -29 4
-40 -3 -12 0 -28 6 -36 6 -7 15 -40 19 -71 7 -62 21 -77 44 -49 7 9 27 31 43
48 17 17 35 42 41 56 19 43 64 90 107 112 58 29 133 87 277 211 186 161 245
237 371 470 39 74 85 143 121 182 71 77 95 128 110 234 11 83 8 104 -58 384
-18 77 -18 106 4 144 21 39 231 256 258 268 10 4 36 7 57 6 20 -2 37 -1 37 1
0 2 -9 28 -21 58 -11 30 -26 71 -33 90 -17 52 -35 80 -51 80 -13 0 -13 -5 1
-39 9 -22 14 -50 12 -63 -3 -18 -6 -14 -12 17 -5 22 -15 47 -23 56 -8 10 -11
24 -6 35 6 17 5 18 -12 4 -17 -14 -18 -13 -13 8 4 12 3 20 -1 17 -4 -2 -15 12
-25 32 -9 19 -18 34 -20 32 -2 -2 0 -33 5 -69 6 -55 25 -117 74 -245 4 -11 -2
-5 -14 13 -12 18 -21 37 -21 43 0 6 -10 30 -21 53 -12 22 -26 49 -30 59 -5 9
-16 39 -25 65 -18 56 -24 71 -55 138 l-24 52 -52 -2 c-40 -2 -53 1 -53 12 0
11 -8 13 -28 9 -21 -4 -33 0 -45 14 -19 21 -63 26 -69 7 -7 -19 -208 -19 -296
0 -69 14 -73 14 -86 -3 -13 -18 -14 -18 -21 6 -4 13 -16 35 -27 48 -12 16 -16
31 -11 45 3 12 6 34 4 51 -2 40 -48 115 -69 115 -11 0 -17 9 -18 25 -1 14 2
25 7 25 5 0 9 -5 9 -11 0 -5 4 -8 9 -5 5 3 7 15 4 25 -4 14 3 24 26 35 35 19
64 67 55 91 -4 9 -17 21 -30 26 -14 5 -24 17 -24 28 0 10 -7 22 -16 25 -8 3
-12 11 -8 17 4 7 1 10 -7 7 -17 -6 -39 15 -39 36 0 9 -8 16 -20 16 -11 0 -20
7 -20 16 0 9 5 12 13 8 6 -4 4 2 -5 13 -22 24 -23 37 -4 30 12 -5 13 5 9 51
-3 31 -9 59 -13 62 -4 3 -10 17 -14 33 -3 15 -11 27 -16 27 -16 0 -12 -57 5
-74 17 -17 20 -42 5 -51 -5 -3 -15 7 -22 22 -7 15 -13 30 -15 32 -1 2 -12 -8
-25 -22 -28 -30 -115 -77 -143 -77 -20 1 -20 1 -1 15 18 13 18 15 2 21 -11 4
-27 -3 -47 -22 -25 -24 -29 -25 -29 -9 0 16 -2 17 -17 3 -10 -9 -38 -25 -62
-36 l-43 -21 6 32 c4 18 7 38 8 45 2 18 26 15 31 -5 4 -14 5 -13 6 4 0 12 6
25 11 28 20 12 9 25 -36 47 -46 21 -78 66 -67 94 2 7 0 15 -6 19 -14 8 -14 75
-1 75 6 0 10 -6 10 -12 0 -7 7 0 15 16 10 18 13 41 9 62 -8 45 21 122 59 156
29 26 30 29 30 125 0 92 -29 291 -41 279 -7 -7 -31 25 -32 42 0 18 -51 92 -60
87 -4 -2 -17 9 -29 25 -12 17 -28 30 -35 30 -8 0 -21 11 -29 24 -17 25 -63 40
-74 23 -3 -5 -27 -7 -55 -4 -42 5 -49 4 -44 -9 3 -9 3 -27 0 -40 -6 -25 -6
-25 -31 10 -25 38 -47 46 -57 21 -6 -17 -46 -21 -46 -5 0 6 -7 10 -15 10 -11
0 -14 -7 -9 -25 8 -33 -1 -32 -37 4 -30 31 -73 33 -62 4 5 -13 0 -14 -28 -8
-19 4 -38 11 -44 15 -21 16 -85 39 -85 29z m1326 -2015 c0 -20 5 -39 10 -42 8
-6 74 -187 74 -204 0 -5 -4 -8 -9 -8 -5 0 -29 -9 -54 -20 -44 -20 -46 -22 -35
-48 6 -15 19 -65 30 -112 56 -249 69 -310 78 -365 5 -33 18 -112 30 -175 43
-236 70 -417 70 -470 0 -64 -17 -133 -31 -125 -5 4 -9 0 -9 -7 0 -10 -2 -10
-8 -1 -4 7 -9 45 -10 85 -2 40 -12 125 -23 188 -11 63 -35 223 -54 355 -19
132 -46 290 -60 350 -14 61 -32 142 -40 180 -13 61 -42 171 -90 338 -10 34
-10 47 -2 47 7 0 27 10 46 23 47 30 75 47 81 47 3 0 5 -16 6 -36z m-143 -336
l19 -25 -43 -88 c-36 -76 -43 -101 -51 -186 -7 -82 -6 -103 7 -129 8 -16 11
-30 6 -30 -6 0 -8 -12 -5 -27 3 -16 6 -36 8 -45 1 -10 9 -24 17 -30 22 -19 40
-66 29 -73 -13 -8 13 -35 33 -35 16 0 40 -24 31 -32 -3 -3 6 -8 19 -12 15 -3
30 -18 37 -37 10 -22 18 -29 32 -26 21 6 23 -3 6 -22 -11 -10 -9 -12 6 -9 10
1 21 -3 23 -9 3 -8 -4 -13 -19 -13 -22 -1 -22 -1 -5 -15 11 -7 25 -11 33 -8
11 4 12 -1 3 -26 -7 -21 -18 -31 -31 -31 -19 0 -19 1 3 20 24 19 24 19 2 15
-30 -5 -63 -24 -63 -35 0 -6 -9 -10 -20 -10 -18 0 -19 -5 -13 -47 3 -27 3 -46
0 -43 -11 10 -145 378 -162 445 -36 142 -29 476 10 498 10 5 14 15 9 29 -4 13
2 28 17 44 27 28 36 27 62 -8z m-538 -393 c22 -14 48 -28 58 -31 9 -4 17 -12
17 -19 0 -7 11 -20 25 -29 14 -9 25 -23 25 -31 0 -16 28 -34 48 -29 7 1 8 0 2
-3 -7 -3 -6 -11 1 -24 8 -16 13 -18 24 -9 10 9 19 8 35 0 12 -7 33 -10 46 -7
29 5 72 -39 54 -57 -5 -5 -10 -16 -10 -24 0 -12 3 -12 15 -2 9 7 19 9 23 5 4
-4 1 -10 -5 -12 -7 -3 -13 -13 -13 -24 0 -12 5 -16 15 -13 9 4 15 0 15 -9 0
-9 -9 -19 -20 -22 -11 -3 -20 -10 -20 -15 0 -5 -3 -15 -6 -23 -3 -9 3 -16 16
-20 18 -5 19 -3 8 10 -12 15 -11 15 11 4 17 -9 26 -10 34 -2 6 6 7 11 3 11 -5
0 -3 7 4 15 10 12 9 15 -6 15 -13 0 -15 3 -7 11 17 17 50 -10 61 -52 9 -34 7
-99 -3 -143 -2 -11 1 -28 6 -39 8 -13 8 -22 0 -30 -7 -7 -7 -16 0 -30 7 -13 8
-22 1 -29 -7 -7 -33 14 -79 63 -37 40 -84 89 -103 109 -19 19 -33 41 -32 48 2
8 -4 12 -15 10 -12 -2 -18 3 -17 15 1 9 -3 18 -10 18 -6 1 -22 3 -35 4 -13 1
-27 9 -32 16 -5 8 -9 10 -9 5 0 -6 -16 5 -35 24 -19 19 -35 39 -35 45 0 7 -17
28 -37 47 -21 20 -47 48 -58 62 -11 14 -26 25 -34 26 -11 0 -11 3 -1 15 10 12
10 15 -3 15 -13 0 -14 6 -6 32 6 22 5 43 -3 64 -9 26 -9 36 1 48 18 22 39 20
86 -9z"/>
<path d="M3040 2840 c0 -6 25 -22 55 -36 57 -27 86 -52 45 -39 -15 5 -20 4
-16 -4 5 -7 -2 -11 -17 -11 -32 0 -124 -89 -105 -101 10 -7 10 -9 0 -9 -16 0
-82 -42 -82 -52 0 -23 58 -2 127 45 102 70 120 79 142 72 23 -7 20 -51 -5 -69
-9 -7 -14 -18 -10 -25 5 -7 -5 -17 -28 -26 -19 -8 -36 -22 -38 -31 -2 -10 -18
-22 -37 -29 -19 -6 -36 -16 -38 -22 -6 -17 89 -26 133 -14 54 15 57 14 51 -15
-4 -23 -2 -24 22 -19 15 3 34 0 45 -8 17 -12 16 -15 -10 -45 -16 -18 -38 -32
-49 -33 -19 0 -19 -1 3 -11 19 -9 22 -19 22 -63 0 -51 -1 -52 -30 -53 -16 0
-32 2 -34 6 -6 10 15 37 34 45 12 4 11 6 -2 6 -22 1 -24 21 -3 21 8 0 15 5 15
10 0 6 -5 10 -11 10 -6 0 -17 7 -25 15 -9 8 -11 15 -5 15 6 0 11 5 11 10 0 6
-7 10 -15 10 -8 0 -15 7 -15 15 0 9 7 18 15 21 27 11 16 24 -19 24 -19 0 -37
-6 -39 -12 -4 -10 -6 -10 -6 0 -1 7 -6 10 -12 7 -6 -5 -4 -11 6 -19 12 -9 14
-17 7 -36 -5 -14 -12 -72 -16 -129 -6 -89 -5 -103 8 -98 9 4 16 -3 20 -19 6
-24 -7 -56 -34 -84 -8 -8 -16 -22 -18 -30 -2 -8 -16 -41 -33 -73 -16 -32 -29
-67 -29 -78 0 -12 -7 -19 -20 -19 -23 0 -43 -40 -34 -65 4 -11 2 -13 -9 -9 -9
3 -18 12 -21 20 -10 26 -31 14 -51 -27 -10 -23 -25 -44 -32 -46 -7 -3 -13 -11
-13 -19 0 -28 -39 -86 -99 -146 -34 -33 -60 -66 -58 -72 4 -10 -9 -29 -53 -83
-6 -7 -10 -21 -10 -31 0 -10 -11 -28 -25 -40 -13 -12 -34 -40 -46 -64 -12 -24
-32 -57 -45 -74 -13 -17 -24 -35 -24 -40 0 -11 -156 -163 -214 -207 -25 -19
-43 -37 -39 -40 3 -4 -2 -9 -11 -13 -9 -3 -16 -12 -16 -19 0 -8 -10 -15 -22
-17 -13 -2 -23 -7 -23 -13 -1 -10 -50 -82 -85 -123 -14 -17 -25 -21 -45 -16
-15 4 -25 2 -25 -5 0 -18 -24 -12 -38 9 -7 11 -19 20 -28 20 -11 0 -13 6 -9
20 9 28 -30 27 -45 -1 -6 -11 -16 -19 -22 -17 -6 2 -22 -8 -37 -22 -14 -15
-33 -31 -41 -36 -21 -13 -99 -119 -103 -141 -2 -10 -9 -30 -14 -44 -21 -49
-31 -148 -17 -160 21 -17 156 -3 174 19 8 9 20 17 25 18 18 1 70 25 87 41 16
14 18 14 24 0 3 -8 1 -24 -5 -36 -6 -11 -11 -29 -11 -41 0 -13 -8 -24 -20 -27
-11 -3 -20 -9 -20 -14 0 -5 -13 -9 -30 -9 -18 0 -30 -5 -30 -13 0 -8 -9 -22
-19 -31 -14 -13 -18 -26 -14 -49 4 -25 -2 -41 -29 -76 -18 -24 -37 -51 -43
-60 -5 -9 -13 -19 -18 -22 -17 -13 115 -41 175 -37 58 4 62 6 103 54 37 43 47
49 81 49 37 0 39 -1 39 -33 1 -17 -4 -32 -10 -32 -5 0 -4 -4 4 -9 7 -5 10 -14
7 -20 -9 -14 254 -15 304 -1 25 7 36 7 42 -3 6 -9 12 -9 27 0 13 8 22 9 26 3
4 -7 249 -10 690 -10 570 0 684 3 688 14 3 8 32 31 64 51 32 21 76 50 98 65
68 47 139 80 168 80 16 0 26 4 22 10 -15 24 458 2 653 -31 140 -23 227 -49
285 -86 49 -31 34 -48 -25 -27 -41 14 -53 4 -15 -14 18 -9 19 -11 4 -11 -23
-1 -50 -28 -42 -41 4 -6 381 -10 1080 -10 l1074 0 12 22 c7 13 32 49 56 80
l43 57 -4 683 c-4 682 -5 723 -19 745 -4 6 -4 19 -1 28 5 13 8 14 15 3 5 -8 9
7 9 40 0 38 -4 54 -15 58 -8 4 -15 17 -15 29 0 13 -4 26 -10 30 -11 7 -8 65 4
65 4 0 6 -10 3 -22 -6 -21 -5 -22 7 -5 11 14 15 15 20 5 3 -7 3 3 0 22 -7 42
-7 41 1 109 4 41 2 59 -12 80 l-17 26 -7 -25 c-6 -20 -7 -21 -8 -5 0 11 6 38
14 60 11 30 11 41 2 47 -9 6 -9 8 0 8 7 0 17 -8 22 -17 16 -28 14 6 -2 37 -24
45 -27 59 -13 54 10 -4 12 2 9 20 -3 15 0 33 7 41 13 16 4 39 -12 29 -8 -5 -9
8 -6 41 3 26 11 50 16 54 6 4 11 38 11 79 0 50 -4 70 -11 66 -8 -5 -9 -1 -5
10 5 14 3 15 -13 6 -28 -15 -40 -42 -42 -97 l-1 -48 -6 42 -6 43 -77 -66 c-43
-36 -78 -71 -78 -79 0 -8 -6 -15 -12 -15 -7 0 -42 -23 -78 -50 -356 -275 -805
-478 -1185 -534 -122 -18 -357 -36 -482 -36 -68 0 -93 -3 -93 -12 0 -10 -2
-10 -8 0 -6 8 -60 15 -173 22 -196 12 -215 15 -344 47 -105 26 -369 107 -396
123 -9 4 -61 27 -115 50 -165 70 -332 169 -549 325 -189 136 -275 218 -275
263 0 32 -21 52 -57 52 -36 0 -45 14 -29 44 18 36 10 62 -22 74 -15 6 -45 17
-67 25 -30 11 -39 20 -37 34 1 11 -4 26 -13 33 -8 7 -15 19 -15 26 0 17 -17
18 -23 2 -3 -10 -9 -8 -24 5 -21 18 -93 24 -93 7z m150 -1039 c19 -14 84 -55
145 -92 98 -58 109 -68 111 -95 2 -42 3 -44 15 -44 6 0 9 7 5 15 -3 9 0 15 9
15 18 0 20 16 3 24 -7 3 1 3 17 -1 17 -3 33 -7 36 -9 11 -6 1 -154 -12 -170
-17 -21 -79 -146 -79 -160 0 -15 -49 -36 -70 -29 -24 8 -35 54 -17 69 8 6 19
35 24 64 9 44 8 54 -5 61 -13 8 -14 12 -3 25 11 13 8 20 -17 44 -16 16 -37 32
-46 35 -9 4 -19 14 -23 24 -4 9 -14 24 -22 33 -36 39 -101 132 -101 145 0 3
-7 21 -15 41 -22 54 -21 54 45 5z m-705 -1309 c4 -87 3 -122 -5 -122 -6 0 -37
-17 -68 -39 -31 -21 -80 -50 -109 -64 -28 -15 -54 -31 -58 -37 -3 -5 -36 -10
-73 -10 l-67 1 28 20 c15 11 27 26 27 32 0 6 35 44 78 85 66 62 81 72 105 68
15 -3 27 -1 27 4 0 6 -6 10 -12 10 -10 0 -9 3 1 9 7 5 10 14 6 21 -4 7 10 30
38 58 24 26 50 58 57 70 6 13 13 22 15 20 2 -2 6 -58 10 -126z"/>
<path d="M43 1136 c3 -8 -1 -20 -9 -26 -8 -7 -14 -19 -14 -26 0 -8 -4 -14 -10
-14 -7 0 -10 -185 -10 -535 l0 -535 241 0 c226 0 241 1 234 18 -25 65 -29 104
-16 177 12 73 12 77 -14 129 -30 61 -28 107 8 152 l20 26 -22 38 c-25 45 -26
80 -5 143 l16 46 -31 43 c-37 54 -365 378 -381 378 -7 0 -10 -6 -7 -14z"/>
</g>
</svg>
