<?xml version="1.0" standalone="no"?>
<!DOCTYPE svg PUBLIC "-//W3C//DTD SVG 20010904//EN"
 "http://www.w3.org/TR/2001/REC-SVG-20010904/DTD/svg10.dtd">
<svg version="1.0" xmlns="http://www.w3.org/2000/svg"
 width="737.000000pt" height="773.000000pt" viewBox="0 0 737.000000 773.000000"
 preserveAspectRatio="xMidYMid meet">
<metadata>
Created by potrace 1.16, written by Peter Selinger 2001-2019
</metadata>
<g transform="translate(0.000000,773.000000) scale(0.100000,-0.100000)"
fill="#000000" stroke="none">
<path d="M4145 7708 c-11 -11 -19 -24 -17 -30 1 -5 -2 -7 -7 -4 -20 12 -134
-128 -187 -231 -65 -123 -11 -87 114 78 37 49 132 195 132 204 0 10 -16 3 -35
-17z"/>
<path d="M4437 7688 c-45 -57 -107 -155 -107 -171 0 -7 -4 -17 -8 -22 -5 -6
-14 -30 -21 -55 -8 -25 -17 -57 -23 -71 -5 -14 -8 -42 -6 -62 1 -20 -3 -42
-10 -49 -19 -19 -14 -26 16 -30 22 -2 33 -14 58 -63 29 -56 31 -69 37 -205 l7
-145 37 -33 c20 -17 54 -40 76 -49 21 -10 44 -28 51 -41 11 -21 14 -11 25 89
24 225 152 875 177 897 4 4 4 -6 0 -22 -4 -15 -10 -42 -13 -58 l-6 -30 59 38
c32 21 76 52 98 68 29 23 35 25 26 9 -11 -18 -79 -67 -160 -115 -22 -14 -28
-30 -48 -134 -12 -66 -25 -132 -28 -149 -2 -16 -11 -66 -19 -110 -28 -162 -46
-288 -52 -375 l-6 -90 34 0 34 0 -2 -82 -1 -83 8 78 c8 84 19 112 21 56 l2
-34 6 38 c5 29 14 43 40 59 l34 22 -5 -25 c-3 -13 -17 -69 -31 -124 -14 -55
-28 -125 -31 -155 l-6 -55 14 40 c8 22 15 36 15 30 2 -12 21 16 21 30 0 6 -5
3 -10 -5 -15 -23 -13 1 9 88 10 43 22 94 25 115 4 20 12 37 19 37 7 0 32 -17
56 -38 l44 -38 -45 -69 c-44 -68 -109 -191 -129 -242 l-9 -25 29 24 c30 23
138 204 128 214 -3 3 -24 -30 -47 -73 -52 -99 -94 -154 -54 -73 60 125 96 182
106 168 7 -9 8 -7 4 7 -3 11 1 29 9 39 13 18 16 18 37 2 108 -77 193 -134 196
-131 20 20 -139 179 -225 224 -40 21 -25 5 48 -50 103 -78 103 -78 96 -85 -6
-6 -29 11 -102 75 -11 9 -37 27 -58 40 -20 13 -34 27 -31 33 4 6 3 8 -3 5 -5
-3 -19 1 -31 9 -18 12 -20 19 -11 35 20 38 38 33 107 -33 69 -65 166 -130 212
-142 24 -7 24 -6 6 8 -11 9 -24 16 -29 16 -4 0 -6 4 -2 9 3 5 0 13 -6 17 -8 4
-9 3 -5 -4 13 -22 -4 -12 -72 40 -109 84 -163 130 -158 136 3 2 47 -29 98 -70
51 -41 100 -78 108 -83 31 -17 -47 58 -117 113 -74 57 -82 69 -62 89 8 8 36
-10 103 -66 97 -82 164 -127 173 -118 17 18 -85 130 -185 202 -56 40 -60 46
-37 65 12 10 31 -2 107 -64 50 -42 97 -76 104 -76 6 0 14 -7 18 -15 3 -8 10
-15 16 -15 32 0 -95 153 -171 206 -42 29 -43 31 -29 54 8 12 19 6 62 -36 59
-57 103 -89 142 -104 24 -9 26 -8 17 9 -6 10 -51 57 -101 103 -78 74 -109 118
-82 118 4 0 34 -22 67 -49 61 -50 135 -94 143 -86 3 2 -7 20 -22 39 -24 32
-53 58 -150 139 -22 18 -27 28 -20 40 8 14 18 9 68 -34 61 -52 134 -95 144
-85 15 15 -154 177 -183 175 -5 0 1 -8 15 -17 39 -27 124 -104 134 -121 7 -12
5 -12 -10 2 -10 10 -48 41 -84 69 -36 28 -65 57 -65 63 0 7 -6 24 -14 38 -8
14 -11 33 -7 42 5 14 17 7 67 -40 75 -69 168 -140 175 -133 6 7 -46 57 -149
144 l-83 69 -2 60 -3 60 73 -71 c69 -67 184 -152 193 -142 7 6 -58 98 -69 98
-5 0 0 -10 12 -23 12 -13 22 -27 22 -33 0 -5 -15 7 -33 26 -18 19 -62 59 -99
89 -37 30 -65 57 -63 62 3 4 1 10 -5 14 -5 3 -10 1 -10 -5 0 -6 -5 -8 -10 -5
-6 4 -8 11 -5 16 4 5 -1 12 -9 15 -17 6 -34 51 -39 105 -2 20 -7 41 -11 47
-12 20 -107 15 -130 -6 -12 -10 -39 -29 -61 -41 l-40 -23 27 24 c15 12 37 31
50 40 23 17 23 17 -24 18 -32 0 -48 -4 -48 -12 0 -10 -2 -10 -8 -1 -4 7 -25
12 -46 11 l-39 -1 34 -29 34 -30 -42 23 c-24 12 -43 26 -43 31 0 4 -11 8 -25
8 -14 0 -25 -4 -25 -9 0 -5 26 -33 58 -61 31 -28 46 -46 32 -39 -13 6 -45 34
-71 60 -45 46 -51 49 -98 49 -46 0 -52 -3 -84 -42z"/>
<path d="M6317 7716 c-9 -22 -88 -39 -121 -26 -41 15 -108 -9 -204 -73 -101
-68 -120 -83 -233 -199 -57 -57 -105 -98 -115 -97 -18 0 -17 1 1 9 34 15 4 11
-80 -10 -85 -22 -245 -94 -245 -111 0 -6 5 -7 11 -4 5 4 20 8 32 9 47 6 96 20
185 53 51 19 96 32 99 29 12 -12 -40 -54 -74 -61 -103 -19 -299 -113 -279
-133 4 -3 11 -1 17 5 6 6 17 9 25 6 13 -5 66 9 109 27 137 59 141 60 121 23
-11 -23 -27 -31 -82 -46 -93 -24 -186 -67 -180 -83 3 -8 0 -11 -8 -8 -8 3 -17
0 -22 -7 -10 -17 48 -7 153 27 45 15 85 25 88 22 16 -16 -16 -40 -83 -63 -84
-29 -196 -84 -171 -85 8 0 33 8 55 19 60 28 165 64 171 57 3 -3 0 -8 -8 -10
-106 -36 -169 -60 -165 -63 3 -4 96 20 135 35 8 3 12 0 10 -7 -2 -6 -40 -26
-84 -44 -89 -36 -156 -78 -136 -85 8 -3 17 1 20 7 4 6 15 9 23 6 14 -6 101 17
161 40 14 6 17 2 17 -19 0 -15 -6 -28 -12 -30 -92 -24 -164 -52 -204 -78 -61
-41 -44 -46 66 -19 104 26 101 26 89 -7 -8 -23 -21 -32 -65 -46 -31 -10 -54
-20 -51 -22 2 -2 23 3 47 11 50 17 50 18 50 7 0 -9 -89 -35 -130 -38 -14 -1
-36 -7 -50 -13 -20 -9 -10 -10 50 -6 41 2 90 8 109 11 56 11 28 -12 -38 -30
-33 -9 -63 -21 -66 -26 -8 -12 6 -13 37 -1 45 16 78 21 78 12 0 -5 -25 -15
-55 -22 -30 -7 -55 -16 -55 -21 0 -11 80 0 96 13 16 13 24 0 24 -38 0 -103 73
-297 151 -400 69 -91 163 -167 261 -210 25 -11 28 -10 32 10 3 12 17 81 32
152 46 227 139 534 306 1020 l90 260 -44 35 c-92 75 -116 109 -132 195 -6 32
0 21 25 -44 13 -35 159 -190 159 -170 0 7 2 10 6 7 3 -3 -18 -79 -46 -169
-100 -316 -161 -515 -181 -589 -95 -347 -143 -555 -153 -668 -4 -49 -3 -52 21
-58 36 -9 142 2 183 20 86 37 195 129 296 249 41 49 74 93 74 98 0 12 -37 12
-45 -1 -11 -17 -131 -80 -202 -105 -82 -28 -178 -45 -248 -44 l-50 2 55 8
c134 22 269 61 358 105 50 25 92 49 92 54 0 22 -48 15 -113 -15 -88 -42 -210
-74 -297 -80 l-65 -4 65 15 c172 39 233 59 328 105 56 28 102 54 102 59 0 18
-46 18 -84 -2 -88 -45 -292 -99 -370 -98 -41 1 6 16 89 29 68 11 277 79 294
96 3 4 -1 10 -9 15 -11 7 -5 9 21 8 33 -1 88 26 89 44 0 4 -11 10 -24 14 -16
4 -44 -5 -83 -24 -88 -45 -328 -119 -355 -109 -7 2 7 10 32 17 85 23 285 92
324 112 l40 20 -26 14 c-23 12 -32 11 -65 -2 -58 -25 -201 -62 -263 -68 -45
-5 -37 -1 50 22 160 43 350 114 350 131 0 3 -18 16 -39 28 l-39 22 -62 -24
c-73 -29 -269 -79 -277 -72 -3 3 15 11 38 17 161 41 369 122 369 143 0 12 -33
5 -82 -17 -22 -9 -38 -12 -38 -6 0 5 6 10 13 10 8 0 29 7 47 16 26 13 29 19
18 25 -10 5 -38 0 -76 -15 -33 -13 -94 -29 -134 -35 -40 -7 -84 -14 -98 -17
-16 -3 -21 -2 -15 4 6 5 50 17 99 26 115 22 191 53 175 72 -7 9 -21 12 -38 8
-25 -6 -25 -6 -6 9 22 18 55 22 55 8 0 -14 50 -19 76 -7 13 6 24 13 24 16 0 3
-16 18 -35 33 l-36 28 -62 -19 c-90 -28 -208 -55 -213 -49 -6 6 63 29 156 52
35 9 73 21 83 27 18 9 18 10 0 23 -10 8 -29 12 -43 9 -22 -5 -23 -4 -7 6 26
17 128 50 122 40 -3 -4 -20 -12 -37 -15 -30 -7 -31 -8 -13 -21 26 -19 44 -18
83 6 l33 20 -22 29 -21 29 -70 -29 c-38 -15 -97 -33 -131 -39 -34 -6 -73 -13
-87 -15 -56 -11 8 14 75 29 68 16 172 52 188 66 4 4 3 18 -4 32 -11 26 -12 26
-48 11 -20 -9 -74 -26 -121 -39 -136 -37 -111 -18 44 31 48 16 90 35 93 42 3
7 11 12 17 11 19 -5 96 34 96 49 0 7 8 13 17 13 9 0 28 10 42 23 l25 22 -22
-31 -21 -30 36 -40 c19 -21 53 -66 75 -99 21 -33 37 -51 34 -40 -3 11 -8 103
-11 205 -3 102 -10 205 -16 230 -5 25 -12 66 -16 93 l-6 47 72 0 c55 0 70 3
64 13 -4 6 -8 17 -8 22 0 6 -30 11 -67 13 -88 4 -89 22 -2 22 56 0 65 2 60 16
-3 9 -6 20 -6 26 0 7 -23 8 -69 4 l-69 -7 -10 30 -10 29 81 -1 c78 -2 82 -1
83 21 1 20 -3 22 -52 22 -104 0 -119 -12 -211 -175 -51 -92 -76 -145 -67 -145
7 0 41 27 74 59 66 65 82 65 23 0 -35 -39 -136 -112 -158 -114 -11 -1 -62 -22
-76 -31 -5 -3 -9 -3 -9 0 0 3 24 19 54 36 49 28 57 38 96 118 48 99 47 97 95
175 19 32 35 62 35 68 0 5 -33 9 -76 8 -59 -1 -74 -4 -70 -15 3 -8 1 -14 -5
-14 -5 0 -12 6 -15 13 -7 18 -71 20 -77 3z"/>
<path d="M1690 7685 c0 -3 18 -44 40 -91 22 -47 40 -88 40 -90 0 -3 12 -22 26
-44 14 -21 23 -44 19 -50 -9 -15 -32 4 -41 33 -7 24 -68 115 -108 162 l-25 30
23 -62 c14 -34 43 -96 66 -138 23 -41 39 -75 37 -75 -3 0 -22 24 -43 53 -21
28 -49 63 -61 77 -12 14 -29 34 -37 45 -27 35 -17 2 23 -78 l39 -79 -34 -14
c-22 -9 -48 -12 -74 -8 -29 5 -52 2 -80 -11 -36 -16 -42 -16 -58 -3 -20 17
-83 34 -162 44 -71 8 -75 11 -48 35 l23 20 -25 -7 c-14 -3 -40 -13 -59 -20
-18 -8 -38 -11 -45 -7 -6 4 -22 6 -35 4 -20 -2 -9 12 55 73 69 67 76 75 51 72
-16 -3 -34 -9 -40 -14 -7 -5 -44 -34 -83 -64 -60 -48 -79 -57 -126 -63 -51 -6
-57 -5 -62 13 -4 11 -24 47 -46 81 -27 42 -46 61 -60 61 -11 0 -20 -6 -20 -13
0 -16 73 -131 89 -141 6 -4 9 -12 6 -17 -4 -5 -1 -9 4 -9 6 0 11 -7 11 -15 0
-8 -4 -15 -10 -15 -5 0 -10 6 -10 13 0 20 -143 162 -148 148 -5 -14 96 -171
109 -171 5 0 9 -7 9 -15 0 -24 -34 -17 -61 11 -38 41 -119 107 -125 102 -10
-10 108 -149 122 -144 8 3 14 1 14 -4 0 -6 -6 -10 -12 -10 -9 0 -8 -4 2 -10
13 -8 13 -10 -2 -10 -9 0 -21 -7 -26 -16 -6 -11 -12 -13 -16 -6 -3 6 -2 13 4
17 5 3 10 11 10 16 0 6 -4 8 -9 4 -6 -3 -34 12 -63 34 -28 22 -54 38 -57 36
-2 -3 13 -26 35 -52 29 -35 38 -55 36 -75 -3 -29 -22 -39 -22 -13 0 9 -7 18
-15 22 -21 7 -45 56 -45 90 0 15 -7 46 -15 68 -8 22 -14 55 -15 73 0 34 -13
63 -44 100 -25 28 -37 28 -66 -3 -15 -16 -30 -23 -41 -20 -39 13 -139 -13
-181 -47 -46 -36 -138 -150 -181 -222 -15 -26 -31 -45 -35 -42 -4 2 -9 -66
-10 -152 -3 -142 -1 -161 18 -200 17 -35 22 -68 26 -180 l5 -137 35 -32 c20
-17 50 -38 68 -47 18 -8 37 -26 43 -38 l11 -23 5 25 c3 14 13 86 22 161 15
129 70 452 80 474 8 16 -1 -57 -34 -265 -26 -171 -37 -284 -32 -342 1 -12 9
-18 26 -18 25 0 25 -1 24 -82 l0 -83 -19 40 c-10 22 -19 46 -19 53 -2 24 -16
12 -18 -15 -1 -23 54 -120 63 -110 1 1 4 22 7 47 18 157 19 160 48 181 35 25
36 18 8 -73 -40 -135 -58 -298 -22 -202 36 97 54 162 60 215 6 64 13 65 56 13
l28 -33 -24 -33 c-42 -57 -78 -127 -75 -145 2 -10 -1 -18 -7 -18 -18 -1 -35
-16 -35 -32 0 -11 4 -13 13 -6 6 5 23 10 37 11 l26 3 -7 -73 c-4 -40 -8 -81
-8 -91 -1 -10 -9 -21 -18 -24 -33 -13 -148 -97 -181 -133 -48 -52 -98 -146
-117 -220 -8 -36 -21 -76 -28 -90 -11 -23 -12 -20 -17 35 -6 63 -2 85 10 65 5
-8 9 -5 13 9 3 12 1 21 -4 21 -5 0 -6 15 -3 33 4 26 1 23 -17 -18 -16 -38 -20
-63 -16 -105 2 -30 1 -64 -4 -75 -6 -16 -8 -14 -8 13 -1 19 -5 31 -11 27 -7
-4 -10 -829 -10 -2440 l0 -2435 28 -7 c38 -9 429 13 532 31 123 22 581 87 680
97 98 10 180 23 300 49 273 59 383 80 422 80 18 0 40 -12 64 -35 36 -36 60
-41 33 -8 -12 15 -12 16 4 10 13 -5 17 -3 15 5 -6 18 13 34 52 43 30 7 32 9
17 20 -21 15 -22 31 -2 39 32 12 13 25 -35 24 -45 0 -52 -3 -65 -29 -13 -23
-20 -28 -43 -24 -52 10 -438 46 -537 50 -215 11 -283 16 -419 31 -164 18 -216
30 -216 48 0 11 320 146 346 146 11 0 376 145 471 187 45 20 79 41 76 47 -4 5
1 7 11 3 9 -4 48 6 88 22 64 25 69 29 45 35 -27 6 -36 29 -17 41 6 4 25 -2 43
-12 25 -15 39 -17 60 -10 35 11 34 19 -8 38 -36 17 -49 9 -17 -11 26 -17 -25
-2 -63 18 -16 9 -40 16 -52 15 -12 0 -20 4 -17 8 3 5 -2 9 -11 9 -16 0 -95 37
-95 44 0 6 109 -29 144 -45 26 -12 30 -12 42 7 14 20 15 20 86 -14 61 -30 75
-34 100 -24 15 5 36 9 45 8 10 -2 12 -1 6 1 -19 7 -16 17 17 48 24 23 30 37
30 69 l-1 41 -29 -34 c-16 -19 -38 -54 -47 -78 -22 -53 -42 -55 -89 -9 -19 19
-48 39 -64 46 -17 7 -27 17 -23 25 4 11 14 10 54 -5 27 -11 53 -20 57 -20 12
1 -69 70 -82 70 -6 0 -4 -5 4 -10 8 -5 12 -10 8 -10 -4 0 -38 19 -75 41 -37
23 -73 42 -79 43 -12 2 -124 85 -124 92 0 13 156 -77 223 -129 34 -27 37 -27
37 -8 0 25 18 37 33 22 6 -6 18 -11 26 -11 10 0 6 9 -12 28 -30 31 -35 60 -13
68 12 5 11 11 -5 38 -23 39 -17 75 9 54 13 -11 14 -9 8 17 -4 17 -9 86 -10
155 -3 105 -2 111 4 40 l6 -85 1 100 c1 55 -2 109 -7 120 -8 18 -9 18 -9 -5
-2 -52 -21 4 -21 62 0 31 -5 79 -11 107 -6 27 -9 62 -7 78 3 28 3 28 53 20 56
-9 76 -30 81 -83 1 -18 10 -48 19 -67 19 -40 80 -115 88 -107 2 3 7 168 9 368
l5 362 -63 0 c-51 0 -62 3 -58 15 4 9 15 13 35 10 16 -3 42 -7 59 -10 27 -4
30 -2 30 23 0 27 0 27 -61 22 l-62 -5 -31 -60 c-17 -33 -35 -67 -41 -75 -5 -8
-8 -25 -6 -38 2 -17 -2 -22 -15 -20 -11 2 -20 -7 -28 -30 -6 -18 -18 -38 -26
-43 -11 -8 -12 -12 -2 -16 24 -9 13 -41 -17 -48 -24 -5 -37 -23 -82 -105 -29
-54 -55 -97 -57 -96 -4 4 34 81 72 148 30 52 29 68 -10 149 -13 27 -24 53 -24
58 0 5 -4 11 -8 13 -5 2 -19 21 -33 43 -64 105 -124 170 -89 97 7 -15 16 -36
21 -47 4 -11 17 -41 28 -67 12 -26 21 -51 21 -56 0 -4 11 -23 25 -42 14 -19
25 -40 25 -48 0 -23 -23 -8 -34 24 -15 40 -76 144 -85 144 -4 0 -16 16 -27 35
-10 19 -22 35 -26 35 -11 0 -10 -8 3 -31 6 -11 12 -28 14 -37 2 -9 15 -43 30
-76 l26 -58 -29 28 c-15 16 -37 44 -47 62 -31 51 -49 38 -22 -16 7 -15 26 -51
41 -81 15 -29 24 -56 21 -60 -4 -3 -48 -6 -98 -7 -102 -1 -127 -11 -218 -86
-25 -21 -48 -38 -52 -38 -3 0 -9 20 -12 43 -6 37 -2 54 25 107 28 56 32 71 29
134 -3 67 0 77 41 161 l44 90 1 130 c0 72 -4 234 -8 360 l-9 230 27 -39 c37
-53 100 -116 133 -134 64 -35 99 -50 122 -53 23 -4 24 -2 22 41 -1 25 2 52 8
60 7 11 10 7 10 -20 0 -19 3 -46 7 -59 5 -21 10 -23 55 -19 33 4 63 15 91 34
53 38 147 176 185 274 24 61 36 78 61 89 31 15 46 49 15 37 -8 -3 -23 2 -32
11 -16 16 -17 15 -20 -11 -3 -23 -6 -25 -18 -15 -13 10 -12 14 3 31 23 25 24
44 5 60 -11 9 -14 9 -9 1 12 -20 -20 -59 -62 -75 -38 -15 -38 -15 -33 6 3 11
9 27 15 34 6 7 6 12 0 12 -5 0 -15 -12 -22 -26 -6 -14 -15 -24 -19 -22 -4 2
-25 12 -47 22 -21 10 -57 32 -80 50 -60 49 -122 77 -150 70 -14 -3 -25 -10
-25 -16 0 -12 -119 -7 -134 6 -6 6 -18 12 -26 14 -8 2 -16 8 -18 13 -2 5 -10
9 -18 9 -15 0 -19 27 -6 48 5 8 16 10 27 6 14 -6 17 -4 12 9 -3 9 -3 16 1 15
12 -3 122 33 122 40 0 3 -15 22 -32 42 -32 34 -32 34 8 -3 40 -37 43 -38 80
-28 22 6 54 11 72 11 28 0 32 3 33 28 2 23 2 24 6 5 5 -27 24 -29 82 -8 56 19
190 29 235 17 21 -6 36 -7 36 -1 0 5 18 9 40 9 52 0 51 15 -2 32 -52 17 -61
42 -21 55 l28 10 -37 12 c-30 10 -38 18 -38 36 0 14 7 25 18 28 12 3 9 7 -15
17 -33 12 -45 44 -20 53 8 3 4 11 -11 22 -14 11 -22 25 -20 38 2 12 -5 30 -14
40 -10 9 -18 26 -18 37 0 31 -1 33 -22 63 -11 15 -21 35 -22 43 -5 32 -54 44
-180 43 -66 -1 -134 -4 -151 -8 l-30 -7 39 -8 c24 -5 43 -3 49 3 6 6 20 11 32
10 11 0 14 -3 8 -6 -26 -10 -12 -22 30 -25 l42 -3 -32 -17 c-18 -10 -46 -18
-63 -18 -68 0 -177 -112 -260 -265 -35 -65 -93 -232 -85 -245 6 -10 -14 -65
-21 -58 -2 3 -9 30 -14 59 -5 30 -16 83 -23 119 -8 36 -15 94 -16 130 -3 75
-28 260 -30 215 -1 -28 -20 -72 -21 -50 -1 6 -2 60 -3 120 -3 89 -9 127 -31
195 -39 120 -83 208 -106 215 -13 4 -20 15 -20 31 0 30 14 31 34 2 24 -33 20
-17 -18 77 -19 46 -39 107 -45 135 -6 28 -21 70 -33 93 -31 61 -39 125 -20
162 l15 29 16 -23 c61 -89 172 -181 220 -184 23 -2 26 2 33 53 17 118 49 240
64 240 18 0 18 -12 0 -97 -8 -37 -18 -100 -21 -140 l-7 -72 36 -6 c45 -9 117
8 173 41 55 32 158 133 218 214 27 36 53 70 58 77 6 8 -3 17 -29 28 -37 15
-39 15 -94 -14 -63 -33 -172 -66 -245 -75 -60 -7 -33 4 69 28 66 15 230 87
271 119 19 15 19 16 2 23 -11 4 -47 -7 -95 -29 -75 -34 -198 -67 -244 -67 -13
1 18 11 67 24 106 28 229 81 220 96 -3 6 4 10 17 10 13 0 36 9 52 19 28 18 28
19 8 30 -17 9 -37 3 -114 -34 -95 -45 -238 -91 -238 -75 0 4 17 11 38 15 50 9
254 97 259 112 7 21 -34 24 -78 5 -55 -23 -169 -55 -175 -49 -3 3 32 17 78 31
95 31 228 93 228 107 0 8 -14 12 -25 7 -2 -2 -10 5 -18 16 -12 17 -18 17 -50
7 -26 -9 -37 -19 -37 -32 0 -10 6 -19 13 -20 14 -1 -22 -17 -40 -18 -7 -1 -22
10 -35 23 -13 14 -35 30 -50 35 -28 11 -38 43 -18 56 14 8 13 25 -1 25 -14 0
-59 -47 -59 -61 0 -6 4 -8 9 -4 12 7 26 -33 22 -63 -1 -14 5 -30 16 -38 16
-13 16 -13 -7 -5 -14 5 -24 15 -22 24 4 27 -22 39 -53 23 -48 -25 -59 -56 -21
-56 13 0 27 -7 30 -16 9 -25 7 -34 -7 -28 -8 3 -20 -2 -27 -11 -11 -13 -10
-22 3 -55 13 -33 13 -40 2 -40 -21 0 -29 20 -30 75 0 39 -4 50 -17 53 -11 2
-18 -3 -18 -12 0 -16 -12 -21 -22 -11 -3 3 1 22 8 43 18 49 17 82 -1 87 -8 3
-23 8 -32 12 -10 3 -21 5 -25 5 -5 -1 -8 3 -8 9 0 6 -6 9 -13 6 -7 -3 -24 4
-38 14 -29 23 -43 24 -35 4 3 -8 1 -15 -4 -15 -6 0 -10 5 -10 10 0 6 -9 19
-21 31 -24 24 -50 11 -42 -21 4 -15 0 -20 -16 -20 -17 0 -20 -3 -13 -17 5 -10
7 -24 5 -30 -3 -7 5 -25 16 -39 12 -15 24 -44 27 -66 4 -21 11 -41 15 -44 5
-3 9 -10 9 -16 0 -6 -8 -4 -18 5 -10 10 -26 17 -35 17 -14 0 -51 38 -59 61 -2
6 -11 7 -20 4 -23 -9 -35 -89 -17 -111 7 -8 20 -13 30 -11 22 6 32 -28 16 -57
-7 -11 -24 -32 -38 -46 -14 -14 -29 -38 -33 -53 -4 -15 -10 -26 -14 -23 -9 5
-37 -15 -43 -31 -6 -18 -24 -1 -112 104 -95 112 -165 175 -234 210 -56 27 -59
32 -42 66 12 22 12 22 -9 3 -12 -10 -24 -27 -27 -37 -4 -12 -16 -19 -32 -19
-20 0 -24 3 -17 18 4 9 16 43 27 75 11 31 23 57 28 57 4 0 21 -11 37 -25 17
-14 34 -25 40 -25 15 0 23 42 10 57 -17 21 -30 15 -17 -9 11 -21 11 -22 -5 -9
-9 8 -14 21 -11 29 7 18 -24 43 -47 36 -9 -3 -19 0 -23 5 -4 7 1 9 12 5 11 -3
6 5 -12 20 -16 14 -38 29 -47 32 -21 6 -23 27 -4 43 10 9 20 4 42 -21 43 -49
135 -131 140 -125 3 2 6 14 9 26 3 16 -15 38 -75 93 -46 42 -76 77 -73 85 9
22 21 15 89 -49 36 -35 69 -64 74 -66 6 -2 22 6 36 17 15 12 34 21 44 21 25 0
101 54 133 95 29 37 37 57 41 112 3 24 19 47 63 92 77 76 102 84 144 42 20
-20 39 -31 53 -29 22 3 25 -10 10 -46 -6 -16 -4 -18 19 -14 17 3 27 1 26 -6
-1 -6 -1 -26 0 -45 1 -32 2 -33 19 -18 10 9 28 15 40 12 23 -4 56 21 47 35 -7
11 36 34 93 49 48 13 67 37 77 99 l7 42 44 0 c51 0 78 -22 109 -90 10 -22 21
-40 25 -40 27 0 151 70 193 108 15 14 27 22 27 18 0 -18 -88 -87 -150 -117
-61 -30 -70 -37 -70 -61 l0 -28 71 36 c40 20 80 45 90 55 11 11 19 16 19 12 0
-3 10 2 21 13 22 19 22 19 10 -4 -11 -21 -10 -27 9 -47 12 -13 39 -50 59 -83
l36 -59 -3 111 c-2 97 -10 197 -29 379 l-5 47 57 0 c48 0 56 3 51 16 -3 9 -6
18 -6 20 0 2 -22 4 -49 4 -28 0 -53 5 -56 10 -4 6 15 10 50 10 48 0 56 3 51
16 -3 9 -6 18 -6 20 0 2 -27 4 -60 4 -33 0 -60 4 -60 9 0 5 -3 17 -6 26 -6 14
2 15 61 13 64 -3 68 -2 70 20 1 19 -3 22 -32 22 -18 0 -51 -5 -72 -12 -36 -11
-43 -20 -101 -131 -34 -65 -64 -116 -67 -113 -6 6 12 48 69 160 32 63 38 83
30 100 -5 11 -16 36 -23 55 -16 43 -82 143 -126 194 -18 20 -33 35 -33 32z
m-1079 -930 c37 -41 57 -47 32 -8 -10 16 -12 24 -5 19 7 -4 19 -2 27 4 11 9
15 9 15 1 0 -6 -4 -11 -10 -11 -10 0 -2 -62 10 -70 4 -3 6 -17 6 -32 -1 -17 4
-28 11 -28 7 0 13 -6 13 -12 0 -9 4 -8 10 2 6 9 10 10 10 3 0 -7 -7 -18 -16
-25 -8 -7 -24 -21 -35 -31 -20 -18 -21 -17 -39 6 -11 13 -42 42 -70 63 -54 41
-54 42 -40 64 8 12 19 5 62 -37 30 -29 58 -53 63 -53 6 0 11 12 12 27 1 20
-12 39 -52 77 -29 28 -50 57 -48 64 7 18 10 16 44 -23z m-197 -964 c-8 -61
-33 -164 -42 -171 -4 -3 -18 -32 -31 -65 -14 -33 -46 -94 -73 -137 -26 -43
-48 -80 -48 -83 0 -2 -16 -38 -35 -79 -19 -41 -35 -88 -34 -103 l1 -28 9 31
c11 37 54 81 64 64 4 -6 0 -21 -8 -34 -9 -13 -19 -41 -23 -62 l-7 -39 22 19
c20 18 40 54 55 100 5 16 4 17 -9 6 -13 -11 -15 -9 -15 10 0 13 3 20 7 17 3
-4 16 15 29 41 20 41 23 44 23 20 2 -49 18 -38 31 20 23 103 31 132 36 132 3
0 2 -20 -2 -45 -7 -52 10 -63 20 -12 3 17 13 45 21 61 9 16 13 31 10 34 -2 3
2 17 10 31 21 38 47 113 46 136 0 14 2 16 8 7 17 -28 -31 -237 -66 -288 -12
-19 -23 -39 -23 -43 0 -5 -8 -19 -18 -32 -10 -13 -24 -40 -32 -59 -7 -19 -26
-52 -41 -72 -16 -20 -29 -40 -29 -45 -1 -21 -43 -55 -75 -60 -21 -3 -35 -11
-35 -20 0 -11 7 -13 33 -7 46 10 127 13 127 4 0 -4 -40 -13 -89 -20 -98 -15
-113 -34 -23 -28 38 2 57 -1 59 -9 3 -7 -2 -13 -11 -13 -9 0 -16 -5 -16 -11 0
-7 12 -9 35 -5 29 6 34 4 29 -9 -6 -14 -31 -18 -146 -19 -14 -1 -25 -3 -23 -7
2 -3 -9 -10 -24 -16 -25 -9 -28 -8 -24 8 3 10 8 17 12 15 3 -2 6 17 7 42 4
224 7 276 20 300 8 15 14 39 14 54 0 54 89 248 113 248 5 0 -1 -13 -13 -29
-12 -18 -16 -32 -10 -36 30 -19 83 63 59 91 -9 10 -9 14 0 14 6 0 11 -4 11
-10 0 -5 5 -10 10 -10 6 0 10 9 10 19 0 11 4 22 10 26 5 3 7 11 5 18 -6 14 29
70 40 65 5 -2 10 5 12 14 14 62 14 78 4 78 -6 0 -11 -4 -11 -9 0 -5 -19 -30
-42 -55 -50 -53 -128 -149 -145 -180 -7 -11 -12 -16 -13 -10 0 15 49 87 66 97
8 4 14 15 14 23 0 8 7 17 15 20 8 4 15 11 15 16 0 6 10 20 23 32 12 12 35 38
51 57 40 51 57 47 50 -10z m-9 -896 c39 -8 102 -31 141 -51 111 -57 109 -55
106 -128 -2 -70 5 -80 70 -111 20 -9 67 -39 105 -66 93 -68 193 -134 240 -157
55 -29 189 -71 247 -78 54 -7 91 -26 106 -54 8 -15 5 -37 -15 -126 -3 -12 -13
-24 -23 -26 -17 -5 -42 13 -42 29 0 4 -10 9 -22 10 -42 4 -122 21 -236 52 -63
17 -117 29 -122 26 -4 -3 -13 2 -20 10 -10 12 -27 14 -69 11 -35 -2 -69 2 -90
10 -19 8 -41 12 -48 10 -7 -3 -13 -2 -13 2 0 4 -55 7 -122 7 -68 0 -165 3
-216 8 -61 5 -108 3 -138 -4 -41 -11 -47 -10 -69 11 -13 12 -38 61 -56 109
-31 85 -31 87 -31 279 0 202 3 215 47 232 33 14 195 11 270 -5z m1245 -640
c21 -3 87 -36 146 -71 60 -36 135 -77 166 -92 62 -28 80 -54 55 -79 -21 -21
-70 -8 -105 27 -18 18 -33 25 -41 20 -20 -12 -4 -66 26 -90 15 -12 23 -26 19
-35 -9 -24 -36 -18 -36 8 0 34 -29 48 -68 31 -37 -15 -40 -29 -11 -60 12 -12
18 -27 14 -33 -9 -16 -22 -14 -29 5 -4 10 -2 13 6 8 7 -4 8 -3 4 4 -4 7 -19
12 -34 12 -21 0 -24 2 -12 10 11 7 4 10 -25 10 l-40 0 24 -19 c28 -21 25 -56
-4 -56 -11 0 -28 8 -38 18 -10 10 -26 16 -34 13 -9 -4 -22 -1 -29 5 -8 6 -20
9 -28 6 -16 -6 -76 19 -76 33 0 4 6 13 14 19 11 9 12 18 2 44 -13 37 -46 78
-46 57 0 -7 -2 -11 -5 -9 -2 3 3 27 11 54 14 47 14 110 0 145 -5 12 6 16 65
18 39 2 88 1 109 -3z"/>
<path d="M5020 7674 c0 -3 30 -37 68 -76 63 -66 168 -150 220 -177 22 -12 23
-11 12 10 -22 39 -93 111 -165 164 -72 53 -135 90 -135 79z"/>
<path d="M4166 7587 c-85 -91 -150 -180 -135 -185 5 -2 9 -8 9 -14 0 -6 -7 -7
-16 -4 -10 4 -20 -4 -30 -27 -8 -17 -22 -43 -31 -56 -17 -23 -17 -24 2 -14 38
21 132 128 190 218 32 50 67 103 77 118 42 61 9 43 -66 -36z"/>
<path d="M4260 7545 c-7 -13 -17 -22 -21 -19 -12 7 -134 -119 -189 -194 -44
-61 -77 -132 -61 -132 31 0 306 348 289 366 -3 2 -11 -7 -18 -21z"/>
<path d="M5698 7436 c-15 -8 -36 -12 -46 -9 -37 9 -278 -86 -297 -118 -11 -17
44 -9 127 20 95 32 281 119 258 120 -8 1 -27 -5 -42 -13z"/>
<path d="M3535 7364 c-70 -10 -97 -16 -93 -20 3 -2 71 -11 153 -19 138 -14
280 -12 290 5 2 4 -8 13 -23 20 -27 13 -261 23 -327 14z"/>
<path d="M7030 7114 c69 -70 197 -171 261 -206 60 -34 63 -34 47 -5 -21 36
-69 86 -128 131 -59 46 -208 136 -224 136 -6 0 14 -25 44 -56z"/>
<path d="M3446 6976 c-11 -26 -21 -35 -43 -38 -16 -2 -28 -9 -28 -18 0 -8 -13
-17 -30 -20 -16 -4 -41 -13 -55 -21 -24 -14 -24 -14 25 -17 70 -4 87 -11 55
-24 l-25 -10 30 -14 c17 -7 37 -13 47 -14 23 0 58 64 73 135 13 60 13 60 14
17 1 -49 -18 -101 -52 -141 -20 -24 -27 -26 -57 -19 -19 5 -44 14 -55 20 -24
14 -94 11 -113 -5 -12 -9 -11 -12 5 -18 29 -12 55 -10 47 3 -4 6 3 4 15 -5 13
-8 29 -13 37 -10 7 2 21 0 31 -6 17 -10 17 -10 -2 -11 -12 -1 -4 -7 20 -15
l40 -14 -35 4 c-19 3 -53 8 -74 11 -29 5 -37 4 -32 -5 10 -16 81 -51 105 -51
11 0 23 -4 26 -10 8 -12 -1 -13 -43 -1 -33 10 -62 6 -62 -9 0 -4 21 -15 48
-24 77 -28 92 -37 52 -30 -19 3 -59 17 -87 30 -36 17 -60 23 -75 18 -13 -4
-38 -6 -55 -6 -45 2 -41 -14 5 -21 20 -3 46 -8 56 -13 14 -5 17 -4 12 4 -9 15
6 16 20 2 6 -6 33 -19 60 -30 36 -14 42 -19 24 -19 -14 0 -36 6 -50 14 -29 16
-50 19 -50 6 0 -11 84 -47 130 -56 31 -6 38 -3 49 18 7 14 10 34 7 45 -13 39
-23 122 -16 122 4 0 11 -21 15 -46 8 -54 5 -57 69 71 19 39 46 87 61 109 25
38 26 38 7 67 -24 38 -80 79 -109 79 -16 0 -27 -9 -37 -34z"/>
<path d="M1560 6696 c0 -2 7 -16 15 -32 16 -31 12 -45 -7 -26 -14 14 -98 16
-98 2 0 -5 8 -14 19 -19 23 -13 35 -42 21 -51 -7 -4 -8 -18 -4 -33 5 -21 12
-27 33 -27 31 1 45 11 89 67 32 41 32 44 17 73 -8 16 -24 34 -34 40 -19 10
-51 14 -51 6z"/>
<path d="M3170 6591 c-34 -6 -36 -8 -47 -66 -15 -72 -12 -250 5 -267 7 -7 12
-29 12 -50 l0 -38 96 0 c61 0 93 4 89 10 -3 6 -10 10 -16 10 -10 0 -108 60
-98 60 4 0 40 -17 80 -37 41 -21 84 -39 97 -40 32 -4 28 25 -5 38 -56 21 -135
64 -151 83 -16 19 -15 18 18 -1 59 -35 141 -76 144 -72 2 2 1 29 -1 61 -5 54
-6 56 -39 62 -33 7 -159 84 -150 93 3 3 17 -4 33 -15 35 -24 129 -72 143 -72
5 0 10 11 10 25 0 16 -6 25 -16 25 -23 0 -134 57 -161 83 -33 30 -20 33 19 4
41 -31 132 -77 153 -77 10 0 15 10 15 30 0 22 -5 30 -17 30 -29 0 -136 55
-158 81 l-20 23 25 -17 c35 -25 147 -77 164 -77 13 0 26 20 26 39 0 4 -24 13
-53 20 -29 6 -70 23 -90 36 -37 26 -46 27 -107 16z"/>
<path d="M7326 5925 c-3 -9 -6 -29 -6 -45 0 -16 -6 -35 -12 -42 -17 -18 -21
-34 -20 -90 1 -38 -3 -48 -15 -48 -14 0 -13 -4 4 -22 11 -13 33 -45 48 -73 15
-27 31 -54 36 -60 6 -6 8 67 7 190 -3 175 -5 200 -19 203 -9 2 -19 -4 -23 -13z"/>
<path d="M3510 5910 l-145 -5 -3 -102 c-4 -147 -12 -141 214 -136 99 2 185 6
192 8 15 5 17 197 2 226 -9 15 -20 19 -63 17 -29 -1 -117 -5 -197 -8z"/>
<path d="M1683 5722 c4 -38 16 -95 27 -128 34 -95 34 -98 22 -90 -7 4 -12 13
-12 19 0 15 -80 94 -127 126 -38 26 -41 21 -13 -23 22 -36 99 -104 156 -138
36 -21 37 -21 30 -3 -10 27 -15 47 -31 132 -14 78 -43 173 -52 173 -3 0 -3
-31 0 -68z"/>
<path d="M4947 5662 l-38 -27 5 -375 c11 -672 17 -836 32 -815 12 16 15 17 54
1 22 -9 54 -16 71 -16 30 0 31 1 25 33 -16 76 -25 314 -24 617 l1 325 8 -310
c11 -457 31 -655 66 -655 19 0 42 -28 43 -51 0 -10 20 -57 45 -107 64 -128 97
-149 59 -39 -9 26 -20 45 -24 42 -5 -3 -12 0 -16 6 -4 8 -3 9 4 5 20 -12 14
13 -14 60 -14 24 -31 41 -36 37 -7 -4 -8 -1 -4 6 5 7 1 20 -9 31 -16 18 -15
19 15 35 18 9 33 15 34 13 1 -2 17 -48 35 -103 17 -55 41 -111 51 -125 l20
-25 -5 48 c-5 57 -10 76 -42 149 -14 32 -29 55 -34 52 -12 -7 -11 0 3 31 17
37 29 27 48 -41 20 -74 54 -149 71 -159 9 -6 10 -3 4 11 -4 10 -7 28 -7 39 1
16 -1 17 -9 5 -8 -11 -9 -5 -5 21 4 21 0 51 -9 75 -9 21 -13 28 -10 14 16 -74
13 -76 -10 -6 -26 82 -26 101 -4 149 17 38 29 34 29 -11 0 -45 32 -165 55
-207 17 -30 17 -30 12 35 -5 70 -36 215 -44 207 -2 -3 5 -49 16 -103 12 -54
19 -99 17 -101 -6 -6 -13 21 -35 131 -17 89 -18 103 -5 140 37 104 56 196 59
294 2 78 0 106 -11 117 -8 7 -14 29 -14 47 0 64 -18 110 -147 376 -36 73 -90
132 -121 132 -9 0 -26 -7 -36 -15 -13 -10 -22 -11 -26 -5 -4 6 -31 -5 -66 -28
-89 -57 -106 -58 -44 -2 45 41 52 51 40 60 -22 14 -31 12 -73 -18z"/>
<path d="M6700 5462 c0 -15 -9 -22 -36 -27 -20 -3 -45 -12 -56 -18 -15 -9 -20
-9 -27 1 -6 10 -10 9 -14 -7 -3 -12 -17 -23 -33 -27 -16 -4 -40 -16 -54 -26
-20 -16 -36 -18 -105 -14 -76 5 -77 5 -21 -4 68 -11 85 -20 35 -20 -42 1 -162
27 -134 30 11 1 15 4 8 6 -7 3 -20 1 -30 -5 -15 -8 -16 -10 -3 -14 8 -3 30
-10 49 -16 19 -6 47 -11 62 -11 15 0 30 -4 33 -8 7 -12 -49 -64 -59 -55 -4 5
-5 2 -1 -4 4 -8 1 -13 -8 -13 -9 0 -13 -6 -10 -14 6 -16 -12 -56 -30 -68 -8
-6 -7 -11 3 -17 7 -5 17 -30 22 -57 10 -53 35 -94 105 -169 43 -47 42 -36 -3
30 -7 11 -13 26 -13 35 1 12 3 11 15 -4 12 -16 13 -11 8 40 l-5 59 21 -30 c20
-28 21 -29 21 -7 0 23 16 56 38 81 11 12 13 12 12 0 -1 -8 -2 -34 -1 -59 l1
-45 21 33 c12 17 23 32 25 32 1 0 3 -48 2 -107 -2 -187 3 -209 18 -78 7 66 20
138 29 160 l15 40 -4 -80 c-4 -77 -21 -265 -30 -333 -3 -18 -1 -30 3 -27 8 5
19 81 27 184 3 46 46 196 61 211 2 2 2 -31 -1 -75 -3 -44 -3 -72 0 -62 3 9 10
17 15 17 6 0 7 9 4 21 -5 15 -4 19 4 15 7 -5 11 3 11 21 0 16 9 53 20 83 l20
55 -5 -70 c-6 -66 -5 -69 10 -50 16 19 16 13 10 -85 -3 -57 -8 -107 -10 -110
-2 -3 -8 -48 -14 -100 -6 -52 -16 -126 -21 -165 -13 -96 -42 -462 -41 -505 1
-19 6 -36 11 -38 6 -2 10 -34 11 -70 0 -49 3 -61 9 -45 24 58 47 269 29 257
-7 -4 -9 0 -5 13 22 69 54 430 60 688 3 116 10 226 15 245 l9 35 2 -50 c1 -37
4 -45 10 -30 16 39 20 -25 11 -170 -6 -106 -9 -123 -11 -70 -1 39 -6 81 -11
95 -5 16 -7 -20 -4 -98 4 -125 13 -168 26 -122 6 21 7 19 8 -13 1 -23 -3 -36
-9 -32 -6 4 -10 -9 -10 -32 0 -27 -3 -34 -9 -24 -18 28 -23 -52 -8 -129 l14
-75 7 85 c4 47 10 94 13 105 6 18 7 18 14 -5 5 -19 8 -11 9 30 1 30 2 59 1 64
-4 19 11 86 19 86 4 0 10 -15 13 -32 24 -138 28 -171 18 -177 -6 -4 -10 -27
-9 -51 1 -53 2 -172 3 -370 0 -140 -1 -147 -29 -205 -32 -67 -59 -146 -51
-153 10 -11 119 76 201 159 47 49 89 89 92 89 3 0 14 7 24 17 17 15 18 15 18
-4 0 -10 -9 -29 -20 -41 -24 -26 -26 -44 -4 -35 15 5 16 -1 11 -58 -12 -122
-16 -136 -48 -150 -17 -6 -52 -37 -80 -68 -37 -41 -46 -48 -35 -26 31 65 29
99 -4 60 -7 -9 -19 -14 -26 -11 -7 3 -16 1 -19 -4 -4 -6 -15 -10 -25 -10 -10
0 -21 -8 -23 -17 -3 -10 -4 2 -2 26 4 39 2 43 -15 38 -11 -3 -23 1 -28 8 -18
32 -62 -34 -72 -107 -7 -49 1 -62 19 -30 8 13 12 14 22 5 9 -9 9 -25 1 -66 -6
-29 -8 -73 -5 -98 7 -50 5 -49 -41 15 -50 70 -57 34 -11 -56 42 -83 47 -118
10 -73 -14 17 -25 26 -25 21 0 -5 -7 -3 -15 4 -9 7 -13 20 -11 29 3 9 -9 33
-29 56 -53 61 -43 23 36 -138 33 -68 41 -108 20 -107 -3 1 -25 33 -49 73 -39
66 -85 127 -96 127 -7 0 33 -99 66 -165 57 -112 62 -124 56 -130 -3 -3 -30 29
-59 73 -53 77 -139 182 -139 168 0 -4 9 -24 20 -44 11 -20 27 -55 37 -76 9
-22 38 -75 64 -118 43 -73 47 -77 60 -59 8 12 28 21 49 23 l35 3 8 -125 c4
-69 8 -138 9 -155 1 -16 -2 -56 -6 -88 -6 -47 -10 -56 -21 -47 -8 6 -16 23
-20 38 -5 25 -9 27 -58 26 -117 -2 -113 1 -205 -154 -46 -77 -86 -140 -89
-140 -2 0 12 33 33 73 46 91 46 90 90 160 24 39 33 62 26 70 -5 7 -17 34 -28
61 -18 49 -105 185 -151 236 -13 15 -30 35 -38 46 -19 26 -19 5 1 -37 63 -133
92 -189 118 -227 21 -30 27 -45 19 -53 -7 -7 -17 -2 -32 19 -11 17 -21 33 -21
36 0 10 -95 146 -129 186 -33 37 -40 30 -17 -17 8 -15 31 -62 50 -103 19 -41
47 -95 61 -120 23 -39 24 -41 3 -15 -13 17 -52 66 -87 110 -35 44 -66 82 -68
84 -2 2 -6 2 -9 -2 -7 -7 51 -130 78 -166 33 -43 16 -47 -166 -41 -52 2 -157
-51 -271 -136 -87 -65 -105 -81 -105 -96 0 -4 19 -18 42 -32 39 -23 44 -24 50
-8 6 14 7 14 7 -4 1 -20 34 -50 62 -56 7 -2 21 -11 31 -21 21 -20 68 -40 75
-33 3 3 -4 17 -15 33 -22 31 -52 99 -52 117 0 6 16 -20 35 -59 49 -99 52 -101
120 -107 l59 -5 -46 41 c-46 41 -98 110 -98 129 0 6 13 -9 29 -34 17 -24 51
-65 78 -90 46 -44 52 -47 133 -58 117 -15 144 -14 193 9 25 13 34 15 23 5 -11
-8 -24 -15 -29 -15 -4 0 -6 -4 -3 -8 5 -8 135 2 185 13 22 6 23 9 17 58 -4 29
-10 71 -13 95 l-6 42 34 -1 c87 -3 90 -6 114 -104 13 -49 31 -109 41 -133 14
-35 16 -51 8 -82 -8 -29 -7 -44 3 -65 17 -31 10 -44 -12 -25 -21 17 -24 12
-31 -50 -6 -51 -4 -55 26 -82 18 -15 39 -28 46 -28 8 0 14 -10 14 -24 0 -14 5
-28 10 -31 6 -3 10 -14 10 -25 0 -13 12 -21 48 -29 40 -10 317 -31 405 -31
l27 0 0 1050 c0 578 -3 1050 -7 1050 -13 -1 -107 -35 -122 -44 -12 -8 -13 2
-9 58 5 63 19 96 40 96 5 0 2 -7 -6 -16 -9 -8 -16 -21 -16 -28 0 -17 57 -19
93 -3 l27 12 0 348 c0 347 0 347 -23 385 -13 20 -29 53 -36 73 -6 20 -25 51
-41 69 -35 39 -37 55 -11 118 10 26 25 69 32 95 7 31 21 54 36 64 27 18 29 30
6 55 -25 28 -44 84 -56 165 -10 71 -10 72 -56 96 -58 31 -118 44 -256 55 -95
8 -119 7 -177 -9 -81 -23 -82 -23 -75 -4 4 8 2 17 -3 20 -6 4 -10 -3 -10 -13z
m383 -489 c3 -10 8 -40 12 -68 6 -41 9 -46 17 -31 10 18 11 18 24 -5 10 -19
13 -20 14 -6 0 9 5 17 10 17 6 0 11 8 11 18 4 49 15 -62 12 -118 -3 -52 -1
-60 7 -41 6 14 15 47 19 75 8 47 9 44 10 -42 1 -90 -15 -172 -33 -172 -5 0 -6
3 -3 7 4 3 2 12 -3 19 -6 6 -14 31 -19 55 l-8 44 -6 -37 c-4 -21 -9 -54 -13
-73 -3 -23 -9 -33 -16 -29 -7 5 -9 0 -6 -14 4 -12 4 -22 2 -22 -8 0 -28 48
-40 99 -15 64 -19 341 -5 341 5 0 12 -8 14 -17z m-103 -148 c6 -38 16 -90 22
-115 12 -46 86 -194 120 -240 66 -88 98 -136 98 -146 0 -6 14 -23 30 -37 17
-15 30 -25 30 -21 0 3 14 -4 30 -16 17 -12 30 -26 30 -31 0 -6 -13 -1 -30 11
-26 18 -29 19 -23 4 10 -26 -83 53 -118 100 -30 42 -39 39 -14 -4 30 -52 13
-40 -37 26 -28 38 -55 71 -58 74 -4 3 -12 14 -18 25 -8 14 -11 15 -11 5 -1
-21 34 -95 68 -145 16 -24 23 -41 16 -39 -25 10 -145 221 -145 255 0 7 -6 20
-14 28 -17 20 -33 301 -16 301 5 0 10 13 10 29 0 16 3 38 8 48 5 14 7 12 9
-12 2 -16 8 -61 13 -100z"/>
<path d="M6199 4981 c-111 -92 -259 -364 -259 -477 0 -18 -5 -36 -11 -39 -7
-5 -8 -29 -4 -71 6 -54 5 -64 -8 -64 -19 0 -33 -20 -20 -29 5 -3 9 -26 9 -51
0 -75 9 -160 17 -160 4 0 7 -9 7 -21 0 -15 -4 -19 -16 -15 -9 3 -18 6 -20 6
-3 0 -2 5 1 10 9 15 -11 12 -24 -4 -14 -17 5 -26 52 -26 56 0 15 -19 -48 -21
-33 -2 -68 -8 -77 -14 -19 -10 -24 -30 -10 -38 4 -2 2 -3 -4 -1 -6 1 -16 -2
-21 -7 -9 -9 -13 -4 -46 72 -9 20 -29 52 -46 72 -37 41 -37 44 -8 50 20 4 19
4 -4 6 -15 0 -43 8 -63 16 -41 17 -64 12 -45 -11 9 -11 8 -14 -5 -14 -9 0 -16
5 -16 11 0 15 -156 4 -176 -11 -7 -6 -16 -25 -19 -41 -4 -16 -11 -29 -16 -29
-6 0 -7 -5 -4 -10 5 -8 12 -7 23 2 12 10 14 10 8 1 -9 -16 112 -17 223 -3 74
10 75 9 103 -17 15 -15 28 -35 28 -45 0 -10 4 -18 8 -18 16 0 34 -47 27 -69
-6 -20 -8 -19 -43 15 -20 20 -36 40 -35 44 1 3 -31 17 -72 29 -63 20 -90 22
-189 19 -75 -3 -117 0 -120 7 -2 5 -5 2 -5 -7 -1 -11 -9 -18 -21 -18 -16 0
-20 7 -21 38 -1 20 -1 41 0 46 1 6 -1 21 -4 35 -4 17 -9 21 -14 12 -6 -8 -19
8 -40 51 -17 35 -47 82 -66 106 -19 24 -38 50 -43 59 -8 13 -20 5 -71 -42 -61
-58 -70 -79 -51 -115 7 -13 7 -35 0 -67 -7 -30 -7 -66 -2 -95 8 -38 7 -48 -4
-48 -8 0 -14 7 -14 15 0 22 -35 88 -55 105 -12 10 -12 4 5 -34 20 -48 27 -106
12 -106 -5 0 -18 22 -30 49 -12 26 -32 57 -45 67 -22 19 -22 19 -6 -1 8 -11
30 -48 48 -83 35 -67 36 -66 -32 -77 -21 -3 -44 -8 -50 -11 -7 -2 -23 18 -36
46 -13 28 -26 48 -28 46 -2 -2 5 -22 16 -45 32 -62 25 -68 -20 -20 -42 45 -34
25 9 -23 17 -19 32 -25 51 -22 26 3 26 3 3 -8 -19 -9 -33 -8 -69 5 -56 21 -71
13 -18 -9 27 -11 56 -14 95 -11 67 6 151 28 133 34 -15 5 -18 53 -3 53 8 0 26
-66 22 -80 -1 -3 -17 -6 -37 -7 -45 -3 -113 -21 -120 -32 -6 -11 66 -4 113 11
66 20 90 -48 28 -77 -19 -9 -37 -22 -39 -30 -3 -7 -26 -16 -50 -19 -41 -6 -77
-29 -65 -41 2 -2 31 7 64 20 32 14 68 25 79 26 11 0 14 3 7 6 -17 6 -5 23 17
23 15 0 18 -12 20 -88 2 -72 -1 -91 -14 -102 -9 -7 -21 -23 -26 -34 -7 -15 -3
-13 13 7 13 15 32 27 41 27 10 0 20 7 23 15 4 8 10 15 14 15 16 0 4 -33 -22
-62 -15 -16 -27 -33 -26 -36 6 -21 -15 -82 -27 -82 -8 0 -28 29 -45 65 -31 65
-71 115 -92 115 -7 0 -7 -4 1 -13 6 -8 8 -17 4 -20 -3 -4 0 -7 8 -7 15 0 55
-55 76 -104 15 -34 16 -36 4 -36 -5 0 -14 14 -21 31 -7 17 -25 38 -39 47 -29
19 -104 41 -141 41 -23 0 -22 -1 8 -14 18 -8 53 -31 77 -50 24 -20 47 -36 52
-36 4 1 8 -7 9 -18 1 -10 9 -29 18 -42 13 -19 16 -20 16 -6 0 27 18 20 35 -13
18 -36 25 -38 18 -7 -4 20 -3 21 10 5 8 -10 19 -18 26 -18 6 0 11 -17 11 -41
0 -27 4 -38 11 -33 6 3 15 0 20 -7 13 -21 11 -25 -14 -36 -20 -9 -22 -16 -19
-59 4 -38 7 -45 16 -34 15 20 85 52 97 45 5 -4 9 -15 9 -26 0 -15 -15 -27 -60
-46 -56 -25 -60 -28 -60 -60 0 -18 5 -33 11 -33 6 0 49 18 95 39 77 36 85 38
93 22 8 -15 0 -19 -62 -35 -39 -10 -86 -25 -105 -33 l-35 -15 6 -165 c4 -92 7
-244 7 -338 l0 -172 73 -12 c59 -10 85 -9 141 3 69 14 102 32 75 39 -8 3 -47
10 -87 16 -95 14 -111 23 -105 56 4 18 1 25 -11 25 -10 0 -16 8 -16 22 0 21 0
21 15 2 13 -18 14 -16 15 23 0 23 -4 43 -8 45 -5 2 -12 20 -15 40 -5 30 -3 36
10 31 13 -5 14 0 8 28 -4 19 -13 39 -21 45 -14 11 -27 40 -38 89 l-7 30 29
-35 c17 -19 33 -32 36 -29 12 11 -12 54 -37 68 -29 15 -47 50 -47 90 0 25 7
30 70 55 64 25 72 26 86 11 19 -19 40 -9 23 11 -9 11 -9 17 1 28 15 19 34 11
48 -20 7 -14 20 -24 32 -24 11 0 20 -6 20 -13 0 -11 -63 -15 -105 -7 -6 1 -19
2 -30 1 -36 -2 6 -21 48 -21 37 0 53 -22 25 -33 -8 -4 -7 -6 3 -6 17 -1 33
-36 20 -44 -3 -2 0 -2 7 0 8 1 20 3 28 3 14 0 15 33 1 46 -19 19 -6 34 24 29
31 -6 32 -5 26 30 -5 33 1 44 17 28 9 -9 56 -12 56 -3 0 3 -13 28 -29 56 -20
37 -25 57 -19 68 11 20 42 22 35 2 -5 -14 44 -109 63 -121 5 -3 10 -20 10 -36
0 -28 2 -30 32 -27 29 3 33 7 39 40 5 34 78 130 115 151 8 5 12 13 8 18 -3 5
0 16 6 24 8 10 9 15 2 15 -6 0 -18 -10 -28 -22 -11 -15 -14 -17 -11 -6 15 43
-34 21 -61 -28 -15 -27 -20 -14 -10 24 6 24 14 32 31 32 18 0 19 2 7 10 -11 7
-6 10 22 10 20 0 40 5 43 10 3 6 14 10 24 10 10 0 21 8 24 18 2 9 8 24 11 33
6 13 2 16 -21 12 l-28 -4 24 20 c25 23 46 27 56 11 3 -5 12 -10 18 -10 7 0 3
7 -7 15 -21 16 -16 31 7 22 8 -3 17 -18 20 -34 3 -15 9 -40 13 -56 6 -24 3
-29 -30 -42 -20 -8 -36 -17 -36 -19 0 -6 77 20 144 48 45 18 71 23 110 20 63
-6 77 -19 83 -78 5 -41 7 -44 19 -29 15 20 19 47 5 39 -5 -3 -11 6 -14 20 -4
21 -1 25 14 21 10 -3 19 -1 21 4 2 5 19 11 38 13 19 2 27 1 18 -1 -10 -2 -18
-9 -18 -14 0 -6 8 -9 18 -8 9 2 28 -3 42 -10 21 -11 23 -11 13 0 -22 23 -14
31 22 25 56 -11 42 20 -20 42 -26 9 -27 11 -7 11 28 1 29 17 0 24 -19 5 -116
-22 -161 -45 -9 -5 -24 -5 -32 -1 -11 7 4 20 60 53 79 47 90 60 51 60 -25 0
-89 -39 -115 -71 -9 -11 -31 -23 -48 -28 -28 -8 -33 -7 -33 8 0 26 43 63 66
55 18 -5 18 -5 0 10 -11 9 -24 16 -29 16 -5 0 -6 11 -3 24 4 15 0 28 -9 36
-12 10 -15 7 -21 -14 -3 -14 -10 -26 -14 -26 -12 0 -19 64 -8 78 8 9 6 12 -6
12 -16 0 -36 34 -42 75 -3 15 7 9 37 -23 24 -26 37 -47 33 -55 -6 -9 -3 -8 8
1 14 11 19 9 32 -10 9 -12 16 -28 16 -34 0 -7 6 -14 14 -17 11 -4 13 2 9 26
-7 46 -38 101 -73 130 -28 24 -39 47 -22 47 4 0 25 -18 47 -40 29 -30 42 -37
52 -29 10 9 21 5 47 -15 l34 -26 -15 40 c-21 53 -9 62 27 19 16 -19 29 -30 30
-26 1 21 -43 88 -71 107 -21 16 -27 26 -20 33 13 13 99 -56 112 -91 5 -13 12
-23 15 -20 10 11 -16 55 -56 96 -23 23 -38 42 -33 42 11 0 76 -68 91 -95 10
-17 11 -18 12 -2 0 9 4 17 10 17 26 0 -29 74 -85 113 -20 14 -13 3 23 -36 28
-30 52 -61 52 -68 0 -7 -12 4 -27 23 -16 19 -49 49 -75 67 -53 34 -77 42 -38
11 23 -18 23 -20 5 -20 -11 0 -26 4 -34 9 -18 12 3 51 28 51 14 0 18 5 14 19
-3 12 4 28 17 41 20 20 24 21 37 7 20 -20 9 -37 -25 -38 -18 -1 -21 -3 -9 -6
18 -5 18 -5 0 -26 -18 -22 -18 -22 3 -4 22 18 54 23 54 8 0 -5 -6 -11 -12 -14
-7 -2 -10 -7 -7 -11 3 -3 23 1 45 10 31 13 42 14 58 4 18 -12 123 -49 139 -50
4 0 7 66 7 146 l0 145 -57 55 c-31 30 -52 54 -46 54 7 0 15 -5 19 -12 5 -7 10
-3 16 13 6 15 5 25 -1 27 -5 2 -26 17 -47 33 -45 36 -24 39 23 3 l33 -25 0 30
c0 24 -11 38 -64 80 -70 56 -169 159 -187 194 -6 12 20 -10 58 -50 37 -40 90
-91 117 -114 45 -37 51 -39 57 -23 4 11 8 22 8 25 1 3 -24 23 -54 43 -31 20
-76 57 -100 82 -51 51 -110 134 -97 134 6 0 18 -12 28 -27 39 -60 182 -193
207 -193 3 0 0 13 -6 29 -6 17 -14 28 -19 25 -4 -3 -5 2 -2 10 4 10 -15 35
-53 72 -61 60 -113 130 -113 153 0 8 12 -4 26 -25 28 -42 84 -104 94 -104 20
0 -8 67 -42 103 -41 44 -60 74 -73 117 -4 14 11 -2 32 -35 22 -33 52 -70 66
-83 l25 -24 7 32 c6 26 2 37 -17 58 -31 33 -68 87 -68 98 0 4 23 -18 52 -50
43 -49 53 -55 61 -41 5 9 7 25 4 36 -3 12 0 19 9 19 18 0 18 19 0 39 -7 9 -26
39 -42 66 -24 43 -25 48 -6 31 l21 -18 -6 34 c-3 21 0 45 8 59 9 17 21 99 14
99 0 0 -16 -13 -36 -29z m-619 -1307 c0 -7 4 -15 9 -18 5 -4 7 3 4 14 -4 14 0
20 11 20 9 0 16 -8 16 -19 0 -11 3 -21 8 -24 4 -2 1 -2 -5 -1 -7 2 -13 -1 -13
-6 0 -5 -17 -2 -37 7 -39 16 -40 8 -1 -11 12 -6 23 -16 25 -22 5 -16 -30 -52
-46 -46 -8 3 -11 0 -7 -7 6 -10 -6 -15 -26 -12 -5 0 -8 -3 -8 -9 0 -5 -8 -10
-17 -11 -10 0 -2 -5 17 -11 l35 -10 -38 -15 c-42 -17 -44 -17 -49 12 -1 11
-13 29 -25 41 -13 11 -20 24 -16 28 4 4 0 4 -10 0 -21 -8 -21 -9 -1 -29 17
-16 36 -80 27 -89 -8 -8 -41 62 -45 92 -2 15 -9 32 -17 38 -19 15 -7 44 19 44
21 0 27 -14 10 -25 -5 -3 -10 -11 -10 -17 0 -6 8 -4 18 5 10 10 24 17 30 17 7
0 12 5 12 10 0 6 5 10 10 10 6 0 24 15 40 34 23 26 35 32 55 28 14 -2 25 -10
25 -18z m-397 -340 c20 -4 27 -11 27 -28 0 -23 35 -64 46 -53 3 3 1 14 -5 25
-6 12 -11 27 -11 35 0 23 38 9 45 -17 10 -35 29 -70 45 -83 9 -8 11 -12 3 -13
-6 0 -24 11 -40 24 -39 32 -53 24 -53 -35 0 -35 -4 -49 -14 -49 -13 0 -26 20
-26 41 0 5 7 9 15 9 14 0 13 3 -1 25 -12 19 -20 23 -30 15 -10 -9 -10 -17 2
-45 18 -44 18 -56 -1 -49 -8 4 -15 1 -15 -6 0 -8 9 -10 25 -6 26 7 31 -2 27
-47 -1 -10 3 -27 9 -38 10 -20 10 -20 -15 -3 -24 15 -26 15 -20 0 6 -15 -4
-21 -33 -17 -7 1 -13 -2 -13 -6 0 -4 -16 -9 -35 -10 -19 -2 -35 -1 -35 2 0 2
25 16 56 30 l55 25 -18 30 c-9 17 -23 30 -30 30 -7 0 -13 5 -13 10 0 6 -11 21
-25 33 -21 19 -23 24 -11 40 12 16 15 16 29 2 9 -8 18 -12 21 -7 2 4 -6 17
-18 27 -19 17 -21 24 -13 43 14 30 0 41 -19 14 -18 -26 -34 -21 -34 10 0 39
48 55 123 42z"/>
<path d="M6300 4965 c0 -16 17 -60 39 -99 24 -45 41 -91 45 -126 9 -74 41
-167 50 -145 3 9 6 65 6 125 0 108 0 108 -30 133 -16 14 -47 51 -70 83 -37 53
-40 55 -40 29z"/>
<path d="M6635 4793 c-4 -49 -15 -142 -25 -208 -42 -267 -53 -403 -29 -361 12
19 17 56 50 341 30 259 33 315 21 315 -6 0 -13 -38 -17 -87z"/>
<path d="M2043 4431 c4 -16 -5 -20 -64 -30 -37 -6 -81 -11 -97 -11 -16 0 -31
-3 -34 -6 -7 -7 41 -60 52 -57 4 1 38 3 75 4 57 2 69 5 81 24 13 21 18 22 47
11 18 -6 34 -14 37 -17 3 -3 13 -8 22 -12 11 -4 17 -16 17 -29 -1 -13 7 -41
17 -63 18 -38 21 -40 58 -35 22 3 41 11 44 18 2 7 -2 10 -11 6 -11 -4 -14 3
-12 30 2 23 -1 33 -9 30 -14 -5 -96 53 -96 69 0 6 7 19 17 29 15 17 15 18 -6
18 -15 0 -25 8 -28 21 -6 20 -7 21 -19 5 -11 -16 -15 -16 -49 -2 -47 20 -48
20 -42 -3z"/>
<path d="M5470 4246 c-30 -6 -63 -16 -74 -22 -17 -11 -17 -12 5 -17 13 -3 35
-4 49 -2 14 1 66 6 115 10 81 6 92 5 113 -13 12 -11 22 -22 22 -26 0 -4 16
-30 35 -59 19 -28 35 -58 35 -66 0 -8 3 -12 6 -8 16 16 -19 107 -57 148 -21
23 -39 44 -39 46 0 1 10 3 23 4 21 1 21 1 -3 9 -36 11 -166 9 -230 -4z"/>
<path d="M1960 3564 c0 -20 77 -196 101 -231 29 -42 36 -68 20 -77 -7 -5 -41
66 -41 86 0 10 -98 156 -110 163 -13 8 -13 3 0 -31 6 -15 8 -41 4 -57 l-6 -29
-24 23 c-28 26 -28 28 -9 -35 11 -35 12 -53 4 -65 -9 -13 -10 -12 -5 7 3 18 2
21 -8 13 -10 -8 -18 -5 -31 9 -16 18 -17 26 -7 72 7 28 10 53 7 56 -3 3 -5 0
-5 -7 0 -7 -4 -10 -9 -7 -5 4 -7 -3 -4 -14 3 -11 1 -26 -5 -33 -5 -6 -13 -31
-17 -54 -4 -24 -11 -43 -16 -43 -12 0 -11 22 1 56 6 15 9 29 7 31 -7 6 -58
-138 -62 -172 -2 -16 -1 -24 2 -17 8 20 23 13 23 -11 0 -13 -3 -26 -6 -29 -6
-7 -48 31 -58 52 -6 14 -4 1 11 -75 3 -16 16 -46 29 -65 13 -19 29 -50 35 -68
6 -19 26 -55 43 -81 17 -27 36 -57 43 -67 11 -17 12 -16 12 13 1 22 8 37 21
45 11 7 20 22 20 33 0 25 17 52 26 42 10 -9 36 30 80 121 35 72 42 80 60 63 5
-6 28 -13 52 -17 41 -6 42 -6 42 20 0 21 -4 26 -17 22 -46 -12 -83 -17 -83 -9
0 4 9 22 20 38 27 41 26 54 -15 143 -53 113 -125 221 -125 186z"/>
<path d="M6485 3211 c17 -50 63 -143 100 -201 14 -22 25 -42 25 -45 0 -10 53
-65 62 -65 17 0 -21 121 -43 140 -3 3 -16 24 -30 46 -13 23 -39 59 -56 80 -18
22 -41 50 -53 64 l-20 25 15 -44z"/>
<path d="M6451 3130 c68 -180 179 -354 179 -282 0 42 -124 258 -180 317 -19
18 -19 16 1 -35z"/>
<path d="M6360 3141 c0 -5 6 -22 14 -38 7 -15 36 -73 62 -128 27 -54 70 -131
97 -169 l47 -70 0 36 c0 48 -51 158 -113 243 -64 88 -107 139 -107 126z"/>
<path d="M5607 2892 c-10 -2 -15 -8 -12 -13 4 -5 1 -9 -4 -9 -6 0 -11 5 -11
10 0 6 -12 10 -27 9 -16 0 -21 -3 -13 -6 22 -8 60 -45 71 -68 9 -17 7 -17 -10
3 -10 12 -24 22 -31 22 -6 0 -8 5 -5 10 3 6 -5 10 -19 10 -14 0 -28 5 -31 10
-4 6 -15 8 -26 5 -12 -4 -19 -2 -19 7 0 9 -3 9 -10 -2 -7 -12 -13 -12 -27 -4
-10 6 -26 8 -35 5 -14 -5 -11 -10 17 -30 39 -26 43 -36 19 -49 -13 -7 -14 -13
-5 -31 7 -11 16 -21 21 -21 6 0 10 -9 10 -21 0 -15 -5 -19 -15 -15 -9 3 -15 0
-15 -9 0 -15 -18 -30 -27 -22 -2 3 1 21 8 41 7 20 10 38 7 42 -12 12 -34 -20
-32 -45 2 -15 1 -18 -2 -8 -3 9 -9 17 -13 17 -4 0 -6 14 -3 30 3 23 1 30 -13
30 -13 0 -16 -6 -13 -25 6 -27 -6 -34 -16 -10 -8 21 -26 19 -26 -4 0 -10 9
-21 19 -24 10 -2 24 -14 30 -26 10 -17 9 -20 -4 -15 -8 4 -15 10 -15 15 0 4
-6 6 -14 3 -8 -3 -12 -12 -9 -20 3 -9 12 -13 20 -10 8 3 25 -6 39 -21 27 -29
24 -45 -4 -20 -20 18 -42 23 -42 9 0 -15 68 -40 79 -29 8 8 11 8 11 0 0 -14
49 -11 78 6 28 15 40 8 22 -14 -10 -13 -9 -15 9 -15 30 0 36 3 35 18 -2 9 2
10 11 2 10 -8 18 -4 34 16 12 15 21 30 21 35 0 4 6 14 14 22 12 11 11 15 -8
27 -19 12 -20 12 -7 -3 9 -11 10 -17 2 -17 -11 0 -15 13 -12 37 1 6 -3 14 -9
18 -5 3 -10 11 -10 18 0 6 7 2 15 -9 8 -10 15 -14 15 -8 0 6 6 11 13 11 6 0
19 3 27 5 8 3 12 3 7 1 -4 -3 -5 -9 -2 -14 4 -5 -2 -6 -11 -2 -12 4 -15 3 -10
-5 5 -8 1 -10 -11 -5 -16 6 -16 5 -4 -10 19 -24 28 -21 45 12 13 25 13 31 -1
51 l-16 22 27 -17 c25 -17 29 -17 66 0 48 21 53 37 9 25 -42 -12 -49 -6 -49
41 l0 40 -43 -3 c-24 -2 -51 -4 -60 -6z"/>
<path d="M2037 2227 c-17 -90 -37 -250 -37 -294 0 -34 17 -27 25 10 4 17 11
37 15 42 25 32 44 315 22 329 -5 3 -16 -36 -25 -87z"/>
<path d="M6256 2088 c-25 -39 -29 -74 -12 -100 27 -42 -4 -50 -70 -19 -21 10
-51 21 -66 25 -27 6 -27 5 -25 -34 1 -22 4 -40 7 -41 32 -9 53 -4 60 15 l9 21
0 -22 c1 -12 5 -24 10 -27 13 -9 141 -19 141 -12 0 4 -11 29 -25 56 -27 52
-31 93 -15 134 12 32 5 33 -14 4z"/>
<path d="M5266 2069 c-17 -29 -17 -32 -2 -41 9 -5 16 -20 16 -33 0 -23 30 -42
49 -31 20 12 111 -25 133 -54 12 -17 28 -30 35 -30 8 0 12 4 9 9 -3 5 1 11 8
14 45 17 -75 153 -155 176 -24 7 -51 14 -59 17 -10 2 -23 -8 -34 -27z"/>
<path d="M2259 1920 c0 -30 -3 -88 -5 -127 -4 -57 -2 -73 9 -73 15 0 52 38 86
88 28 41 11 42 -23 1 -16 -19 -26 -25 -26 -15 0 8 -7 22 -16 30 -14 15 -14 19
6 52 l22 35 27 -23 c14 -13 28 -25 31 -29 19 -21 80 -59 94 -59 15 0 15 3 2
28 -8 15 -33 48 -56 75 -38 42 -47 47 -84 47 -23 0 -47 5 -54 12 -9 9 -12 0
-13 -42z"/>
<path d="M2927 1952 c-8 -11 4 -62 14 -62 17 0 104 23 122 32 19 9 121 1 382
-32 230 -29 301 -34 309 -21 4 6 4 11 -1 12 -4 0 -17 2 -28 4 -79 13 -716 67
-722 61 -4 -4 -1 -12 7 -17 12 -9 12 -10 -3 -5 -10 3 -23 6 -28 6 -5 0 -9 7
-9 15 0 15 -35 21 -43 7z"/>
<path d="M4645 1950 c-66 -4 -135 -8 -153 -9 -33 -1 -33 -2 -30 -43 l3 -41 75
1 c41 1 109 5 151 8 83 7 78 9 134 -61 38 -47 38 -24 0 34 -19 29 -35 54 -35
56 0 2 15 18 33 34 l32 31 -45 -2 c-25 -1 -99 -5 -165 -8z"/>
<path d="M2380 1945 c0 -12 91 -54 132 -59 26 -4 50 -11 53 -16 3 -5 -13 -19
-36 -30 -79 -41 -28 -32 85 14 63 26 145 57 183 71 l68 24 -110 0 c-96 1 -120
-2 -188 -26 l-79 -28 -20 28 c-15 20 -28 27 -54 27 -19 0 -34 -2 -34 -5z"/>
<path d="M4975 1786 c-15 -35 -16 -36 -74 -36 l-59 0 -60 -102 c-67 -115 -95
-169 -90 -172 2 -2 143 -8 313 -15 388 -14 716 -29 954 -42 101 -5 186 -7 189
-4 3 3 -5 39 -18 80 -21 66 -27 76 -54 84 -28 9 -169 43 -236 57 -14 3 -56 25
-95 49 l-70 43 -190 6 c-369 12 -485 18 -485 26 0 5 9 12 20 15 23 7 19 20
-11 35 -17 10 -22 6 -34 -24z"/>
<path d="M4260 1746 c-60 -22 -261 -101 -405 -160 -58 -24 -64 -24 -185 -15
-69 5 -132 11 -140 14 -8 3 -242 27 -520 55 -278 28 -517 53 -532 56 -21 4
-28 2 -28 -9 0 -11 17 -17 63 -21 168 -17 381 -40 667 -72 530 -58 613 -66
660 -60 42 6 136 39 390 140 94 38 105 45 108 69 4 32 5 32 -78 3z"/>
<path d="M6220 1522 c0 -6 5 -34 11 -62 l11 -50 42 0 c144 0 507 -50 531 -73
10 -9 -20 -8 -165 8 l-55 6 35 -14 c233 -96 305 -128 321 -147 12 -14 41 -22
105 -30 101 -13 144 -26 144 -46 0 -28 -53 -30 -259 -8 l-63 7 17 -27 c16 -24
17 -46 13 -209 -4 -156 -8 -190 -26 -230 l-21 -47 -124 0 c-131 0 -227 20
-402 85 -88 32 -174 42 -215 25 -28 -12 -41 -30 -21 -30 57 0 529 -95 816
-165 139 -33 427 -95 445 -95 6 0 10 24 10 54 l0 53 -53 17 c-75 23 -112 49
-144 98 -25 38 -28 52 -28 123 1 64 6 91 27 136 38 82 113 135 170 118 l28 -8
0 135 c0 100 -3 134 -12 134 -41 0 -193 22 -207 29 -14 8 -94 22 -211 37 -19
2 -62 11 -95 19 -33 7 -82 17 -110 20 -143 18 -338 73 -497 140 -11 4 -18 3
-18 -3z"/>
<path d="M4525 1409 c-4 -6 -5 -12 -3 -14 2 -2 128 -9 279 -15 278 -10 383
-17 724 -46 280 -24 684 -10 652 22 -8 8 -560 32 -1097 49 -599 18 -547 17
-555 4z"/>
<path d="M3497 1396 c-7 -18 14 -35 90 -74 34 -18 79 -44 100 -58 91 -62 117
-68 268 -66 77 1 183 6 235 11 52 5 101 10 108 10 7 1 12 14 12 32 0 28 -3 31
-22 25 -13 -4 -95 -16 -184 -26 -88 -11 -181 -24 -207 -29 -55 -10 -47 -13
-236 107 -72 45 -137 82 -145 82 -7 0 -16 -6 -19 -14z"/>
<path d="M3105 1214 c-79 -11 -102 -17 -115 -34 -11 -15 -36 -24 -85 -32 l-70
-12 45 -11 45 -11 -27 -18 c-15 -10 -60 -22 -99 -27 -94 -12 -105 -24 -14 -15
39 3 135 8 215 11 80 3 162 8 183 11 40 6 61 31 47 54 -5 8 -5 21 1 31 30 56
0 69 -126 53z"/>
<path d="M4943 1041 c-11 -44 3 -111 23 -111 8 0 14 5 14 12 0 16 13 1 16 -18
6 -38 14 -46 43 -39 26 5 29 3 36 -27 5 -18 9 -40 9 -48 1 -8 9 -16 19 -18 16
-3 21 -13 18 -39 -1 -7 5 -13 14 -13 24 0 7 -20 -18 -21 -17 -1 -18 -2 -4 -6
10 -2 46 4 80 15 34 11 78 23 97 27 19 4 50 14 69 23 33 15 35 15 52 -7 11
-13 19 -30 19 -38 0 -8 5 -11 10 -8 6 4 10 12 9 18 -3 27 2 38 24 47 19 9 18
10 -10 7 -18 -2 -30 0 -27 4 2 4 -12 5 -31 2 -22 -3 -46 0 -61 8 -20 10 -29
11 -44 1 -30 -19 -49 -15 -87 18 -18 17 -30 30 -26 30 3 0 -6 13 -21 29 -24
25 -34 29 -63 24 -28 -5 -35 -3 -31 8 3 8 -7 21 -24 31 -17 11 -28 26 -28 40
0 43 -11 64 -40 75 -27 10 -29 9 -37 -26z"/>
<path d="M5580 894 c-69 -7 -129 -13 -135 -14 -5 -1 -1 -5 10 -10 11 -4 90 -6
175 -4 134 3 153 2 137 -10 -18 -14 -18 -14 0 -18 10 -2 -13 -7 -50 -11 -37
-4 -72 -5 -77 -2 -6 4 -10 2 -10 -3 0 -8 278 -78 284 -71 2 2 0 13 -4 25 -5
12 -24 25 -49 32 -47 15 -73 46 -65 79 6 22 4 23 -42 22 -27 -1 -105 -7 -174
-15z"/>
<path d="M4500 479 c-140 -39 -145 -42 -145 -83 -1 -47 10 -47 150 7 100 38
110 44 113 70 3 24 0 27 -25 26 -15 -1 -57 -9 -93 -20z"/>
<path d="M7346 251 c-3 -5 -20 -16 -38 -25 -18 -9 -94 -48 -168 -87 -74 -40
-145 -77 -157 -83 -13 -6 -23 -14 -23 -18 0 -5 -6 -8 -12 -8 -7 0 -22 -7 -32
-15 -18 -13 7 -15 217 -15 l237 0 0 130 c0 117 -7 150 -24 121z"/>
</g>
</svg>
