<?xml version="1.0" standalone="no"?>
<!DOCTYPE svg PUBLIC "-//W3C//DTD SVG 20010904//EN"
 "http://www.w3.org/TR/2001/REC-SVG-20010904/DTD/svg10.dtd">
<svg version="1.0" xmlns="http://www.w3.org/2000/svg"
 width="737.000000pt" height="773.000000pt" viewBox="0 0 737.000000 773.000000"
 preserveAspectRatio="xMidYMid meet">
<metadata>
Created by potrace 1.16, written by Peter Selinger 2001-2019
</metadata>
<g transform="translate(0.000000,773.000000) scale(0.100000,-0.100000)"
fill="#000000" stroke="none">
<path d="M5875 5826 c-88 -17 -171 -44 -184 -60 -17 -20 -51 -177 -51 -234 0
-46 2 -53 18 -48 119 35 198 50 277 50 77 1 98 -3 145 -25 116 -55 166 -142
158 -273 -6 -88 -46 -173 -115 -243 -27 -26 -112 -97 -190 -156 -78 -59 -153
-122 -167 -140 -46 -61 -90 -168 -91 -222 0 -45 3 -51 30 -64 35 -17 113 -26
148 -17 17 4 29 19 42 53 43 113 96 160 320 283 82 45 168 95 190 110 77 53
164 177 196 280 98 316 -42 586 -356 686 -99 32 -264 41 -370 20z"/>
<path d="M4077 5598 c-15 -5 -25 -14 -21 -19 3 -5 -7 -9 -23 -9 -46 0 -72 -11
-66 -26 3 -10 -2 -14 -20 -14 -14 0 -40 -14 -61 -35 l-37 -35 38 6 c59 9 82 6
114 -17 35 -24 38 -15 7 20 -20 22 -20 23 -3 12 11 -8 37 -32 57 -55 l38 -41
-10 34 c-5 18 -16 44 -25 57 -25 39 -17 51 13 19 16 -16 33 -39 40 -50 11 -19
11 -19 12 3 0 13 4 20 10 17 7 -4 9 4 6 22 -5 26 -4 27 9 9 8 -11 15 -28 15
-38 0 -22 27 -14 33 10 2 10 11 -10 21 -43 26 -92 37 -108 86 -126 108 -37
109 -38 124 -88 10 -35 11 -61 4 -101 -5 -30 -10 -116 -11 -190 -1 -74 -4
-124 -5 -111 -3 15 -15 -11 -38 -78 -44 -132 -83 -201 -114 -201 -6 0 -9 -8
-6 -18 4 -13 -7 -32 -36 -64 -62 -65 -137 -95 -166 -66 -8 8 -15 8 -26 -1 -10
-8 -20 -9 -33 -2 -10 5 -33 15 -51 21 -43 17 -115 101 -139 164 -8 22 -12 25
-12 11 -1 -25 28 -73 81 -137 34 -39 52 -52 107 -69 59 -19 73 -20 123 -10 65
14 105 43 166 119 44 54 91 143 92 172 0 8 7 24 15 34 8 11 15 28 15 38 0 10
6 18 13 18 28 0 67 130 47 155 -9 11 -6 36 14 112 20 79 26 127 29 249 3 115
1 156 -10 170 -10 13 -13 14 -14 3 0 -8 -4 -4 -10 9 -5 13 -13 20 -19 17 -5
-3 -10 2 -10 13 0 10 -16 33 -35 51 -38 35 -44 33 -19 -4 27 -41 1 -27 -28 15
-25 36 -84 78 -94 67 -3 -2 9 -19 26 -37 31 -33 40 -57 16 -43 -7 4 -26 23
-41 41 -17 20 -36 32 -52 32 -13 0 -33 5 -44 10 -15 9 -19 7 -19 -5 0 -14 -3
-14 -22 -1 -17 10 -30 11 -51 4z"/>
<path d="M1338 5400 c-9 -6 -44 -13 -77 -16 -67 -7 -93 -23 -175 -102 -70 -67
-146 -246 -132 -312 3 -15 -6 -61 -21 -106 -18 -56 -28 -115 -33 -204 -5 -69
-12 -156 -16 -195 -7 -65 -6 -69 9 -56 12 9 17 10 17 2 0 -6 -7 -14 -15 -17
-19 -8 -31 -90 -16 -108 16 -20 3 -116 -15 -116 -8 0 -14 -5 -14 -10 0 -6 -8
-10 -17 -8 -10 2 -19 -5 -21 -16 -2 -10 0 -16 5 -13 5 3 9 -16 9 -44 0 -27 -3
-44 -7 -38 -3 6 -4 -12 -1 -39 4 -45 1 -53 -24 -79 -15 -15 -36 -44 -47 -63
-15 -29 -17 -30 -14 -10 3 14 8 34 11 45 4 11 -1 5 -12 -14 -15 -27 -20 -31
-25 -16 -4 9 -7 31 -7 48 0 22 -3 28 -10 21 -14 -14 -15 -186 -1 -212 14 -26
14 -59 1 -64 -6 -2 0 -25 15 -53 28 -57 89 -244 82 -252 -3 -3 -20 42 -37 99
-42 137 -44 140 -48 90 -5 -68 51 -288 104 -409 22 -49 18 -78 -13 -92 -19 -9
-23 -15 -15 -23 8 -8 23 -1 56 26 55 45 57 54 59 311 l2 190 43 -4 c27 -2 42
1 42 8 0 7 -6 11 -12 10 -7 -1 -29 -1 -49 0 -29 1 -38 5 -42 24 -2 12 -8 30
-12 40 -12 28 24 21 37 -8 11 -25 28 -34 28 -14 0 5 3 8 8 5 4 -2 31 2 60 9
29 8 59 12 67 8 9 -3 15 1 15 10 0 13 28 32 36 24 2 -1 4 -33 6 -69 4 -71 9
-85 28 -73 8 5 8 10 0 20 -7 8 -9 19 -5 25 3 5 2 10 -3 10 -8 0 -6 116 3 158
3 12 12 22 19 22 8 0 21 6 28 13 7 7 31 24 53 37 49 30 83 66 96 102 9 22 14
26 28 19 10 -6 23 -6 32 0 12 8 10 13 -10 30 -18 15 -21 23 -13 31 7 7 12 18
12 26 0 8 8 21 18 28 21 16 52 18 52 3 0 -5 4 -8 9 -4 13 8 33 -31 29 -57 -2
-12 -11 -22 -22 -24 -32 -5 -39 -20 -20 -43 10 -11 23 -21 29 -21 6 0 12 -8
13 -17 1 -10 4 -34 6 -53 2 -19 8 -47 14 -61 6 -15 8 -30 5 -33 -4 -3 0 -6 8
-6 12 0 12 -2 0 -9 -10 -6 4 -13 45 -21 80 -15 84 -17 84 -36 0 -10 8 -26 18
-37 17 -19 16 -20 -10 -14 -14 4 -34 9 -45 12 -10 3 0 -3 21 -14 22 -10 46
-17 54 -13 9 3 13 1 10 -4 -3 -5 12 -10 33 -11 22 0 45 -6 52 -11 16 -14 36
-11 67 11 22 15 70 24 70 12 0 -2 -11 -21 -25 -41 -28 -41 -45 -95 -50 -160
-4 -44 -3 -45 64 -98 65 -52 181 -172 181 -186 0 -4 34 -38 76 -76 61 -54 85
-69 118 -74 32 -4 41 -9 41 -25 0 -11 8 -36 17 -55 9 -19 19 -42 21 -50 3 -8
6 22 6 68 l1 84 28 -6 c48 -10 51 0 36 99 -8 50 -21 146 -29 215 -8 69 -22
175 -30 235 -9 61 -20 162 -25 225 -5 63 -18 144 -29 180 -11 35 -16 67 -11
70 13 8 -29 82 -79 139 -49 57 -122 107 -175 122 -106 29 -177 174 -220 454
-8 55 -22 120 -31 144 -8 24 -15 54 -15 67 0 14 -29 82 -64 152 -93 185 -150
255 -253 307 -58 30 -120 41 -145 25z m19 -341 c-3 -28 -3 -58 0 -66 10 -24
52 -34 154 -34 98 0 110 -4 116 -39 1 -8 8 -19 16 -25 8 -5 24 -41 36 -78 20
-59 23 -84 19 -190 l-3 -122 -54 -108 c-32 -66 -63 -114 -79 -125 l-25 -16 23
-6 c18 -4 26 -17 36 -60 8 -30 18 -62 23 -72 8 -13 3 -20 -27 -34 -48 -23
-225 -26 -265 -5 -31 17 -34 27 -9 33 20 6 41 65 44 125 1 36 -4 45 -68 109
-71 71 -121 139 -149 208 -17 40 -65 221 -65 243 0 27 17 11 29 -27 17 -58 31
-59 31 -2 0 32 5 54 15 62 8 7 15 19 15 27 0 8 4 11 10 8 13 -8 72 20 103 49
21 20 24 29 20 72 -4 39 -1 53 14 69 11 11 22 28 26 38 12 32 19 17 14 -34z
m881 -1050 c2 -5 9 -15 15 -22 30 -32 35 -180 9 -277 -34 -124 -76 -207 -50
-100 11 48 14 247 4 257 -13 14 -19 -10 -21 -94 -2 -93 -6 -106 -53 -166 -23
-29 -31 -34 -36 -21 -12 30 -6 73 15 108 28 48 7 47 -42 -3 -22 -21 -39 -35
-39 -31 0 10 41 63 57 73 27 17 73 70 74 85 2 28 -2 47 -13 53 -12 8 1 99 14
99 6 0 7 13 3 31 -7 31 -7 31 26 24 19 -4 36 -11 37 -16z"/>
<path d="M5641 4249 c-121 -48 -166 -204 -89 -312 50 -70 159 -86 238 -33 85
56 113 190 57 275 -44 67 -136 98 -206 70z"/>
<path d="M4254 4190 c-3 -73 -58 -151 -119 -166 -14 -3 -28 -10 -31 -15 -3 -5
7 -4 22 1 36 14 42 5 8 -13 l-27 -14 27 -7 c14 -3 26 -13 26 -20 0 -14 34 -28
99 -42 48 -9 61 -26 61 -78 0 -39 4 -48 34 -71 38 -29 129 -164 150 -222 7
-21 17 -57 21 -81 4 -23 13 -55 20 -70 8 -15 17 -57 21 -94 6 -59 5 -68 -10
-68 -23 0 -45 -48 -27 -59 10 -6 11 -25 6 -76 -7 -61 -9 -66 -20 -45 -10 19
-13 9 -17 -76 -3 -55 -4 -162 -4 -239 2 -192 16 -236 109 -327 37 -38 71 -68
75 -68 4 0 7 22 8 49 0 47 28 128 47 142 5 4 11 20 13 35 20 192 32 231 94
299 45 50 56 71 50 100 -1 5 4 106 10 225 15 284 14 388 -4 489 -13 68 -22 91
-51 127 -35 43 -142 130 -174 141 -9 4 -38 25 -66 48 -27 22 -63 46 -78 53
-39 17 -183 114 -232 156 l-40 34 -1 -48z"/>
<path d="M3340 4152 c-14 -9 -27 -20 -30 -23 -3 -3 -16 -10 -29 -14 -17 -5
-20 -9 -10 -15 9 -6 4 -10 -17 -15 -78 -16 -216 -73 -208 -86 3 -5 -1 -7 -8
-4 -11 4 -78 -45 -78 -58 0 -2 14 -4 30 -4 22 0 29 4 26 14 -3 7 -1 13 3 13 5
0 12 -6 14 -12 4 -9 6 -7 6 3 1 9 12 21 26 27 31 14 46 15 25 2 -17 -11 -1
-13 25 -4 13 5 14 8 3 15 -10 7 -10 9 0 9 7 0 26 12 42 27 32 28 69 35 110 21
14 -5 54 -13 90 -17 84 -11 221 -38 285 -57 56 -17 135 -29 135 -21 0 11 -148
74 -200 85 -173 36 -203 41 -233 36 -22 -4 -28 -3 -18 4 8 6 11 18 6 31 -5 17
-2 21 17 21 34 0 68 11 68 22 0 5 -9 6 -20 3 -11 -4 -20 -2 -20 4 0 15 -10 13
-40 -7z"/>
<path d="M3041 3730 l-1 -65 -25 38 c-14 20 -28 37 -32 37 -3 0 -1 -6 5 -12
14 -18 52 -145 51 -172 0 -20 -1 -19 -12 4 -46 104 -65 139 -71 133 -10 -11 5
-75 31 -123 29 -54 55 -170 37 -163 -6 2 -14 -3 -18 -12 -8 -21 -26 -10 -26
16 0 10 -4 19 -8 19 -5 0 -15 26 -22 57 -13 61 -29 103 -39 103 -8 0 -4 -153
4 -199 4 -19 17 -55 30 -80 34 -66 38 -80 40 -133 1 -39 0 -44 -12 -33 -7 8
-13 21 -13 29 0 9 -4 16 -10 16 -12 0 -13 7 9 -75 28 -106 34 -165 16 -165 -8
0 -15 -4 -15 -10 0 -5 -9 -10 -20 -10 -11 0 -20 -4 -20 -10 0 -5 9 -10 20 -10
11 0 20 -4 20 -10 0 -5 12 -13 28 -16 15 -4 32 -10 38 -15 16 -13 -20 -265
-48 -332 -22 -51 -24 -72 -26 -249 -1 -106 -5 -218 -7 -248 -9 -106 13 6 30
154 8 76 22 171 29 210 8 39 26 136 41 216 16 80 31 151 35 159 17 33 20 -71
5 -189 -8 -69 -24 -215 -35 -325 -11 -110 -24 -234 -30 -275 -6 -41 -17 -133
-25 -205 -13 -120 -52 -355 -59 -362 -4 -4 -42 -13 -81 -18 -166 -23 -185 -30
-185 -61 0 -29 12 -30 102 -10 87 19 158 27 136 15 -9 -5 -67 -17 -130 -27
-89 -14 -114 -22 -116 -35 -4 -21 -1 -21 133 3 152 27 145 28 178 -33 43 -81
48 -109 53 -305 4 -159 3 -183 -11 -188 -13 -5 -15 -19 -11 -70 2 -35 7 -64
10 -64 3 0 28 -11 55 -26 35 -18 69 -26 114 -28 63 -3 99 5 84 20 -13 14 16
34 49 34 31 0 34 -3 34 -30 0 -21 5 -30 16 -30 10 0 12 -5 7 -12 -4 -7 -6 -23
-4 -36 3 -23 -23 -73 -37 -71 -26 4 -21 -5 8 -15 l35 -13 -24 -12 c-13 -7 -42
-15 -63 -17 -32 -3 -39 -1 -34 11 4 13 -8 15 -75 15 -82 0 -148 19 -150 44 0
6 -2 31 -5 56 -3 25 -6 55 -7 67 -1 14 -6 18 -13 12 -8 -6 -13 0 -18 22 -3 18
-9 30 -12 27 -3 -4 2 -77 11 -165 10 -87 19 -201 21 -253 2 -52 6 -108 10
-124 3 -16 6 -47 6 -68 -1 -44 8 -49 24 -14 10 20 9 26 -4 31 -14 5 -14 8 -3
15 12 7 19 50 22 142 0 9 6 22 14 28 18 15 7 90 -16 113 -22 21 -26 67 -6 67
8 0 17 -3 21 -7 8 -8 14 -9 99 -11 36 -1 56 -6 52 -12 -3 -6 0 -17 9 -25 11
-11 16 -12 19 -2 3 6 6 -8 7 -33 1 -25 6 -56 10 -70 7 -22 8 -21 9 13 1 20 6
37 12 37 6 0 9 -6 6 -14 -7 -16 11 -36 27 -30 7 3 10 -12 8 -46 -4 -54 13 -93
29 -68 7 10 9 9 9 -4 0 -9 -4 -20 -10 -23 -15 -9 -12 -48 5 -71 8 -10 15 -27
15 -36 0 -16 13 -18 125 -18 l124 0 5 33 c3 17 10 72 16 122 12 96 50 271 80
370 21 70 20 73 47 -120 12 -85 17 -177 16 -268 l-3 -138 145 2 c80 0 146 4
146 7 1 4 3 16 4 27 2 11 8 33 14 48 13 33 -5 28 -20 -7 -8 -17 -8 -14 -4 14
3 19 12 38 20 43 20 11 19 31 -1 23 -12 -5 -15 -2 -10 10 3 8 -1 28 -9 45 -9
16 -20 41 -25 56 l-10 28 20 -24 c20 -23 20 -23 20 -2 0 12 -4 21 -10 21 -5 0
-10 7 -10 16 0 13 3 14 15 4 12 -10 16 -9 21 3 4 12 11 14 29 7 13 -5 26 -6
29 -3 3 4 6 -1 6 -10 0 -34 18 -16 22 21 2 27 -2 44 -14 57 -10 10 -18 29 -18
43 0 17 -4 23 -15 18 -14 -5 -19 4 -16 29 0 6 -14 19 -32 28 -43 23 -87 64
-87 80 0 7 5 4 11 -5 5 -10 16 -18 24 -18 7 0 15 -3 17 -7 6 -14 118 -67 125
-59 4 4 -2 9 -14 12 -33 9 -36 58 -4 84 14 11 21 20 15 20 -5 0 -15 -5 -21
-11 -8 -8 -13 -7 -18 2 -5 7 0 18 11 27 18 13 17 14 -8 8 -32 -7 -35 -2 -12
21 11 12 21 13 37 6 24 -10 159 -9 176 1 6 4 11 14 11 22 0 11 -4 12 -16 6
-26 -15 -62 -2 -68 24 -4 13 -12 24 -18 24 -9 0 -9 -3 -1 -11 6 -6 9 -17 6
-25 -4 -10 -10 -10 -31 -1 -15 6 -30 16 -34 22 -5 6 -11 6 -16 -3 -12 -18 -37
12 -28 33 4 12 16 15 53 11 45 -5 88 -13 88 -16 0 -1 25 -3 55 -4 104 -6 115
-8 100 -13 -17 -6 -40 -32 -40 -46 0 -4 4 -5 10 -2 6 3 10 1 10 -4 0 -6 -6
-11 -13 -11 -22 0 -64 -24 -76 -42 -13 -22 -7 -22 70 -8 41 8 61 18 82 41 18
22 27 27 27 16 0 -23 -59 -87 -79 -87 -24 0 -44 -47 -42 -97 2 -42 2 -42 -30
-38 -18 2 -36 10 -40 17 -6 10 -15 10 -38 1 -24 -9 -31 -8 -35 3 -7 18 -26 18
-26 0 0 -21 121 -50 175 -42 39 6 45 10 45 32 0 27 18 65 37 77 7 4 19 32 28
62 8 30 22 79 30 108 16 56 20 147 8 147 -5 0 -8 -24 -8 -52 0 -36 -4 -52 -12
-51 -7 2 -19 -13 -28 -31 -9 -19 -26 -37 -38 -40 -28 -7 -36 3 -14 18 9 7 17
22 17 33 0 15 9 22 29 26 25 5 31 13 37 42 4 23 2 41 -5 48 -8 8 -11 7 -11 -5
0 -9 -7 -19 -16 -22 -8 -3 -13 -10 -9 -15 3 -5 1 -13 -5 -16 -6 -4 -9 -1 -8 7
2 8 -9 14 -29 16 -18 2 -33 6 -33 10 0 16 44 44 77 49 24 4 38 14 45 29 6 13
15 24 19 24 5 0 6 6 3 14 -3 8 -1 17 5 21 6 3 11 12 11 18 0 7 -4 6 -10 -3 -8
-12 -10 -9 -10 13 0 19 4 26 12 21 6 -4 8 -3 5 3 -4 6 0 24 8 39 8 16 11 30 5
32 -5 2 0 20 10 40 24 43 25 71 6 132 -17 52 -20 26 -6 -38 7 -29 7 -49 0 -60
-8 -14 -9 -12 -4 9 3 16 0 32 -9 40 -15 15 -16 87 -2 124 5 16 5 17 -4 5 -17
-24 -25 -3 -11 30 7 17 10 33 6 37 -3 3 -6 -2 -6 -13 0 -16 -2 -17 -10 -4 -5
8 -10 29 -10 47 0 20 -7 36 -17 42 -10 6 -13 11 -6 11 13 0 10 121 -4 143 -3
6 -8 20 -9 31 -7 54 -17 95 -49 201 -43 142 -52 176 -54 208 0 9 -6 17 -12 17
-6 0 -22 9 -36 20 l-26 20 27 0 c21 0 26 5 26 26 0 14 -4 33 -10 43 -5 10 -10
38 -11 62 -2 49 -19 109 -31 109 -4 0 -8 -7 -8 -15 0 -11 -11 -15 -40 -15 -36
0 -40 -3 -40 -24 0 -21 5 -25 37 -28 l37 -3 -30 -31 c-24 -24 -37 -31 -58 -27
-21 4 -26 11 -26 34 0 22 -5 29 -19 29 -10 0 -24 7 -32 16 -10 13 -10 17 1 24
11 7 11 11 1 23 -9 12 -9 16 1 20 20 7 5 17 -31 22 -50 6 -83 46 -48 58 9 3 9
7 -2 20 -7 10 -17 17 -21 17 -19 0 14 -139 37 -157 12 -10 13 -16 5 -26 -9
-11 -3 -23 29 -58 26 -27 43 -39 46 -31 6 14 33 16 33 2 0 -5 9 -10 20 -10 11
0 20 -5 20 -11 0 -6 -18 -9 -47 -8 -39 3 -48 0 -51 -15 -2 -9 4 -26 13 -36 13
-15 16 -31 13 -64 -4 -30 -1 -46 7 -50 14 -5 27 -70 18 -92 -8 -21 -33 2 -33
31 0 15 -7 24 -22 28 -13 2 -31 8 -40 12 -14 6 -18 2 -18 -18 0 -23 -25 -55
-35 -45 -8 8 7 68 16 68 5 0 9 9 9 21 0 17 -6 13 -35 -22 -25 -29 -33 -45 -25
-53 13 -13 13 -36 0 -36 -5 0 -10 7 -10 15 0 21 -14 19 -47 -8 -24 -20 -63
-26 -63 -10 0 3 8 12 18 20 16 13 16 14 -3 11 -26 -4 -45 -44 -45 -97 0 -37 2
-42 15 -31 8 7 21 10 29 7 12 -5 13 -13 6 -39 -6 -21 -6 -36 0 -42 7 -7 10 -1
10 18 0 15 4 25 10 21 6 -3 10 -17 10 -31 0 -20 -5 -24 -32 -25 -25 0 -29 -2
-14 -8 17 -6 15 -9 -14 -21 -33 -13 -33 -14 -9 -23 23 -9 23 -9 4 -17 -19 -8
-19 -9 3 -9 19 -1 22 -6 22 -40 0 -22 3 -41 8 -43 4 -1 2 -19 -5 -38 l-12 -35
0 38 c-1 26 -5 37 -16 37 -12 0 -13 -4 -4 -19 14 -21 5 -56 -12 -46 -17 11
-28 49 -15 57 6 5 2 8 -11 8 -19 0 -23 6 -23 31 0 24 4 30 15 25 25 -9 17 20
-13 51 -40 40 -49 59 -58 133 -9 73 -11 83 -14 90 -1 3 -4 18 -6 33 -7 42 -43
74 -91 81 -27 4 -43 2 -43 -4 0 -5 8 -10 18 -10 22 0 48 -17 39 -26 -3 -4 -13
-1 -21 5 -11 10 -17 8 -25 -6 -6 -10 -11 -13 -11 -6 0 7 -6 10 -14 7 -8 -3
-12 -12 -9 -20 7 -18 -23 -64 -42 -64 -8 0 -15 9 -15 19 0 11 -4 23 -10 26 -5
3 -9 16 -9 28 0 12 0 76 0 142 -1 66 3 138 9 160 5 22 10 67 10 100 0 33 7
107 15 165 8 58 14 148 14 200 l1 95 -20 -44 c-11 -23 -17 -47 -14 -52 3 -6 1
-15 -4 -22 -20 -25 -36 -141 -23 -165 5 -8 4 -31 -1 -51 -6 -20 -14 -65 -18
-101 -4 -36 -11 -76 -14 -90 -4 -14 -9 -49 -12 -78 -2 -30 -9 -63 -15 -74 -6
-11 -10 -39 -9 -62 4 -91 4 -124 0 -186 -2 -36 -7 -72 -12 -81 -11 -23 -13
-159 -3 -251 5 -51 4 -78 -3 -78 -5 0 -12 -11 -14 -25 -4 -16 -1 -25 8 -25 17
0 29 -20 17 -29 -5 -3 -12 -14 -16 -23 -9 -26 -46 -22 -56 5 -6 15 -4 24 5 30
19 11 18 67 0 67 -11 0 -16 21 -21 83 -4 45 -6 87 -5 92 6 26 -2 35 -31 35
-16 0 -28 4 -24 9 3 6 14 8 25 6 11 -2 22 0 25 6 4 5 -1 9 -9 9 -9 0 -16 7
-16 15 0 8 -9 24 -19 34 -15 15 -18 29 -15 68 5 47 4 47 -12 25 -10 -15 -14
-34 -10 -53 3 -18 1 -29 -5 -29 -7 0 -10 -14 -7 -36 3 -30 1 -35 -13 -31 -10
3 -20 -2 -23 -10 -8 -21 -8 -23 9 -23 8 0 15 -5 15 -10 0 -6 -7 -13 -15 -16
-8 -4 -15 -13 -15 -20 0 -15 -27 -62 -46 -79 -19 -18 -45 -65 -40 -73 3 -4 0
-14 -5 -22 -8 -13 -10 -13 -18 0 -5 8 -8 17 -6 20 2 3 6 34 9 70 3 36 8 103
12 150 4 47 13 95 21 106 9 14 11 29 5 45 -4 13 -7 33 -6 44 24 197 27 452 8
645 -6 61 2 79 29 72 12 -3 31 -14 42 -24 28 -26 77 -50 85 -41 13 15 49 129
60 187 5 32 14 64 19 70 5 6 12 34 16 61 4 28 11 52 15 55 13 9 38 125 28 129
-12 4 -19 -3 -22 -23 -1 -8 -15 -26 -30 -40 -16 -13 -26 -28 -22 -34 8 -13
-12 -29 -47 -37 -28 -7 -35 -19 -17 -30 16 -10 12 -55 -5 -55 -8 0 -20 -9 -27
-20 -17 -27 -36 -25 -44 5 -3 14 -9 25 -13 25 -8 0 -31 -50 -31 -67 0 -7 -3
-13 -7 -13 -5 0 -8 -22 -9 -48 0 -27 -6 -57 -13 -68 -11 -18 -11 -17 -5 5 3
12 6 72 6 132 0 87 3 109 14 109 19 0 18 24 -1 40 -20 17 -19 30 6 56 16 18
19 26 10 41 -10 17 -10 17 -11 0 0 -10 -6 -25 -14 -33 -12 -12 -15 -5 -20 49
-16 175 -19 238 -21 422 -2 170 -6 209 -23 260 l-20 60 -1 -65z m290 -2710
c73 0 119 -4 119 -10 0 -5 -6 -9 -12 -7 -7 1 -13 -7 -13 -18 0 -11 -7 -21 -16
-23 -17 -3 -32 -36 -21 -46 3 -3 14 -6 24 -6 25 0 23 -15 -3 -17 -32 -3 -49
-23 -19 -23 13 0 20 -3 16 -7 -4 -4 -15 -8 -24 -8 -9 0 -18 -4 -18 -10 -2 -16
-16 -55 -19 -55 -2 0 -11 3 -20 6 -13 5 -14 8 -3 15 9 6 7 9 -9 9 -13 0 -23
-5 -23 -11 0 -6 -9 -8 -22 -3 -33 9 -33 11 -12 36 10 12 13 18 7 14 -8 -4 -13
-1 -13 8 0 8 -9 20 -21 26 -31 17 -17 23 61 25 38 1 73 5 77 8 3 4 -1 7 -9 7
-9 0 -18 5 -20 11 -2 7 -28 12 -61 13 -31 0 -57 4 -57 9 0 4 -6 7 -13 7 -8 0
-22 9 -31 19 -16 18 -16 20 6 35 13 10 24 12 26 6 2 -6 51 -10 123 -10z m1188
-57 c-28 -36 -38 -43 -44 -34 -3 6 -22 -5 -41 -24 -27 -26 -44 -35 -70 -35
-26 0 -34 -4 -34 -17 0 -12 -3 -14 -8 -7 -5 9 -11 8 -20 -2 -10 -12 -10 -14 3
-14 8 0 15 -2 15 -4 0 -2 3 -11 6 -19 4 -11 -1 -13 -21 -9 -26 5 -49 39 -54
83 0 5 -5 8 -10 4 -5 -3 -12 -1 -16 5 -3 5 1 10 9 10 9 0 16 4 16 9 0 5 -15 6
-34 1 -29 -6 -35 -4 -39 11 -4 15 1 17 37 15 22 -2 47 2 53 7 9 6 15 4 19 -8
4 -9 10 -12 13 -7 9 14 61 24 61 12 0 -5 -5 -10 -12 -10 -6 0 -9 -2 -6 -5 8
-9 38 6 32 16 -5 9 9 11 76 12 19 0 41 6 48 14 20 19 37 16 21 -4z"/>
<path d="M1559 3535 c-3 -2 -62 -8 -132 -13 -70 -5 -129 -11 -132 -13 -2 -3
-2 -36 2 -73 l6 -67 103 3 c74 1 108 -2 117 -11 10 -10 9 -15 -5 -25 -32 -24
-19 -29 56 -23 88 8 106 14 106 36 0 14 -2 14 -10 1 -8 -12 -10 -12 -15 2 -4
10 -4 21 -1 26 3 5 -3 17 -14 27 -21 19 -26 50 -10 60 17 11 11 54 -9 65 -20
10 -54 13 -62 5z"/>
<path d="M2799 3439 c-6 -13 -9 -44 -6 -73 2 -28 2 -43 0 -33 -2 9 -8 17 -11
17 -4 0 -6 19 -5 43 2 29 -7 8 -27 -68 -24 -89 -77 -311 -84 -349 -1 -11 54
-44 76 -45 12 -1 19 11 23 43 4 26 14 47 22 50 11 4 12 10 5 19 -6 7 -6 21 -1
35 7 19 12 21 28 12 27 -14 36 -13 22 4 -6 7 -14 33 -17 57 -4 24 -10 54 -15
67 -5 13 -9 35 -8 50 0 27 0 27 11 5 6 -13 15 -23 20 -23 4 0 8 -6 8 -13 0 -8
9 -22 19 -31 11 -10 23 -31 26 -47 4 -16 11 -32 17 -35 5 -4 16 -22 24 -40 16
-38 34 -45 34 -14 0 11 -4 20 -9 20 -5 0 -12 17 -16 38 -4 20 -10 42 -15 47
-4 6 -15 37 -24 70 -9 33 -21 74 -26 90 -4 17 -11 47 -14 67 -9 48 -40 68 -57
37z"/>
<path d="M1580 3095 c-25 -8 -74 -25 -110 -38 -66 -25 -213 -51 -283 -50 -35
1 -42 -4 -100 -75 -34 -42 -62 -79 -63 -82 -1 -10 -210 -218 -254 -252 -25
-20 -55 -39 -67 -42 -11 -4 -24 -13 -27 -21 -8 -21 0 -19 38 10 17 13 57 35
87 48 36 17 69 42 101 78 25 30 55 65 66 77 12 13 25 21 31 18 5 -4 24 21 42
54 48 90 57 81 28 -30 -5 -19 -9 -46 -9 -60 l0 -25 20 25 c11 14 20 34 20 45
0 17 2 18 10 5 8 -11 9 -9 5 10 -8 35 34 83 104 117 51 25 65 27 161 26 65 -1
106 -6 108 -12 2 -7 42 -11 108 -11 99 0 105 -1 113 -22 4 -13 2 -88 -5 -168
-14 -158 -15 -166 -32 -226 -9 -32 -11 -209 -2 -209 1 0 3 -10 6 -22 2 -13 -1
-23 -6 -23 -12 0 -42 -70 -36 -86 2 -6 0 -16 -6 -22 -12 -12 -1 -35 12 -27 13
8 20 -25 15 -74 -6 -54 -8 -57 -31 -34 -9 10 -20 16 -23 13 -3 -3 -10 5 -16
18 -14 31 -20 28 -41 -20 l-18 -43 -4 40 c-2 22 1 41 7 43 13 4 15 82 2 82 -6
0 -11 -15 -13 -32 l-4 -33 -13 28 c-20 38 -45 36 -36 -3 5 -21 2 -32 -7 -35
-9 -4 -14 -37 -16 -123 -2 -64 -8 -118 -13 -120 -5 -2 -9 -14 -9 -27 0 -14 -9
-29 -20 -35 -15 -8 -20 -21 -20 -53 0 -30 -5 -45 -18 -54 -40 -25 -53 -76 -55
-222 -1 -77 1 -142 5 -146 3 -4 18 1 32 10 21 14 26 14 27 4 0 -8 2 -21 4 -29
2 -12 -5 -15 -29 -12 -23 2 -34 -2 -44 -17 -10 -17 -10 -21 0 -21 10 0 9 -3
-1 -9 -10 -7 -6 -10 15 -15 16 -3 38 -5 49 -3 18 2 21 -5 25 -58 7 -80 19 -58
21 38 1 45 6 77 12 77 6 0 2 9 -7 19 -17 18 -16 20 3 26 12 3 21 11 21 17 0 6
17 8 43 6 26 -3 57 2 84 13 31 13 50 16 72 9 54 -15 128 22 118 59 -3 12 -2
21 2 21 4 0 13 21 20 48 19 69 43 136 53 147 4 5 8 25 8 45 0 20 4 40 9 45 10
11 34 93 59 200 9 39 18 72 21 75 11 10 54 116 72 180 11 35 19 88 19 116 0
28 3 54 8 58 4 4 8 20 8 34 4 58 3 57 17 43 9 -9 12 -122 14 -484 1 -260 5
-504 9 -543 5 -56 3 -79 -9 -103 -15 -29 -14 -31 3 -31 10 0 30 4 44 10 15 5
66 15 115 21 49 6 94 14 100 18 17 11 -62 476 -147 861 -42 190 -47 228 -46
328 1 62 4 115 7 119 4 3 22 -8 42 -26 20 -17 40 -31 44 -31 5 0 28 16 51 35
46 38 46 48 0 14 -27 -20 -30 -21 -45 -5 -9 9 -21 17 -26 17 -5 1 -13 2 -18 3
-5 0 -48 42 -96 91 -88 93 -136 158 -202 280 l-38 70 -63 7 c-38 4 -81 17
-109 32 -25 15 -48 26 -52 25 -3 0 -26 -7 -51 -14z"/>
<path d="M4316 3037 c2 -18 9 -72 14 -121 11 -101 29 -216 35 -225 2 -4 11
-69 20 -146 21 -181 42 -285 62 -307 11 -12 14 -27 9 -48 -3 -17 2 -66 11
-108 14 -62 19 -72 24 -52 6 20 7 16 9 -20 2 -28 4 -36 7 -21 4 19 7 21 14 10
6 -10 9 -5 9 17 0 16 -6 38 -12 47 -10 13 -11 43 -7 110 7 106 1 189 -15 199
-7 5 -7 8 2 8 10 0 12 8 6 33 -4 17 -8 52 -9 77 -8 150 -33 327 -46 336 -5 3
-9 17 -9 32 0 15 -4 34 -10 42 -6 9 -5 20 3 29 8 10 8 12 1 8 -14 -8 -55 29
-74 68 -8 16 -23 37 -32 47 -16 16 -17 15 -12 -15z"/>
<path d="M1099 1918 c-7 -16 -15 -28 -19 -28 -4 0 -10 -8 -14 -17 -7 -24 -24
-47 -64 -91 -17 -20 -58 -72 -90 -115 -31 -43 -70 -92 -86 -107 -18 -18 -27
-34 -23 -44 9 -22 49 -20 76 3 13 11 26 21 30 23 3 2 24 26 46 53 22 28 46 54
53 58 6 4 12 16 12 27 0 10 3 20 8 22 15 6 72 87 72 102 0 8 4 17 9 20 20 13
28 61 15 91 l-12 30 -13 -27z"/>
<path d="M858 1906 c-10 -10 -18 -23 -18 -30 0 -7 -9 -21 -20 -31 -11 -10 -20
-24 -20 -30 0 -7 -7 -15 -15 -19 -8 -3 -15 -17 -15 -31 0 -14 -4 -33 -9 -43
-6 -9 -16 -31 -24 -48 -13 -29 -13 -31 3 -27 32 8 90 72 116 127 19 39 24 66
22 102 -3 46 -4 47 -20 30z"/>
</g>
</svg>
